<svg width="280" height="280" viewBox="0 0 80 80" fill="none" xmlns="http://www.w3.org/2000/svg">
<path fill-rule="evenodd" clip-rule="evenodd" d="M48.2558 68.388C43.0371 69.9339 38.2402 70.0762 32.9246 68.7817C27.6176 67.5158 23.3985 65.2105 19.4616 61.4493C15.4962 57.6967 12.9737 53.579 11.4281 48.3611C9.87395 43.1145 9.75536 38.3159 11.0287 32.9802C12.2819 27.6817 14.5648 23.4504 18.3262 19.4983C22.0877 15.5463 26.1797 13.0244 31.3984 11.4785C36.6171 9.93269 41.4225 9.81906 46.7295 11.0849C52.0366 12.3507 56.2557 14.6561 60.2211 18.4088C64.1664 22.1986 66.6805 26.2876 68.2346 31.5342C69.7802 36.7521 69.9073 41.5794 68.654 46.8779C67.3722 52.1848 65.0894 56.4162 61.3279 60.3682C57.5749 64.349 53.4744 66.8422 48.2558 68.388Z" fill="white"/>
<path fill-rule="evenodd" clip-rule="evenodd" d="M10.7521 46.3852C10.2044 43.8032 9.87632 41.1249 10.044 38.5492C9.93062 36.8052 10.5181 35.2278 10.6868 33.4938C11.17 31.3549 11.8982 29.2057 12.7745 27.1374C13.8352 25.4822 14.5858 23.5135 15.9541 21.9543C16.3947 21.1377 17.1938 20.5892 17.5773 19.7895C18.8449 18.7279 19.6853 17.4811 21.1433 16.6438C22.3314 15.4186 23.9205 14.6049 25.4186 13.6933C28.2692 12.007 31.6197 11.1704 34.8646 10.3964C37.0228 10.0377 39.1919 9.92538 41.3064 10.0475C42.623 10.0941 43.851 10.2605 45.096 10.4842C47.6601 10.9721 50.2805 11.7552 52.7347 13.0241C54.0392 13.4485 55.1373 14.433 56.3216 15.0801C57.9409 16.2533 59.5772 17.4838 60.8883 18.873C61.8669 19.7682 62.5888 20.7393 63.4218 21.7712C64.5642 23.4287 65.7836 25.0321 66.5122 26.9681C67.9888 29.6493 68.7579 32.6647 69.2819 35.6904C69.5312 37.8931 69.7033 40.1498 69.5023 42.2988C69.3572 43.5892 69.2577 44.9284 68.993 46.1295C68.669 47.1299 68.5415 48.1656 68.1834 49.0513C67.6961 50.443 67.1943 51.995 66.4163 53.3481C65.5753 54.907 64.7112 56.5975 63.6996 57.8951C62.3507 59.7292 60.6912 61.5617 58.8472 62.9811C57.7307 64.0291 56.3467 64.9069 54.9742 65.7188C52.8396 67.0996 50.378 68.1094 47.8715 68.7583C44.9512 69.6857 41.8556 69.9166 38.9001 69.8876C37.4925 69.7433 36.0788 69.7878 34.7373 69.3432C33.2442 69.2241 31.8056 68.8706 30.3646 68.2995C28.4619 67.7404 26.839 66.9738 25.1881 65.9035C23.1865 64.906 21.2772 63.3821 19.6216 61.8767C18.7995 61.0911 17.7978 60.3275 17.2099 59.2854C16.0894 58.1204 15.0319 56.7496 14.2827 55.1628C12.8048 53.1057 12.046 50.6486 11.2671 48.2286C11.0887 47.6265 10.9019 46.9958 10.7521 46.3852ZM13.3043 51.3362C14.1955 53.1928 16.3864 53.5729 17.9917 54.5943C20.0108 56.8029 20.8113 54.1645 21.4618 52.3814C22.1257 51.062 22.9413 49.4171 23.4856 48.0085C22.2481 44.0403 21.2103 40.0129 19.8017 36.0954C18.1326 35.5919 15.0773 32.817 13.837 34.4942C12.9559 36.1274 12.2962 38.1939 11.4236 39.8557C10.5091 42.5279 11.5919 45.4504 12.2306 48.1303C12.5733 49.1826 12.7905 50.3345 13.3043 51.3362ZM15.0248 54.6311C15.9135 56.2702 17.099 57.759 18.2875 59.1533C19.1266 59.9962 19.9996 60.9539 20.9072 61.7141C21.7548 62.5857 22.734 63.1689 23.7357 63.9325C25.6117 65.0296 28.1186 67.0001 30.1396 66.8069C30.7793 64.7775 29.1587 64.2284 27.8501 63.0568C26.3303 62.0101 24.7995 60.7171 23.3908 59.7311C22.0675 58.7197 20.4968 57.501 19.054 56.4002C17.5591 55.7516 16.2443 54.7689 14.7263 54.2518L14.7433 54.3091L15.0248 54.6311ZM11.2429 37.5703C12.2496 35.8376 13.0058 33.992 13.4828 32.0419C14.3633 30.7208 14.8858 28.8197 15.4471 27.4684C16.1856 25.8774 17.0097 24.2612 17.4691 22.5658C15.928 22.1803 15.0092 25.571 14.0007 26.7741C13.1251 28.5304 12.3999 30.5851 11.9544 32.4323C11.6012 33.7532 11.2589 35.3203 11.1848 36.7456C11.1301 36.98 10.8498 37.4997 11.2429 37.5703ZM24.8253 47.9235C26.1328 48.2534 27.6854 48.5732 28.9414 49.0432C30.2719 49.2415 31.4793 49.7571 32.7613 50.0011C34.3218 50.6615 36.0765 51.1397 36.9952 49.2147C38.4266 47.4497 39.9066 45.6392 41.466 43.9922C42.4806 42.6002 44.4811 41.2904 43.1628 39.2484C42.1085 36.3174 41.8326 33.187 40.7298 30.3016C39.3944 29.6681 38.0978 29.5844 36.7478 29.1111C35.4512 29.0273 34.1868 28.5287 32.7652 28.2325C31.2636 28.0848 29.7268 26.9808 28.2147 27.7405C27.0436 29.023 25.8756 30.211 24.659 31.4445C23.6104 32.7219 22.3999 33.7665 21.3344 34.9865C20.4442 36.903 22.4396 39.5552 22.6718 41.7006C23.2918 43.7935 23.9117 45.8864 24.5401 48.008L24.8253 47.9235ZM31.469 67.6294C33.0556 68.0638 34.5311 68.4375 36.1153 68.6543C37.6995 68.8711 39.4578 68.9428 41.0881 68.8965C44.5654 68.8021 47.9874 67.7884 51.276 66.5336C53.129 66.2966 50.4694 62.3442 50.8722 63.2852C49.5422 62.7748 47.9574 62.87 46.5243 62.6396C45.0627 62.4177 43.561 62.27 42.0509 62.0936C40.3611 61.9392 38.4129 61.3313 36.8402 62.5144C35.1588 63.8544 30.8243 63.6727 31.2803 66.469C31.3082 66.7726 30.9447 67.5352 31.469 67.6294ZM18.3969 21.8232C21.0527 20.6312 23.5634 19.2637 26.2362 18.129C27.3581 17.2041 28.6166 16.4259 29.7015 15.4809C30.6462 14.7956 31.4654 14.2099 32.3761 13.41C33.509 12.7314 36.3832 10.6014 33.2002 11.7938C30.4741 12.5389 27.7194 13.2925 25.3366 14.7779C23.9356 15.5983 22.5316 16.5132 21.3951 17.5983C20.4418 18.2549 19.5936 19.1611 18.8424 19.9761C18.3399 20.3744 17.326 21.4544 18.3969 21.8232ZM39.4517 60.6493C41.1694 61.1073 43.0017 61.2194 44.7485 61.3569C46.4152 61.6428 48.1049 61.7972 49.7832 62.0173C51.0931 62.5649 51.6113 61.3822 52.405 60.7106C53.0081 59.8146 53.8874 59.1176 54.536 58.2706C55.3728 57.4302 56.2326 56.4582 57.0153 55.5403C57.7465 54.7624 58.6688 53.8967 59.2404 53.1036C58.1983 49.7948 57.3642 46.4556 56.188 43.2177C54.8326 42.6212 53.1198 42.5985 51.6035 42.611C49.8258 42.2644 47.8848 42.3092 46.1326 42.0486C44.1189 41.4288 43.137 43.5596 42.0229 44.8252C40.7262 46.2072 39.7633 47.4592 38.5321 48.853C36.1378 50.4042 36.384 52.7014 37.5221 55.0774C38.1681 56.9443 38.566 58.9158 39.4517 60.6493ZM29.7705 26.5C31.5112 26.8264 33.0948 27.3553 34.77 27.6699C36.6247 27.9625 38.2022 28.6803 40.0315 28.8868C41.666 29.5877 42.7674 27.5463 44.1253 26.8946C45.8461 25.7923 47.3279 24.5114 49.0571 23.4378C50.4745 22.9868 49.5936 21.6885 49.3449 20.6395C48.6309 18.5432 48.3107 16.2056 47.1659 14.3306C45.8469 14.0664 44.6844 13.9118 43.4285 13.4418C41.9924 13.3059 40.6709 12.8241 39.3319 12.597C38.1894 12.4053 36.891 11.792 35.6933 12.1468C34.4427 13.2656 32.9592 14.0169 31.7626 15.2134C30.5527 15.946 29.7244 16.815 28.4745 17.6219C26.673 19.1846 28.9268 22.2904 28.8654 24.4916C29.1893 24.957 29.0861 26.7028 29.7705 26.5ZM51.1705 22.7183C52.1345 23.7737 53.1817 24.5862 54.1657 25.6045C54.9338 26.3125 55.8275 26.921 56.4384 27.8315C57.3097 28.2595 57.9491 29.1616 58.7372 29.8325C59.8056 31.4495 61.996 30.676 63.6609 30.4323C66.359 30.8493 65.9436 27.6667 65.0263 26.0361C64.3257 24.4037 63.0571 23.1578 62.2193 21.6908C61.1126 20.6776 60.1632 19.462 59.1221 18.4606C58.3934 17.9904 57.7394 17.2485 57.0593 16.7327C55.1433 15.7098 53.0532 13.3663 50.7864 13.8818C49.1931 13.9484 47.7733 14.1818 48.8841 15.9422C49.6206 18.2189 50.2144 20.5378 51.1705 22.7183ZM60.3417 52.5279C62.5545 51.9348 65.7096 51.9046 66.487 49.3978C67.2868 47.0715 68.6309 44.8022 68.5049 42.2824C68.5912 40.4793 68.726 38.6306 68.4076 36.8226C68.1777 34.8948 66.9414 31.7683 65.2353 31.2445C63.5328 31.78 60.1915 30.8674 59.7685 32.895C59.5554 33.9561 59.0949 34.8098 58.9589 35.8168C58.6773 36.9605 58.2616 38.1751 58 39.2817C57.5551 40.8168 56.654 42.4871 57.5798 44.1464C58.4976 46.9307 59.1672 49.8197 60.3417 52.5279Z" fill="black"/>
</svg>
