<svg width="280" height="280" viewBox="0 0 80 80" fill="none" xmlns="http://www.w3.org/2000/svg">
<circle cx="40" cy="40" r="30" fill="#FF4141"/>
<path d="M13.3907 28.2494L19.2803 30.9934M19.2803 30.9934C20.7973 29.2979 24.8754 25.492 29.0516 23.8322M19.2803 30.9934C18.5307 33.4563 18.7449 39.9616 18.9457 42.9063C20.659 44.7803 26.3968 47.7027 29.0516 48.9297M29.0516 23.8322L39.2914 29.7218M29.0516 23.8322C30.9791 18.6923 32.9333 16.2472 33.6695 15.6672M39.2914 29.7218V42.304M39.2914 29.7218L49.8658 23.8322M39.2914 42.304L29.0516 48.9297M39.2914 42.304L49.8658 49.599M29.0516 48.9297C29.4755 50.6475 30.8051 55.1941 32.7326 59.638M18.9457 43.174C17.5625 44.111 14.2608 46.5739 12.1191 48.9297M32.7326 59.638C34.7404 59.928 40.1614 60.334 45.7833 59.638M32.7326 59.638C32.1302 60.7311 30.0421 63.5465 26.5084 66.063M45.7833 59.638C46.8318 57.6079 49.1162 52.7579 49.8658 49.599M45.7833 59.638C47.0326 61.2219 50.5618 64.6174 54.6845 65.5276M49.8658 49.599C52.119 48.5282 57.2679 45.744 59.8379 43.174M59.8379 43.174C60.2617 40.3631 60.8552 34.1523 59.8379 31.7965M59.8379 43.174C62.0018 44.4233 66.5172 47.6715 67.2667 50.6698M59.8379 31.7965C58.2539 29.9672 54.042 25.8133 49.8658 23.8322M59.8379 31.7965C61.578 30.7926 65.1251 29.347 67.2667 29.7218M49.8658 23.8322L46.051 15.6672M46.051 15.6672C43.2624 15.0648 36.882 14.2216 33.6695 15.6672M46.051 15.6672C47.0549 14.641 50.0532 12.8964 54.0153 14.1279M33.6695 15.6672C32.911 14.9756 30.7248 13.5255 28.0477 13.2578" stroke="black" stroke-width="0.792453" stroke-linecap="round" stroke-linejoin="round"/>
<path d="M70 40C70 56.5685 56.5685 70 40 70C23.4315 70 10 56.5685 10 40C10 23.4315 23.4315 10 40 10C56.5685 10 70 23.4315 70 40ZM11.0389 40C11.0389 55.9948 24.0052 68.9611 40 68.9611C55.9948 68.9611 68.9611 55.9948 68.9611 40C68.9611 24.0052 55.9948 11.0389 40 11.0389C24.0052 11.0389 11.0389 24.0052 11.0389 40Z" fill="black"/>
</svg>
