<svg width="290" height="719" viewBox="0 0 148 419" fill="none" xmlns="http://www.w3.org/2000/svg">
<g clip-path="url(#clip0)">
<path fill-rule="evenodd" clip-rule="evenodd" d="M55.5343 417.846H51.0762V361.219H59.9923V417.846H55.5343Z" fill="#FFFF64"/>
<path fill-rule="evenodd" clip-rule="evenodd" d="M55.5343 417.846H51.0762V361.219H59.9923V417.846H55.5343Z" stroke="#333333" stroke-width="1.89706" stroke-linejoin="round"/>
<path fill-rule="evenodd" clip-rule="evenodd" d="M88.3634 417.846H83.9053V361.219H92.8214V417.846H88.3634Z" fill="#FFFF64"/>
<path fill-rule="evenodd" clip-rule="evenodd" d="M88.3634 417.846H83.9053V361.219H92.8214V417.846H88.3634Z" stroke="#333333" stroke-width="1.89706" stroke-linejoin="round"/>
<path fill-rule="evenodd" clip-rule="evenodd" d="M45.869 362.156C27.5624 362.346 32.1153 297.941 27.2778 269.295C22.4403 240.65 6.9793 185.256 5.46165 160.12C3.28004 138.493 -1.46261 115.824 5.93592 95.0508C11.5322 79.2104 38.091 75.4163 36.5734 56.7303C35.0557 37.9494 45.869 1.14648 67.8748 1.14648C89.9755 1.14648 100.504 42.5972 100.03 56.7303C99.6505 70.8633 128.106 79.2104 132.944 95.5251C137.781 111.84 136.643 137.829 131.426 160.31C126.684 180.608 115.776 235.812 111.792 269.77C107.808 303.727 113.12 361.682 100.314 361.682C87.5094 361.682 64.1756 361.872 45.869 362.156Z" fill="#FFFF64"/>
<path fill-rule="evenodd" clip-rule="evenodd" d="M45.869 362.156C27.5624 362.346 32.1153 297.941 27.2778 269.295C22.4403 240.65 6.9793 185.256 5.46165 160.12C3.28004 138.493 -1.46261 115.824 5.93592 95.0508C11.5322 79.2104 38.091 75.4163 36.5734 56.7303C35.0557 37.9494 45.869 1.14648 67.8748 1.14648C89.9755 1.14648 100.504 42.5972 100.03 56.7303C99.6505 70.8633 128.106 79.2104 132.944 95.5251C137.781 111.84 136.643 137.829 131.426 160.31C126.684 180.608 115.776 235.812 111.792 269.77C107.808 303.727 113.12 361.682 100.314 361.682C87.5094 361.682 64.1756 361.872 45.869 362.156Z" stroke="#333333" stroke-width="1.89706"/>
</g>
<defs>
<clipPath id="clip0">
<rect width="136.209" height="418.68" fill="white" transform="translate(0.907227 0.201172)"/>
</clipPath>
</defs>
</svg>
