<svg width="15" height="44" viewBox="0 0 155 444" fill="none" xmlns="http://www.w3.org/2000/svg">
<path d="M39.0402 401.549C38.3131 401.267 35.5087 401.127 32.8084 401.239C28.6036 401.413 27.9211 401.325 28.0553 400.628C28.1826 399.967 29.1575 399.805 33.2295 399.767C35.9891 399.742 38.6534 399.54 39.1503 399.318C39.8443 399.009 40.1347 399.239 40.4036 400.31C40.8401 402.049 40.6878 402.187 39.0402 401.549V401.549ZM114.67 401.232C114.687 399.381 115.35 399.041 117.848 399.604C119.15 399.898 121.755 400.063 123.637 399.971C126.402 399.837 127.091 399.963 127.226 400.63C127.37 401.341 126.74 401.423 122.647 401.227C120 401.101 117.184 401.251 116.281 401.565C114.888 402.051 114.663 402.004 114.67 401.232V401.232Z" fill="#F6F6F6"/>
<path d="M25.1417 431.777C22.3548 431.084 20.1323 429.856 19.4897 428.655C18.559 426.916 18.9641 422.735 20.5173 418.049L22.0074 413.554L22.0686 416.727C22.1534 421.125 22.6701 423.915 23.325 423.51C23.6338 423.319 23.7082 423.433 23.4974 423.774C22.8934 424.751 24.089 426.357 25.8876 426.984C28.1396 427.769 35.2857 427.713 36.8962 426.898C39.023 425.822 40.0935 423.299 40.6861 417.967C41.3589 411.914 42.5208 408.002 43.6456 408.002C44.3102 408.002 44.3975 408.418 44.1099 410.216C43.9152 411.434 43.3733 413.236 42.9058 414.221C42.156 415.801 42.1315 416.72 42.6978 422.021C43.4138 428.722 43.1045 429.879 40.2229 431.283C38.4592 432.143 27.9872 432.486 25.1417 431.777V431.777ZM115.985 431.551C114.821 431.114 113.837 430.754 113.798 430.749C113.759 430.745 113.327 430.131 112.838 429.385C112.037 428.163 112.013 427.436 112.592 422.021C113.158 416.72 113.133 415.801 112.384 414.221C111.916 413.236 111.374 411.434 111.18 410.216C110.892 408.418 110.979 408.002 111.644 408.002C112.769 408.002 113.931 411.914 114.603 417.967C115.494 425.981 116.98 427.547 123.706 427.56C131.224 427.575 132.539 426.287 133.097 418.36L133.436 413.554L134.89 418.364C136.425 423.441 136.722 426.932 135.77 428.71C135.455 429.3 134.086 430.28 132.73 430.888C129.453 432.355 119.208 432.761 115.985 431.551V431.551ZM35.8235 425.234C35.7023 425.114 33.3339 424.94 30.5604 424.847C26.5471 424.712 25.4927 424.514 25.3953 423.876C25.3279 423.434 25.1815 419.341 25.0699 414.778C24.9582 410.216 24.732 406.265 24.5671 405.999C24.4022 405.732 25.5124 404.883 27.0343 404.113C29.3229 402.955 30.5144 402.714 33.9269 402.714C38.5381 402.714 39.7391 403.15 40.8246 405.222C41.4677 406.449 41.4671 406.722 40.8206 407.195C39.8775 407.884 38.5261 412.868 38.5178 415.687C38.5138 416.859 38.1376 419.12 37.6807 420.711C37.2237 422.301 36.8158 424.019 36.7741 424.528C36.702 425.409 36.3004 425.708 35.8233 425.234H35.8235ZM36.3964 417.256C36.3964 416.613 35.5444 416.463 31.9014 416.463C28.2584 416.463 27.4063 416.613 27.4063 417.256C27.4063 417.899 28.2584 418.049 31.9014 418.049C35.5444 418.049 36.3964 417.899 36.3964 417.256ZM36.9252 411.892C36.9252 410.98 35.592 410.645 31.9903 410.654C28.7176 410.662 27.0269 411.191 27.5525 412.041C27.9938 412.755 36.9252 412.613 36.9252 411.892ZM33.5311 407.473C37.1357 407.473 37.9829 407.322 37.9829 406.68C37.9829 406.037 37.1357 405.886 33.5311 405.886C28.5691 405.886 27.4063 406.159 27.4063 407.322C27.4063 407.828 27.7092 407.999 28.2429 407.794C28.7029 407.617 31.0827 407.473 33.5311 407.473V407.473ZM118.515 424.527C118.473 424.018 118.066 422.301 117.609 420.711C117.152 419.12 116.775 416.859 116.771 415.687C116.763 412.868 115.412 407.884 114.469 407.195C113.822 406.722 113.822 406.449 114.464 405.222C115.545 403.159 116.75 402.714 121.254 402.714C125.257 402.714 128.02 403.456 129.492 404.928C130.421 405.858 130.821 416.683 130.088 421.09C129.813 422.743 129.821 423.866 130.107 423.866C130.372 423.866 130.478 424.045 130.343 424.263C130.208 424.481 127.874 424.732 125.156 424.819C122.438 424.907 119.848 425.086 119.401 425.216C118.905 425.36 118.56 425.092 118.514 424.527H118.515ZM127.883 417.256C127.883 416.613 127.031 416.463 123.388 416.463C119.745 416.463 118.893 416.613 118.893 417.256C118.893 417.899 119.745 418.049 123.388 418.049C127.031 418.049 127.883 417.899 127.883 417.256ZM127.756 412.006C128.488 411.275 126.469 410.662 123.299 410.654C119.698 410.645 118.364 410.98 118.364 411.892C118.364 412.553 127.104 412.659 127.756 412.006ZM127.883 407.265C127.883 406.161 126.662 405.886 121.758 405.886C118.205 405.886 117.307 406.042 117.307 406.66C117.307 407.27 118.338 407.47 122.198 407.608C124.889 407.704 127.268 407.832 127.487 407.892C127.705 407.952 127.883 407.67 127.883 407.265V407.265ZM42.2552 403.991C42.2806 403.375 42.4059 403.25 42.5747 403.672C42.7275 404.054 42.7087 404.51 42.533 404.686C42.3572 404.861 42.2323 404.549 42.2552 403.991H42.2552ZM112.589 403.991C112.614 403.375 112.74 403.25 112.908 403.672C113.061 404.054 113.042 404.51 112.867 404.686C112.691 404.861 112.566 404.549 112.589 403.991H112.589ZM25.2991 402.877C25.3035 402.642 25.5379 402.092 25.8199 401.656C26.2616 400.972 26.3336 400.986 26.3406 401.757C26.345 402.249 26.1107 402.798 25.8199 402.978C25.529 403.158 25.2947 403.112 25.2991 402.877ZM129.293 402.89C129.099 402.696 128.948 402.16 128.957 401.7C128.97 401.012 129.073 401.035 129.534 401.828C130.104 402.807 129.938 403.535 129.293 402.89Z" fill="#ffffff"/>
<path d="M29.0312 397.947C27.7432 397.676 26.4954 397.261 26.2582 397.024C26.021 396.786 25.6684 395.075 25.4745 393.221C25.1419 390.038 25.1786 389.875 26.1323 390.293C27.7222 390.989 39.1491 391.252 41.3545 390.643L43.341 390.094L42.9816 391.78C42.2845 395.05 41.2255 396.903 39.7275 397.475C37.6386 398.273 31.8043 398.53 29.0312 397.947V397.947ZM116.778 397.786C114.253 397.13 113.07 395.544 112.296 391.78L111.949 390.094L113.936 390.643C116.141 391.252 127.568 390.989 129.158 390.293C130.112 389.875 130.148 390.038 129.816 393.221C129.622 395.075 129.278 396.778 129.051 397.004C128.479 397.577 123.378 398.498 121.069 398.447C120.018 398.424 118.087 398.126 116.778 397.786V397.786ZM27.49 388.973C26.5178 388.743 25.4941 388.327 25.2152 388.048C24.9362 387.769 24.3127 385.186 23.8296 382.307C23.1244 378.105 22.9488 373.265 22.9395 357.77C22.9284 339.102 22.9788 338.129 24.4756 328.156C26.01 317.932 26.0237 317.63 26.0771 292.989C26.1069 279.319 26.3341 265.576 26.5824 262.449L27.0337 256.765H28.7819C30.2544 256.765 30.6663 256.477 31.3937 254.945C32.4744 252.667 32.0589 251.284 29.994 250.284C28.7632 249.688 28.5809 249.429 29.2181 249.185C30.4088 248.728 30.2459 247.442 28.8756 246.482L27.7003 245.659H29.0342C29.7679 245.659 30.6538 245.374 31.0028 245.025C32.1696 243.858 31.5893 239.394 29.6972 234.981C28.968 233.28 28.94 232.263 29.4798 227.108C29.8207 223.853 30.948 217.949 31.985 213.99C33.022 210.03 34.3448 204.53 34.9247 201.767C35.5046 199.004 36.0227 196.694 36.0759 196.635C36.1291 196.575 37.9484 196.99 40.1187 197.556C53.1524 200.958 72.0571 204.411 77.6452 204.411C83.2332 204.411 102.138 200.958 115.172 197.556C117.342 196.99 119.161 196.575 119.214 196.635C119.268 196.694 119.786 199.004 120.366 201.767C120.945 204.53 122.268 210.03 123.305 213.99C124.342 217.949 125.47 223.853 125.811 227.108C126.35 232.263 126.322 233.28 125.593 234.981C123.701 239.394 123.121 243.858 124.288 245.025C124.637 245.374 125.522 245.659 126.256 245.659H127.59L126.415 246.482C125.044 247.442 124.881 248.728 126.072 249.185C126.709 249.429 126.527 249.688 125.296 250.284C123.231 251.284 122.816 252.667 123.897 254.945C124.624 256.477 125.036 256.765 126.508 256.765H128.257L128.708 262.449C128.956 265.576 129.184 279.319 129.213 292.989C129.267 317.63 129.28 317.932 130.815 328.156C132.312 338.129 132.362 339.102 132.351 357.77C132.341 373.265 132.166 378.105 131.461 382.307C130.978 385.186 130.361 387.762 130.091 388.033C129.185 388.939 125.546 389.474 120.216 389.486C113.392 389.501 111.557 388.699 110.57 385.269C109.714 382.292 105.689 360.71 103.568 347.722C102.689 342.342 101.395 334.727 100.693 330.8C99.9906 326.874 99.0199 320.21 98.5359 315.993C98.0519 311.776 96.8661 305.231 95.9007 301.45C94.9353 297.669 93.6322 292.196 93.0048 289.287C92.3774 286.379 90.812 280.072 89.5261 275.273C88.2401 270.474 86.3562 262.571 85.3395 257.71C84.3228 252.85 82.8644 246.425 82.0987 243.432C81.3329 240.44 80.5531 235.731 80.3657 232.967L80.0249 227.944H77.6452H75.2654L74.9247 232.967C74.7373 235.731 73.9574 240.44 73.1916 243.432C72.4259 246.425 70.9675 252.85 69.9508 257.71C68.9341 262.571 67.0502 270.474 65.7642 275.273C64.4783 280.072 62.9129 286.379 62.2855 289.287C61.6582 292.196 60.355 297.669 59.3896 301.45C58.4242 305.231 57.2384 311.776 56.7544 315.993C56.2704 320.21 55.2997 326.874 54.5974 330.8C53.895 334.727 52.6012 342.342 51.7223 347.722C49.6009 360.71 45.5759 382.292 44.7199 385.269C43.7176 388.755 41.9187 389.513 34.8103 389.445C31.7564 389.415 28.4622 389.203 27.49 388.973Z" fill="#1D356C"/>
<path d="M26.349 254.136C23.301 252.502 19.6962 248.341 18.7264 245.339C18.2472 243.855 17.5225 242.189 17.1159 241.637C16.4477 240.729 16.3442 240.717 16.0364 241.511C15.8491 241.993 16.0368 243.064 16.4532 243.89C16.8697 244.716 17.3805 246.106 17.5883 246.979C17.7961 247.851 18.4783 249.114 19.1044 249.785C20.0393 250.786 20.0755 250.94 19.307 250.645C18.7925 250.447 17.9026 249.366 17.3294 248.243C16.7562 247.119 15.5764 245.079 14.7078 243.71C13.8391 242.34 13.1283 240.79 13.1283 240.265C13.1283 239.74 12.8065 239.311 12.4132 239.311C11.6294 239.311 10.6173 228.309 10.506 218.58L10.4473 213.449L12.4489 212.947C13.5497 212.671 15.4508 212.327 16.6735 212.182L18.8967 211.919L19.2411 214.216C19.4389 215.535 20.5653 218.088 21.885 220.208C23.1496 222.24 24.9005 226.001 25.7758 228.566C26.6511 231.131 27.9649 234.895 28.6954 236.931C30.3684 241.594 30.4759 244.07 29.0053 244.07C27.734 244.07 26.6369 242.456 25.8314 239.401C25.0488 236.432 22.9713 232.744 21.9667 232.541C21.3368 232.413 21.1358 233.207 20.9626 236.507C20.6147 243.137 22.8075 248.36 27.4978 252.075C30.8053 254.694 30.0195 256.105 26.349 254.136V254.136ZM125.768 254.427C125.768 254.015 126.679 252.957 127.792 252.075C132.483 248.36 134.675 243.137 134.327 236.507C134.154 233.207 133.953 232.413 133.323 232.541C132.319 232.744 130.241 236.432 129.459 239.401C128.653 242.456 127.556 244.07 126.285 244.07C124.814 244.07 124.922 241.594 126.595 236.931C127.325 234.895 128.639 231.131 129.514 228.566C130.389 226.001 132.14 222.24 133.405 220.208C134.725 218.088 135.851 215.535 136.049 214.216L136.393 211.919L138.616 212.182C139.839 212.327 141.74 212.671 142.841 212.947L144.843 213.449L144.784 218.58C144.673 228.309 143.661 239.311 142.877 239.311C142.483 239.311 142.162 239.74 142.162 240.265C142.162 240.79 141.451 242.34 140.582 243.71C139.714 245.079 138.534 247.119 137.961 248.243C137.387 249.366 136.497 250.447 135.983 250.645C135.214 250.94 135.251 250.786 136.186 249.785C136.812 249.114 137.494 247.851 137.702 246.979C137.909 246.106 138.42 244.716 138.837 243.89C139.253 243.064 139.441 241.993 139.254 241.511C138.946 240.717 138.842 240.729 138.174 241.637C137.767 242.189 137.043 243.855 136.564 245.339C135.573 248.406 131.937 252.553 128.83 254.161C126.492 255.37 125.768 255.433 125.768 254.427ZM25.5558 247.772C25.1384 247.097 26.8906 247.097 27.9355 247.772C28.5559 248.173 28.4187 248.286 27.3056 248.293C26.523 248.297 25.7355 248.063 25.5558 247.772ZM127.354 247.772C128.399 247.097 130.152 247.097 129.734 247.772C129.554 248.063 128.767 248.297 127.984 248.293C126.871 248.286 126.734 248.173 127.354 247.772ZM74.8858 72.2306C70.043 70.3461 66.3398 66.9901 64.0412 62.4027C63.0954 60.515 63.0634 60.1267 63.724 58.5468L64.4586 56.7899L66.7881 59.3809C69.7364 62.6602 74.6062 65.3275 77.645 65.3275C80.6838 65.3275 85.5535 62.6602 88.5019 59.3809L90.8314 56.7899L91.5653 58.5468C92.2392 60.1598 92.1942 60.5138 91.0163 62.8715C89.3612 66.1844 85.7436 69.6795 82.255 71.3361C78.2633 73.2316 77.6497 73.3061 74.8858 72.2306V72.2306ZM73.15 62.3296C68.0076 59.606 65.2086 55.6692 63.6256 48.9339C62.588 44.5191 62.1009 43.6456 60.6765 43.6456C59.3174 43.6456 58.5536 41.9505 58.3331 38.4442L58.1447 35.4489L58.7282 38.5044C59.0492 40.1849 59.5464 41.4817 59.8333 41.3861C60.4994 41.164 61.7255 36.5442 61.7599 34.1268C61.803 31.0848 62.7771 28.4519 64.4946 26.7343C65.98 25.249 66.3827 25.123 69.3675 25.2099C71.157 25.2621 73.9649 25.1172 75.6072 24.888C77.8586 24.5738 79.2154 24.6832 81.1219 25.3328C82.5126 25.8067 85.2684 26.1944 87.2458 26.1944C92.0988 26.1944 91.9876 25.9923 94.4967 39.3716C95.0126 42.1229 96.1462 42.093 96.191 39.3269C96.2443 36.0423 97.1348 34.149 97.1445 37.2998C97.1552 40.7184 96.1428 43.3452 94.738 43.5452C93.1049 43.7777 92.716 44.4595 91.6644 48.9339C90.0674 55.7287 87.1926 59.7346 82.034 62.3531C79.8867 63.4431 75.2291 63.4308 73.15 62.3296V62.3296ZM83.972 52.8434C84.6364 52.2114 83.9605 52.1058 79.2126 52.0996C76.169 52.0954 73.1434 51.9489 72.4889 51.7735C71.5219 51.5144 71.2991 51.6701 71.2991 52.6052C71.2991 53.238 71.4776 53.6483 71.6957 53.5171C71.9138 53.3858 73.0442 53.4695 74.2076 53.7032C77.0653 54.277 83.0156 53.7531 83.972 52.8434ZM76.4404 47.5245C76.6809 46.8022 74.7374 46.0633 73.9223 46.5671C73.5383 46.8044 73.563 47.1537 74.0011 47.6816C74.7204 48.5483 76.1298 48.4576 76.4404 47.5245ZM81.3077 47.6589C81.735 47.144 81.7536 46.8057 81.3677 46.5671C80.5251 46.0464 78.7027 46.7852 78.7027 47.6475C78.7027 48.6225 80.5014 48.6304 81.3077 47.6589V47.6589ZM73.1067 37.5076C75.3313 36.6539 72.7807 34.6556 69.4666 34.6556C66.2818 34.6556 65.1371 35.6856 66.6454 37.194C67.3063 37.8548 71.6522 38.0657 73.1067 37.5076V37.5076ZM88.96 36.6237C89.4109 35.897 89.3632 35.5682 88.7503 35.1775C86.8899 33.9915 81.3467 35.0171 81.3467 36.5473C81.3467 37.5194 82.3229 37.781 85.5226 37.6664C87.6101 37.5916 88.5331 37.3116 88.96 36.6237ZM75.1783 33.7731C75.3728 33.5786 75.1376 32.9836 74.6556 32.451C73.4761 31.1477 65.482 30.9951 65.482 32.2759C65.482 32.9099 66.2718 33.0692 69.417 33.0692C71.5813 33.0692 73.499 33.3071 73.6788 33.598C74.0565 34.2092 74.6705 34.2809 75.1783 33.7731V33.7731ZM85.974 33.2142C88.8953 32.9874 89.808 32.7279 89.808 32.124C89.808 31.4615 89.1109 31.3793 85.558 31.6229C81.4336 31.9055 79.444 32.6583 80.084 33.694C80.2557 33.9717 80.7885 34.0443 81.2681 33.8554C81.7476 33.6665 83.8653 33.378 85.974 33.2142Z" fill="#ffccaa"/>
<path d="M58.6373 31.0701C57.9266 28.5316 57.2435 24.9521 57.1192 23.1156C56.9153 20.1023 57.0811 19.3965 58.8197 15.8787C61.8538 9.73968 67.7417 5.05176 73.7273 4.00942C78.0488 3.25686 79.9987 3.62411 85.4316 6.21395C90.4558 8.60899 93.2518 11.6008 95.1187 16.5792C96.4706 20.1843 96.5103 21.2344 95.5497 27.9711L94.8055 33.1894L94.1427 29.9806C93.2622 25.7173 91.9012 24.6037 87.5712 24.6037C85.8373 24.6037 83.099 24.22 81.4861 23.7511C79.4006 23.1449 77.6967 23.0057 75.5874 23.2692C73.9561 23.473 71.1834 23.6092 69.4258 23.5717C64.0116 23.4564 60.9998 26.3987 60.2978 32.4894L59.9293 35.6856L58.6373 31.0701Z" fill="#181818"/>
<path d="M8.58381 209.816C8.32446 208.086 8.42431 207.344 8.96101 207.011C11.1358 205.66 20.1292 204.915 20.8174 206.029C21.0088 206.339 21.0151 207.393 20.8313 208.373C20.5083 210.094 20.3964 210.165 17.4736 210.495C15.8107 210.684 13.2096 211.137 11.6933 211.503L8.93637 212.167L8.58371 209.816H8.58381ZM143.484 211.465C142.029 211.125 139.479 210.691 137.816 210.5C134.894 210.165 134.781 210.093 134.458 208.373C133.929 205.549 134.375 205.29 139.195 205.616C145.028 206.011 146.936 206.743 146.868 208.558C146.839 209.33 146.661 210.438 146.472 211.021C146.151 212.01 145.949 212.04 143.484 211.465V211.465ZM7.69573 202.689C7.56024 201.162 7.01983 191.941 6.49483 182.197C5.30101 160.041 5.6919 153.356 8.9293 140.568C11.6589 129.785 14.4767 114.477 15.8153 103.157C17.0302 92.8844 17.4434 90.777 18.9175 87.338C21.1386 82.1564 27.0061 76.3672 34.0013 72.4552C38.8211 69.7598 48.0807 66.3992 53.3071 65.4484C57.2422 64.7326 58.0555 64.3878 59.7182 62.7303L61.6225 60.832L62.5982 63.2117C63.9734 66.5662 68.4526 70.8576 72.6084 72.8023C75.6596 74.2301 76.0584 74.5893 76.0584 75.9093C76.0584 76.7302 76.2369 77.4812 76.455 77.5782C76.6731 77.6751 76.7821 105.895 76.6971 140.288L76.5424 202.822L75.3749 202.821C70.6223 202.821 40.802 196.609 36.074 194.634L34.4294 193.947L35.1081 190.055C37.5971 175.782 38.3731 168.626 39.258 151.79C39.7419 142.584 39.8356 135.594 39.5417 130.637C39.3002 126.565 39.0887 121.746 39.0716 119.928C39.049 117.499 38.8488 116.623 38.3169 116.623C37.7963 116.623 37.5165 117.699 37.3197 120.457C37.1185 123.278 35.9935 127.505 33.0617 136.454C27.6659 152.925 27.9244 151.795 27.3766 161.309C26.911 169.396 26.1645 175.05 22.905 195.174L21.4456 204.185L18.1772 203.976C16.222 203.852 13.5776 204.109 11.596 204.617C9.77407 205.084 8.20657 205.466 8.11273 205.466C8.01885 205.466 7.83121 204.216 7.69573 202.689V202.689ZM38.9751 111.986C39.2504 111.472 39.6421 110.163 39.8458 109.078C40.1262 107.583 40.0414 107.106 39.4961 107.111C38.7872 107.118 36.8582 112.149 37.3687 112.66C37.8747 113.166 38.4796 112.912 38.9751 111.986ZM143.484 204.584C142 204.163 139.303 203.908 137.341 204.002L133.842 204.17L132.384 195.167C129.125 175.051 128.379 169.395 127.913 161.309C127.365 151.795 127.624 152.925 122.228 136.454C119.296 127.505 118.171 123.278 117.97 120.457C117.773 117.699 117.493 116.623 116.973 116.623C116.441 116.623 116.241 117.499 116.218 119.928C116.201 121.746 115.989 126.565 115.748 130.637C115.454 135.594 115.548 142.584 116.032 151.79C116.917 168.626 117.693 175.782 120.182 190.055L120.86 193.947L119.216 194.634C114.294 196.69 84.6304 202.821 79.6056 202.821L78.1289 202.822L78.3357 140.552C78.4497 106.241 78.7566 77.3914 79.0192 76.2969C79.4435 74.528 79.8601 74.1385 82.8237 72.739C86.8551 70.8353 91.3421 66.5031 92.6915 63.2117L93.6672 60.832L95.5715 62.7303C97.2342 64.3878 98.0475 64.7326 101.983 65.4484C107.209 66.3992 116.469 69.7598 121.288 72.4552C125.626 74.8812 131.18 79.4512 133.53 82.5296C137.049 87.1385 138.582 92.8984 139.998 106.84C140.748 114.22 143.846 130.636 146.375 140.624C149.556 153.191 149.995 160.722 148.816 182.462C147.69 203.231 147.484 205.484 146.723 205.4C146.396 205.364 144.938 204.997 143.484 204.584ZM117.873 112.248C117.65 110.187 116.417 107.104 115.816 107.104C115.245 107.104 115.159 107.56 115.444 109.078C115.906 111.538 116.686 113.04 117.382 112.808C117.675 112.71 117.896 112.458 117.873 112.248V112.248Z" fill="#ffffff"/>
<path d="M24.3598 436.482C22.6065 436.146 21.7078 435.738 21.9296 435.379C22.1362 435.045 22.0339 434.963 21.6818 435.18C20.6402 435.824 19.1034 434.553 18.2033 432.304C16.4194 427.845 17.345 420.372 20.5916 413.018C21.1075 411.85 21.7882 409.232 22.1044 407.201C22.4206 405.17 23.2242 402.391 23.89 401.025C24.5559 399.659 24.9361 398.231 24.7349 397.852C24.418 397.255 22.2382 381.807 21.3442 373.823C20.8514 369.423 21.0492 342.467 21.6017 338.727C21.8809 336.837 22.2108 334.219 22.3346 332.91C22.4586 331.601 22.9959 327.556 23.5288 323.92C24.3565 318.273 24.4751 314.534 24.3425 298.272C24.2224 283.534 24.8623 259.816 25.4817 256.047C25.5222 255.8 24.0086 254.783 22.118 253.785C15.1084 250.088 14.3203 249.429 12.1546 245.451C10.253 241.957 10.0785 241.271 9.71896 235.871C9.50602 232.671 9.22745 226.738 9.10002 222.687C8.97258 218.635 8.64932 215.056 8.38168 214.734C6.95643 213.016 5.66665 200.643 4.63147 178.758C3.70882 159.251 4.22258 152.733 7.82316 138.267C10.2064 128.691 12.7629 114.935 13.9098 105.515C15.8684 89.4295 16.6224 86.6928 20.5159 81.5359C26.7576 73.2688 40.8834 65.885 55.0218 63.4992C57.4453 63.0903 59.832 61.153 60.7407 58.8572C61.1172 57.906 61.7765 56.715 62.206 56.2105C62.7763 55.5404 62.8972 54.6139 62.6544 52.7731C61.9921 47.7504 61.009 45.4159 59.3843 45.0081C58.4103 44.7636 57.9291 44.0609 57.3112 41.9801C56.1747 38.1531 55.7146 32.9316 56.4009 31.6493C56.8218 30.8629 56.7603 29.9224 56.162 27.9944C55.6383 26.3064 55.4324 24.0934 55.5736 21.6676C55.8734 16.5152 58.1003 12.4152 63.0547 7.89333C67.7643 3.595 70.9779 2.27995 76.8514 2.2475C80.5897 2.22683 81.4587 2.41863 84.3203 3.89575C86.1014 4.81515 87.8515 5.56738 88.2093 5.56738C88.5672 5.56738 90.2243 6.9617 91.8918 8.66587C97.7002 14.6018 99.7179 23.218 96.9142 30.1123C96.6382 30.7911 96.6923 31.0072 97.0786 30.7685C97.3955 30.5726 98.0606 30.8184 98.5569 31.3146C99.2997 32.0574 99.4019 32.8306 99.1359 35.6928C98.9582 37.6047 98.4408 40.4218 97.986 41.9531C97.282 44.3237 96.9338 44.7823 95.6416 45.0408C93.8239 45.4043 93.5316 46.1406 92.6764 52.5087C92.393 54.6189 92.4915 55.5153 93.0833 56.2105C93.5127 56.715 94.172 57.906 94.5485 58.8572C95.4572 61.153 97.8439 63.0903 100.267 63.4992C107.163 64.6628 115.946 67.7289 122.33 71.2012C129.653 75.1839 135.85 81.5479 138.166 87.4641C139.196 90.0966 140.436 96.4535 140.5 99.4338C140.601 104.153 144.797 127.543 147.466 138.267C151.067 152.733 151.58 159.251 150.658 178.758C149.623 200.643 148.333 213.016 146.908 214.734C146.64 215.056 146.317 218.635 146.189 222.687C146.062 226.738 145.783 232.671 145.57 235.871C145.211 241.271 145.036 241.957 143.135 245.451C140.969 249.429 140.181 250.088 133.171 253.785C131.281 254.783 129.767 255.8 129.807 256.047C130.427 259.816 131.067 283.534 130.947 298.272C130.814 314.534 130.933 318.273 131.76 323.92C132.293 327.556 132.831 331.601 132.955 332.91C133.078 334.219 133.408 336.837 133.688 338.727C134.24 342.467 134.438 369.423 133.945 373.823C133.051 381.807 130.871 397.255 130.554 397.852C130.353 398.231 130.733 399.659 131.399 401.025C132.065 402.391 132.869 405.17 133.185 407.201C133.501 409.232 134.182 411.85 134.698 413.018C139.1 422.989 139.068 433.008 134.628 435.223C132.039 436.515 126.621 437.225 121.06 437.001C115.068 436.761 113.715 436.128 111.893 432.718C110.834 430.737 110.72 429.898 110.905 425.454C111.242 417.366 111.155 415.846 110.165 412.498C109.037 408.685 109.53 404.515 111.658 399.866C112.391 398.266 112.801 396.885 112.569 396.795C112.083 396.608 109.831 389.339 108.587 383.942C107.339 378.522 104.276 361.77 102.205 349.039C101.212 342.931 99.8213 334.84 99.1147 331.059C98.408 327.278 97.4321 320.615 96.9458 316.252C96.447 311.776 95.2855 305.31 94.2803 301.412C93.3005 297.613 91.9883 292.14 91.3644 289.249C90.7404 286.359 89.2982 280.543 88.1596 276.326C87.0209 272.108 85.2522 264.773 84.2292 260.025C83.2062 255.276 81.6425 248.375 80.7545 244.689C79.8664 241.002 79.0078 236.023 78.8465 233.623C78.5914 229.828 78.4252 229.26 77.5701 229.26C76.7271 229.26 76.5854 229.694 76.5759 232.301C76.57 233.973 76.2528 236.77 75.8713 238.515C72.4103 254.346 70.809 261.277 68.2966 271.302C66.693 277.701 64.7007 285.911 63.8693 289.546C63.038 293.182 61.6548 298.893 60.7956 302.238C59.9364 305.583 58.8343 311.889 58.3464 316.252C57.8585 320.615 56.8812 327.278 56.1745 331.059C55.4679 334.84 54.0771 342.931 53.0838 349.039C51.0262 361.693 47.9597 378.474 46.706 383.942C45.3902 389.68 43.1528 396.898 42.6896 396.898C42.4599 396.898 42.8773 398.22 43.6173 399.837C45.7588 404.514 46.2545 408.678 45.1246 412.498C44.1345 415.846 44.0475 417.366 44.384 425.454C44.5689 429.898 44.4547 430.737 43.3964 432.718C41.4733 436.317 40.2847 436.81 33.2469 436.92C29.8891 436.972 25.8899 436.775 24.3598 436.482V436.482ZM40.2228 431.285C43.1044 429.881 43.4137 428.723 42.6977 422.022C42.1314 416.722 42.1559 415.803 42.9057 414.222C43.3732 413.237 43.9151 411.435 44.1098 410.217C44.3973 408.419 44.3101 408.003 43.6455 408.003C42.5206 408.003 41.3588 411.916 40.686 417.969C40.0934 423.301 39.0229 425.823 36.8961 426.9C35.2856 427.715 28.1395 427.77 25.8875 426.985C24.0889 426.358 22.8933 424.753 23.4973 423.775C23.7081 423.434 23.6337 423.32 23.3248 423.511C22.67 423.916 22.1533 421.127 22.0685 416.729L22.0073 413.556L20.5171 418.051C18.964 422.736 18.5589 426.918 19.4896 428.657C20.1321 429.857 22.3547 431.085 25.1415 431.779C27.9871 432.487 38.4591 432.144 40.2228 431.285V431.285ZM132.729 430.889C134.086 430.282 135.454 429.302 135.77 428.712C136.722 426.934 136.425 423.442 134.89 418.366L133.436 413.556L133.097 418.361C132.539 426.288 131.224 427.576 123.706 427.562C116.98 427.549 115.494 425.983 114.603 417.969C113.93 411.916 112.769 408.003 111.644 408.003C110.979 408.003 110.892 408.419 111.179 410.217C111.374 411.435 111.916 413.237 112.384 414.222C113.133 415.803 113.158 416.722 112.591 422.022C112.013 427.437 112.037 428.165 112.838 429.387C113.327 430.132 113.758 430.746 113.798 430.751C113.837 430.755 114.821 431.116 115.984 431.553C119.208 432.762 129.453 432.357 132.729 430.889V430.889ZM36.7741 424.529C36.8157 424.02 37.2237 422.302 37.6807 420.712C38.1377 419.122 38.5144 416.861 38.5179 415.688C38.5262 412.869 39.8775 407.886 40.8206 407.196C41.467 406.724 41.4675 406.451 40.8245 405.223C39.7392 403.152 38.5381 402.715 33.9269 402.715C30.5144 402.715 29.3231 402.957 27.0344 404.115C25.5125 404.885 24.4023 405.733 24.5672 406C24.7321 406.267 24.9584 410.218 25.07 414.78C25.1816 419.342 25.328 423.436 25.3954 423.877C25.4928 424.515 26.5473 424.714 30.5605 424.848C33.334 424.941 35.7024 425.115 35.8236 425.236C36.3006 425.709 36.7023 425.41 36.7744 424.529H36.7741ZM27.4062 417.258C27.4062 416.615 28.2583 416.464 31.9013 416.464C35.5443 416.464 36.3963 416.615 36.3963 417.258C36.3963 417.901 35.5443 418.051 31.9013 418.051C28.2583 418.051 27.4062 417.901 27.4062 417.258ZM27.5524 412.042C27.0268 411.192 28.7175 410.663 31.9902 410.655C35.5918 410.646 36.9251 410.981 36.9251 411.894C36.9251 412.615 27.9937 412.756 27.5524 412.042ZM27.4062 407.323C27.4062 406.16 28.569 405.888 33.531 405.888C37.1356 405.888 37.9827 406.039 37.9827 406.681C37.9827 407.323 37.1356 407.474 33.531 407.474C31.0825 407.474 28.7028 407.619 28.2427 407.795C27.7091 408 27.4062 407.829 27.4062 407.323V407.323ZM125.157 424.821C127.875 424.733 130.21 424.483 130.344 424.264C130.479 424.046 130.373 423.868 130.109 423.868C129.822 423.868 129.814 422.744 130.089 421.092C130.822 416.684 130.423 405.859 129.493 404.929C128.021 403.458 125.259 402.715 121.255 402.715C116.751 402.715 115.546 403.16 114.465 405.223C113.822 406.451 113.822 406.724 114.47 407.196C115.413 407.886 116.765 412.869 116.773 415.688C116.778 416.861 117.153 419.122 117.61 420.712C118.067 422.302 118.475 424.02 118.517 424.529C118.563 425.094 118.908 425.362 119.404 425.217C119.851 425.087 122.441 424.909 125.159 424.821H125.157ZM118.893 417.258C118.893 416.615 119.745 416.464 123.388 416.464C127.031 416.464 127.883 416.615 127.883 417.258C127.883 417.901 127.031 418.051 123.388 418.051C119.745 418.051 118.893 417.901 118.893 417.258ZM118.364 411.894C118.364 410.981 119.697 410.646 123.299 410.655C126.469 410.663 128.488 411.276 127.756 412.008C127.104 412.66 118.364 412.554 118.364 411.894ZM122.198 407.609C118.338 407.471 117.306 407.272 117.306 406.661C117.306 406.044 118.204 405.888 121.758 405.888C124.207 405.888 126.586 406.032 127.046 406.209C127.861 406.521 128.276 408.112 127.486 407.893C127.268 407.833 124.888 407.705 122.198 407.609ZM42.5746 403.673C42.4058 403.252 42.2804 403.377 42.2551 403.993C42.2321 404.55 42.3571 404.863 42.5328 404.687C42.7086 404.511 42.7273 404.055 42.5745 403.673H42.5746ZM112.908 403.673C112.739 403.252 112.614 403.377 112.589 403.993C112.566 404.55 112.691 404.863 112.867 404.687C113.042 404.511 113.061 404.055 112.908 403.673H112.908ZM26.3405 401.758C26.3333 400.988 26.2615 400.974 25.8197 401.657C25.1505 402.693 25.1505 403.393 25.8197 402.979C26.1106 402.8 26.3449 402.25 26.3405 401.758ZM129.534 401.829C129.073 401.037 128.97 401.014 128.957 401.701C128.94 402.592 129.496 403.394 129.87 403.019C129.994 402.895 129.842 402.36 129.534 401.829ZM40.4038 400.312C40.1348 399.24 39.8444 399.01 39.1505 399.32C38.6536 399.541 35.9893 399.743 33.2297 399.769C29.1577 399.807 28.1827 399.969 28.0555 400.629C27.9213 401.326 28.6037 401.414 32.8085 401.24C35.5089 401.129 38.3133 401.268 39.0404 401.55C40.6879 402.189 40.8402 402.051 40.4038 400.312V400.312ZM122.647 401.229C126.741 401.425 127.37 401.343 127.226 400.631C127.091 399.965 126.402 399.838 123.637 399.973C121.755 400.065 119.15 399.9 117.848 399.606C115.351 399.042 114.687 399.382 114.67 401.233C114.664 402.006 114.889 402.052 116.281 401.567C117.184 401.252 120 401.103 122.647 401.229V401.229ZM39.727 397.47C41.2249 396.898 42.284 395.044 42.9811 391.775L43.3405 390.089L41.3539 390.638C39.1486 391.247 27.7216 390.984 26.1317 390.287C25.178 389.87 25.1414 390.033 25.474 393.216C25.6678 395.07 26.0204 396.781 26.2576 397.018C27.6336 398.394 36.5254 398.692 39.727 397.47V397.47ZM125.809 397.948C127.366 397.652 128.824 397.226 129.051 396.999C129.277 396.773 129.621 395.07 129.815 393.216C130.148 390.033 130.111 389.87 129.157 390.287C127.568 390.984 116.141 391.247 113.935 390.638L111.949 390.089L112.295 391.775C113.069 395.539 114.253 397.125 116.778 397.781C119.826 398.573 122.274 398.618 125.809 397.948V397.948ZM42.1987 388.568C43.6382 387.843 44.183 387.129 44.7193 385.264C45.5754 382.286 49.6003 360.705 51.7218 347.717C52.6007 342.336 53.8944 334.721 54.5968 330.795C55.2992 326.868 56.2698 320.205 56.7539 315.988C57.2379 311.77 58.4237 305.226 59.3891 301.445C60.3544 297.664 61.6576 292.191 62.285 289.282C62.9124 286.373 64.4778 280.067 65.7637 275.268C67.0496 270.469 68.9336 262.566 69.9502 257.705C70.9669 252.845 72.4253 246.419 73.1911 243.427C73.9569 240.434 74.7367 235.725 74.9241 232.962L75.2649 227.938H77.6446H80.0243L80.3651 232.962C80.5525 235.725 81.3324 240.434 82.0981 243.427C82.8639 246.419 84.3223 252.845 85.339 257.705C86.3557 262.566 88.2396 270.469 89.5255 275.268C90.8115 280.067 92.3769 286.373 93.0042 289.282C93.6316 292.191 94.9348 297.664 95.9002 301.445C96.8655 305.226 98.0514 311.77 98.5354 315.988C99.0194 320.205 99.9901 326.868 100.692 330.795C101.395 334.721 102.689 342.336 103.567 347.717C105.689 360.705 109.714 382.286 110.57 385.264C111.556 388.694 113.391 389.496 120.215 389.481C125.546 389.469 129.184 388.933 130.09 388.027C130.361 387.757 130.977 385.18 131.46 382.301C132.165 378.099 132.341 373.26 132.35 357.765C132.361 339.096 132.311 338.124 130.814 328.151C129.28 317.927 129.266 317.625 129.213 292.984C129.183 279.314 128.956 265.571 128.707 262.444L128.256 256.759H126.508C125.035 256.759 124.623 256.472 123.896 254.939C122.815 252.662 123.231 251.278 125.296 250.278C126.527 249.682 126.709 249.424 126.072 249.18C124.881 248.723 125.044 247.437 126.414 246.477L127.59 245.654H126.256C125.522 245.654 124.636 245.368 124.287 245.019C123.12 243.853 123.7 239.388 125.593 234.975C126.322 233.275 126.35 232.258 125.81 227.103C125.469 223.848 124.342 217.944 123.305 213.985C122.268 210.025 120.945 204.525 120.365 201.761C119.785 198.998 119.267 196.689 119.214 196.629C119.161 196.57 117.341 196.984 115.171 197.551C102.137 200.952 83.2327 204.406 77.6446 204.406C72.0565 204.406 53.1518 200.952 40.1182 197.551C37.9479 196.984 36.1286 196.57 36.0754 196.629C36.0221 196.689 35.504 198.998 34.9242 201.761C34.3443 204.525 33.0214 210.025 31.9844 213.985C30.9474 217.944 29.8201 223.848 29.4792 227.103C28.9395 232.258 28.9675 233.275 29.6966 234.975C31.5887 239.388 32.169 243.853 31.0023 245.019C30.6532 245.368 29.7674 245.654 29.0337 245.654H27.6997L28.8751 246.477C30.2454 247.437 30.4083 248.723 29.2175 249.18C28.5804 249.424 28.7626 249.682 29.9934 250.278C32.0583 251.278 32.4738 252.662 31.3931 254.939C30.6658 256.472 30.2538 256.759 28.7814 256.759H27.0332L26.5818 262.444C26.3336 265.571 26.1062 279.314 26.0766 292.984C26.0232 317.625 26.0094 317.927 24.475 328.151C22.9782 338.124 22.9277 339.096 22.939 357.765C22.9485 373.26 23.1239 378.099 23.829 382.301C24.3122 385.18 24.9357 387.764 25.2146 388.043C26.117 388.945 29.1372 389.385 34.8098 389.439C39.1227 389.481 40.7724 389.286 42.1987 388.568V388.568ZM29.5216 254.424C29.5216 254.012 28.6107 252.954 27.4974 252.072C22.8071 248.357 20.6143 243.134 20.9622 236.504C21.1354 233.205 21.3364 232.41 21.9664 232.538C22.9709 232.742 25.0484 236.429 25.831 239.398C26.6365 242.453 27.7336 244.067 29.0049 244.067C30.4755 244.067 30.368 241.592 28.695 236.928C27.9645 234.892 26.6507 231.128 25.7754 228.563C24.9001 225.999 23.1492 222.237 21.8846 220.205C20.565 218.085 19.4385 215.532 19.2408 214.213L18.8963 211.916L16.6732 212.179C15.4504 212.324 13.5493 212.668 12.4485 212.944L10.4469 213.446L10.5056 218.577C10.6169 228.306 11.629 239.308 12.4128 239.308C12.8062 239.308 13.1279 239.737 13.1279 240.262C13.1279 240.787 13.8387 242.337 14.7074 243.707C15.5761 245.077 16.7558 247.117 17.329 248.24C17.9022 249.364 18.7921 250.444 19.3067 250.642C20.0751 250.937 20.0389 250.783 19.104 249.782C18.478 249.111 17.7957 247.849 17.588 246.976C17.3801 246.103 16.8693 244.714 16.4529 243.888C16.0364 243.061 15.8488 241.991 16.036 241.508C16.3438 240.714 16.4473 240.726 17.1156 241.634C17.5221 242.187 18.2468 243.852 18.726 245.336C19.2871 247.073 20.4695 248.943 22.0475 250.587C25.4855 254.171 29.5216 256.242 29.5216 254.424ZM128.829 254.158C131.937 252.55 135.572 248.403 136.563 245.336C137.042 243.852 137.767 242.187 138.174 241.634C138.842 240.726 138.945 240.714 139.253 241.508C139.44 241.991 139.253 243.061 138.836 243.888C138.42 244.714 137.909 246.103 137.701 246.976C137.493 247.849 136.811 249.111 136.185 249.782C135.25 250.783 135.214 250.937 135.983 250.642C136.497 250.444 137.387 249.364 137.96 248.24C138.533 247.117 139.713 245.077 140.582 243.707C141.451 242.337 142.161 240.787 142.161 240.262C142.161 239.737 142.483 239.308 142.876 239.308C143.66 239.308 144.672 228.306 144.784 218.577L144.842 213.446L142.841 212.944C141.74 212.668 139.839 212.324 138.616 212.179L136.393 211.916L136.048 214.213C135.851 215.532 134.724 218.085 133.405 220.205C132.14 222.237 130.389 225.999 129.514 228.563C128.638 231.128 127.325 234.892 126.594 236.928C124.921 241.592 124.814 244.067 126.284 244.067C127.556 244.067 128.653 242.453 129.458 239.398C130.241 236.429 132.318 232.742 133.323 232.538C133.953 232.41 134.154 233.205 134.327 236.504C134.675 243.134 132.482 248.357 127.792 252.072C125.873 253.592 125.121 255.173 126.318 255.173C126.62 255.173 127.75 254.716 128.829 254.158V254.158ZM27.9351 247.769C26.8902 247.094 25.138 247.094 25.5554 247.769C25.7351 248.06 26.5226 248.294 27.3053 248.29C28.4183 248.284 28.5555 248.17 27.9351 247.769ZM129.734 247.769C130.151 247.094 128.399 247.094 127.354 247.769C126.734 248.17 126.871 248.284 127.984 248.29C128.767 248.294 129.554 248.06 129.734 247.769ZM26.3486 244.892C26.3486 244.473 26.1438 244.003 25.8935 243.849C25.6432 243.694 25.0469 242.193 24.5684 240.512C23.3179 236.12 22.8542 235.627 22.4948 238.307C22.281 239.901 22.4527 241.018 23.0806 242.116C23.5691 242.971 24.2038 244.117 24.4909 244.662C25.1065 245.832 26.3486 245.985 26.3486 244.892V244.892ZM130.744 244.929C130.591 244.53 130.799 243.871 131.206 243.464C132.639 242.031 133.095 240.551 132.795 238.312C132.435 235.627 131.972 236.119 130.721 240.512C130.242 242.193 129.646 243.694 129.396 243.849C128.531 244.383 128.944 245.654 129.982 245.654C130.646 245.654 130.922 245.392 130.744 244.929ZM28.5034 222.386C28.8174 220.204 29.9982 214.969 31.1274 210.751C32.2565 206.534 33.4513 201.484 33.7825 199.528C34.311 196.407 34.2776 195.865 33.5092 195.097C33.0276 194.615 32.7551 193.905 32.9036 193.518C33.052 193.131 33.5534 190.247 34.0178 187.108C34.4822 183.97 34.9723 180.926 35.1068 180.344C36.539 174.151 38.5509 142.263 38.1069 132.793L37.8362 127.02L34.7396 136.231C30.0864 150.072 28.9927 154.581 28.9927 159.926C28.9927 165.561 28.0023 173.72 25.3016 190.333C24.1617 197.346 22.9398 205.188 22.5864 207.761C22.1876 210.663 21.6772 212.54 21.2414 212.708C20.1799 213.115 20.8636 215.187 23.7366 220.27C25.1339 222.743 26.5803 225.836 26.9508 227.145C27.5809 229.37 27.6345 229.422 27.7785 227.938C27.8632 227.066 28.1894 224.567 28.5034 222.386V222.386ZM128.427 227.013C128.749 225.777 130.155 222.743 131.553 220.27C134.426 215.187 135.109 213.115 134.048 212.708C133.612 212.54 133.102 210.663 132.703 207.761C132.349 205.188 131.128 197.346 129.988 190.333C127.287 173.72 126.297 165.561 126.297 159.926C126.297 154.581 125.203 150.072 120.55 136.231L117.453 127.02L117.182 132.793C116.738 142.263 118.75 174.151 120.182 180.344C120.317 180.926 120.807 183.97 121.271 187.108C121.736 190.247 122.237 193.131 122.386 193.518C122.534 193.905 122.264 194.613 121.786 195.092C121.014 195.863 120.988 196.393 121.559 199.778C121.913 201.877 123.023 206.573 124.025 210.213C126.045 217.549 127.352 224.251 127.353 227.277C127.353 229.873 127.705 229.786 128.427 227.013V227.013ZM17.4736 210.493C20.3963 210.162 20.5082 210.091 20.8311 208.37C21.0148 207.391 21.0086 206.336 20.8173 206.026C20.1291 204.913 11.1357 205.658 8.96087 207.008C8.42413 207.342 8.32437 208.084 8.58372 209.813L8.93633 212.165L11.6932 211.5C13.2096 211.134 15.8107 210.681 17.4736 210.493H17.4736ZM146.868 208.556C146.936 206.74 145.027 206.009 139.195 205.614C134.374 205.287 133.928 205.547 134.458 208.37C134.781 210.091 134.894 210.163 137.816 210.498C139.479 210.689 142.029 211.123 143.483 211.462C145.949 212.038 146.151 212.008 146.471 211.019C146.66 210.436 146.839 209.327 146.868 208.556V208.556ZM11.5958 204.615C13.5774 204.107 16.2218 203.849 18.1769 203.974L21.4454 204.182L22.9047 195.172C26.1642 175.047 26.9108 169.393 27.3764 161.306C27.9241 151.792 27.6656 152.922 33.0615 136.452C35.9932 127.502 37.1183 123.276 37.3195 120.455C37.5163 117.696 37.796 116.621 38.3167 116.621C38.8486 116.621 39.0486 117.497 39.0714 119.926C39.0885 121.744 39.3 126.563 39.5414 130.634C39.8354 135.592 39.7416 142.581 39.2578 151.787C38.3729 168.624 37.5968 175.78 35.1078 190.053L34.4291 193.945L36.0737 194.632C40.8018 196.606 70.622 202.819 75.3747 202.819L76.5422 202.819L76.6968 140.286C76.7818 105.892 76.673 77.6727 76.4548 77.5757C76.2366 77.4788 76.0581 76.7278 76.0581 75.9069C76.0581 74.5868 75.6593 74.2277 72.6082 72.7999C68.4524 70.8551 63.9732 66.5638 62.5979 63.2093L61.6222 60.8296L59.7179 62.7279C58.0552 64.3853 57.242 64.7301 53.3068 65.446C48.0804 66.3968 38.8208 69.7574 34.0011 72.4527C27.0058 76.3647 21.1384 82.154 18.9173 87.3356C17.4431 90.7745 17.0299 92.8819 15.8151 103.155C14.4765 114.474 11.6587 129.783 8.92906 140.565C5.69166 153.354 5.30077 160.038 6.49459 182.195C7.48713 200.616 7.82419 205.463 8.11249 205.463C8.20633 205.463 9.77383 205.081 11.5958 204.615V204.615ZM37.3685 112.657C36.858 112.147 38.787 107.116 39.4959 107.109C40.0412 107.103 40.126 107.58 39.8455 109.075C39.2733 112.125 38.2771 113.566 37.3685 112.657ZM147.608 202.422C147.768 200.75 148.311 191.767 148.816 182.459C149.995 160.72 149.556 153.188 146.374 140.622C143.846 130.634 140.747 114.218 139.998 106.837C138.582 92.896 137.049 87.136 133.53 82.5272C131.179 79.4488 125.626 74.8787 121.288 72.4527C116.468 69.7574 107.209 66.3968 101.982 65.446C98.0473 64.7301 97.234 64.3853 95.5713 62.7279L93.667 60.8296L92.6913 63.2093C91.3419 66.5007 86.8549 70.8328 82.8235 72.7366C79.8599 74.1361 79.4433 74.5256 79.0189 76.2945C78.7563 77.389 78.4495 106.238 78.3355 140.55L78.1287 202.819L79.6053 202.819C84.6301 202.819 114.294 196.687 119.215 194.632L120.86 193.945L120.181 190.053C117.692 175.78 116.916 168.624 116.031 151.787C115.548 142.581 115.454 135.592 115.748 130.634C115.989 126.563 116.201 121.744 116.218 119.926C116.24 117.497 116.441 116.621 116.973 116.621C117.493 116.621 117.773 117.696 117.97 120.455C118.171 123.276 119.296 127.502 122.228 136.452C127.624 152.922 127.365 151.792 127.913 161.306C128.378 169.393 129.125 175.049 132.383 195.164L133.842 204.168L137.34 204C139.303 203.905 142 204.161 143.483 204.582C147.393 205.691 147.292 205.744 147.608 202.422V202.422ZM116.332 112.016C116.047 111.484 115.647 110.16 115.444 109.075C115.159 107.558 115.245 107.102 115.816 107.102C116.416 107.102 117.649 110.185 117.873 112.245C117.965 113.092 116.816 112.921 116.332 112.016V112.016ZM82.2547 71.3332C85.7432 69.6767 89.3608 66.1815 91.016 62.8686C92.1938 60.511 92.2388 60.157 91.5649 58.5439L90.831 56.787L88.5015 59.378C85.5532 62.6573 80.6834 65.3246 77.6446 65.3246C74.6058 65.3246 69.736 62.6573 66.7877 59.378L64.4582 56.787L63.7236 58.5439C63.063 60.1238 63.095 60.5121 64.0409 62.3998C66.3394 66.9872 70.0426 70.3432 74.8854 72.2277C77.6494 73.3033 78.2629 73.2288 82.2547 71.3332V71.3332ZM82.0337 62.3502C87.1922 59.7317 90.0671 55.7258 91.664 48.931C92.7156 44.4566 93.1045 43.7749 94.7376 43.5423C96.1425 43.3423 97.1547 40.7155 97.1441 37.2969C97.1346 34.1461 96.2439 36.0394 96.1906 39.324C96.1458 42.0901 95.0122 42.12 94.4963 39.3687C91.9873 25.9895 92.0985 26.1915 87.2455 26.1915C85.268 26.1915 82.5123 25.8038 81.1215 25.33C79.215 24.6804 77.8582 24.5709 75.6068 24.8851C73.9645 25.1143 71.1566 25.2592 69.3671 25.207C66.3824 25.1201 65.9796 25.2461 64.4943 26.7314C62.7767 28.449 61.8027 31.082 61.7595 34.1239C61.7254 36.5413 60.499 41.1612 59.8329 41.3832C59.5461 41.4788 59.0488 40.1821 58.7279 38.5015L58.1443 35.446L58.3327 38.4413C58.5533 41.9476 59.317 43.6428 60.6761 43.6428C62.1005 43.6428 62.5876 44.5162 63.6252 48.931C65.2082 55.6664 68.0072 59.6031 73.1496 62.3267C75.2287 63.4279 79.8864 63.4402 82.0337 62.3502V62.3502ZM74.2072 53.7003C73.0438 53.4667 71.9135 53.3829 71.6953 53.5142C71.4772 53.6455 71.2987 53.2351 71.2987 52.6023C71.2987 51.6673 71.5215 51.5115 72.4886 51.7707C73.143 51.946 76.1686 52.0928 79.2122 52.0968C83.9602 52.1029 84.636 52.2086 83.9716 52.8406C83.0153 53.7502 77.065 54.2742 74.2072 53.7003ZM74.0007 47.6787C73.5626 47.1508 73.5379 46.8016 73.9219 46.5643C74.7371 46.0604 76.6805 46.7993 76.44 47.5216C76.1294 48.4547 74.7201 48.5455 74.0007 47.6787ZM78.7023 47.6446C78.7023 46.7823 80.5247 46.0435 81.3673 46.5643C82.1668 47.0584 80.9442 48.4022 79.6951 48.4022C79.149 48.4022 78.7023 48.0613 78.7023 47.6446ZM66.6451 37.1911C65.1367 35.6828 66.2815 34.6528 69.4662 34.6528C72.7804 34.6528 75.3309 36.6511 73.1063 37.5047C71.6518 38.0629 67.3059 37.852 66.6451 37.1911V37.1911ZM82.0074 37.4873C79.9065 36.6021 82.6671 34.6471 85.9985 34.6608C88.6493 34.6718 89.7265 35.3848 88.9596 36.6208C88.5327 37.3087 87.6098 37.5887 85.5223 37.6635C83.9527 37.7198 82.371 37.6404 82.0074 37.4873V37.4873ZM73.6784 33.5951C73.4987 33.3043 71.5809 33.0663 69.4166 33.0663C66.2714 33.0663 65.4816 32.9071 65.4816 32.273C65.4816 30.9922 73.4757 31.1448 74.6553 32.4482C75.1373 32.9808 75.3724 33.5757 75.1779 33.7702C74.6701 34.278 74.0562 34.2063 73.6784 33.5951V33.5951ZM80.0836 33.6911C79.4436 32.6555 81.4333 31.9027 85.5576 31.62C89.1106 31.3764 89.8076 31.4586 89.8076 32.1211C89.8076 32.725 88.8949 32.9845 85.9736 33.2114C83.8649 33.3751 81.7472 33.6637 81.2677 33.8526C80.7881 34.0415 80.2553 33.9688 80.0836 33.6911ZM61.648 27.6126C63.3147 24.7588 65.7483 23.4948 69.4252 23.5732C71.1828 23.6106 73.9554 23.4745 75.5867 23.2706C77.6958 23.0071 79.3997 23.1463 81.4852 23.7526C83.098 24.2215 85.8363 24.6051 87.5701 24.6051C91.9 24.6051 93.261 25.7187 94.1415 29.9818L94.8043 33.1906L95.5484 27.9724C96.5091 21.2358 96.4693 20.1858 95.1175 16.5808C93.2506 11.6025 90.4547 8.61078 85.4306 6.2158C79.9978 3.62602 78.048 3.25878 73.7266 4.01132C67.7411 5.05364 61.8533 9.74144 58.8194 15.8803C57.0808 19.3981 56.915 20.1038 57.1189 23.1171C57.2432 24.9535 57.9263 28.5329 58.6369 31.0714L59.9289 35.6868L60.2974 32.4906C60.5 30.7327 61.1078 28.5376 61.648 27.6126V27.6126Z" fill="black"/>
</svg>
