<svg width="18" height="24" viewBox="0 0 104 154" fill="none" xmlns="http://www.w3.org/2000/svg">
<g clip-path="url(#clip0)">
<path fill-rule="evenodd" clip-rule="evenodd" d="M84.1537 130.684C84.3619 131.388 84.7606 132.059 84.7661 132.822C84.9105 134.11 84.5203 135.415 83.7407 136.441C82.1823 138.539 79.794 139.791 77.4708 140.844C72.6211 142.921 67.4173 144.009 62.2206 144.766C58.6433 145.239 55.0451 145.604 51.4374 145.71C47.9473 145.746 44.4519 145.805 40.9651 145.624C34.7734 145.161 28.4904 144.407 22.6934 142.043C19.9302 140.906 17.1692 139.299 15.5237 136.71C14.516 135.082 14.2734 133.057 14.6653 131.201C11.2753 132.086 7.88726 133.086 4.50499 134.039C4.0376 134.231 3.46816 134.238 3.05171 134.528C2.30726 135.522 2.19953 136.915 2.61407 138.065C2.84088 138.365 3.3208 138.328 3.62625 138.519C15.1623 142.744 26.7112 146.934 38.2545 151.139C43.1717 152.145 48.2479 152.829 53.255 152.139C55.8279 151.785 58.2214 150.717 60.6883 149.958C72.1687 146.13 83.6573 142.327 95.1414 138.512C95.9812 137.662 96.5746 136.349 96.0974 135.167C95.8422 134.475 95.343 133.871 94.7861 133.424C91.2428 132.512 87.7096 131.523 84.1537 130.684Z" fill="#D61818"/>
<path fill-rule="evenodd" clip-rule="evenodd" d="M71.2807 112.92C70.4381 113.212 69.6617 113.69 68.818 113.992C61.2706 117.126 52.9731 118.035 44.8674 117.636C39.5712 117.335 34.2472 116.584 29.2237 114.814C28.3663 114.522 27.5663 114.092 26.7942 113.627C26.2946 116.411 25.964 119.244 25.5466 122.049C25.4109 122.802 25.3799 123.59 25.1891 124.326C24.8679 124.547 24.4195 124.527 24.0672 124.703C20.6957 125.833 17.6759 127.953 15.3299 130.626C14.6045 131.353 14.8061 132.461 14.7785 133.387C14.734 135.211 15.7384 136.883 16.9567 138.158C19.3551 140.563 22.5817 141.884 25.7597 142.891C31.6609 144.666 37.8373 145.301 43.9715 145.527C48.4299 145.585 52.8975 145.551 57.3372 145.095C63.5606 144.483 69.812 143.497 75.7019 141.314C78.3136 140.288 80.9723 139.078 82.9567 137.026C84.1588 135.806 84.8563 134.006 84.4496 132.295C83.8587 130.037 82.1148 128.332 80.3566 126.922C78.3266 125.34 75.9421 124.262 73.4603 123.633C73.0384 123.596 73.1087 123.108 73.0173 122.809C72.4117 119.531 71.9237 116.224 71.3677 112.943C71.3445 112.921 71.3107 112.919 71.2807 112.92Z" fill="#D61818"/>
<path fill-rule="evenodd" clip-rule="evenodd" d="M67.2293 87.8242C65.4926 88.5123 63.7545 89.2163 61.9469 89.702C57.3007 91.0063 52.4567 91.5811 47.6364 91.4246C42.9296 91.3918 38.2427 90.6704 33.6823 89.5219C32.5357 89.242 31.4061 88.8561 30.2719 88.559C29.104 96.7868 27.9392 105.017 26.7842 113.246C27.8896 114.193 29.3344 114.588 30.6788 115.063C35.6335 116.589 40.8188 117.23 45.9814 117.459C48.5704 117.442 51.1671 117.492 53.7491 117.277C59.7603 116.741 65.77 115.383 71.1856 112.643C71.3147 112.439 71.132 112.116 71.1513 111.881C69.9552 104.04 68.6274 96.2195 67.3417 88.393C67.298 88.2108 67.2968 87.9869 67.2293 87.8242Z" fill="white"/>
<path fill-rule="evenodd" clip-rule="evenodd" d="M63.6162 66.1474C60.2431 67.132 56.7884 67.861 53.2921 68.2359C50.1009 68.6321 46.8764 68.5376 43.6689 68.4773C40.289 68.2683 36.9222 67.7638 33.6377 66.9297C33.4598 66.8681 33.2593 66.8725 33.3188 67.1379C32.2739 74.1872 31.3166 81.2557 30.3086 88.3064C37.2568 90.5121 44.5976 91.5589 51.8806 91.1519C57.1326 90.8487 62.3515 89.6827 67.1789 87.5686C66.6244 83.7517 65.9567 79.9497 65.3523 76.1396C64.7961 72.8141 64.2906 69.4656 63.694 66.1558C63.6699 66.1444 63.6421 66.1461 63.6162 66.1474Z" fill="#D61818"/>
<path fill-rule="evenodd" clip-rule="evenodd" d="M59.4127 40.516C57.5771 40.7838 55.763 41.2095 53.9117 41.3789C49.478 41.8294 44.9911 41.7949 40.5636 41.2877C39.3804 41.1561 38.2024 40.9252 37.0355 40.7253C35.8565 49.1407 34.6102 57.547 33.5097 65.9733C33.5505 66.1599 33.3473 66.4918 33.5111 66.6217C38.2631 67.9182 43.2133 68.4058 48.1283 68.3367C53.2037 68.2115 58.2703 67.4764 63.1463 66.0436C63.3073 65.9547 63.5292 66.0314 63.6686 65.9753C63.1199 62.2469 62.4643 58.5268 61.8667 54.803C61.0728 50.043 60.3161 45.2677 59.4826 40.52C59.4602 40.5127 59.4355 40.517 59.4126 40.516H59.4127Z" fill="white"/>
<path fill-rule="evenodd" clip-rule="evenodd" d="M42.4269 2.57422C40.973 12.5767 39.5962 22.5919 38.1727 32.5993C37.8145 35.1886 37.4258 37.7787 37.082 40.367C37.305 40.6512 37.7762 40.5491 38.0863 40.6685C40.845 41.1363 43.6395 41.4307 46.4375 41.4663C49.4627 41.4487 52.4998 41.419 55.4939 40.9315C56.7768 40.7183 58.0846 40.5647 59.3332 40.1974C59.5731 40.005 59.2918 39.6242 59.322 39.3693C57.3473 27.1774 55.3622 14.9868 53.3297 2.80468C52.3426 3.00541 51.3641 3.36804 50.351 3.49525C47.6963 3.89762 44.8963 3.65401 42.4269 2.57422Z" fill="#D61818"/>
<path fill-rule="evenodd" clip-rule="evenodd" d="M47.7997 1.78282C46.1624 1.82854 44.5107 1.98189 42.9215 2.38884C42.7513 2.50481 43.153 2.60155 43.2263 2.64437C45.2243 3.31185 47.3554 3.62124 49.4548 3.36983C50.6506 3.23982 51.8707 3.04025 52.9799 2.56736C52.7161 2.35621 52.2721 2.33945 51.9425 2.22383C50.5899 1.88783 49.1908 1.76565 47.7997 1.78282Z" fill="#FF0000"/>
<path d="M42.3203 2.37494C42.3203 2.37494 47.026 4.94603 53.4338 2.57659C53.4338 2.57659 49.529 0.660867 42.3203 2.37494Z" stroke="black" stroke-width="2.22912" stroke-linecap="round" stroke-linejoin="round"/>
<path d="M42.3202 2.375L25.1134 124.281C25.1134 124.281 19.6621 125.279 14.848 130.982L3.02499 134.333C3.02499 134.333 1.67986 135.759 2.52942 138.255L38.065 151.196C38.065 151.196 50.1797 154.221 57.2883 151.196L95.2342 138.593C95.2342 138.593 98.0375 136.072 94.9338 133.35L83.8204 130.426C83.8204 130.426 80.8167 125.183 73.2075 123.469" stroke="black" stroke-width="2.22912" stroke-linejoin="round"/>
<path d="M73.2075 123.47L53.4336 2.57812" stroke="black" stroke-width="2.22912" stroke-linejoin="round"/>
<path d="M14.8489 130.982C9.33232 153.07 94.2029 148.11 83.8213 130.426" stroke="black" stroke-width="2.22912" stroke-linecap="round" stroke-linejoin="round"/>
<path d="M37.0068 40.5801C37.0068 40.5801 47.6263 43.0754 59.5908 40.2949" stroke="black" stroke-width="2.22912" stroke-linejoin="round"/>
<path d="M33.2549 66.6749C33.2549 66.6749 46.9186 71.0952 63.5557 66.0332" stroke="black" stroke-width="2.22912" stroke-linejoin="round"/>
<path d="M30.1406 88.3487C30.1406 88.3487 49.7512 95.6209 67.4503 87.5645" stroke="black" stroke-width="2.22912" stroke-linejoin="round"/>
<path d="M26.6475 113.258C28.7199 115.897 53.2523 121.879 71.3907 112.688" stroke="black" stroke-width="2.22912" stroke-linejoin="round"/>
</g>
<defs>
<clipPath id="clip0">
<rect width="96.8705" height="153.575" fill="white" transform="translate(0.90625 0.316406)"/>
</clipPath>
</defs>
</svg>
