<svg width="22" height="25" viewBox="0 0 92 105" fill="none" xmlns="http://www.w3.org/2000/svg">
<g clip-path="url(#clip0)">
<path d="M26.1555 69.5684L1.20703 79.6945M1.20703 79.6945L45.0819 96.5L90.4625 79.6945M1.20703 79.6945H90.4625M1.20703 79.6945V87.02L45.0819 103.394L90.4625 87.02V79.6945M90.4625 79.6945L65.944 70.2147" stroke="black" stroke-width="2.08005"/>
<path fill-rule="evenodd" clip-rule="evenodd" d="M25.0096 70.9904C19.9214 72.9796 14.8809 75.0964 9.82453 77.1681C7.80413 78.0162 5.76403 78.8234 3.76465 79.7181C4.06854 79.9497 4.54196 80.036 4.90378 80.2147C18.0141 85.3411 31.1439 90.4169 44.2957 95.4338C44.6855 95.5263 45.081 95.8971 45.4746 95.618C59.6001 90.362 73.7217 85.0946 87.8316 79.796C88.0864 79.6529 87.588 79.5775 87.5116 79.5233C80.7489 76.8743 73.983 74.2309 67.1878 71.6694C67.1439 71.995 67.3288 72.3947 67.3678 72.7426C67.7208 74.3799 68.0975 76.0119 68.4633 77.6463C68.2307 78.2452 68.1041 78.9334 67.8072 79.478C62.0004 82.8459 55.423 84.8681 48.736 85.2565C45.4228 85.3306 42.0818 85.3803 38.8077 84.7831C34.078 84.0151 29.415 82.6139 25.1641 80.3572C24.5736 80.0031 23.9172 79.7194 23.407 79.2512C23.4021 78.6787 23.6307 78.0965 23.7138 77.5212C24.1529 75.3511 24.652 73.1913 25.0388 71.0116L25.0149 70.9902L25.0096 70.9904Z" fill="#EE5600"/>
<path fill-rule="evenodd" clip-rule="evenodd" d="M89.4251 80.9688C74.6362 86.4237 59.8696 91.9414 45.0942 97.434C30.9975 92.0228 16.9153 86.5729 2.81 81.185C2.60002 81.1615 2.32958 80.9163 2.14039 80.9863C2.01319 82.716 2.05988 84.4601 2.1196 86.1933C2.03532 86.563 2.46394 86.5525 2.69192 86.6699C16.7995 91.9829 30.9084 97.2928 45.04 102.541C46.2514 102.191 47.4493 101.69 48.6542 101.281C62.2666 96.3698 75.8811 91.4632 89.47 86.4866C89.6719 86.3084 89.5377 85.9315 89.5941 85.6863C89.6202 84.1113 89.604 82.536 89.6086 80.9609C89.5658 80.9007 89.4827 80.9764 89.4251 80.9688V80.9688Z" fill="#EE5600"/>
<path d="M31.6035 24.3917C36.3702 26.0384 48.6078 28.2398 59.4239 23.8717L31.6035 24.3917ZM35.7636 5.15131C34.7235 1.25123 52.9239 -0.308817 55.2639 5.15131C55.2639 10.0914 36.8036 10.8714 35.7636 5.15131Z" stroke="black" stroke-width="2.08005"/>
<path d="M35.7648 5.15234L19.6445 80.814C27.9646 85.9275 50.013 93.0864 71.6455 80.814L72.1657 79.2541L55.2651 5.15234" stroke="black" stroke-width="2.08005"/>
<path d="M27.1846 44.4141C33.1647 47.1875 48.9208 51.0701 64.1053 44.4141" stroke="black" stroke-width="2.08005"/>
<path d="M23.543 62.8715C31.3432 65.905 51.2076 70.0477 68.2639 62.3516" stroke="black" stroke-width="2.08005"/>
<path fill-rule="evenodd" clip-rule="evenodd" d="M44.9773 2.65421C42.6953 2.64819 40.3879 2.94564 38.2397 3.73786C37.6874 3.97993 37.046 4.22833 36.7363 4.77922C36.7563 5.64185 37.5116 6.26718 38.1958 6.67783C39.8933 7.62839 41.8628 7.96636 43.7824 8.09274C46.1181 8.1696 48.4902 8.12847 50.7569 7.49742C51.8983 7.16029 53.1313 6.79019 53.9571 5.88325C54.0953 5.66548 54.3933 5.36915 54.1121 5.14913C53.3499 4.09673 52.0427 3.65116 50.8496 3.28831C49.0581 2.77266 47.1877 2.62037 45.3298 2.65253C45.2123 2.65309 45.0948 2.65365 44.9773 2.65421V2.65421Z" fill="#893100"/>
<path fill-rule="evenodd" clip-rule="evenodd" d="M36.2536 7.80469C36.1566 8.00392 36.1477 8.26277 36.084 8.48407C35.0002 13.5483 33.921 18.615 32.8467 23.6802C32.9449 23.808 33.149 23.7985 33.2888 23.8607C36.4479 24.7313 39.7114 25.1948 42.9808 25.3692C46.0626 25.52 49.1634 25.3596 52.2074 24.8502C54.259 24.4986 56.2845 23.9757 58.2366 23.2511C58.4137 23.2101 58.2836 23.0165 58.2757 22.9004C57.1416 17.8936 56.004 12.8873 54.8511 7.88483C54.7606 7.80979 54.6613 7.98032 54.5748 8.00746C53.1175 9.00506 51.381 9.47978 49.6646 9.79559C48.1244 10.0652 46.5595 10.1726 44.9957 10.142C43.2951 10.137 41.5919 9.93435 39.9447 9.51402C38.7211 9.19566 37.5288 8.71351 36.5021 7.96529C36.4171 7.9191 36.3505 7.82404 36.2536 7.80469Z" fill="#EE5600"/>
<path fill-rule="evenodd" clip-rule="evenodd" d="M58.732 25.2228C57.315 25.7023 55.8863 26.1461 54.4232 26.4627C52.1529 26.9631 49.8379 27.2548 47.5169 27.3748C45.5026 27.43 43.4828 27.4572 41.4739 27.2821C38.4317 27.043 35.4055 26.5553 32.4669 25.7234C32.336 25.7952 32.3775 26.0008 32.3251 26.1249C31.0655 32.0303 29.7989 37.9347 28.5508 43.8422C28.5888 43.9833 28.7922 43.9814 28.8976 44.0499C32.0792 45.2858 35.4215 46.0786 38.7954 46.5683C41.2211 46.9057 43.6708 47.0981 46.1207 47.0792C48.8298 47.0594 51.5403 46.8456 54.2068 46.3587C57.189 45.8204 60.1223 44.9853 62.9203 43.8189C63.0591 43.783 63.0347 43.6351 62.9892 43.5327C61.6434 37.6726 60.3286 31.8054 58.9582 25.9511C58.8941 25.7119 58.8528 25.4639 58.7686 25.2312C58.76 25.2198 58.7444 25.2189 58.732 25.2228Z" fill="white"/>
<path fill-rule="evenodd" clip-rule="evenodd" d="M63.4633 45.7842C59.8892 47.1981 56.1408 48.1989 52.3232 48.677C50.4506 48.9145 48.5668 49.0775 46.6772 49.0547C44.7975 49.0646 42.9145 49.0648 41.045 48.8524C36.6638 48.437 32.3181 47.4963 28.1988 45.9416C28.0057 45.92 28.085 46.2296 28.0168 46.3379C26.8911 51.6057 25.762 56.8749 24.6494 62.1441C24.7557 62.323 25.0304 62.3127 25.1996 62.4065C30.3954 64.1635 35.8365 65.1322 41.2977 65.5554C47.7335 66.0281 54.268 65.6235 60.5278 64.0038C62.6346 63.4519 64.7085 62.7647 66.7202 61.9303C66.8375 61.849 67.0675 61.828 67.1054 61.6754C65.927 56.3844 64.727 51.098 63.5052 45.8169C63.5029 45.7973 63.4834 45.7787 63.4633 45.7842Z" fill="#EE5600"/>
<path fill-rule="evenodd" clip-rule="evenodd" d="M67.5674 63.7756C66.3389 64.2278 65.125 64.7237 63.8737 65.1135C57.3343 67.2372 50.4016 67.9538 43.5479 67.6862C37.9741 67.4683 32.42 66.611 27.0539 65.0854C26.1032 64.8272 25.1763 64.4813 24.2256 64.2283C24.0392 64.8382 23.942 65.4924 23.7928 66.1197C22.7882 70.85 21.772 75.5784 20.8145 80.3184C21.1182 80.5779 21.5246 80.7247 21.8742 80.9265C26.6934 83.4292 31.955 85.0183 37.3053 85.8867C40.1117 86.3263 42.9509 86.6091 45.7943 86.5628C47.9246 86.5759 50.0566 86.4865 52.1704 86.213C58.4575 85.467 64.5861 83.4948 70.1561 80.4904C70.3716 80.3489 70.6614 80.2737 70.828 80.0876C70.913 79.7746 71.0744 79.4669 71.1143 79.1508C69.9435 74.0329 68.7878 68.9114 67.6012 63.7971C67.5967 63.7803 67.5815 63.7743 67.5674 63.7756Z" fill="white"/>
</g>
<defs>
<clipPath id="clip0">
<rect width="91.6245" height="103.959" fill="white" transform="translate(0.0566406 0.564453)"/>
</clipPath>
</defs>
</svg>
