<svg width="371" height="733" viewBox="0 0 101 333" fill="none" xmlns="http://www.w3.org/2000/svg">
<path d="M1.29004 7.40486C1.29004 5.69916 2.61231 4.31641 4.24341 4.31641C5.87451 4.31641 7.19677 5.69915 7.19677 7.40485V329.249C7.19677 330.954 5.87451 332.337 4.24341 332.337C2.61231 332.337 1.29004 330.954 1.29004 329.249V7.40486Z" fill="white"/>
<path d="M1.29004 7.40486C1.29004 5.69916 2.61231 4.31641 4.24341 4.31641C5.87451 4.31641 7.19677 5.69915 7.19677 7.40485V329.249C7.19677 330.954 5.87451 332.337 4.24341 332.337C2.61231 332.337 1.29004 330.954 1.29004 329.249V7.40486Z" stroke="black"/>
<path d="M1.27051 272.773H7.38872V329.673C7.38872 331.362 6.01911 332.732 4.32961 332.732C2.64012 332.732 1.27051 331.362 1.27051 329.673V272.773Z" fill="black"/>
<path d="M46.4786 23.6135C38.7131 23.9594 14.3529 9.03755 2.24043 0.944584C1.64936 0.549659 0.929647 0.619696 0.885322 1.32918C0.405279 9.01305 18.5352 56.215 28.3146 80.4379C22.9983 86.8751 29.4221 88.4289 30.5297 89.5387C31.4158 90.4266 36.0675 90.5006 38.2827 90.4266C44.6622 70.3605 62.5014 48.1782 70.6236 39.5954C65.898 34.1201 54.4531 23.2584 46.4786 23.6135Z" fill="#FFFF00"/>
<path opacity="0.46" d="M46.4786 23.6135C38.7131 23.9594 14.3529 9.03755 2.24043 0.944584C1.64936 0.549659 0.929647 0.619696 0.885322 1.32918C0.405279 9.01305 18.5352 56.215 28.3146 80.4379C22.9983 86.8751 29.4221 88.4289 30.5297 89.5387C31.4158 90.4266 36.0675 90.5006 38.2827 90.4266C44.6622 70.3605 62.5014 48.1782 70.6236 39.5954C65.898 34.1201 54.4531 23.2584 46.4786 23.6135Z" fill="url(#paint0_linear)" fill-opacity="0.24"/>
<path d="M26.2954 85.4362L28.2228 81.2849C28.6269 80.4146 28.6608 79.4176 28.3168 78.5218L14.7277 43.1394C9.12682 28.6968 6.29935 20.6308 2.38605 6.31228L0.896484 1.56055L1.28411 73.9766C4.58992 73.5329 10.32 72.4236 15.8297 72.4236C20.2374 72.4236 22.8821 73.0892 23.984 76.4169L26.2954 85.4362Z" fill="#FFFF00"/>
<path opacity="0.46" d="M26.2954 85.4362L28.2228 81.2849C28.6269 80.4146 28.6608 79.4176 28.3168 78.5218L14.7277 43.1394C9.12682 28.6968 6.29935 20.6308 2.38605 6.31228L0.896484 1.56055L1.28411 73.9766C4.58992 73.5329 10.32 72.4236 15.8297 72.4236C20.2374 72.4236 22.8821 73.0892 23.984 76.4169L26.2954 85.4362Z" fill="url(#paint1_linear)" fill-opacity="0.55"/>
<defs>
<linearGradient id="paint0_linear" x1="16.131" y1="49.806" x2="38.5113" y2="43.1721" gradientUnits="userSpaceOnUse">
<stop/>
<stop offset="1" stop-opacity="0"/>
</linearGradient>
<linearGradient id="paint1_linear" x1="16.4052" y1="47.2055" x2="-3.42991" y2="54.0354" gradientUnits="userSpaceOnUse">
<stop/>
<stop offset="1" stop-color="white" stop-opacity="0"/>
</linearGradient>
</defs>
</svg>
