<svg version="1.2" xmlns="http://www.w3.org/2000/svg" viewBox="0 0 1920 1040" width="1920" height="1040">
	<title>full-pitch-up-svg</title>
	<style>
		tspan { white-space:pre } 
		.s0 { fill: #759f4f;stroke: #cdcdcd;stroke-width: .6 } 
		.s1 { fill: #488a0a } 
		.s2 { fill: #377508 } 
		.s3 { fill: #ffffff } 
		.s4 { fill: #169d80 } 
		.s5 { fill: #fefefe } 
		.t6 { font-size: 54px;fill: #000000;font-weight: 400;font-family: "IBMPlexSerif-Regular", "IBM Plex Serif" } 
		.s7 { fill: #2b2a29 } 
	</style>
	<g id="Layer">
		<path id="Layer" class="s0" d="m1582.3 83.5h-1244.5c-18.1 0-32.8 14.6-32.8 32.8v807.5c0 18.1 14.7 32.8 32.8 32.8h1244.5c18.1 0 32.8-14.7 32.8-32.8v-807.5c0-18.2-14.7-32.8-32.8-32.8z"/>
		<path id="Layer" class="s1" d="m442.6 122.1h-96.9v795.8h96.9z"/>
		<path id="Layer" class="s2" d="m1477.4 122.1h96.9v795.8h-96.9z"/>
		<path id="Layer" class="s1" d="m642.6 122.1h-103.2v795.8h103.2z"/>
		<path id="Layer" class="s2" d="m1277.4 122.1h103.2v795.8h-103.2z"/>
		<path id="Layer" class="s1" d="m851 122.1h-105.3v795.8h105.3z"/>
		<path id="Layer" class="s2" d="m1068.9 122.1h105.3v795.8h-105.3z"/>
		<path id="Layer" class="s2" d="m539.4 122.1h-96.8v795.8h96.8z"/>
		<path id="Layer" class="s1" d="m1380.6 122.1h96.8v795.8h-96.8z"/>
		<path id="Layer" class="s2" d="m745.7 122.1h-103.1v795.8h103.1z"/>
		<path id="Layer" class="s1" d="m1174.2 122.1h103.2v795.8h-103.2z"/>
		<path id="Layer" class="s2" d="m960 122.1h-109v795.9h109z"/>
		<path id="Layer" class="s1" d="m960 122.1h109v795.9h-109z"/>
		<path id="Layer" fill-rule="evenodd" class="s3" d="m341.7 118.9h1236.4v802.4h-1236.4zm4.2 4.2v794.1h611.9v-794.1zm616.1 0v794.1h611.9v-794.1z"/>
		<path id="Layer" fill-rule="evenodd" class="s3" d="m850.4 520.1c0-60.5 49-109.5 109.5-109.5 60.5 0 109.5 49 109.5 109.5 0 60.5-49 109.5-109.5 109.5-60.5 0-109.5-49-109.5-109.5zm109.5-105.3c-58.2 0-105.3 47.2-105.3 105.3 0 58.2 47.1 105.3 105.3 105.3 58.1 0 105.3-47.1 105.3-105.3 0-58.1-47.2-105.3-105.3-105.3z"/>
		<path id="Layer" class="s3" d="m959.9 522.5c1.3 0 2.3-1.1 2.3-2.4 0-1.3-1-2.3-2.3-2.3-1.3 0-2.4 1-2.4 2.3 0 1.3 1.1 2.4 2.4 2.4z"/>
		<path id="Layer" fill-rule="evenodd" class="s3" d="m955.4 520.1c0-2.4 2-4.4 4.5-4.4 2.4 0 4.4 2 4.4 4.4 0 2.5-2 4.5-4.4 4.5-2.5 0-4.5-2-4.5-4.5zm4.5-0.2c-0.1 0-0.3 0.1-0.3 0.2 0 0.1 0.2 0.3 0.3 0.3 0.1 0 0.2-0.2 0.2-0.3 0-0.1-0.1-0.2-0.2-0.2z"/>
		<path id="Layer" class="s3" d="m472.9 522.5c1.3 0 2.3-1.1 2.3-2.4 0-1.3-1-2.3-2.3-2.3-1.3 0-2.4 1-2.4 2.3 0 1.3 1.1 2.4 2.4 2.4z"/>
		<path id="Layer" fill-rule="evenodd" class="s3" d="m468.4 520.1c0-2.4 2-4.4 4.5-4.4 2.4 0 4.4 2 4.4 4.4 0 2.5-2 4.5-4.4 4.5-2.5 0-4.5-2-4.5-4.5zm4.5-0.2c-0.2 0-0.3 0.1-0.3 0.2 0 0.1 0.1 0.3 0.3 0.3 0.1 0 0.2-0.2 0.2-0.3 0-0.1-0.1-0.2-0.2-0.2z"/>
		<path id="Layer" class="s3" d="m1446.9 522.5c1.3 0 2.4-1.1 2.4-2.4 0-1.3-1.1-2.3-2.4-2.3-1.3 0-2.3 1-2.3 2.3 0 1.3 1 2.4 2.3 2.4z"/>
		<path id="Layer" fill-rule="evenodd" class="s3" d="m1442.5 520.1c0-2.4 2-4.4 4.4-4.4 2.5 0 4.5 2 4.5 4.4 0 2.5-2 4.5-4.5 4.5-2.4 0-4.4-2-4.4-4.5zm4.4-0.2c-0.1 0-0.2 0.1-0.2 0.2 0 0.1 0.1 0.3 0.2 0.3 0.2 0 0.3-0.2 0.3-0.3 0-0.1-0.1-0.2-0.3-0.2z"/>
		<path id="Layer" fill-rule="evenodd" class="s3" d="m320.6 476.2h25.3v89h-25.3zm4.2 4.2v80.5h16.8v-80.5z"/>
		<path id="Layer" fill-rule="evenodd" class="s3" d="m341.7 411.7h68.7v218.1h-68.7zm4.2 4.2v209.6h60.3v-209.6z"/>
		<path id="Layer" fill-rule="evenodd" class="s3" d="m1509.4 411.7h68.7v218.1h-68.7zm4.2 4.2v209.6h60.3v-209.6z"/>
		<path id="Layer" fill-rule="evenodd" class="s3" d="m341.7 282.5h197.8v476.4h-197.8zm4.2 4.2v467.9h189.4v-467.9z"/>
		<path id="Layer" fill-rule="evenodd" class="s3" d="m1380.3 282.5h197.8v476.4h-197.8zm4.2 4.2v467.9h189.4v-467.9z"/>
		<path id="Layer" fill-rule="evenodd" class="s3" d="m535.3 430.1l3.4 2.5c13.5 10.2 24.5 23.4 32.1 38.6 7.6 15.2 11.5 31.9 11.5 48.9 0 17-3.9 33.7-11.5 48.9-7.6 15.2-18.6 28.4-32.1 38.6l-3.4 2.6zm4.2 8.5v163c11.5-9.4 20.9-21.1 27.5-34.4 7.3-14.6 11.1-30.7 11.1-47.1 0-16.3-3.8-32.4-11.1-47-6.6-13.3-16-25.1-27.5-34.5z"/>
		<path id="Layer" fill-rule="evenodd" class="s3" d="m1384.5 430.1v180.1l-3.4-2.6c-13.6-10.2-24.6-23.4-32.1-38.6-7.6-15.2-11.6-31.9-11.6-48.9 0-17 4-33.7 11.6-48.9 7.5-15.2 18.5-28.4 32.1-38.6zm-4.2 8.5c-11.5 9.5-20.9 21.2-27.5 34.5-7.3 14.6-11.1 30.7-11.1 47.1 0 16.3 3.8 32.4 11.1 47 6.6 13.3 16 25.1 27.5 34.5z"/>
		<path id="Layer" fill-rule="evenodd" class="s3" d="m341.7 118.9h15.9v2.1c0 3.7-1.5 7.2-4.1 9.8-2.6 2.6-6.1 4.1-9.7 4.1h-2.1zm4.2 4.2v7.3c1.7-0.4 3.4-1.3 4.7-2.6 1.3-1.3 2.2-3 2.6-4.7z"/>
		<path id="Layer" fill-rule="evenodd" class="s3" d="m341.7 905.4h2.1c3.6 0 7.1 1.4 9.7 4 2.6 2.6 4.1 6.1 4.1 9.8v2.1h-15.9zm4.2 4.5v7.3h7.3c-0.4-1.8-1.3-3.4-2.6-4.7-1.3-1.3-3-2.2-4.7-2.6z"/>
		<path id="Layer" fill-rule="evenodd" class="s3" d="m1566.2 909.4c2.6-2.6 6.2-4 9.8-4h2.1v15.9h-15.9v-2.1c0-3.7 1.5-7.2 4-9.8zm7.7 0.4c-1.7 0.4-3.4 1.3-4.7 2.6-1.3 1.3-2.2 3-2.6 4.7h7.3z"/>
		<path id="Layer" fill-rule="evenodd" class="s3" d="m1562.2 118.9h15.9v16h-2.1c-3.6 0-7.2-1.5-9.8-4.1-2.5-2.6-4-6.1-4-9.8zm4.4 4.2c0.4 1.8 1.3 3.4 2.6 4.7 1.3 1.3 3 2.2 4.7 2.6v-7.3z"/>
		<path id="Layer" fill-rule="evenodd" class="s3" d="m1574 476.5h25.2v89h-25.2zm4.2 4.2v80.5h16.8v-80.5z"/>
	</g>
	<g id="Layer_x0020_1" style="opacity: .1">
		<path id="Layer" fill-rule="evenodd" class="s4" d="m784.7 459.9h80.9c7.4 0 13.5 4.5 13.5 10.3v88.9c0 5.6-6.1 10.3-13.5 10.3h-80.9c-7.4 0-13.5-4.5-13.5-10.3v-88.9c0-5.8 6.1-10.3 13.5-10.3z"/>
		<path id="Layer" fill-rule="evenodd" class="s5" d="m821.4 469.4c20.3 0 36.8 16.2 37.1 36.3 0 0.2 0 0.2 0.2 0.3 0 2.4 0 4.7 0.2 6.9 2.7 4.8 4.8 8.4 7.6 13 1.3 1.8 1 3.4-0.6 4-2.1 1-5.8-0.3-7.1 1.3 0 6.9 0 11.3 0 18-0.3 5.8-1.9 6.3-6.9 7.1-5.9 0-11.9 0-17.7 0v12.9h-36.5c-0.2-11.6-0.3-23-0.5-34.4 0.2-0.2 0.2-0.2 0.2-0.2-8-6.9-13-16.9-13-28.3 0-20.4 16.5-37.1 37-36.9z"/>
		<text id="MORABI" style="transform: matrix(1,0,0,1,883.496,514.038)" >
			<tspan x="0" y="0" class="t6">M</tspan><tspan  y="0" class="t6">O</tspan><tspan  y="0" class="t6">R</tspan><tspan  y="0" class="t6">A</tspan><tspan  y="0" class="t6">B</tspan><tspan  y="0" class="t6">I
</tspan>
		</text>
		<text id="MODERN" style="transform: matrix(1,0,0,1,883.327,564.272)" >
			<tspan x="0" y="0" class="t6" dx="0" >M</tspan><tspan  y="0" class="t6" dx="0" >O</tspan><tspan  y="0" class="t6" dx="0 -1 -1 -1 -1" >DERN
</tspan>
		</text>
		<path id="Layer" class="s7" d="m834.1 499.6v15l-11.9 6.7-12.1-6.6v-0.9-14l11.6-6.9z"/>
		<path id="Layer" fill-rule="evenodd" class="s7" d="m833.7 471.5l-9 5.6c-1.4 0.8-3.5 1-4.7 0.2l-9.8-6.1c3.5-1.1 7.2-1.8 11.1-1.8 4.4 0 8.6 0.6 12.4 2.1z"/>
		<path id="Layer" fill-rule="evenodd" class="s7" d="m796.6 478.9l0.6 10.5c0.2 1.6-1 3.5-2.1 4.2l-10.1 5.8c0.8-3.7 2.1-7.2 3.9-10.6 1.9-4 4.6-7.4 7.7-9.9z"/>
		<path id="Layer" fill-rule="evenodd" class="s7" d="m846.3 478.9l-0.6 10.5c-0.2 1.6 1 3.5 2.1 4.2l10.1 5.8c-0.8-3.7-2.1-7.2-3.9-10.6-1.9-4-4.7-7.4-7.7-9.9z"/>
		<path id="Layer" fill-rule="evenodd" class="s7" d="m785.2 514.7l9.5 4.7c1.4 0.8 2.6 2.4 2.6 3.9v11.6c-2.9-2.4-5.3-5.3-7.4-8.5-2.5-3.8-3.9-7.7-4.7-11.7z"/>
	</g>
</svg>