<svg width="14" height="43" viewBox="0 0 134 423" fill="none" xmlns="http://www.w3.org/2000/svg">
<g clip-path="url(#clip0)">
<path d="M53.8029 2.86282C53.2368 3.18631 52.2259 3.42894 51.5385 3.46938C49.4358 3.46938 48.1594 4.96158 46.6633 7.02379C44.4797 10.016 43.4051 9.40513 43.4859 11.4673C43.5264 12.5187 43.4051 14.5809 43.2029 16.0366C42.9621 18.615 41.5336 19.3143 41.9319 23.3188C43.7111 26.8771 43.7919 27.1602 43.7919 30.5972V34.1555L42.3767 33.9938C41.0423 33.832 40.921 33.9533 40.3145 35.3281C39.4653 37.3904 39.7484 41.2721 41.1232 45.6392C42.2958 49.4806 43.6302 51.1384 45.2476 50.7341C46.0968 50.4914 46.1776 50.6532 46.582 53.2411C47.229 57.5272 47.8759 68.0809 47.5524 68.9705C47.3907 69.4153 44.6006 71.9223 41.3658 74.5101C35.9879 78.7963 34.8557 79.5241 27.2538 83.2442C16.7002 88.4603 14.274 90.1991 12.3736 93.9596C11.5649 95.4961 10.5944 97.7605 10.19 98.9331C9.13873 102.047 7.48087 111.023 6.99565 116.603C6.75303 119.272 6.10606 123.316 5.5804 125.54C4.3269 130.796 3.47776 137.468 2.9521 146.121C2.70948 149.882 2.22426 154.977 1.90077 157.443C1.45598 160.436 1.33468 163.145 1.49642 165.733C1.61773 167.835 1.73903 176.408 1.73903 184.737C1.73903 193.067 1.94121 201.882 2.18382 204.268C2.46687 207.26 2.50731 208.796 2.18382 209.12C1.29424 210.212 0.809017 216.924 1.25381 221.25C2.26469 230.227 2.26469 231.198 1.29424 235.282C0.647275 238.193 0.404662 240.498 0.364226 244.784C0.323791 251.051 0.566404 251.981 3.67994 258.815C5.33779 262.373 6.63173 263.748 8.12784 263.506C8.57263 263.425 9.42177 263.91 10.19 264.678C11.484 265.972 11.767 266.053 13.9505 265.446C14.7593 265.204 15.2445 265.325 15.6893 265.77C16.0532 266.134 16.6193 266.417 16.9428 266.417C17.2663 266.417 17.5089 266.538 17.5089 266.7C17.5089 266.902 17.7919 269.49 18.1154 272.482C18.4389 275.474 18.7219 281.58 18.7219 286.028C18.7624 290.476 18.9241 295.935 19.0859 298.159C19.4498 302.364 19.1263 309.198 18.075 319.59C17.7515 322.905 17.3876 329.658 17.2663 334.551C17.0236 342.557 17.1045 344.376 18.075 352.747C18.6815 357.842 19.4498 363.947 19.7733 366.293C20.1372 368.638 20.4607 372.439 20.4607 374.784L20.5415 379.07L18.3984 381.941C17.2663 383.518 14.1932 387.4 11.6053 390.594C6.34868 397.145 5.4591 398.479 3.31602 403.493C1.53686 407.618 0.647275 412.51 1.17294 415.179C1.65816 417.565 3.55863 419.101 6.79347 419.708C9.74526 420.233 12.3331 419.748 16.498 417.848C20.0967 416.19 22.9272 413.036 26.1216 407.132C28.7095 402.321 30.9335 399.45 33.8852 397.145C37.6457 394.193 39.2632 390.675 38.7779 386.551C38.6162 385.338 38.3331 384.165 38.1714 383.922C37.5649 383.195 36.9179 377.372 36.9179 372.641C36.9179 368.961 37.4031 365.403 39.3845 353.758C40.7188 345.873 42.0532 337.866 42.3767 335.966C42.7002 334.065 43.2258 328.971 43.5898 324.563C44.358 314.535 45.4094 309.238 47.4311 305.235C49.1294 301.879 50.2212 297.148 51.2725 288.656C52.9708 275.272 55.5991 264.031 58.9957 255.904C61.5835 249.636 64.0501 247.048 65.4249 249.191C65.708 249.636 67.3254 253.761 68.9832 258.33C75.372 275.798 76.0594 278.062 77.1512 284.532C79.0112 295.733 80.0626 299.897 81.8417 303.173C83.7018 306.529 84.4296 308.995 84.8339 313.322C85.2787 318.013 88.4731 337.058 90.7375 348.258C94.6193 367.425 95.0641 370.66 94.9024 377.21C94.8215 380.445 94.5385 384.448 94.2958 386.187C93.9724 388.492 93.9724 390.149 94.2958 392.778C94.7002 395.77 95.0641 396.781 96.722 399.692C97.935 401.754 98.9864 404.261 99.3907 406.041C100.523 410.691 101.817 413.481 104.283 416.473C107.316 420.193 110.349 421.932 114.433 422.336L117.385 422.619L119.608 420.921C122.318 418.859 123.652 416.433 124.299 412.349C124.946 408.103 124.461 404.787 122.641 400.824C121.792 398.964 120.579 396.7 119.892 395.73C117.789 392.656 115.686 388.047 114.473 383.882C113.705 381.132 113.017 379.555 112.371 378.989C111.602 378.342 111.319 377.453 110.915 374.744C110.227 369.932 110.591 358.327 111.724 349.916C112.532 343.972 112.654 341.182 112.694 329.294C112.734 320.722 112.532 314.009 112.249 311.502C111.966 309.278 111.562 304.992 111.279 302C111.036 299.008 110.389 293.873 109.864 290.638C109.257 286.918 108.893 283.036 108.893 280.246C108.893 275.636 109.58 264.072 109.904 262.454C110.106 261.605 110.147 261.605 111.117 262.212C111.683 262.576 112.451 262.778 112.856 262.656C113.301 262.576 114.069 262.737 114.594 263.02C116.252 263.95 118.436 263.748 119.325 262.576C119.892 261.848 120.7 261.484 122.035 261.282C123.854 261.039 124.056 260.918 125.512 258.572C126.685 256.712 127.453 255.944 128.504 255.54C130 255.014 131.052 253.316 133.114 248.1C134.125 245.593 134.084 243.611 132.952 237.425C132.063 232.815 131.537 227.114 131.335 220.32C131.173 214.376 130.566 210.454 129.556 209.282C128.949 208.554 128.221 199.375 128.343 193.876C128.423 189.913 128.221 188.093 127.413 184.333C126.523 180.33 126.442 179.278 126.766 176.852C127.089 174.588 127.008 173.213 126.321 169.574C125.876 167.148 125.391 163.306 125.269 161.082C125.108 158.859 124.663 155.664 124.259 154.006C122.399 146.607 121.832 143.17 121.832 139.652C121.832 132.656 120.538 122.305 117.951 108.88C116.657 101.966 113.624 91.1291 112.654 89.7543C112.128 89.0669 108.529 87.0451 102.181 83.8507C93.8511 79.6859 85.9257 75.2784 81.1139 72.1648C80.386 71.7201 79.6582 70.9518 79.456 70.507C79.2539 70.0622 79.2134 65.5335 79.3347 60.196L79.5773 50.6936L80.6287 50.8149C81.5991 50.9362 81.8822 50.6128 83.8231 46.7714C85.5213 43.3748 86.0066 41.9595 86.3705 39.2099L86.8153 35.8134L85.6427 34.8834C84.9553 34.3577 84.187 33.9938 83.9444 34.1151C83.2165 34.3577 82.61 33.0233 83.0548 32.2146C83.257 31.8507 83.257 30.5163 83.0548 29.0202C82.893 27.605 82.8526 25.9067 83.0144 25.2193C83.7826 22.3484 82.4515 16.3197 82.0471 15.511C81.8045 15.0662 81.6023 14.1361 81.6023 13.4083C81.6023 12.7209 81.1171 10.8609 80.5106 9.28389C79.621 7.05993 79.1358 6.33211 78.1249 5.88732C77.4375 5.5234 76.5479 4.71469 76.184 4.06772C75.3348 2.69291 74.0409 2.08638 71.9382 2.16725C71.1295 2.16725 71.4902 1.84756 70.4794 1.60495C69.4685 1.36234 65.3845 1.0793 61.3814 0.957998C55.4374 0.796256 54.6116 2.3776 53.8029 2.86282ZM69.4685 3.62671C70.6007 3.86933 70.5634 4.26991 71.6552 4.35078C73.3535 4.39122 73.7983 4.63382 74.89 5.84688C75.5774 6.65559 76.467 7.46431 76.8714 7.66648C77.8014 8.15171 79.5805 12.3974 79.5805 14.1766C79.5805 14.9044 79.7423 15.8344 79.9445 16.1984C80.1466 16.6027 81.0154 17.9371 80.8132 19.3928C80.611 20.7676 81.3565 22.6718 81.2352 23.8849C81.1543 25.0575 81.033 26.0684 80.9926 26.1089C80.9521 26.1897 80.8713 26.3919 80.8308 26.5941C80.7095 27.5241 80.1434 27.4432 78.6878 26.311C77.3938 25.3001 76.5485 20.2806 73.9606 20.0784C72.3027 19.9571 69.7957 19.4719 68.4209 19.0271C64.8222 17.814 60.9808 17.8949 57.5034 19.2293C55.9668 19.7954 53.4598 20.3615 51.802 20.4828C49.3731 20.5843 48.0278 24.2123 47.3907 26.7154C45.935 27.7667 45.8137 27.8071 45.8137 27.0389C45.8137 26.5941 43.4001 23.4024 44.0095 21.2257L44.9416 17.8966L45.4268 14.9852C45.7099 13.3678 46.0681 12.2214 45.9064 11.6553C45.7446 10.9274 46.4611 11.1886 47.3507 10.0564C47.9976 9.24772 48.6446 8.1964 48.8063 7.75161C49.0894 6.78116 50.6489 5.49114 52.3876 5.49114C53.075 5.4507 54.0455 5.2081 54.6116 4.88462C55.8246 4.19721 66.1528 2.85844 69.4685 3.62671ZM103.07 174.426C104.526 180.653 104.566 180.734 106.103 181.826C107.761 182.958 107.923 183.282 109.136 188.781C109.5 190.439 110.066 192.339 110.389 192.986C111.562 195.291 113.341 202.003 113.745 205.764C113.988 207.866 114.514 210.252 114.878 211.02C115.848 213.002 115.686 217.894 114.594 221.21C114.109 222.585 112.856 225.334 111.804 227.275L109.864 230.834L109.378 227.882C109.095 226.264 108.812 223.232 108.691 221.129C108.529 217.773 105.941 197.313 105.456 195.655C105.375 195.331 104.89 192.096 104.445 188.498C104 184.899 103.192 179.804 102.666 177.176C101.574 171.717 101.049 168.159 101.332 168.159C101.453 168.159 102.221 170.989 103.07 174.426ZM17.0236 179.44C18.8432 179.642 20.4607 179.845 20.582 179.966C20.7033 180.087 20.1372 182.432 19.3285 185.142C18.5602 187.851 17.9132 190.317 17.9132 190.641C17.9132 191.126 17.6302 191.086 16.3767 190.439C12.5757 188.498 6.95521 187.932 4.52908 189.226C3.80124 189.589 3.76081 189.387 3.76081 184.575V179.521L5.70171 179.359C9.2196 179.076 13.6271 179.117 17.0236 179.44ZM123.248 181.058C124.42 181.3 124.461 181.422 125.512 186.152C126.119 188.781 126.523 191.166 126.402 191.45C126.28 191.733 124.218 191.975 120.296 192.137C117.021 192.258 113.988 192.501 113.503 192.622C112.856 192.824 112.573 192.663 112.209 191.733C111.724 190.6 110.106 183.848 110.106 183.12C110.106 181.624 119.285 180.208 123.248 181.058ZM20.9863 195.008C20.6628 198.162 20.2585 202.812 20.1372 205.359C19.6115 215.023 18.8837 219.107 17.8324 218.46C17.5493 218.299 17.5089 216.762 17.711 213.891C17.9537 210.373 17.8728 209.282 17.3471 208.028C16.9832 207.179 16.7002 205.521 16.7002 204.389C16.7406 201.397 18.1154 194.523 18.8432 193.714C19.2072 193.35 19.8946 191.369 20.4202 189.387C21.3098 185.869 21.3502 185.829 21.4715 187.527C21.5524 188.498 21.3098 191.894 20.9863 195.008ZM12.8588 191.369C16.498 192.46 16.4171 192.339 15.4871 197.434C15.0423 199.901 14.6784 202.933 14.6784 204.227V206.572L11.5649 206.613C9.82613 206.613 7.56174 206.775 6.51042 206.936C5.41866 207.098 4.56952 207.138 4.56952 207.017C4.56952 206.896 4.36734 205.117 4.12473 203.135C3.92255 201.114 3.84168 197.717 4.00342 195.574C4.24603 191.854 4.3269 191.652 5.33779 191.247C7.80435 190.317 9.30047 190.317 12.8588 191.369ZM126.442 200.184C126.563 203.58 126.806 206.775 126.927 207.219C127.17 208.109 127.049 208.109 121.752 208.271C118.8 208.352 116.333 208.432 116.293 208.392C116.252 208.352 116.01 206.775 115.808 204.874C115.605 202.974 114.999 200.022 114.514 198.324C114.028 196.625 113.745 195.129 113.907 194.967C114.352 194.523 117.708 194.159 122.075 194.078L126.159 194.037L126.442 200.184ZM15.6488 209.605C15.8106 210.171 15.8106 212.031 15.6488 213.77C15.4871 215.549 15.6084 218.46 15.851 220.523C16.4171 224.647 16.4171 224.687 24.8277 237.384C28.4669 242.883 29.6395 244.986 29.8417 246.361C30.1247 248.18 29.9226 249.03 29.1947 249.03C28.9521 249.03 26.9708 247.291 24.7873 245.148C21.3907 241.832 20.5415 241.226 19.1667 241.064C17.711 240.862 17.4684 240.943 17.0641 241.832C16.4575 243.247 17.6706 253.478 18.7624 255.58C20.865 259.664 21.5524 262.778 20.3394 262.778C19.4093 262.778 15.8915 253.963 15.1232 249.717C14.8806 248.423 14.5975 247.21 14.4762 246.967C14.1123 246.401 13.061 246.523 12.8184 247.17C12.2523 248.666 14.638 256.995 16.9428 261.605C17.8728 263.465 17.8324 263.991 16.9023 263.991C16.4171 263.991 13.3036 258.33 11.8075 254.691C11.2818 253.478 10.7966 251.294 10.6753 249.838C10.4731 247.574 10.3114 247.21 9.62395 247.21C8.89611 247.21 8.81524 247.534 8.69394 249.798C8.57263 252.628 9.09829 254.367 11.9288 260.109C13.1823 262.616 13.4249 263.384 12.9801 263.627C12.697 263.829 12.3331 263.991 12.2118 263.991C11.8479 263.991 8.37045 257.198 8.00653 255.701C7.84479 255.014 7.48087 252.952 7.23826 251.051C6.8339 248.019 6.7126 247.614 5.98476 247.614C5.21648 247.614 5.17605 247.857 5.29735 251.051C5.37823 254.367 6.06563 257.319 7.23826 259.624C7.88523 260.837 7.92566 261.16 7.48087 261.16C7.11695 261.16 4.40777 255.216 3.0734 251.658C2.02208 248.706 2.10295 241.63 3.35645 236.131C4.08429 232.653 4.2056 231.238 4.00342 228.327C3.67994 224.121 3.19471 224.404 10.4327 224.243C15.0019 224.162 15.2849 224.121 15.2849 223.353C15.2849 222.585 14.9614 222.544 9.38134 222.423L3.47776 222.302L3.19471 219.593C2.83079 215.994 3.55863 211.061 4.56952 210.05C5.49953 209.12 7.64261 208.715 12.0905 208.635C15.2849 208.594 15.4062 208.635 15.6488 209.605ZM127.574 210.697C128.383 211.344 128.989 213.932 129.353 218.258L129.636 221.614L128.059 221.412C127.17 221.25 124.542 221.048 122.156 220.927C118.315 220.684 117.748 220.725 117.546 221.331C117.385 221.695 117.425 222.14 117.627 222.342C117.829 222.544 120.417 222.868 123.409 223.111C126.361 223.313 128.868 223.596 128.989 223.677C129.07 223.798 129.434 226.386 129.758 229.459C130.081 232.572 130.607 236.535 130.89 238.314C132.063 244.743 132.063 244.986 130.89 247.817C129.636 250.971 129.475 251.173 129.758 249.394C130.081 247.331 129.434 245.188 128.464 245.188C127.817 245.188 127.696 245.512 127.655 247.412C127.655 249.717 126.078 253.72 123.692 257.44C121.711 260.594 122.115 258.936 124.259 255.176C126.199 251.779 126.321 251.375 126.199 249.191C126.078 247.129 125.957 246.806 125.269 246.806C124.582 246.806 124.42 247.129 124.259 249.03C124.097 250.728 123.571 252.062 122.075 254.691C118.436 260.958 117.304 262.131 115.808 261.201C115.403 260.958 115.888 260.069 117.829 257.481C119.77 254.933 120.7 253.235 121.63 250.566C122.52 247.897 122.722 246.927 122.358 246.563C121.468 245.673 120.741 246.563 119.447 250.162C118.436 252.911 117.506 254.569 115.524 257.076C114.109 258.855 112.734 260.352 112.532 260.352C111.764 260.352 112.128 258.977 113.705 256.146C116.01 251.901 117.385 247.048 117.506 242.479L117.587 238.719L116.05 238.759C113.826 238.84 111.602 241.104 110.51 244.38C109.58 247.21 108.489 248.383 106.588 248.747C105.577 248.949 105.173 248.827 104.728 248.18C103.717 246.765 104.647 244.42 110.025 234.877C112.815 229.863 115.565 224.687 116.131 223.353C117.385 220.24 118.072 214.862 117.506 212.436C117.021 210.292 116.899 210.333 122.884 210.252C125.593 210.212 127.129 210.373 127.574 210.697ZM108.287 232.855C108.408 233.058 107.235 235.443 105.658 238.193C103.798 241.509 102.666 243.975 102.383 245.512C101.938 247.736 101.938 247.897 103.03 249.474L104.122 251.173L106.386 250.89C107.64 250.728 108.893 250.404 109.176 250.162C110.066 249.434 109.823 253.356 108.731 258.047C107.64 262.656 106.871 271.957 106.871 280.327C106.871 284.087 107.154 287.322 107.882 291.487C109.338 299.938 109.338 299.938 106.548 304.143C104.971 306.448 103.434 308.227 102.019 309.278C99.8759 310.896 99.8355 310.896 96.1963 310.896C92.5976 310.896 92.5167 310.896 89.484 309.036C86.5322 307.216 86.3705 307.055 84.3487 303.213C82.0439 298.967 80.9521 294.762 78.9708 282.632C78.2834 278.548 77.4343 275.434 75.4529 269.894C67.1636 246.563 66.8402 245.876 63.6053 246.401C62.1496 246.644 61.7049 247.008 60.2087 248.989C55.7204 255.135 51.4747 270.097 49.2507 287.848C47.6333 300.706 45.652 306.246 41.6893 309.198C38.7375 311.341 38.9397 311.26 35.8666 311.664C32.753 312.109 30.1247 311.624 26.2429 309.925L24.1403 308.995L22.6037 304.345L21.0672 299.695L20.7437 286.19C20.3394 272.24 19.8541 266.053 19.0454 265.568C18.7624 265.366 19.0454 265.163 19.7733 265.002C22.159 264.516 22.9677 263.869 23.089 262.252C23.2103 260.756 22.2803 257.683 20.7841 254.771C20.3798 253.963 19.8137 251.537 19.5711 249.434C19.3285 247.331 19.0454 245.107 18.9241 244.46C18.6006 242.52 19.8946 243.207 24.019 247.21C28.103 251.173 28.7904 251.496 31.0143 250.647C31.9443 250.283 32.0656 250.041 32.0656 248.14C32.0656 246.967 31.9039 245.39 31.6613 244.622C31.4591 243.894 28.7095 239.366 25.5555 234.594C22.4016 229.823 19.935 225.86 20.0563 225.739C20.1776 225.617 23.7359 226.628 27.9817 227.963C35.1792 230.227 36.3114 230.47 44.5602 231.4C57.2165 232.896 71.7733 232.896 83.7826 231.44L92.1932 230.389L99.4311 227.599L106.669 224.849L107.357 228.65C107.72 230.753 108.165 232.653 108.287 232.855ZM115.524 243.247C115.241 246.037 113.22 252.952 112.371 254.084C111.804 254.812 111.764 254.569 111.724 251.213C111.724 247.129 112.694 243.49 114.231 241.873C115.565 240.457 115.808 240.74 115.524 243.247ZM109.742 307.782C109.904 309.602 110.227 313.646 110.51 316.759C111.238 324.806 110.834 340.131 109.621 349.512C108.893 355.173 108.691 358.772 108.691 365.686C108.691 370.579 108.853 375.552 109.014 376.684L109.378 378.828H105.739C102.706 378.828 101.736 378.989 99.8355 379.879C98.5416 380.445 97.4094 380.809 97.2476 380.647C97.0859 380.485 97.005 378.261 97.0455 375.674C97.1668 370.377 96.6411 366.818 92.921 348.299C89.2818 330.103 86.1279 310.087 86.9366 310.087C87.0983 310.087 88.271 310.734 89.484 311.502C91.6271 312.918 91.708 312.918 96.1963 312.918H100.685L103.313 310.936C104.93 309.723 106.507 308.025 107.518 306.529C108.367 305.154 109.176 304.184 109.297 304.265C109.419 304.386 109.621 305.963 109.742 307.782ZM24.9894 311.745C29.4778 313.767 32.3083 314.292 36.1901 313.767C38.8588 313.403 39.9101 313.039 41.2849 312.069C43.1854 310.694 43.3067 310.855 42.5789 313.929C42.3767 314.818 41.8915 319.266 41.568 323.835C41.2041 328.404 40.5571 334.106 40.1123 336.572C39.7079 338.999 38.3331 347.005 37.0796 354.364L34.8153 367.708L35.0174 374.784C35.0983 378.666 35.3409 382.143 35.4622 382.507C35.7048 383.033 35.3814 383.235 33.8448 383.478C31.9848 383.761 31.9443 383.72 30.2865 381.86C28.8308 380.162 28.2647 379.838 25.7981 379.232L22.9677 378.504L22.4824 372.722C22.2398 369.527 21.7546 364.877 21.4311 362.451C19.4498 348.218 19.0454 342.8 19.288 334.551C19.4093 330.103 19.7733 323.835 20.0967 320.6C20.4202 317.366 20.8246 312.999 20.9863 310.896L21.2694 307.055L21.8759 308.834C22.4016 310.411 22.725 310.694 24.9894 311.745ZM25.879 381.456C27.5773 381.981 28.2243 382.426 29.4373 384.084C30.9739 386.187 31.3782 386.349 33.6831 385.702C35.5431 385.176 36.3922 385.499 36.7157 386.915C37.3223 389.624 35.3409 393.546 32.3083 395.73C29.8013 397.549 26.4451 401.876 23.9785 406.526C20.9055 412.268 18.9241 414.451 15.3254 415.988C11.1605 417.767 9.62395 418.09 7.35957 417.646C4.56952 417.12 3.51819 416.311 3.19471 414.492C2.83079 412.227 3.67994 408.143 5.37823 404.261C7.48087 399.328 8.37045 397.954 13.5462 391.524C16.0532 388.37 18.9645 384.691 20.0159 383.356C22.1589 380.566 22.5229 380.445 25.879 381.456ZM112.532 384.893C113.664 388.856 115.808 393.506 117.87 396.538C119.77 399.288 122.075 404.706 122.399 407.011C122.762 409.801 122.035 414.047 120.822 416.392C120.296 417.403 119.123 418.737 118.234 419.384C116.778 420.395 116.414 420.476 114.392 420.233C108.246 419.506 103.556 414.047 101.412 405.232C101.008 403.453 99.9568 400.946 98.7842 398.884C96.3176 394.638 95.6707 390.918 96.4794 386.146L96.9646 383.154L98.582 382.669C99.4716 382.426 100.766 381.901 101.412 381.537C102.383 381.011 103.556 380.89 107.033 380.971L111.4 381.051L112.532 384.893Z" fill="black"/>
<path d="M53.3176 31.3941C52.3818 31.9197 52.8137 34.265 53.9654 34.8311C55.837 35.6802 57.4926 34.7906 57.4926 32.9306C57.4926 31.5558 57.1582 30.8798 55.5746 30.7585C54.5668 30.6776 53.6055 31.2323 53.3176 31.3941Z" fill="black"/>
<path d="M68.8953 31.7281C68.0604 32.2134 68.3387 34.1138 69.3823 34.963C70.9826 36.1761 72.9308 35.246 72.9308 33.2647C72.9308 31.8899 72.2087 31.0954 70.678 30.9741C69.7039 30.8932 69.1736 31.5664 68.8953 31.7281Z" fill="black"/>
<path d="M67.4467 47.7405C65.7889 48.711 63.201 48.8727 60.4918 48.2257C57.7827 47.5383 56.7718 47.7809 57.257 49.0344C57.904 50.6923 65.6676 51.2584 68.1341 49.8027C68.9024 49.3579 69.4685 48.711 69.4685 48.2662C69.4685 47.3361 68.5789 47.0935 67.4467 47.7405Z" fill="black"/>
<path d="M18.075 387.077C17.7111 388.007 18.1154 388.29 20.6628 389.139C22.9677 389.867 23.9786 389.745 23.9786 388.734C23.9786 388.047 21.795 386.955 19.652 386.632C18.6411 386.47 18.2771 386.591 18.075 387.077Z" fill="black"/>
<path d="M16.8618 389.463C16.7405 389.826 16.7405 390.271 16.8618 390.473C17.2257 391.08 21.8758 392.697 22.5632 392.414C23.7762 391.97 23.1697 390.918 21.2692 390.11C18.4387 388.896 17.1448 388.694 16.8618 389.463Z" fill="black"/>
<path d="M15.7702 391.646C15.2446 392.172 15.4872 393.425 16.215 393.628C16.5789 393.749 17.7516 394.234 18.8029 394.679C22.523 396.337 23.2104 394.436 19.5307 392.576C17.1046 391.363 16.2555 391.121 15.7702 391.646Z" fill="black"/>
<path d="M105.456 388.574C102.423 388.979 101.776 389.343 102.181 390.353C102.383 390.92 102.828 391 105.416 390.758C110.146 390.313 111.117 390.03 111.117 389.14C111.117 388.17 109.702 388.008 105.456 388.574Z" fill="black"/>
<path d="M103.394 392.778C102.828 394.234 103.434 394.476 107.154 394.274C110.874 394.112 111.602 393.829 111.198 392.818C110.834 391.888 103.717 391.888 103.394 392.778Z" fill="black"/>
<path d="M106.871 396.338C104.284 396.742 103.839 396.944 103.839 397.632C103.839 398.359 104.081 398.44 106.871 398.319C110.875 398.198 112.33 397.793 112.33 396.782C112.33 395.812 111.036 395.731 106.871 396.338Z" fill="black"/>
<path d="M66.2272 3.36328C62.6263 3.48396 59.0037 3.75744 55.4815 4.54426C54.3037 4.97013 53.1236 5.40477 51.8629 5.4986C50.3596 5.69114 49.1048 6.76929 48.5302 8.14871C47.8907 9.37068 47.0304 10.4848 45.8659 11.2412C45.6802 14.7321 44.7407 18.1263 43.9221 21.5099C43.6494 23.286 44.7458 24.8934 45.4611 26.431C45.7125 26.7578 45.6611 27.2035 45.8456 27.5348C46.4305 27.6834 46.9 26.9913 47.4005 26.7894C48.0665 24.703 48.7043 22.3351 50.5541 20.9737C51.7719 20.3169 53.2468 20.5063 54.5543 20.1041C57.241 19.541 59.7809 18.2214 62.5791 18.2901C64.7228 18.1788 66.8562 18.511 68.8796 19.2159C70.7935 19.7927 72.8038 19.9044 74.7382 20.3614C76.0251 21.1542 76.5526 22.6965 77.24 23.9656C77.8208 25.2043 78.4753 26.5626 79.8244 27.1166C80.2566 27.4323 80.8016 27.1365 80.8852 26.6373C81.3346 24.9374 81.4074 23.1376 81.0195 21.419C80.738 19.7187 81.0962 17.8341 80.0781 16.324C79.4961 15.0105 79.7229 13.5016 79.2129 12.1565C78.6443 10.3712 78.0035 8.44192 76.4595 7.25414C75.4228 6.34826 74.5228 5.2216 73.3166 4.53924C72.2506 4.2511 71.0868 4.34502 70.1085 3.76814C68.8691 3.36742 67.5172 3.36564 66.2272 3.36328V3.36328Z" fill="black"/>
<path d="M62.1905 32.543L61.9079 36.734L60.416 40.1471C60.416 40.1471 59.8451 43.4881 61.7996 43.5439C63.7541 43.5998 65.3735 42.4829 65.3735 42.4829" stroke="black" stroke-width="1.8196" stroke-linecap="round"/>
<path d="M63.0627 20.1928C59.633 20.2609 56.5616 22.1004 53.1653 22.3959C51.8269 22.4865 50.5417 23.1683 49.8467 24.3375C48.3786 26.5459 47.7294 29.163 46.5321 31.51C46.0143 33.1197 46.429 34.8487 46.5271 36.494C46.5508 37.5163 46.8736 38.6154 46.5293 39.6017C46.0577 40.1623 45.3722 39.4315 44.9966 39.0906C43.9817 38.1236 43.2063 36.9157 42.2115 35.9416C41.6507 37.6 41.7363 39.4533 42.077 41.1601C42.7374 43.4909 43.3152 45.8635 44.2417 48.1061C44.3411 48.4985 44.7198 48.5661 45.0392 48.3761C45.7708 48.2641 46.5471 47.627 47.2853 47.9754C47.9646 48.7126 47.9643 49.831 48.2839 50.7398C48.8335 53.4685 50.4683 55.9017 52.6913 57.555C55.3816 59.5844 58.7571 60.7284 62.1374 60.601C66.2627 60.7292 70.5164 59.4397 73.5558 56.5738C74.389 55.9012 75.0984 54.9013 76.1713 54.6239C76.8278 54.7522 76.8742 55.5824 76.495 56.02C75.1861 57.8875 73.4138 59.4325 71.4742 60.6137C68.4028 62.1913 64.867 62.5571 61.4595 62.5445C58.6862 62.5159 55.8661 61.985 53.481 60.5026C51.9122 59.6523 50.5439 58.5024 49.2786 57.2586C48.9429 56.9772 49.1221 57.6598 49.1013 57.8146C49.3431 61.5704 49.8909 65.3412 49.6162 69.1078C49.5791 70.2542 49.004 71.3388 48.0219 71.9496C47.2317 72.5848 46.247 73.0171 45.5352 73.7236C45.7479 74.8038 46.5537 75.6838 47.2444 76.5076C49.692 79.2259 52.4613 81.6202 55.2336 83.9958C58.4156 86.7787 61.0963 90.0826 64.2093 92.9307C65.2054 92.5804 65.7321 91.5181 66.4392 90.7962C69.559 87.2903 72.9634 84.0406 75.966 80.4256C77.081 79.1604 78.1053 77.82 79.0522 76.4297C79.5597 75.7842 80.2157 75.2329 80.7116 74.6044C79.5579 73.4953 78.1526 72.5224 77.4203 71.0615C77.2435 67.0118 77.3609 62.9475 77.3733 58.8927C77.454 55.7429 77.3628 52.5438 78.0333 49.4498C78.1583 48.808 78.5894 48.1174 79.3395 48.1892C79.8542 48.2436 80.3798 48.1267 80.6793 47.6598C82.271 45.6835 83.1347 43.2286 83.9068 40.8417C84.2506 39.5004 84.7363 38.0599 84.3841 36.6761C84.1405 36.2091 83.5661 36.2131 83.2072 36.5382C82.0174 37.3275 81.6553 39.0373 80.2637 39.531C79.5615 39.434 79.5585 38.4967 79.6551 37.9568C80.0757 35.6462 80.4972 33.3291 80.5846 30.975C80.916 30.2006 80.1102 29.942 79.6328 29.5423C78.6518 28.8269 77.6552 28.0587 77.1874 26.895C76.2735 25.3465 75.6696 23.4622 74.1625 22.3673C72.4507 21.8243 70.6103 21.8077 68.8819 21.3059C66.9587 20.8555 65.0708 20.1182 63.0627 20.1928H63.0627ZM55.4067 30.8528C56.2108 30.8135 57.2328 31.1285 57.3378 32.0614C57.6505 33.2075 57.2184 34.7578 55.9053 35.0012C54.5792 35.4074 52.9436 34.4349 52.94 32.9824C52.851 32.3753 52.9119 31.6571 53.542 31.3641C54.0983 31.0223 54.7554 30.8574 55.4067 30.8528ZM70.6547 31.07C71.7271 30.9859 72.7807 31.8028 72.8236 32.9063C73.0058 34.0005 72.3504 35.2801 71.1721 35.4242C69.7461 35.6269 68.4839 34.3151 68.4768 32.9246C68.4011 31.8026 69.6535 31.0449 70.6547 31.07V31.07ZM62.1876 31.7312C62.7852 31.7358 63.2477 32.3459 63.0127 32.929C62.8774 34.31 62.9394 35.7383 62.6791 37.0893C62.2174 38.4194 61.3101 39.6515 61.2385 41.0902C61.2238 41.6501 61.1929 42.6651 61.993 42.6606C63.227 42.7409 64.2619 41.9438 65.4125 41.6855C66.258 41.6006 66.5044 42.9606 65.739 43.2485C64.3385 44.0903 62.619 44.5853 61.0009 44.2545C59.9243 43.7357 59.4446 42.4751 59.5667 41.3337C59.5373 40.5195 59.5017 39.7031 59.9716 38.9938C60.4148 37.8122 61.2345 36.7237 61.1386 35.4084C61.2877 34.2943 61.1599 33.109 61.5059 32.0388C61.6702 31.832 61.9335 31.7293 62.1876 31.7312ZM68.6664 47.4702C69.4004 47.4182 69.5663 48.4067 69.1384 48.8523C68.0478 50.2419 66.1252 50.4632 64.4715 50.4702C62.1666 50.5464 59.6485 50.6257 57.6142 49.3796C57.101 49.0572 57.02 48.0437 57.7549 47.9602C59.6404 47.8486 61.4438 48.7171 63.3404 48.627C64.8388 48.7106 66.3468 48.4301 67.6715 47.7113C67.9907 47.5852 68.3203 47.4732 68.6664 47.4702V47.4702Z" fill="#ffccaa"/>
<path d="M43.594 75.5742C39.8104 77.9636 36.4594 81.0479 32.3827 82.9892C27.251 85.7718 21.7777 88.0082 16.9886 91.3741C12.8831 95.4211 11.5137 101.338 10.4917 106.815C9.12043 114.179 8.62358 121.68 6.97018 128.996C4.97554 139.31 4.95467 149.864 3.62522 160.264C3.33859 165.901 3.69855 171.577 3.83594 177.196C9.51865 177.28 15.2168 177.549 20.8906 177.531C21.8247 176.533 21.5243 174.862 21.6993 173.596C21.8268 166.211 21.7528 158.786 23.0361 151.482C23.5384 149.077 23.477 146.458 24.5347 144.213C25.0838 143.625 25.7503 144.425 25.5647 145.053C25.4463 149.884 24.454 154.686 23.9041 159.485C23.5066 171.099 23.8091 182.737 23.0821 194.338C22.2554 201.91 22.0182 209.551 20.9983 217.096C20.7357 219.069 19.0598 220.479 18.5618 222.33C18.938 223.145 20.2229 223.077 20.9308 223.511C28.2997 225.912 35.6931 228.558 43.4652 229.258C58.2818 231.105 73.351 230.981 88.1248 228.811C93.7871 227.983 99.0076 225.479 104.257 223.334C105.388 222.879 106.873 222.172 106.664 220.696C106.018 212.772 104.645 204.921 103.641 197.036C102.605 188.851 101.216 180.717 99.7758 172.598C98.6007 164.831 98.2943 156.883 99.7149 149.126C100.731 142.942 101.506 136.672 103.211 130.635C103.418 130.076 103.93 128.619 104.743 129.21C105.256 130.97 104.419 132.908 104.211 134.693C102.868 141.868 101.281 149.045 100.824 156.343C100.99 160.679 102.82 164.735 103.743 168.933C104.891 172.62 105.339 176.619 107.255 180.017C108.189 181.496 110.008 180.297 111.239 180.002C115.116 178.601 119.337 179.303 123.362 178.804C124.805 178.975 124.69 177.201 124.768 176.249C125.094 171.639 123.631 167.143 123.386 162.558C122.968 156.412 121.049 150.518 120.245 144.436C119.695 138.602 119.696 132.721 118.84 126.912C117.35 115.331 115.097 103.817 111.696 92.6411C111.088 90.2443 108.386 89.6377 106.556 88.4634C98.9039 84.6478 91.3617 80.6201 83.9495 76.358C83.3449 76.0644 82.4809 75.3921 82.0009 76.2574C78.4764 80.3093 75.1007 84.4984 71.3599 88.3617C68.9271 90.7684 66.8411 93.626 64.0192 95.5889C63.2531 95.8984 62.8968 94.6448 62.3579 94.3206C58.0332 89.0707 52.9186 84.5651 47.8022 80.1176C46.1993 78.8065 45.2389 76.7718 43.594 75.5742Z" fill="#FFE700"/>
<path d="M10.3327 179.153C8.13296 179.13 5.93732 179.278 3.74763 179.474C3.68293 180.486 3.73881 181.545 3.72048 182.575C3.74607 184.634 3.66176 186.699 3.83183 188.753C3.87007 188.964 3.89678 189.427 4.21542 189.368C4.93013 189.103 5.63704 188.778 6.4057 188.702C9.29766 188.361 12.2553 188.834 14.9655 189.867C15.8489 190.189 16.6617 190.688 17.5498 190.991C17.793 191.073 18.0101 190.848 17.9661 190.607C18.3179 188.771 18.8834 186.976 19.3712 185.17C19.8231 183.502 20.3553 181.846 20.6309 180.138C20.6534 179.794 20.1732 179.841 19.9516 179.77C16.8571 179.281 13.7212 179.119 10.5908 179.153C10.5048 179.153 10.4187 179.153 10.3327 179.153V179.153Z" fill="#FFE700"/>
<path d="M119.765 180.775C116.819 180.869 113.794 181.134 111.036 182.241C110.547 182.456 109.859 182.846 110.104 183.492C110.646 186.259 111.282 189.02 112.162 191.699C112.324 192.241 112.749 192.967 113.426 192.699C117.484 192.185 121.597 192.303 125.651 191.758C126.031 191.722 126.578 191.58 126.422 191.072C126.13 188.136 125.397 185.257 124.655 182.407C124.489 181.562 123.746 180.959 122.893 180.931C121.857 180.803 120.808 180.776 119.765 180.775V180.775Z" fill="#FFE700"/>
<path d="M125.385 193.977C122.133 194.089 118.86 194.021 115.63 194.455C115.082 194.614 114.33 194.516 113.924 194.966C113.719 196.038 114.226 197.115 114.415 198.16C115.293 201.373 115.72 204.677 116.159 207.97C116.121 208.442 116.594 208.536 116.953 208.449C120.089 208.272 123.253 208.447 126.371 208.029C126.685 208.001 127.23 207.802 127.009 207.392C126.499 202.947 126.507 198.442 126.157 193.994C125.904 193.958 125.64 193.985 125.385 193.977V193.977Z" fill="#ffccaa"/>
<path d="M121.271 210.297C120.11 210.391 118.865 210.128 117.752 210.54C116.98 210.882 117.357 211.841 117.459 212.456C117.84 215.999 117.384 219.629 116.193 222.98C113.701 228.379 110.647 233.502 107.836 238.74C106.628 241.114 105.146 243.411 104.482 246.015C104.27 246.903 104.26 247.986 105.05 248.603C105.897 249.131 107.012 248.764 107.836 248.356C109.698 247.356 110.234 245.174 110.99 243.373C111.763 241.477 113.161 239.657 115.159 238.989C115.94 238.81 116.739 238.801 117.535 238.75C117.498 242.864 117.301 247.055 115.879 250.958C114.945 253.863 113.288 256.464 112.217 259.311C112.078 259.639 111.962 260.389 112.499 260.377C113.776 259.479 114.668 258.127 115.676 256.952C117.638 254.621 118.918 251.83 119.969 248.996C120.438 248.066 120.693 246.814 121.681 246.292C122.326 246.268 122.583 247.123 122.398 247.648C121.675 251.006 120.205 254.183 118.156 256.939C117.3 258.24 116.147 259.413 115.638 260.905C115.719 261.392 116.398 261.599 116.831 261.528C118.489 260.938 119.253 259.181 120.217 257.848C121.624 255.526 123.183 253.228 124.003 250.617C124.373 249.473 124.244 248.184 124.749 247.095C125.191 246.537 126.077 247.039 125.992 247.693C126.14 249.42 126.371 251.299 125.441 252.867C124.456 254.93 123.08 256.827 122.368 259.008C122.518 259.286 122.81 258.794 122.908 258.68C124.756 256.013 126.338 253.11 127.272 249.992C127.734 248.585 127.62 247.084 127.921 245.655C128.079 244.971 129.038 245.287 129.205 245.805C129.986 247.207 129.763 248.857 129.601 250.378C129.73 250.695 129.963 250.095 130.026 249.984C130.667 248.434 131.476 246.905 131.744 245.235C131.88 241.965 130.905 238.787 130.568 235.556C129.99 231.667 129.731 227.731 129.057 223.857C128.943 223.363 128.228 223.6 127.87 223.457C124.559 223.064 121.192 222.993 117.917 222.381C117.162 222.178 117.509 220.891 118.249 220.94C120.933 220.786 123.63 221.108 126.308 221.29C127.417 221.34 128.563 221.622 129.647 221.594C129.478 218.691 129.26 215.764 128.625 212.918C128.354 211.967 128.133 210.649 126.979 210.414C125.093 210.184 123.169 210.347 121.271 210.297V210.297Z" fill="#F26D0D"/>
<path d="M11.9676 208.62C9.73986 208.691 7.40339 208.626 5.30995 209.498C3.89833 210.169 3.7086 211.918 3.4146 213.269C2.95077 216.26 2.94782 219.362 3.50139 222.328C5.92047 222.524 8.3638 222.383 10.7903 222.526C12.1316 222.632 13.5204 222.525 14.8298 222.847C15.4171 222.968 15.3383 223.895 14.7386 223.914C12.1858 224.258 9.58767 224.115 7.01809 224.289C6.07884 224.426 4.90624 224.2 4.1667 224.923C3.48814 225.882 3.95983 227.15 3.93054 228.229C4.05689 230.578 4.01246 232.945 3.45801 235.241C2.49395 240.212 1.77781 245.378 2.71873 250.409C3.47873 253.398 4.90042 256.166 6.1688 258.962C6.60041 259.692 6.8599 260.626 7.54342 261.157C8.00777 261.226 7.76137 260.593 7.64573 260.386C6.34249 257.86 5.58468 255.071 5.44178 252.232C5.3995 250.806 5.14509 249.332 5.47049 247.929C5.74802 247.426 6.61316 247.686 6.67089 248.242C7.35909 251.004 7.34257 253.925 8.27854 256.628C9.37385 259.071 10.5179 261.512 11.9473 263.778C12.0704 264.069 12.325 264.166 12.5662 263.928C13.0404 263.79 13.3331 263.335 13.1569 262.853C12.3956 260.633 11.1675 258.6 10.2752 256.43C9.40837 254.488 8.61836 252.422 8.79482 250.255C8.87228 249.335 8.66669 248.305 9.1225 247.463C9.53185 247.224 10.2704 247.267 10.3017 247.881C10.7581 250.15 10.8258 252.524 11.7691 254.677C13.0307 257.65 14.4815 260.559 16.2208 263.283C16.4783 263.66 16.8823 264.309 17.4127 263.93C17.9044 263.62 17.4792 262.92 17.3793 262.507C15.4589 258.256 13.7528 253.854 12.9488 249.243C12.9023 248.523 12.6539 247.694 12.9933 247.024C13.3627 246.536 14.2961 246.497 14.4432 247.202C15.1091 249.547 15.4718 251.984 16.3202 254.282C17.2889 257.035 18.2857 259.815 19.7733 262.337C19.9534 262.762 20.6205 263.017 20.8518 262.495C21.2729 261.415 20.6883 260.257 20.3974 259.216C19.6146 256.979 18.3229 254.913 17.9849 252.533C17.3919 249.227 16.9124 245.858 17.0122 242.493C17.0251 241.824 17.4096 240.983 18.2091 241.076C19.7283 240.986 21.1238 241.742 22.1704 242.793C24.5166 244.857 26.6428 247.18 29.132 249.075C29.4576 249.179 29.7806 248.761 29.9347 248.511C30.2635 246.567 29.435 244.689 28.4615 243.056C24.9859 237.208 20.9133 231.73 17.517 225.834C15.6636 222.645 15.7628 218.828 15.7036 215.258C15.6325 213.304 15.9211 211.33 15.6578 209.388C15.5078 208.517 14.4531 208.661 13.8087 208.631C13.1951 208.616 12.5813 208.615 11.9676 208.62V208.62Z" fill="#F26D0D"/>
<path d="M8.50435 190.539C7.16963 190.596 5.75331 190.855 4.64119 191.629C4.01902 192.366 4.18741 193.454 4.03216 194.347C3.79064 198.565 3.84606 202.836 4.56703 207.003C5.00414 207.293 5.63219 207.017 6.12691 207.041C8.9646 206.661 11.862 206.739 14.6974 206.588C14.706 203.063 15.1275 199.561 15.7779 196.1C15.8846 195.004 16.3376 193.779 15.8149 192.732C14.9552 191.716 13.4978 191.582 12.3082 191.166C11.0654 190.837 9.80059 190.508 8.50435 190.539V190.539Z" fill="#ffccaa"/>
<path d="M106.676 224.817C101.744 226.613 96.8661 228.581 91.9407 230.381C84.7732 231.267 77.5987 232.208 70.369 232.365C59.1193 232.693 47.8236 232.072 36.7097 230.28C31.8678 229.317 27.2251 227.567 22.4721 226.252C21.6858 226.095 20.8787 225.674 20.0784 225.744C20.2257 226.516 20.8261 227.174 21.184 227.874C24.5138 233.301 28.248 238.482 31.3362 244.055C32.0543 245.629 31.9326 247.424 31.9748 249.115C32.0663 249.872 31.5036 250.442 30.8269 250.644C29.7962 251.043 28.5681 251.063 27.6771 250.33C24.9129 248.329 22.7626 245.587 19.9525 243.645C19.657 243.437 19.0218 243.112 18.8762 243.648C18.9162 245.66 19.3326 247.655 19.5637 249.654C19.8421 251.969 20.3902 254.26 21.4449 256.351C22.2281 258.315 23.1936 260.384 22.9791 262.549C22.8767 263.701 21.8512 264.475 20.7779 264.677C20.2014 264.912 19.4528 264.909 18.97 265.295C19.08 265.919 19.5124 266.466 19.5493 267.125C20.2417 271.808 20.2922 276.563 20.5125 281.288C20.7328 287.428 20.86 293.571 21.0198 299.713C22.0663 302.751 22.933 305.858 24.1114 308.848C24.4418 309.432 25.2593 309.451 25.7848 309.792C28.5008 310.906 31.3623 312.091 34.3633 311.805C35.9494 311.656 37.6489 311.717 39.1034 310.983C41.6631 309.534 44.0215 307.533 45.2964 304.826C47.4368 300.439 48.1461 295.537 48.8993 290.764C49.87 283.474 50.9167 276.182 52.6692 269.033C54.3051 262.445 56.13 255.777 59.6564 249.912C60.4333 248.838 61.1475 247.607 62.2889 246.889C63.2805 246.469 64.4836 246.191 65.5162 246.583C67.0664 247.582 67.662 249.473 68.4222 251.061C71.1344 257.682 73.4363 264.465 75.8388 271.204C77.2839 275.212 78.4105 279.331 79.0647 283.545C80.0441 288.875 80.7479 294.308 82.5887 299.431C83.5466 301.837 84.6656 304.206 86.1281 306.348C87.482 308.118 89.5381 309.144 91.4442 310.204C92.9854 311.114 94.8214 310.923 96.5342 310.952C98.1125 310.932 99.8727 311.05 101.163 309.957C104.074 307.907 106.212 304.95 108 301.917C109.108 300.105 108.983 297.891 108.643 295.881C107.881 290.895 106.903 285.915 106.935 280.85C106.946 274.14 107.293 267.412 108.275 260.772C108.793 257.402 109.91 254.066 109.718 250.623C109.721 250.307 109.476 249.856 109.11 250.145C107.563 250.726 105.888 250.898 104.259 251.069C103.582 250.518 103.257 249.619 102.738 248.926C102.171 248.224 102.119 247.329 102.28 246.474C102.739 243.27 104.541 240.48 106.018 237.664C106.843 236.16 107.642 234.637 108.36 233.079C107.652 230.361 107.286 227.54 106.687 224.816L106.676 224.817Z" fill="#000000"/>
<path d="M21.2724 307.15C21.004 308.297 21.0874 309.547 20.9336 310.729C20.232 318.81 19.3893 326.888 19.2226 335.004C18.8532 344.342 20.1927 353.622 21.4078 362.854C22.1048 367.993 22.3873 373.175 22.9603 378.326C23.0169 378.77 23.6961 378.638 23.9984 378.826C25.5612 379.307 27.2793 379.481 28.6726 380.385C29.8705 381.332 30.7439 382.66 32.0055 383.518C33.1224 383.749 34.341 383.546 35.3802 383.102C35.814 382.668 35.3197 381.977 35.404 381.451C35.0858 376.88 34.9864 372.29 34.8871 367.714C36.7074 356.83 38.6241 345.962 40.3822 335.069C41.46 328.225 41.6294 321.279 42.5796 314.422C42.6719 313.412 43.0863 312.406 43.0049 311.394C42.6663 310.977 42.0926 311.524 41.7541 311.686C40.1017 312.939 38.0676 313.519 36.0296 313.715C32.3122 314.305 28.5481 313.342 25.195 311.758C24.042 311.187 22.5787 310.702 22.151 309.343C21.8081 308.643 21.7037 307.778 21.2724 307.15H21.2724Z" fill="#ffffff"/>
<path d="M109.25 304.243C108.394 304.88 107.939 305.938 107.27 306.757C105.523 309.293 103.016 311.136 100.559 312.929C97.7554 312.826 94.9317 312.969 92.1404 312.689C90.443 312.368 89.1519 311.09 87.6383 310.342C87.4015 310.213 86.874 309.81 86.8182 310.331C86.6031 311.457 86.939 312.624 87.0008 313.757C88.3989 324.812 90.4321 335.778 92.5593 346.713C93.916 353.847 95.5074 360.944 96.5202 368.138C97.0927 372.247 96.8667 376.411 97.141 380.539C97.3886 381.02 97.9953 380.535 98.3638 380.493C100.084 379.887 101.737 378.963 103.609 378.976C105.547 378.852 107.532 378.918 109.442 378.785C108.739 375.049 108.851 371.212 108.77 367.424C108.697 361.497 108.876 355.558 109.656 349.676C110.457 343.07 110.838 336.417 110.842 329.762C110.935 324.426 110.872 319.081 110.312 313.769C109.993 310.644 109.896 307.489 109.396 304.387C109.378 304.319 109.341 304.221 109.25 304.243V304.243Z" fill="#ffffff"/>
<path d="M106.665 380.928C104.95 381.029 103.126 380.697 101.521 381.469C100.033 382.145 98.4546 382.609 96.9188 383.139C96.277 386.791 95.583 390.627 96.7235 394.259C97.8926 398.093 100.441 401.361 101.357 405.29C102.48 409.618 104.304 413.973 107.622 417.082C109.984 419.262 113.246 420.613 116.483 420.328C117.818 419.937 118.917 418.939 119.817 417.909C121.826 415.483 122.342 412.211 122.501 409.158C122.701 406.236 121.461 403.494 120.307 400.886C118.828 397.518 116.463 394.636 115.003 391.26C113.473 387.998 112.509 384.503 111.44 381.082C109.858 380.884 108.256 380.947 106.665 380.928V380.928ZM109.267 388.359C109.894 388.371 110.948 388.288 111.046 389.12C111.063 389.839 110.117 389.972 109.597 390.131C107.352 390.555 105.056 390.804 102.77 390.789C102.042 390.623 101.919 389.352 102.753 389.219C104.841 388.552 107.086 388.417 109.267 388.359H109.267ZM107.281 392.185C108.501 392.253 109.83 392.15 110.944 392.717C111.492 393.063 111.1 393.821 110.54 393.86C108.477 394.207 106.361 394.298 104.272 394.228C103.784 394.2 103.116 393.897 103.318 393.294C103.361 392.411 104.403 392.407 105.041 392.301C105.783 392.214 106.533 392.185 107.281 392.185V392.185ZM110.643 396.054C111.212 396.041 112.207 396.03 112.264 396.782C112.021 397.8 110.741 397.918 109.875 398.033C107.97 398.214 106.023 398.425 104.12 398.159C103.831 398.024 103.947 397.532 103.98 397.269C104.673 396.592 105.791 396.648 106.688 396.432C107.996 396.235 109.317 396.07 110.643 396.054Z" fill="#ffffff"/>
<path d="M23.0968 380.822C21.5708 380.945 20.763 382.475 19.8444 383.492C16.2092 388.146 12.4118 392.677 8.93301 397.45C6.60724 400.815 4.99869 404.639 3.82448 408.544C3.22605 410.591 2.92008 412.765 3.20757 414.888C3.57794 416.248 4.83166 417.125 6.15609 417.419C8.49103 418.164 11.0371 417.825 13.258 416.867C15.8402 415.951 18.4214 414.701 20.1755 412.522C23.0558 409.079 24.6541 404.795 27.3416 401.215C29.0149 398.808 31.0868 396.718 33.3675 394.885C35.0969 393.345 36.3571 391.22 36.7688 388.934C36.8358 387.866 36.9883 386.495 36.0789 385.726C34.7606 384.962 33.2811 385.975 31.9034 385.932C30.7729 385.994 30.1887 384.809 29.5137 384.105C28.681 382.894 27.539 381.849 26.0853 381.471C25.1103 381.193 24.1182 380.85 23.0968 380.822ZM19.0269 386.672C20.6018 386.775 22.2153 387.26 23.5037 388.185C23.9609 388.442 24.0921 389.185 23.5484 389.423C22.0378 389.732 20.5458 389.007 19.1508 388.516C18.6434 388.322 17.929 388.02 18.0887 387.341C18.1167 386.799 18.5386 386.604 19.0269 386.672V386.672ZM17.7024 389.101C19.3355 389.278 20.919 389.939 22.3312 390.771C22.7519 391.021 23.4927 391.671 22.9066 392.137C22.1769 392.712 21.2466 392.134 20.4609 391.987C19.2797 391.557 17.9826 391.248 16.9688 390.485C16.6546 389.932 16.9366 388.984 17.7024 389.101V389.101ZM16.3781 391.482C17.6578 391.577 18.7976 392.321 19.9356 392.863C20.6982 393.347 21.7009 393.868 21.8969 394.828C21.7454 395.367 20.9621 395.166 20.5538 395.16C18.961 394.812 17.4576 394.064 15.9745 393.387C15.3494 392.935 15.4226 391.446 16.3781 391.482V391.482Z" fill="#ffffff"/>
</g>
<defs>
<clipPath id="clip0">
<rect width="133.48" height="421.722" fill="white" transform="translate(0.373047 0.880859)"/>
</clipPath>
</defs>
</svg>
