<svg version="1.2" xmlns="http://www.w3.org/2000/svg" viewBox="0 0 1920 1040" width="1920" height="1040">
	<title>half-pitch-forward-svg</title>
	<defs>
		<filter x="-50%" y="-50%" width="200%" height="200%" id="f1"> <feGaussianBlur stdDeviation="4.5"/> </filter>
		<clipPath clipPathUnits="userSpaceOnUse" id="cp1">
			<path d="m1084.35 122.41l-6.62 77.8c0 0.08-0.09 0.15-0.19 0.15h-231.79c-0.11 0-0.19-0.07-0.2-0.15l-7.28-77.8c0-0.09 0.08-0.17 0.2-0.17h245.68c0.11 0 0.21 0.08 0.2 0.17z"/>
		</clipPath>
		<clipPath clipPathUnits="userSpaceOnUse" id="cp2">
			<path d="m1079.7 200.96l6.45-75.9q0.02-0.09 0.05-0.1 0.03-0.03 0.11-0.05 0.09-0.01 0.13 0.01 0.03 0.01 0.09 0.08l14.44 23.47q0.02 0.04 0.02 0.07v85.51q-0.01 0.09-0.03 0.1-0.03 0.04-0.12 0.05-0.08 0.02-0.13 0-0.03 0-0.09-0.08l-20.9-33.08q-0.02-0.04-0.02-0.08z"/>
		</clipPath>
		<clipPath clipPathUnits="userSpaceOnUse" id="cp3">
			<path d="m843.22 200.96l-6.59-75.94q-0.01-0.08-0.04-0.09-0.04-0.03-0.12-0.05-0.08-0.01-0.13 0.01-0.03 0-0.09 0.08l-14.76 23.5q-0.02 0.04-0.02 0.07v85.55q0.01 0.08 0.04 0.1 0.03 0.03 0.11 0.05 0.09 0.01 0.14-0.01 0.03 0 0.09-0.07l21.35-33.12q0.02-0.04 0.02-0.08z"/>
		</clipPath>
		<clipPath clipPathUnits="userSpaceOnUse" id="cp4">
			<path d="m1084.89 122.33l13.25 20.82c0.06 0.1-0.03 0.23-0.18 0.23h-273.29c-0.15 0-0.25-0.13-0.18-0.23l13.25-20.82q0.06-0.09 0.17-0.09h246.8q0.12 0 0.18 0.09z"/>
		</clipPath>
	</defs>
	<style>
		tspan { white-space:pre } 
		.s0 { opacity: .1;filter: url(#f1);fill: #000000 } 
		.s1 { fill: #498c0a } 
		.s2 { fill: #377608 } 
		.s3 { fill: #77a150 } 
		.s4 { fill: #ffffff } 
		.s5 { fill: #858585 } 
		.s6 { fill: #7b7b7b } 
		.s7 { fill: #777777 } 
		.s8 { fill: #737373 } 
		.s9 { fill: #6f6f6f } 
		.s10 { fill: #6b6b6b } 
		.s11 { fill: #8b8b8b } 
		.s12 { fill: #878787 } 
		.s13 { fill: #838383 } 
		.s14 { fill: #7f7f7f } 
		.s15 { fill: #b5b5b5 } 
		.s16 { opacity: .1;fill: #ffffff;stroke: #ffffff;stroke-linecap: round;stroke-linejoin: round;stroke-width: 1.8 } 
		.s17 { fill: none;stroke: #ffffff;stroke-linecap: round;stroke-width: .7 } 
		.s18 { fill: none;stroke: #ffffff;stroke-linejoin: round;stroke-width: 7.5 } 
		.s19 { fill: #169d80 } 
		.s20 { fill: #fefefe } 
		.t21 { font-size: 54px;fill: #000000;font-weight: 400;font-family: "IBMPlexSerif-Regular", "IBM Plex Serif" } 
		.s22 { fill: #2b2a29 } 
	</style>
	<g id="Layer">
		<path id="Layer" class="s0" d="m834.2 119h254.2l13.1 23.1c1.7-0.2 2.5 0.1 3.7 1.5 0.9 0.9 1.3 2.3 1.3 3.6v78.8h-292.5v-80.8c1.7-3.2 3.2-4 7.1-3.6z"/>
	</g>
	<g id="Layer">
		<path id="Layer" class="s1" d="m428.2 232.4c2.8-9.2 11.3-15.4 20.9-15.4l1013.6-3c9.7 0 18.3 6.3 21.1 15.5l188.3 606c4.4 14.1-6.2 28.5-21 28.5h-1391.6c-14.9 0-25.5-14.4-21-28.6z"/>
		<path id="Layer" class="s1" d="m1454.1 243.7c-0.4-0.3-0.9-0.4-1.3-0.7-0.4-0.3-0.9-0.6-1.2-0.9-0.3-0.3-0.7-0.5-1-0.8-0.3-0.3-0.5-0.6-0.7-0.9h9.1l1.6 5.1c-0.5 0-1.1-0.2-1.7-0.3q-0.9-0.2-1.7-0.5c-0.6-0.1-1.1-0.2-1.6-0.5-0.5 0.1-1.1-0.2-1.5-0.5z"/>
		<path id="Layer" class="s1" d="m459.5 240.5h9.2c-0.2 0.3-0.5 0.6-0.7 0.9-0.3 0.3-0.6 0.6-1.1 0.9-0.2 0.3-0.7 0.6-1.1 0.8-0.5 0.3-0.9 0.5-1.3 0.8-0.5 0.3-1 0.4-1.5 0.6-0.6 0.1-1 0.4-1.6 0.5q-0.8 0.3-1.7 0.5c-0.6 0.1-1.2 0.1-1.8 0.3z"/>
		<path id="Layer" class="s1" d="m438.1 310.9l19-62.4c0.8-0.1 1.9-0.1 2.7-0.3 0.9-0.1 1.9-0.3 2.8-0.6 0.9-0.2 1.7-0.4 2.6-0.8 0.9-0.3 1.6-0.6 2.5-1 0.7-0.5 1.4-0.8 2.1-1.2 0.8-0.4 1.3-0.9 1.9-1.3 0.6-0.4 1-0.9 1.5-1.5 0.4-0.4 0.7-1 1-1.4h121.7l-15.5 70.5z"/>
		<path id="Layer" class="s1" d="m1451.1 245.9c0.7 0.4 1.6 0.7 2.4 1q1.3 0.5 2.6 0.9c0.9 0.3 1.8 0.4 2.8 0.6 0.9 0.1 1.9 0.3 2.8 0.3l19 62.3h-143.7l-15.5-70.5h123.2c0.3 0.5 0.6 1.1 1 1.5 0.4 0.4 0.9 1 1.4 1.4 0.6 0.5 1.2 0.9 1.9 1.3 0.5 0.5 1.2 0.8 2.1 1.2z"/>
		<path id="Layer" class="s2" d="m438.1 310.9h142.1l-16.9 76.9h-148.6z"/>
		<path id="Layer" class="s1" d="m568.9 387.8h384.2c0 0.6 0.1 1 0.4 1.4 0.3 0.5 0.7 0.9 1.3 1.2 0.6 0.3 1.2 0.6 1.9 0.9 0.7 0.1 1.6 0.2 2.3 0.2 0.9 0 1.6-0.1 2.3-0.2 0.7-0.2 1.5-0.5 1.9-0.8 0.6-0.3 1-0.7 1.3-1.1 0.3-0.5 0.4-0.9 0.4-1.5h382.6l18.7 85.9h-277.5-259-279.5z"/>
		<path id="Layer" class="s1" d="m414.7 387.8h148.6l-19.9 89.8h290.7l-446.7 0.1z"/>
		<path id="Layer" class="s1" d="m322.9 689.7l34.2-112.8h1204.2l34.2 112.8h-618.2c-1.5-0.2-2.9-0.2-4.5-0.3-1.5-0.2-3.1-0.2-4.5-0.2-1.5 0-3.1-0.1-4.5-0.1-1.5 0-3.1 0-4.5 0-1.5 0-3.1 0-4.5 0-1.5 0-3.1 0-4.5 0.1-1.5 0-3 0.2-4.5 0.2-1.4 0.1-2.9 0.1-4.5 0.3z"/>
		<path id="Layer" class="s2" d="m283.9 818l39-128.3h618.4c-21.9 1.6-42.6 5.9-61.8 12.7-19.1 6.8-36.7 16-51.6 27.1-15.3 11.4-27.9 24.6-37.3 39.4-9.6 14.9-15.7 31.4-17.7 49.1z"/>
		<path id="Layer" class="s1" d="m738.5 240.5h440.1l9 67.2h-458.2z"/>
		<path id="Layer" class="s1" d="m601.1 240.5h132l-9.7 70.4h470.2l-9.6-70.4h132l15.2 70.4h-745.5z"/>
		<path id="Layer" class="s2" d="m1353.7 387.8l-17-76.9h143.8l23.4 76.9z"/>
		<path id="Layer" class="s2" d="m959.3 384.1c-0.9 0-1.6 0.2-2.3 0.3-0.8 0.2-1.5 0.5-1.9 0.8-0.6 0.3-1 0.7-1.3 1.1-0.3 0.5-0.5 0.9-0.5 1.5h-384.4l16.8-76.9h745.7l16.7 76.9h-382.7c0-0.5-0.2-1-0.5-1.5-0.2-0.4-0.7-0.8-1.3-1.1-0.5-0.3-1.1-0.6-1.8-0.8-0.9-0.1-1.6-0.3-2.5-0.3z"/>
		<path id="Layer" class="s1" d="m1373.5 477.6l-19.8-89.8h150.2l27.2 89.9h-446.8z"/>
		<path id="Layer" class="s2" d="m890.5 503.1c-4.8-1.6-9.4-3.3-13.9-5.1-4.5-1.9-8.7-3.9-12.8-5.9-4-2.2-7.9-4.4-11.6-6.8-3.6-2.4-7.1-5-10.3-7.6h234.6c-3.2 2.6-6.7 5.1-10.3 7.6-3.6 2.4-7.5 4.6-11.6 6.8-4.1 2.2-8.4 4.2-12.8 5.9-4.5 1.9-9.1 3.7-13.9 5.1-5.2 1.7-10.7 3.2-16.2 4.5-5.6 1.3-11.2 2.5-17 3.3-5.8 0.9-11.6 1.6-17.6 2.1-5.9 0.4-11.9 0.7-17.8 0.7-6 0-11.9-0.3-17.9-0.7-5.9-0.5-11.7-1.2-17.5-2.1-5.8-0.8-11.5-2-17-3.3-5.6-1.3-11-2.8-16.4-4.5z"/>
		<path id="Layer" class="s2" d="m1030.8 506.6c5.4-1.8 10.6-3.6 15.5-5.8 5-2.2 9.8-4.4 14.3-6.8 4.4-2.5 8.7-5.1 12.7-7.9 3.9-2.7 7.7-5.6 11.2-8.5h446.8l30.2 99.3h-1204.4l30.2-99.3h446.8c3.5 3 7.1 5.9 11.2 8.5 4 2.8 8.2 5.4 12.7 7.9 4.5 2.4 9.3 4.8 14.3 6.8 4.9 2.2 10.1 4 15.5 5.8q8.2 2.6 16.9 4.8c5.9 1.3 11.8 2.4 17.7 3.5 6 0.8 12.2 1.5 18.3 2 6.3 0.4 12.4 0.7 18.6 0.7 6.2 0 12.5-0.3 18.6-0.7 6.1-0.5 12.3-1.2 18.2-2 6-0.9 11.9-2.1 17.7-3.5q8.7-2 17-4.8z"/>
		<path id="Layer" class="s2" d="m952.6 818h-172.5c1.9-18.1 8.6-34.9 18.8-50.2 10-14.9 23.6-28.2 39.8-39.1 16.1-10.9 34.7-19.6 55.2-25.7 20.3-5.9 42.3-9.3 65.4-9.3 23.1 0 45.1 3.4 65.4 9.3 20.3 6 39 14.7 55.1 25.7 16.3 11 29.9 24.2 39.9 39.1 10.2 15.1 16.9 32.1 18.8 50.2h-172.5c-0.3-0.4-0.8-0.8-1.2-1.1-0.4-0.5-1-0.7-1.6-1-0.6-0.3-1.2-0.5-1.9-0.6-0.7-0.2-1.3-0.3-2-0.3-0.7 0-1.5 0.1-2 0.3-0.8 0.1-1.3 0.3-1.9 0.6-0.6 0.3-1.2 0.5-1.6 1-0.5 0.3-0.9 0.7-1.2 1.1z"/>
		<path id="Layer" fill-rule="evenodd" class="s3" d="m1455.3 202.5c5.5 0 11 0.6 16.1 1.8 5.2 1.1 10 2.9 14.3 4.9 4.4 2 8.2 4.6 11.1 7.4 2.9 2.8 5 5.8 6.2 9.1l205.3 615.1c2 6.3 2.4 12.1 1.4 17.6-1 5.3-3.6 10.3-7.4 14.5-3.8 4.2-8.8 7.5-14.8 9.8-6.1 2.4-13.2 3.7-21 3.7h-1414.1c-7.8 0-15-1.3-21-3.7-6.1-2.3-11.1-5.6-14.8-9.8-3.8-4.2-6.3-9-7.4-14.5-1.1-5.4-0.6-11.3 1.4-17.6l205.3-615.1c1-3.2 3.2-6.2 6.2-9.1 2.9-2.8 6.7-5.2 11-7.4 4.4-2 9.2-3.8 14.4-4.9 5.1-1.2 10.6-1.8 16.1-1.8zm11.5 46.3l-3.4-10.9h-1007.9l-3.3 10.9-176.6 574.8h1368z"/>
		<path id="Layer" class="s2" d="m1145.5 818c-1.8-17.7-8.1-34.2-17.6-49.1-9.5-14.8-22.1-28-37.3-39.4-15-11.1-32.5-20.3-51.7-27.1-19-6.8-39.9-11.1-61.8-12.7h618.4l39.1 128.3z"/>
		<path id="Layer" class="s4" d="m580.2 310.9l15.6-70.4 0.5-2.7h724.4l0.7 2.7 15.3 70.4 17 76.9 19.8 89.8h-289.2l4.4-3.8h277.9l-18.7-86-16.7-76.9-15.2-70.4h-132-450.9-132l-15.4 70.4-16.8 76.9-18.7 86h279.5l3.5 3-289.8 0.8 19.9-89.8z"/>
		<path id="Layer" class="s4" d="m773 818c0 0.3 0 0.5-0.1 0.8 0 0.3 0 0.4 0 0.7 0 0.3 0 0.4 0 0.7 0 0.3 0 0.5 0 0.7 0 0.3 0 0.5 0 0.8 0 0.3 0 0.4 0 0.7 0 0.3 0 0.4 0 0.7q0 0.5 0 0.9h-490.4-7l176.6-575.2v-0.3c0.3 0 2.9 0 3.2 0 0.3 0 0.4 0 0.7 0 0.3 0 0.4 0 0.7 0 0.3 0 0.5 0 0.8 0l-19.3 62.7-23.3 76.9-27.3 89.8-30.2 99.3-34.5 112.5-39 128.3z"/>
		<path id="Layer" class="s4" d="m1145.5 818c0 0.3 0 0.5 0 0.8 0 0.3 0 0.4 0 0.7 0 0.3 0 0.4 0 0.7 0 0.3 0 0.5 0 0.7 0 0.3 0 0.5 0 0.8 0 0.3 0 0.4 0 0.7 0 0.3 0 0.4 0 0.7q0 0.5 0 0.9h-7.2q0-0.4 0-0.9c0-0.3 0-0.4 0-0.7 0-0.3 0-0.4 0-0.7 0-0.3 0-0.5 0-0.8 0-0.2 0-0.4 0-0.7 0-0.3 0-0.4 0-0.7 0-0.3 0-0.4 0-0.7 0-0.3 0-0.5 0-0.8-1.9-18.1-8.6-34.9-18.7-50.2-10-14.9-23.7-28.2-39.9-39.1-16.1-10.9-34.7-19.6-55.1-25.7-20.3-5.9-42.4-9.3-65.5-9.3-23 0-45.1 3.4-65.4 9.3-20.3 6-39 14.7-55.1 25.7-16.2 11-29.9 24.2-39.9 39.1-10.2 15.1-16.8 32.1-18.7 50.2 0 0.3 0 0.5 0 0.8 0 0.3 0 0.4 0 0.7 0 0.3 0 0.4 0 0.7 0 0.3 0 0.5 0 0.7 0 0.3 0 0.5 0 0.8 0 0.3 0 0.4 0 0.7 0 0.3 0 0.4 0 0.7q0 0.5 0 0.9h-7.3q0-0.4 0-0.9c0-0.3 0-0.4 0-0.7 0-0.3 0-0.4 0-0.7 0-0.3 0-0.5 0-0.8 0-0.2 0-0.4 0-0.7 0-0.3 0-0.4 0-0.7 0-0.3 0-0.4 0-0.7 0-0.3 0-0.5 0.2-0.8 1.9-17.7 8.1-34.2 17.7-49.1 9.4-14.8 22-28 37.3-39.4 14.9-11.1 32.5-20.3 51.6-27.1 19-6.8 39.9-11.1 61.8-12.7 1.5-0.2 2.9-0.2 4.5-0.3 1.5-0.2 3-0.2 4.5-0.2 1.4 0 3-0.1 4.5-0.1 1.4 0 3 0 4.5 0 1.4 0 3 0 4.5 0 1.4 0 3 0 4.5 0.1 1.4 0 3 0.2 4.5 0.2 1.4 0.1 2.9 0.1 4.5 0.3 21.9 1.6 42.6 5.9 61.8 12.7 19.1 6.8 36.7 16 51.6 27.1 15.3 11.4 27.9 24.6 37.3 39.4 9.4 15 15.5 31.6 17.5 49.1z"/>
		<path id="Layer" class="s4" d="m1138.3 818c0 0.3 0 0.5 0 0.8 0 0.3 0 0.4 0 0.7 0 0.3 0 0.4 0 0.7 0 0.3 0 0.5 0 0.7 0 0.3 0 0.5 0 0.8 0 0.3 0 0.4 0 0.7 0 0.3 0 0.4 0 0.7q0 0.5 0 0.9h-173.3c0.1-0.1 0.9-0.9 1.1-1.1 0.1-0.1 0.1-0.4 0.3-0.7 0.1-0.3 0.1-0.4 0.1-0.7 0-0.3 0-0.5 0-0.8 0-0.2 0-0.4 0-0.7 0-0.3-0.1-0.4-0.1-0.7 0-0.3-0.2-0.4-0.3-0.7-0.2-0.2-0.5-0.5-0.6-0.6z"/>
		<path id="Layer" class="s4" d="m473.8 240.7c0-0.2 0.2-0.3 0.2-0.4 0-0.2 0.1-0.3 0.1-0.5 0-0.1 0.2-0.3 0.2-0.4 0-0.2 0.1-0.3 0.1-0.4l0.3-1.2h122l-0.6 2.7h-122.3z"/>
		<path id="Layer" fill-rule="evenodd" class="s4" d="m457.1 248.7c-0.3 0-0.5 0-0.7 0-0.3 0-0.5 0-0.8 0-0.3 0-0.4 0-0.7 0-0.3 0-0.4 0-0.7 0h-2.2l3.3-10.9h19.6l-0.3 1.1c0 0.2-0.1 0.3-0.1 0.5 0 0.1-0.2 0.3-0.2 0.4 0 0.2-0.1 0.3-0.1 0.4 0 0.2-0.2 0.3-0.2 0.5-0.2 0.4-0.5 1-1 1.4-0.4 0.5-0.8 1-1.4 1.5-0.6 0.4-1.2 0.9-1.9 1.3-0.7 0.4-1.5 0.9-2.2 1.1-0.7 0.5-1.6 0.8-2.4 1.1q-1.3 0.4-2.7 0.8-1.2 0.5-2.7 0.6c-0.7-0.1-1.8 0-2.6 0.2zm2.4-8.2l-1.6 5.1q0.9 0 1.8-0.3 0.9-0.2 1.7-0.4c0.6-0.2 1-0.3 1.6-0.6 0.6-0.1 1-0.4 1.5-0.6 0.4-0.3 0.8-0.4 1.3-0.7 0.4-0.3 0.9-0.6 1.1-0.9 0.3-0.3 0.8-0.5 1.1-0.8 0.2-0.3 0.5-0.6 0.7-0.9h-9.2z"/>
		<path id="Layer" class="s4" d="m1187.6 307.7l-9-67.2h5.4l9.6 70.4h-470.2l9.7-70.4h5.4l-9.1 67.2z"/>
		<path id="Layer" class="s4" d="m959.3 384.1c0.9 0 1.6 0.2 2.3 0.3 0.7 0.2 1.5 0.5 1.9 0.8 0.6 0.3 1 0.7 1.3 1.1 0.3 0.5 0.4 0.9 0.4 1.5 0 0.6-0.1 1-0.4 1.4-0.3 0.5-0.7 0.9-1.3 1.2-0.6 0.3-1.2 0.6-1.9 0.7-0.7 0.2-1.6 0.3-2.3 0.3-0.9 0-1.6-0.1-2.3-0.3-0.8-0.1-1.5-0.4-1.9-0.7-0.6-0.3-1-0.7-1.3-1.2-0.3-0.4-0.5-0.8-0.5-1.4 0-0.5 0.2-1 0.5-1.5 0.3-0.4 0.7-0.8 1.3-1.1 0.6-0.3 1.1-0.6 1.9-0.8 0.7-0.1 1.4-0.3 2.3-0.3z"/>
		<path id="Layer" fill-rule="evenodd" class="s4" d="m833.2 476.8l-3.5-3h259l-3.5 3-0.1 0.2-0.2 0.1-0.1 0.2-0.2 0.1c-3.4 3.1-7.2 6-11.1 8.7-4.1 2.8-8.3 5.4-12.8 7.9-4.5 2.4-9.3 4.8-14.2 6.8-5 2.2-10.2 4-15.6 5.8q-8.2 2.6-16.9 4.8c-5.8 1.3-11.8 2.4-17.7 3.5-6 0.8-12.2 1.6-18.3 2-6.1 0.4-12.3 0.7-18.6 0.7-6.2 0-12.4-0.3-18.5-0.7-6.1-0.4-12.4-1.2-18.3-2-6-0.9-11.9-2.1-17.7-3.5q-8.7-2-17-4.8c-5.3-1.8-10.6-3.6-15.5-5.8-4.9-2.2-9.7-4.4-14.2-6.8-4.5-2.5-8.7-5.1-12.8-7.9-3.9-2.7-7.7-5.6-11.2-8.5-0.1-0.2-0.1-0.2-0.2-0.3-0.2-0.2-0.2-0.2-0.3-0.2-0.2 0-0.2-0.1-0.3-0.1 0 0 0-0.2-0.2-0.2zm243.3 0.9l-234.7-0.1c3.2 2.6 6.7 5.2 10.4 7.5 3.7 2.5 7.6 4.7 11.6 6.8 4.1 2.2 8.5 4.2 12.8 6 4.5 1.9 9.1 3.6 13.9 5.1 5.3 1.7 10.8 3.1 16.3 4.5 5.5 1.3 11.1 2.4 17 3.3 5.8 0.9 11.6 1.6 17.5 2 6 0.5 11.9 0.7 17.8 0.7 6 0 11.9-0.2 17.9-0.7 5.9-0.4 11.7-1.1 17.5-2 5.8-0.9 11.5-2 17-3.3 5.5-1.4 11-2.8 16.3-4.5 4.7-1.6 9.4-3.4 13.9-5.1 4.5-1.9 8.7-3.9 12.7-6 4.1-2.1 8-4.3 11.7-6.8q5.6-3.5 10.4-7.4z"/>
		<path id="Layer" class="s4" d="m967 817.4c0.2 0.1 0.3 0.5 0.5 0.6 0.2 0.2 0.2 0.5 0.3 0.8 0.2 0.4 0.2 0.5 0.2 0.8 0 0.4 0 0.5 0 0.8 0 0.4 0 0.5 0 0.8 0 0.4-0.2 0.5-0.2 0.9-0.1 0.3-0.1 0.4-0.3 0.8-0.2 0.1-0.3 0.9-0.5 1.1h-15c-0.2-0.2-0.3-1-0.5-1.1-0.2-0.2-0.2-0.5-0.3-0.8-0.2-0.4-0.2-0.5-0.2-0.9 0-0.3 0-0.4 0-0.8 0-0.3 0-0.4 0-0.8 0-0.3 0.2-0.4 0.2-0.8 0.1-0.3 0.1-0.5 0.3-0.8 0.2-0.1 0.3-0.5 0.5-0.6 0.3-0.5 0.8-1 1.3-1.3 0.5-0.5 1.1-0.8 1.8-1.1 0.6-0.4 1.3-0.5 2.1-0.7 0.8-0.1 1.5-0.3 2.3-0.3 0.8 0 1.6 0.2 2.3 0.3 0.8 0.2 1.5 0.3 2.1 0.7 0.7 0.3 1.3 0.6 1.8 1.1 0.5 0.3 1 0.8 1.3 1.3z"/>
		<path id="Layer" class="s4" d="m1444.5 240.5h-123.9l-0.6-2.7h123.5l0.3 1.1c0 0.2 0.2 0.3 0.2 0.5 0 0.1 0.1 0.3 0.1 0.4 0 0.2 0.1 0.3 0.1 0.4 0.2 0 0.2 0.2 0.3 0.3z"/>
		<path id="Layer" fill-rule="evenodd" class="s4" d="m1443.5 237.8h19.9l3.6 10.9c-0.3 0-3.2 0-3.5 0-0.2 0-0.4 0-0.7 0-0.3 0-0.4 0-0.7 0-0.3 0-0.4 0-0.7 0-0.9-0.2-1.9-0.2-2.8-0.3-0.9-0.2-1.9-0.3-2.8-0.6-0.8-0.3-1.7-0.4-2.6-0.9-0.8-0.3-1.6-0.6-2.4-1-0.8-0.4-1.5-0.7-2.2-1.2-0.7-0.4-1.3-0.8-1.9-1.3-0.6-0.4-1-0.8-1.4-1.4-0.5-0.4-0.8-1-1.1-1.5 0-0.1-0.1-0.3-0.1-0.4 0-0.1-0.1-0.3-0.1-0.4 0-0.2-0.2-0.3-0.2-0.5 0-0.1-0.1-0.3-0.1-0.4zm17.1 7.8l-1.6-5h-9.2c0.2 0.2 0.5 0.5 0.8 0.8 0.3 0.3 0.6 0.6 1 0.9 0.3 0.3 0.7 0.6 1.1 0.9 0.5 0.3 0.9 0.4 1.3 0.7 0.5 0.3 1.1 0.4 1.5 0.6 0.6 0.1 1 0.4 1.6 0.5q0.9 0.3 1.7 0.5c0.6 0 1.2 0 1.8 0.1z"/>
		<path id="Layer" class="s4" d="m952.6 818c-0.1 0.2-0.3 0.5-0.4 0.6-0.2 0.2-0.2 0.5-0.3 0.7-0.2 0.3-0.2 0.5-0.2 0.8 0 0.3 0 0.4 0 0.7 0 0.3 0 0.4 0 0.7 0 0.3 0.2 0.5 0.2 0.7 0.1 0.3 0.1 0.5 0.3 0.8 0.1 0.1 0.7 0.9 0.8 1h-173.3c0-0.3 0-0.9 0-1.2 0-0.3 0-0.4 0-0.7 0-0.3 0-0.4 0-0.7 0-0.3 0-0.5 0-0.7 0-0.3 0-0.5 0-0.8 0-0.3 0-0.4 0-0.7 0-0.3 0-0.4 0-0.7 0-0.3 0-0.2 0-0.5z"/>
		<path id="Layer" class="s4" d="m1461.5 248.7c0.3 0 0.4 0 0.7 0 0.3 0 0.5 0 0.8 0 0.3 0 0.4 0 0.7 0 0.3 0 0.4 0 0.7 0h2.6l176.6 574.7 0.1 0.6h-498.7c0-0.3 0.5-0.5 0.5-0.8 0-0.3 0-0.4 0-0.7 0-0.3 0-0.4 0-0.7 0-0.3 0-0.5 0-0.8 0-0.2 0-0.4 0-0.7 0-0.3 0-0.4 0-0.7 0-0.3 0-0.4 0-0.7 0-0.3-0.5-0.6-0.5-0.9h489.7l-39.2-128.3-34.2-112.8-30.2-99.3-27.2-89.8-23.4-76.9z"/>
		<path id="Layer" class="s5" d="m1667.5 887.1l-10 34.1h-1395l-10.4-34.1z"/>
		<path id="Layer" class="s6" d="m252.1 887.1l10.4 34.1c-0.4 0-1 0-1.4 0q-0.6 0-1.5 0c-0.4 0-0.8 0-1.4 0-0.4 0-0.9 0-1.3-0.2l-10.5-34.1c0.5 0 0.9 0 1.5 0.2 0.4 0 0.9 0 1.4 0 0.5 0 0.9 0 1.5 0q0.6 0 1.3 0z"/>
		<path id="Layer" class="s7" d="m246.4 886.9l10.5 34.1c-0.6 0-1-0.1-1.6-0.1-0.6 0-1-0.2-1.5-0.2-0.4 0-1-0.1-1.4-0.2-0.4-0.2-1-0.2-1.5-0.3l-10.6-34.1c0.5 0.1 1.1 0.1 1.5 0.3 0.4 0.1 1 0.1 1.5 0.3 0.5 0 1 0.1 1.5 0.1 0.6 0 1.2 0.1 1.6 0.1z"/>
		<path id="Layer" class="s8" d="m240.4 886.1l10.5 34.1c-0.5-0.2-1-0.2-1.6-0.3-0.5-0.2-1-0.3-1.6-0.3-0.5-0.2-1-0.3-1.4-0.5-0.4-0.1-1-0.2-1.5-0.4l-11.3-34.1c0.4 0.2 1.8 0.3 2.2 0.5 0.6 0.1 1 0.2 1.6 0.4 0.6 0.1 1 0.3 1.6 0.3 0.4 0.1 1 0.3 1.5 0.3z"/>
		<path id="Layer" class="s9" d="m234.5 885l10.5 33.7c-0.6-0.1-1.5-0.4-2-0.6-0.6-0.1-1.2-0.4-1.8-0.5-0.6-0.3-1.1-0.5-1.7-0.8-0.6-0.3-1.2-0.4-1.6-0.7l-10.8-34.1c-0.1 0 1.6 0.7 1.6 0.7 0.6 0.3 1.8 0.8 1.8 0.8 1.5 0.5 1.7 0.7 1.7 0.7 0.8 0.1 1.7 0.7 2.3 0.8z"/>
		<path id="Layer" class="s10" d="m227.3 882l10.7 34c-2.3-1.2-4.3-2.3-6.2-3.8-1.9-1.4-3.6-2.9-5.1-4.6-1.4-1.8-2.9-3.5-3.9-5.4-1.2-1.9-2-3.9-2.6-5.9l-10.2-32.8c0.7 2.1 0.9 2.7 2.1 4.6 1.1 1.9 2.4 3.8 3.9 5.4 1.6 1.7 3.3 3.2 5.2 4.6 1.6 1.5 3.3 2.4 6.1 3.9z"/>
		<path id="Layer" class="s11" d="m1708.5 865.5l-10.8 34.1c-0.9 1.9-2.1 3.7-3.4 5.5-1.3 1.7-2.7 3.3-4.5 4.9-1.7 1.5-3.4 2.9-5.5 4.1-2 1.3-4.5 2.4-6.8 3.4l10.5-34.2c2.3-0.9 5.2-2 7.2-3.3 2-1.3 3.9-2.6 5.7-4.1 1.7-1.4 3.1-3.2 4.5-4.9 1.1-1.8 2.1-3.5 3.1-5.5z"/>
		<path id="Layer" class="s12" d="m1688.4 883.3l-10.9 34.2c-0.6 0.3-1 0.3-1.7 0.6-0.6 0.3-1.3 0.5-1.9 0.6-0.6 0.2-1.3 0.5-2.1 0.6-0.7 0.1-1.6 0.6-2.3 0.7l10.9-34.4c0.7-0.1 1.5-0.3 2-0.4 0.8-0.1 1.3-0.4 2.1-0.6 0.7-0.1 1.3-0.4 1.9-0.6 0.8-0.2 1.4-0.4 2-0.7z"/>
		<path id="Layer" class="s13" d="m1680.5 885.8l-10.5 34.1c-0.6 0.1-1 0.3-1.6 0.3-0.6 0.1-1.1 0.1-1.6 0.3-0.6 0.1-1.2 0.1-1.8 0.2-0.5 0.2-1.1 0.2-1.7 0.2l10.4-34.1c0.6 0 1.2-0.1 1.8-0.1 0.6-0.2 1.1-0.2 1.7-0.3 0.6-0.2 1.2-0.2 1.6-0.3 0.4-0.2 1.2-0.3 1.7-0.3z"/>
		<path id="Layer" class="s14" d="m1673.9 886.8l-10.5 34.1c-0.5 0-1 0.1-1.6 0.1-0.5 0-1 0.2-1.6 0.2q-0.8 0-1.5 0c-0.6 0-1.1 0-1.7 0l10.5-34.1c0.6 0 1.2 0 1.6 0 0.4 0 1 0 1.6 0 0.6 0 1 0 1.6-0.2 0.6-0.1 1-0.1 1.6-0.1z"/>
		<path id="Layer" fill-rule="evenodd" class="s15" d="m1455.3 202.2c5.6 0 11.1 0.6 16.4 1.9 5.2 1.2 10.1 2.9 14.6 5.1 4.4 2.2 8.3 4.6 11.3 7.5 3.1 2.9 5.2 6 6.4 9.3l205.6 615.1c2 6.2 2.4 12.3 1.4 17.8-1 5.6-3.6 10.6-7.5 14.8-3.9 4.3-9 7.7-15.1 10.1-6.2 2.3-13.4 3.7-21.3 3.7h-1414.6c-7.9 0-15.2-1.3-21.3-3.7-6.1-2.4-11.3-5.8-15.1-10.1-3.7-4.2-6.4-9.2-7.4-14.8-1-5.5-0.7-11.4 1.5-17.8l205.5-615.1q0.4-1.1 1-2.3-0.5 1-0.8 2l-205.3 615.1c-2 6.3-2.5 12.1-1.4 17.6 1 5.3 3.6 10.3 7.4 14.5 3.7 4.2 8.8 7.5 14.8 9.8 6 2.4 13.2 3.7 21 3.7h1414.1c7.8 0 14.9-1.3 21-3.7 6.1-2.3 11-5.6 14.8-9.8 3.8-4.2 6.2-9 7.4-14.5 1-5.5 0.6-11.3-1.4-17.6l-205.3-615.1c-1-3.2-3.2-6.2-6.2-9.1-2.9-2.8-6.7-5.2-11.1-7.4-4.3-2-9.1-3.8-14.3-4.9q-7.9-1.8-16.1-1.8h-991.7c-5.5 0-11 0.6-16.1 1.8q0 0-0.1 0 0.3-0.1 0.7-0.2c5.2-1.1 10.7-1.9 16.4-1.9zm-1038.6 21.5c1.3-2.5 3.1-4.9 5.4-7.1 2.9-2.8 6.7-5.4 11-7.4 4.4-2 9.1-3.7 14.3-4.9-5.1 1.3-9.8 2.8-14 4.9-4.5 2.2-8.2 4.8-11.3 7.5-2.3 2.3-4.1 4.6-5.4 7z"/>
	</g>
	<path id="Layer" class="s16" d="m1086.4 121.3l-8.1 79.9c0 0.1-0.1 0.2-0.2 0.2h-233.6c-0.1 0-0.2-0.1-0.2-0.2l-6.8-79.9c0-0.1 0.1-0.2 0.2-0.2h248.5c0.1 0 0.2 0.1 0.2 0.2z"/>
	<g id="Clip-Path: Clip-Path: Clip-Path" clip-path="url(#cp1)">
		<g id="Clip-Path: Clip-Path">
			<g id="Clip-Path">
				<g id="Layer">
					<path id="Layer" fill-rule="evenodd" class="s17" d="m832.7 187.4l127.1-0.3"/>
					<path id="Layer" fill-rule="evenodd" class="s17" d="m958.5 187.2l127.1-0.3"/>
					<path id="Layer" fill-rule="evenodd" class="s17" d="m900.2 242.7v-194.8"/>
					<path id="Layer" fill-rule="evenodd" class="s17" d="m1026 242.4v-194.8"/>
					<path id="Layer" fill-rule="evenodd" class="s17" d="m832.7 129.2l127.1-0.4"/>
					<path id="Layer" fill-rule="evenodd" class="s17" d="m958.5 128.9l127.1-0.3"/>
					<path id="Layer" fill-rule="evenodd" class="s17" d="m837.5 242.8v-194.8"/>
					<path id="Layer" fill-rule="evenodd" class="s17" d="m963.2 242.5v-194.8"/>
					<path id="Layer" fill-rule="evenodd" class="s17" d="m931.6 242.5l0.6-194.8"/>
					<path id="Layer" fill-rule="evenodd" class="s17" d="m1057.3 242.2l0.6-194.8"/>
					<path id="Layer" fill-rule="evenodd" class="s17" d="m832.7 158.3l127.1-0.3"/>
					<path id="Layer" fill-rule="evenodd" class="s17" d="m958.5 158l127.1-0.3"/>
					<path id="Layer" fill-rule="evenodd" class="s17" d="m868.8 242.7v-194.8"/>
					<path id="Layer" fill-rule="evenodd" class="s17" d="m994.6 242.5v-194.8"/>
					<path id="Layer" fill-rule="evenodd" class="s17" d="m958.5 201.7l127.1-0.3"/>
					<path id="Layer" fill-rule="evenodd" class="s17" d="m915.9 242.6l0.6-194.8"/>
					<path id="Layer" fill-rule="evenodd" class="s17" d="m1041.6 242.3l0.6-194.8"/>
					<path id="Layer" fill-rule="evenodd" class="s17" d="m832.7 143.7l127.1-0.3"/>
					<path id="Layer" fill-rule="evenodd" class="s17" d="m958.5 143.5l127.1-0.4"/>
					<path id="Layer" fill-rule="evenodd" class="s17" d="m832.8 121.9l127.1-0.3"/>
					<path id="Layer" fill-rule="evenodd" class="s17" d="m958.6 121.6l127-0.3"/>
					<path id="Layer" fill-rule="evenodd" class="s17" d="m853.1 242.8v-194.8"/>
					<path id="Layer" fill-rule="evenodd" class="s17" d="m978.9 242.5v-194.8"/>
					<path id="Layer" fill-rule="evenodd" class="s17" d="m947.3 242.6v-194.9"/>
					<path id="Layer" fill-rule="evenodd" class="s17" d="m1073 242.3v-194.8"/>
					<path id="Layer" fill-rule="evenodd" class="s17" d="m832.7 172.9l127.1-0.3"/>
					<path id="Layer" fill-rule="evenodd" class="s17" d="m958.5 172.6l127.1-0.3"/>
					<path id="Layer" fill-rule="evenodd" class="s17" d="m884.5 242.7v-194.8"/>
					<path id="Layer" fill-rule="evenodd" class="s17" d="m1010.3 242.4v-194.8"/>
					<path id="Layer" fill-rule="evenodd" class="s17" d="m832.7 194.7l127.1-0.3"/>
					<path id="Layer" fill-rule="evenodd" class="s17" d="m958.5 194.5l127.1-0.4"/>
					<path id="Layer" fill-rule="evenodd" class="s17" d="m908 242.6l0.6-194.8"/>
					<path id="Layer" fill-rule="evenodd" class="s17" d="m1033.8 242.4l0.6-194.8"/>
					<path id="Layer" fill-rule="evenodd" class="s17" d="m832.7 136.4l127.1-0.3"/>
					<path id="Layer" fill-rule="evenodd" class="s17" d="m958.5 136.2l127.1-0.3"/>
					<path id="Layer" fill-rule="evenodd" class="s17" d="m845.3 242.8v-194.8"/>
					<path id="Layer" fill-rule="evenodd" class="s17" d="m971 242.5v-194.8"/>
					<path id="Layer" fill-rule="evenodd" class="s17" d="m939.4 242.6v-194.8"/>
					<path id="Layer" fill-rule="evenodd" class="s17" d="m1065.2 242.3v-194.8"/>
					<path id="Layer" fill-rule="evenodd" class="s17" d="m832.7 165.6l127.1-0.3"/>
					<path id="Layer" fill-rule="evenodd" class="s17" d="m958.5 165.3l127.1-0.3"/>
					<path id="Layer" fill-rule="evenodd" class="s17" d="m876.7 242.7v-194.8"/>
					<path id="Layer" fill-rule="evenodd" class="s17" d="m1002.4 242.4v-194.8"/>
					<path id="Layer" fill-rule="evenodd" class="s17" d="m923.7 242.6l0.6-194.8"/>
					<path id="Layer" fill-rule="evenodd" class="s17" d="m1049.5 242.3l0.6-194.8"/>
					<path id="Layer" fill-rule="evenodd" class="s17" d="m832.7 151l127.1-0.3"/>
					<path id="Layer" fill-rule="evenodd" class="s17" d="m958.5 150.7l127.1-0.3"/>
					<path id="Layer" fill-rule="evenodd" class="s17" d="m861 242.8v-194.8"/>
					<path id="Layer" fill-rule="evenodd" class="s17" d="m986.7 242.5v-194.8"/>
					<path id="Layer" fill-rule="evenodd" class="s17" d="m955.1 242.5v-194.8"/>
					<path id="Layer" fill-rule="evenodd" class="s17" d="m1080.9 242.3v-194.8"/>
					<path id="Layer" fill-rule="evenodd" class="s17" d="m832.7 180.2l127.1-0.3"/>
					<path id="Layer" fill-rule="evenodd" class="s17" d="m958.5 179.9l127.1-0.3"/>
					<path id="Layer" fill-rule="evenodd" class="s17" d="m892.4 242.7v-194.8"/>
					<path id="Layer" fill-rule="evenodd" class="s17" d="m1018.1 242.4v-194.8"/>
				</g>
			</g>
		</g>
	</g>
	<path id="Layer" class="s16" d="m1101 146.4v90.1q0 0 0 0.1-0.1 0-0.2 0 0 0-0.1 0 0 0-0.1-0.1l-22.4-36.5q0-0.1 0-0.1l7.9-78.9q0-0.1 0-0.1 0.1 0 0.1 0 0.1 0 0.2 0 0 0 0.1 0.1z"/>
	<path id="Layer" class="s16" d="m821.5 146.4v90.3q0 0 0 0.1 0 0 0.1 0 0.1 0 0.1 0 0.1 0 0.1-0.1l22.6-34.7q0 0 0-0.1l-7.7-80.9q0-0.1-0.1-0.1 0 0-0.1 0-0.1 0-0.1 0-0.1 0-0.1 0.1z"/>
	<g id="Clip-Path: Clip-Path: Clip-Path" clip-path="url(#cp2)">
		<g id="Clip-Path: Clip-Path">
			<g id="Clip-Path">
				<g id="Layer">
					<path id="Layer" fill-rule="evenodd" class="s17" d="m1028.5 226.8l66-0.2"/>
					<path id="Layer" fill-rule="evenodd" class="s17" d="m1093.8 226.6l66.1-0.1"/>
					<path id="Layer" fill-rule="evenodd" class="s17" d="m1028.5 168.5l66-0.2"/>
					<path id="Layer" fill-rule="evenodd" class="s17" d="m1093.8 168.3l66.1-0.1"/>
					<path id="Layer" fill-rule="evenodd" class="s17" d="m1028.5 146.6l66.1-0.2"/>
					<path id="Layer" fill-rule="evenodd" class="s17" d="m1093.9 146.5l66-0.2"/>
					<path id="Layer" fill-rule="evenodd" class="s17" d="m1096.3 282v-194.8"/>
					<path id="Layer" fill-rule="evenodd" class="s17" d="m1079.9 282l0.3-194.9"/>
					<path id="Layer" fill-rule="evenodd" class="s17" d="m1028.5 197.6l66-0.1"/>
					<path id="Layer" fill-rule="evenodd" class="s17" d="m1028.5 125.2l66-0.1"/>
					<path id="Layer" fill-rule="evenodd" class="s17" d="m1093.8 197.5l66.1-0.2"/>
					<path id="Layer" fill-rule="evenodd" class="s17" d="m1093.8 125.1l66.1-0.2"/>
					<path id="Layer" fill-rule="evenodd" class="s17" d="m1028.5 183l66-0.1"/>
					<path id="Layer" fill-rule="evenodd" class="s17" d="m1093.8 182.9l66.1-0.2"/>
					<path id="Layer" fill-rule="evenodd" class="s17" d="m1028.5 161.2l66.1-0.2"/>
					<path id="Layer" fill-rule="evenodd" class="s17" d="m1093.9 161l66-0.1"/>
					<path id="Layer" fill-rule="evenodd" class="s17" d="m1088 282v-194.8"/>
					<path id="Layer" fill-rule="evenodd" class="s17" d="m1028.5 212.2l66-0.2"/>
					<path id="Layer" fill-rule="evenodd" class="s17" d="m1028.5 139.8l66-0.2"/>
					<path id="Layer" fill-rule="evenodd" class="s17" d="m1093.8 212.1l66.1-0.2"/>
					<path id="Layer" fill-rule="evenodd" class="s17" d="m1093.8 139.7l66.1-0.2"/>
					<path id="Layer" fill-rule="evenodd" class="s17" d="m1028.5 234l66-0.1"/>
					<path id="Layer" fill-rule="evenodd" class="s17" d="m1093.8 233.9l66.1-0.1"/>
					<path id="Layer" fill-rule="evenodd" class="s17" d="m1028.5 175.8l66-0.2"/>
					<path id="Layer" fill-rule="evenodd" class="s17" d="m1093.8 175.6l66.1-0.1"/>
					<path id="Layer" fill-rule="evenodd" class="s17" d="m1028.5 153.9l66.1-0.2"/>
					<path id="Layer" fill-rule="evenodd" class="s17" d="m1093.9 153.8l66-0.2"/>
					<path id="Layer" fill-rule="evenodd" class="s17" d="m1100.4 282v-194.8"/>
					<path id="Layer" fill-rule="evenodd" class="s17" d="m1083.9 282v-194.8"/>
					<path id="Layer" fill-rule="evenodd" class="s17" d="m1028.5 204.9l66-0.2"/>
					<path id="Layer" fill-rule="evenodd" class="s17" d="m1028.5 132.5l66-0.2"/>
					<path id="Layer" fill-rule="evenodd" class="s17" d="m1093.8 204.8l66.1-0.2"/>
					<path id="Layer" fill-rule="evenodd" class="s17" d="m1093.8 132.4l66.1-0.2"/>
					<path id="Layer" fill-rule="evenodd" class="s17" d="m1028.5 190.3l66-0.1"/>
					<path id="Layer" fill-rule="evenodd" class="s17" d="m1093.8 190.2l66.1-0.2"/>
					<path id="Layer" fill-rule="evenodd" class="s17" d="m1092.1 282v-194.8"/>
					<path id="Layer" fill-rule="evenodd" class="s17" d="m1028.5 219.5l66-0.2"/>
					<path id="Layer" fill-rule="evenodd" class="s17" d="m1093.8 219.3l66.1-0.1"/>
				</g>
			</g>
		</g>
	</g>
	<g id="Clip-Path: Clip-Path: Clip-Path" clip-path="url(#cp3)">
		<g id="Clip-Path: Clip-Path">
			<g id="Clip-Path">
				<g id="Layer">
					<path id="Layer" fill-rule="evenodd" class="s17" d="m895.5 226.8l-67.4-0.2"/>
					<path id="Layer" fill-rule="evenodd" class="s17" d="m828.8 226.6l-67.4-0.1"/>
					<path id="Layer" fill-rule="evenodd" class="s17" d="m895.5 168.5l-67.4-0.2"/>
					<path id="Layer" fill-rule="evenodd" class="s17" d="m828.8 168.3l-67.4-0.1"/>
					<path id="Layer" fill-rule="evenodd" class="s17" d="m895.4 146.6l-67.4-0.2"/>
					<path id="Layer" fill-rule="evenodd" class="s17" d="m828.7 146.5l-67.3-0.2"/>
					<path id="Layer" fill-rule="evenodd" class="s17" d="m826.3 282v-194.8"/>
					<path id="Layer" fill-rule="evenodd" class="s17" d="m843 282l-0.3-194.9"/>
					<path id="Layer" fill-rule="evenodd" class="s17" d="m895.5 197.6l-67.4-0.1"/>
					<path id="Layer" fill-rule="evenodd" class="s17" d="m895.5 125.2l-67.4-0.1"/>
					<path id="Layer" fill-rule="evenodd" class="s17" d="m828.8 197.5l-67.4-0.2"/>
					<path id="Layer" fill-rule="evenodd" class="s17" d="m828.8 125.1l-67.4-0.2"/>
					<path id="Layer" fill-rule="evenodd" class="s17" d="m895.5 183l-67.4-0.1"/>
					<path id="Layer" fill-rule="evenodd" class="s17" d="m828.8 182.9l-67.4-0.2"/>
					<path id="Layer" fill-rule="evenodd" class="s17" d="m895.4 161.2l-67.4-0.2"/>
					<path id="Layer" fill-rule="evenodd" class="s17" d="m828.7 161l-67.3-0.1"/>
					<path id="Layer" fill-rule="evenodd" class="s17" d="m834.7 282v-194.8"/>
					<path id="Layer" fill-rule="evenodd" class="s17" d="m895.5 212.2l-67.4-0.2"/>
					<path id="Layer" fill-rule="evenodd" class="s17" d="m895.5 139.8l-67.4-0.2"/>
					<path id="Layer" fill-rule="evenodd" class="s17" d="m828.8 212.1l-67.4-0.2"/>
					<path id="Layer" fill-rule="evenodd" class="s17" d="m828.8 139.7l-67.4-0.2"/>
					<path id="Layer" fill-rule="evenodd" class="s17" d="m895.5 234l-67.4-0.1"/>
					<path id="Layer" fill-rule="evenodd" class="s17" d="m828.8 233.9l-67.4-0.1"/>
					<path id="Layer" fill-rule="evenodd" class="s17" d="m895.5 175.8l-67.4-0.2"/>
					<path id="Layer" fill-rule="evenodd" class="s17" d="m828.8 175.6l-67.4-0.1"/>
					<path id="Layer" fill-rule="evenodd" class="s17" d="m895.4 153.9l-67.4-0.2"/>
					<path id="Layer" fill-rule="evenodd" class="s17" d="m828.7 153.8l-67.3-0.2"/>
					<path id="Layer" fill-rule="evenodd" class="s17" d="m822.1 282v-194.8"/>
					<path id="Layer" fill-rule="evenodd" class="s17" d="m838.9 282v-194.8"/>
					<path id="Layer" fill-rule="evenodd" class="s17" d="m895.5 204.9l-67.4-0.2"/>
					<path id="Layer" fill-rule="evenodd" class="s17" d="m895.5 132.5l-67.4-0.2"/>
					<path id="Layer" fill-rule="evenodd" class="s17" d="m828.8 204.8l-67.4-0.2"/>
					<path id="Layer" fill-rule="evenodd" class="s17" d="m828.8 132.4l-67.4-0.2"/>
					<path id="Layer" fill-rule="evenodd" class="s17" d="m895.5 190.3l-67.4-0.1"/>
					<path id="Layer" fill-rule="evenodd" class="s17" d="m828.8 190.2l-67.4-0.2"/>
					<path id="Layer" fill-rule="evenodd" class="s17" d="m830.6 282v-194.8"/>
					<path id="Layer" fill-rule="evenodd" class="s17" d="m895.5 219.5l-67.4-0.2"/>
					<path id="Layer" fill-rule="evenodd" class="s17" d="m828.8 219.3l-67.4-0.1"/>
				</g>
			</g>
		</g>
	</g>
	<g id="Clip-Path: Clip-Path: Clip-Path" clip-path="url(#cp4)">
		<g id="Clip-Path: Clip-Path">
			<g id="Clip-Path">
				<g id="Layer">
					<path id="Layer" fill-rule="evenodd" class="s17" d="m829.8 105.5l94.9 47.4m-1-0.4l95 47.4m-177.8-44.3l151.7-80.9m-66 123.7l151.7-80.9m-258.8 27.4l151.7-80.9m-31.4-8.6l86.7 43.2m-121.3 89.1l151.7-80.9m-31.4-8.6l86.7 43.2m-276.6 11.5l151.7-80.9m-66 123.7l151.7-80.8m-274.9 19.3l151.7-80.8m-154.8 76.5l151.7-80.9m-62.9 128.1l151.7-80.9m-220.1 25.6l86.6 43.2m-1-0.4l86.7 43.2m-125.4-41.5l152.2-80.7m-66.5 123.5l152.2-80.7m-248.6 32.5l152.1-80.7m-86.6-12.7l86.7 43.2m-66.5 93l152.1-80.6m-86.6-12.8l86.7 43.2m-259.3-3.2l151.7-80.9m-66 123.7l151.7-80.9m-240.9 3.5l86.6 43.3m-0.9-0.5l86.6 43.3m-152.7-43.5l152.1-80.7m-66.5 123.5l152.2-80.7m-275.3 19.2l151.7-80.9m-32 2.7l86.6 43.3m-120.6 77.7l151.7-80.9m-32 2.7l86.6 43.3m-275.9 0.1l151.7-80.9m-31-14.3l86.6 43.2m-121.6 94.8l151.7-80.9m-31-14.3l86.6 43.2m-250.3 30.6l151.8-80.9m-66.1 123.7l151.7-80.9m-301-3.1l86.6 43.3m-0.9-0.5l86.6 43.3m-103.3-42.3l151.7-80.9m-66 123.7l151.7-80.9m-269.2-34.1l94.8 47.4m-30.2-73.3l86.6 43.3m-57.3 29.6l95 47.4m-38.6-77.5l86.6 43.3m-221.1 4l152.1-80.7m-66.4 123.5l152.1-80.7m-270.6-17.2l94.8 47.4m-0.9-0.4l95 47.4m-198.9-60.6l151.7-80.9m-66 123.7l151.7-80.9m-173.8-15.7l86.6 43.2m-30.2-73.3l86.6 43.3m-57.3 29.6l86.6 43.2m-30.2-73.3l86.6 43.3m-211.6-65.1l86.6 43.3m-0.9-0.5l86.6 43.3m-263.7-28.6l151.7-80.9m-66 123.7l151.7-80.9m-231.2 26l86.6 43.2m-0.9-0.4l86.6 43.2m-109.9-119.3l86.6 43.2m-0.9-0.4l86.6 43.3m-197.5-81.2l94.8 47.4m-30.2-73.3l86.6 43.3m-57.3 29.6l95 47.4m-38.6-77.5l86.6 43.3m-194.6-74.2l86.6 43.3m-0.9-0.4l86.6 43.2m-240.5-49.8l86.6 43.3m-0.9-0.5l86.6 43.3m-109.8-119.4l86.6 43.3m-1-0.4l86.7 43.2m-189.4-77l86.6 43.3m-30.2-73.3l86.6 43.2m-57.3 29.6l86.6 43.3m-30.2-73.3l86.6 43.2m-234.3-53l86.6 43.3m-1-0.4l86.7 43.2m-234.8-52.8l86.6 43.3m-0.9-0.5l86.6 43.3m-92.3-42.6l151.7-80.9m-66 123.7l151.7-80.9m-145.8 83.9l151.8-80.9m-144.4 82.8l151.7-80.9m-293.5-38.6l94.9 47.4m-1-0.5l95 47.5m-123.9-120.5l86.7 43.2m-1-0.4l86.7 43.3"/>
				</g>
			</g>
		</g>
	</g>
	<path id="Layer" fill-rule="evenodd" class="s18" d="m819.7 240.3v-93.7h281.3v93.7"/>
	<g id="Layer_x0020_1" style="opacity: .1">
		<path id="Layer" fill-rule="evenodd" class="s19" d="m784.7 407.9h80.9c7.4 0 13.5 4.5 13.5 10.3v88.9c0 5.6-6.1 10.3-13.5 10.3h-80.9c-7.4 0-13.5-4.5-13.5-10.3v-88.9c0-5.8 6.1-10.3 13.5-10.3z"/>
		<path id="Layer" fill-rule="evenodd" class="s20" d="m821.4 417.4c20.3 0 36.8 16.2 37.1 36.3 0 0.2 0 0.2 0.2 0.3 0 2.4 0 4.7 0.2 6.9 2.7 4.8 4.8 8.4 7.6 13 1.3 1.8 1 3.4-0.6 4-2.1 1-5.8-0.3-7.1 1.3 0 6.9 0 11.3 0 18-0.3 5.8-1.9 6.3-6.9 7.1-5.9 0-11.9 0-17.7 0v12.9h-36.5c-0.2-11.6-0.3-23-0.5-34.4 0.2-0.2 0.2-0.2 0.2-0.2-8-6.9-13-16.9-13-28.3 0-20.4 16.5-37.1 37-36.9z"/>
		<text id="MORABI" style="transform: matrix(1,0,0,1,883.496,462.038)" >
			<tspan x="0" y="0" class="t21">M</tspan><tspan  y="0" class="t21">O</tspan><tspan  y="0" class="t21">R</tspan><tspan  y="0" class="t21">A</tspan><tspan  y="0" class="t21">B</tspan><tspan  y="0" class="t21">I
</tspan>
		</text>
		<text id="MODERN" style="transform: matrix(1,0,0,1,883.327,512.272)" >
			<tspan x="0" y="0" class="t21" dx="0" >M</tspan><tspan  y="0" class="t21" dx="0" >O</tspan><tspan  y="0" class="t21" dx="0 -1 -1 -1 -1" >DERN
</tspan>
		</text>
		<path id="Layer" class="s22" d="m834.1 447.6v15l-11.9 6.7-12.1-6.6v-0.9-14l11.6-6.9z"/>
		<path id="Layer" fill-rule="evenodd" class="s22" d="m833.7 419.5l-9 5.6c-1.4 0.8-3.5 1-4.7 0.2l-9.8-6.1c3.5-1.1 7.2-1.8 11.1-1.8 4.4 0 8.6 0.6 12.4 2.1z"/>
		<path id="Layer" fill-rule="evenodd" class="s22" d="m796.6 426.9l0.6 10.5c0.2 1.6-1 3.5-2.1 4.2l-10.1 5.8c0.8-3.7 2.1-7.2 3.9-10.6 1.9-4 4.6-7.4 7.7-9.9z"/>
		<path id="Layer" fill-rule="evenodd" class="s22" d="m846.3 426.9l-0.6 10.5c-0.2 1.6 1 3.5 2.1 4.2l10.1 5.8c-0.8-3.7-2.1-7.2-3.9-10.6-1.9-4-4.7-7.4-7.7-9.9z"/>
		<path id="Layer" fill-rule="evenodd" class="s22" d="m785.2 462.7l9.5 4.7c1.4 0.8 2.6 2.4 2.6 3.9v11.6c-2.9-2.4-5.3-5.3-7.4-8.5-2.5-3.8-3.9-7.7-4.7-11.7z"/>
	</g>
</svg>