<?xml version="1.0" encoding="utf-8"?>
<!-- Generator: Adobe Illustrator 27.0.0, SVG Export Plug-In . SVG Version: 6.00 Build 0)  -->
<svg width="35" height="35" version="1.1" id="Layer_1" xmlns="http://www.w3.org/2000/svg" xmlns:xlink="http://www.w3.org/1999/xlink" x="0px" y="0px"
	 viewBox="0 0 210 210" style="enable-background:new 0 0 1080 1080;" xml:space="preserve">
<style type="text/css">
	.st0{enable-background:new    ;}
	.st1{clip-path:url(#SVGID_00000152942610865215101990000011528979880704514179_);enable-background:new    ;}
	.st2{clip-path:url(#SVGID_00000146474278737485449990000013370265381888899987_);enable-background:new    ;}
	.st3{clip-path:url(#SVGID_00000096774808467385638470000007119518034738342552_);enable-background:new    ;}
	.st4{fill:#00EBEB;}
	.st5{fill:#008080;}
	.st6{clip-path:url(#SVGID_00000145022844711285096010000012837275942364942240_);enable-background:new    ;}
	.st7{clip-path:url(#SVGID_00000160874557321601468130000012824989669920192133_);enable-background:new    ;}
	.st8{clip-path:url(#SVGID_00000018214986439888641340000018148622121364365969_);enable-background:new    ;}
	.st9{fill:#808080;}
	.st10{clip-path:url(#SVGID_00000036968269840411587330000007631640961034384777_);enable-background:new    ;}
	.st11{clip-path:url(#SVGID_00000062191146906313448870000006637881112528430217_);enable-background:new    ;}
	.st12{clip-path:url(#SVGID_00000068672165313557520350000017084925184668298125_);enable-background:new    ;}
	.st13{fill:#008585;}
	.st14{clip-path:url(#SVGID_00000063626704920816323880000003690523502189161379_);enable-background:new    ;}
	.st15{fill:#008A8A;}
	.st16{clip-path:url(#SVGID_00000162329837813312736440000007883499783303636378_);enable-background:new    ;}
	.st17{clip-path:url(#SVGID_00000043445529989626688660000006722616387642838686_);enable-background:new    ;}
	.st18{fill:#008F8F;}
	.st19{clip-path:url(#SVGID_00000133505353854505489510000005457863823397312409_);enable-background:new    ;}
	.st20{fill:#EBEBEB;}
	.st21{clip-path:url(#SVGID_00000183218240328661324860000017059992489362360217_);enable-background:new    ;}
	.st22{clip-path:url(#SVGID_00000026164597038277285730000010114597563023312062_);enable-background:new    ;}
	.st23{font-family:'DINCondensed-Bold';}
	.st24{font-size:80px;}
</style>
<g>
	<g>
		<g class="st0">
			<g>
				<polygon points="186.77,90.14 184.98,101.64 184.27,101.64 186.07,90.13 				"/>
			</g>
			<g>
				<polygon points="186.88,108.38 185.08,119.89 184.98,101.64 186.77,90.14 				"/>
			</g>
			<g>
				<polygon points="186.38,107.89 184.59,119.4 184.49,102.12 186.28,90.62 				"/>
			</g>
			<g>
				<polygon points="186.88,108.38 185.08,119.89 184.52,119.88 186.31,108.38 				"/>
			</g>
			<g class="st0">
				<defs>
					<path id="SVGID_1_" class="st0" d="M186.05,110.21l-1.79,11.51c0.1-0.61,0.18-1.22,0.26-1.84l1.79-11.51
						C186.23,108.99,186.14,109.6,186.05,110.21z"/>
				</defs>
				<clipPath id="SVGID_00000060712423030886148420000008666801218832192939_">
					<use xlink:href="#SVGID_1_"  style="overflow:visible;"/>
				</clipPath>
				<g style="clip-path:url(#SVGID_00000060712423030886148420000008666801218832192939_);enable-background:new    ;">
					<path d="M186.05,110.21l-1.79,11.51c0.1-0.61,0.18-1.22,0.26-1.84l1.79-11.51C186.23,108.99,186.14,109.6,186.05,110.21"/>
				</g>
			</g>
			<g class="st0">
				<defs>
					<path id="SVGID_00000105398241596985691650000001812714836940656811_" class="st0" d="M42.86,100.24
						c0.03-0.21,0.06-0.43,0.1-0.64l1.79-11.51c-0.03,0.21-0.07,0.43-0.1,0.64C44.06,92.57,43.46,96.41,42.86,100.24z"/>
				</defs>
				<clipPath id="SVGID_00000012454678400965484640000004816289427183312007_">
					<use xlink:href="#SVGID_00000105398241596985691650000001812714836940656811_"  style="overflow:visible;"/>
				</clipPath>
				<g style="clip-path:url(#SVGID_00000012454678400965484640000004816289427183312007_);enable-background:new    ;">
					<path d="M167.75,147.77l-1.79,11.51c-12.99,12.82-31.23,20.72-51.46,20.58c-39.72-0.27-72.11-31.44-72.33-69.6
						c-0.02-3.63,0.25-7.19,0.79-10.67l1.79-11.51c-0.54,3.48-0.81,7.04-0.79,10.67c0.22,38.16,32.61,69.33,72.33,69.6
						C136.53,168.5,154.76,160.6,167.75,147.77"/>
				</g>
			</g>
			<g class="st0">
				<defs>
					<path id="SVGID_00000008844321666909000660000016424984301240780987_" class="st0" d="M186.07,90.13l-1.79,11.51
						c-5.06-33.08-34.85-58.78-70.57-59.03c-35.72-0.25-65.21,25.04-69.89,58.06l1.79-11.51c4.68-33.01,34.17-58.3,69.89-58.06
						C151.22,31.35,181,57.05,186.07,90.13z"/>
				</defs>
				<clipPath id="SVGID_00000166634272090979709010000018375570428599639210_">
					<use xlink:href="#SVGID_00000008844321666909000660000016424984301240780987_"  style="overflow:visible;"/>
				</clipPath>
				<g style="clip-path:url(#SVGID_00000166634272090979709010000018375570428599639210_);enable-background:new    ;">
					<path d="M186.07,90.13l-1.79,11.51c-5.06-33.08-34.85-58.78-70.57-59.03c-19.92-0.14-37.9,7.67-50.73,20.33l1.79-11.51
						C77.59,38.77,95.57,30.97,115.5,31.1C151.22,31.35,181,57.05,186.07,90.13"/>
					<path d="M64.77,51.43l-1.79,11.51c-5.13,5.06-9.43,10.9-12.7,17.32l1.79-11.51C55.34,62.33,59.64,56.49,64.77,51.43"/>
					<path d="M52.07,68.75l-1.79,11.51c-3.21,6.31-5.43,13.17-6.46,20.41l1.79-11.51C46.63,81.92,48.85,75.06,52.07,68.75"/>
				</g>
			</g>
			<g>
				<path class="st4" d="M115.5,31.1c35.72,0.25,65.51,25.95,70.57,59.03L45.61,89.16C50.29,56.15,79.78,30.86,115.5,31.1z"/>
			</g>
			<g>
				<polygon class="st5" points="186.07,90.13 184.27,101.64 43.82,100.67 45.61,89.16 				"/>
			</g>
			<g>
				<polygon points="45.61,89.16 43.82,100.67 43.11,100.66 44.9,89.16 				"/>
			</g>
			<g class="st0">
				<defs>
					<path id="SVGID_00000174572472381811514450000004884812171539889805_" class="st0" d="M42.79,100.73
						c0.02-0.16,0.05-0.32,0.07-0.49c0.6-3.84,1.19-7.67,1.79-11.51c-0.02,0.16-0.05,0.32-0.07,0.49
						C43.99,93.06,43.39,96.89,42.79,100.73z"/>
				</defs>
				<clipPath id="SVGID_00000178926653622951931140000000758381883439316909_">
					<use xlink:href="#SVGID_00000174572472381811514450000004884812171539889805_"  style="overflow:visible;"/>
				</clipPath>
				<g style="clip-path:url(#SVGID_00000178926653622951931140000000758381883439316909_);enable-background:new    ;">
					<path d="M167.75,147.77l-1.79,11.51c-12.99,12.82-31.23,20.72-51.46,20.58c-39.72-0.27-72.11-31.44-72.33-69.6
						c-0.02-3.63,0.25-7.19,0.79-10.67l1.79-11.51c-0.54,3.48-0.81,7.04-0.79,10.67c0.22,38.16,32.61,69.33,72.33,69.6
						C136.53,168.5,154.76,160.6,167.75,147.77"/>
				</g>
			</g>
			<g>
				<polygon points="186.28,90.62 184.49,102.12 43.62,101.15 45.41,89.64 				"/>
			</g>
			<g class="st0">
				<defs>
					<path id="SVGID_00000166637547116331208580000000766044805524337335_" class="st0" d="M42.55,102.77
						c0.07-0.68,0.16-1.36,0.25-2.04c0.6-3.84,1.19-7.67,1.79-11.51c-0.09,0.68-0.18,1.36-0.25,2.04
						C43.74,95.1,43.14,98.93,42.55,102.77z"/>
				</defs>
				<clipPath id="SVGID_00000173142982003328944790000013361361557909683333_">
					<use xlink:href="#SVGID_00000166637547116331208580000000766044805524337335_"  style="overflow:visible;"/>
				</clipPath>
				<g style="clip-path:url(#SVGID_00000173142982003328944790000013361361557909683333_);enable-background:new    ;">
					<path d="M167.75,147.77l-1.79,11.51c-12.99,12.82-31.23,20.72-51.46,20.58c-39.72-0.27-72.11-31.44-72.33-69.6
						c-0.02-3.63,0.25-7.19,0.79-10.67l1.79-11.51c-0.54,3.48-0.81,7.04-0.79,10.67c0.22,38.16,32.61,69.33,72.33,69.6
						C136.53,168.5,154.76,160.6,167.75,147.77"/>
				</g>
			</g>
			<g class="st0">
				<defs>
					<path id="SVGID_00000107558004131100388910000016489344336359795089_" class="st0" d="M42.33,105.26
						c0.06-0.84,0.13-1.67,0.22-2.49c0.6-3.84,1.19-7.67,1.79-11.51c-0.09,0.83-0.16,1.66-0.22,2.49
						C43.52,97.59,42.92,101.42,42.33,105.26z"/>
				</defs>
				<clipPath id="SVGID_00000183963057834399028210000013958223875026437506_">
					<use xlink:href="#SVGID_00000107558004131100388910000016489344336359795089_"  style="overflow:visible;"/>
				</clipPath>
				<g style="clip-path:url(#SVGID_00000183963057834399028210000013958223875026437506_);enable-background:new    ;">
					<path d="M167.75,147.77l-1.79,11.51c-12.99,12.82-31.23,20.72-51.46,20.58c-39.72-0.27-72.11-31.44-72.33-69.6
						c-0.02-3.63,0.25-7.19,0.79-10.67l1.79-11.51c-0.54,3.48-0.81,7.04-0.79,10.67c0.22,38.16,32.61,69.33,72.33,69.6
						C136.53,168.5,154.76,160.6,167.75,147.77"/>
				</g>
			</g>
			<g>
				<polygon class="st9" points="45.51,106.92 43.72,118.42 43.62,101.15 45.41,89.64 				"/>
			</g>
			<g>
				<polygon points="44.96,98.76 43.17,110.27 43.11,100.66 44.9,89.16 				"/>
			</g>
			<g class="st0">
				<defs>
					<path id="SVGID_00000165934601437747162580000013639197389962060933_" class="st0" d="M42.17,110.26
						c-0.01-1.68,0.04-3.35,0.16-5c0.6-3.84,1.19-7.67,1.79-11.51c-0.11,1.65-0.17,3.32-0.16,5c0.01,1.69,0.08,3.36,0.22,5.02
						c-0.6,3.84-1.19,7.67-1.79,11.51C42.25,113.62,42.18,111.95,42.17,110.26z"/>
				</defs>
				<clipPath id="SVGID_00000150104097641287257390000007931991969046112700_">
					<use xlink:href="#SVGID_00000165934601437747162580000013639197389962060933_"  style="overflow:visible;"/>
				</clipPath>
				<g style="clip-path:url(#SVGID_00000150104097641287257390000007931991969046112700_);enable-background:new    ;">
					<path d="M167.75,147.77l-1.79,11.51c-12.99,12.82-31.23,20.72-51.46,20.58c-39.72-0.27-72.11-31.44-72.33-69.6
						c-0.02-3.63,0.25-7.19,0.79-10.67l1.79-11.51c-0.54,3.48-0.81,7.04-0.79,10.67c0.22,38.16,32.61,69.33,72.33,69.6
						C136.53,168.5,154.76,160.6,167.75,147.77"/>
				</g>
			</g>
			<g>
				<polygon points="45.01,107.4 43.22,118.9 43.17,110.27 44.96,98.76 				"/>
			</g>
			<g class="st0">
				<defs>
					<path id="SVGID_00000068661036642873988230000017080123620524518288_" class="st0" d="M42.63,117.77
						c-0.1-0.83-0.18-1.66-0.25-2.5c0.6-3.84,1.19-7.67,1.79-11.51c0.07,0.84,0.15,1.67,0.25,2.5
						C43.83,110.1,43.23,113.94,42.63,117.77z"/>
				</defs>
				<clipPath id="SVGID_00000179643838588108060540000006251678877494756742_">
					<use xlink:href="#SVGID_00000068661036642873988230000017080123620524518288_"  style="overflow:visible;"/>
				</clipPath>
				<g style="clip-path:url(#SVGID_00000179643838588108060540000006251678877494756742_);enable-background:new    ;">
					<path d="M167.75,147.77l-1.79,11.51c-12.99,12.82-31.23,20.72-51.46,20.58c-39.72-0.27-72.11-31.44-72.33-69.6
						c-0.02-3.63,0.25-7.19,0.79-10.67l1.79-11.51c-0.54,3.48-0.81,7.04-0.79,10.67c0.22,38.16,32.61,69.33,72.33,69.6
						C136.53,168.5,154.76,160.6,167.75,147.77"/>
				</g>
			</g>
			<g>
				<polygon class="st9" points="186.38,107.89 184.59,119.4 43.72,118.42 45.51,106.92 				"/>
			</g>
			<g>
				<polygon points="186.31,108.38 184.52,119.88 43.79,118.91 45.58,107.4 				"/>
			</g>
			<g class="st0">
				<defs>
					<path id="SVGID_00000147927736466847149040000008342876310215508102_" class="st0" d="M48.99,137
						c-0.01-0.1,0.04-0.23,0.05-0.32c1.31-8.43,1.5-9.64,1.74-11.19c6.52,14.53,18.11,26.53,32.58,33.91c-0.39,2.5-0.78,5-1.17,7.51
						c-0.11,0.72-0.22,1.44-0.34,2.16c-0.03,0.17-0.06,0.39-0.09,0.55c-0.04,0.27-0.08,0.53-0.12,0.8
						c-0.01,0.08-0.03,0.18-0.04,0.25c-0.01,0.07-0.04,0.17-0.04,0.24C67.1,163.51,55.52,151.52,48.99,137z"/>
				</defs>
				<clipPath id="SVGID_00000036952418720686192390000012419411784957761445_">
					<use xlink:href="#SVGID_00000147927736466847149040000008342876310215508102_"  style="overflow:visible;"/>
				</clipPath>
				<g style="clip-path:url(#SVGID_00000036952418720686192390000012419411784957761445_);enable-background:new    ;">
					<path class="st13" d="M167.03,147.05l-1.79,11.51c-12.82,12.66-30.81,20.47-50.74,20.33c-36.07-0.25-66.08-26.44-70.71-59.99
						l1.79-11.51c4.63,33.54,34.65,59.74,70.71,59.99C136.22,167.53,154.2,159.72,167.03,147.05"/>
				</g>
			</g>
			<g class="st0">
				<defs>
					<path id="SVGID_00000031920264977190390490000006987126995726889119_" class="st0" d="M81.57,170.89
						c0.6-3.84,1.19-7.67,1.79-11.51c9.86,5.03,21.07,7.92,32.93,8c22.81,0.16,43.07-10.09,55.96-26.12
						c-0.6,3.84-1.19,7.67-1.79,11.51c-12.89,16.02-33.16,26.27-55.96,26.12C102.64,178.81,91.44,175.93,81.57,170.89z"/>
				</defs>
				<clipPath id="SVGID_00000034776657019994621560000014992571301635148714_">
					<use xlink:href="#SVGID_00000031920264977190390490000006987126995726889119_"  style="overflow:visible;"/>
				</clipPath>
				<g style="clip-path:url(#SVGID_00000034776657019994621560000014992571301635148714_);enable-background:new    ;">
					<path class="st15" d="M179.72,129.74l-1.79,11.51c-3.27,6.41-7.57,12.25-12.69,17.31l1.79-11.51
						C172.15,141.99,176.45,136.16,179.72,129.74"/>
					<path class="st13" d="M167.03,147.05l-1.79,11.51c-12.82,12.66-30.81,20.47-50.74,20.33c-36.07-0.25-66.08-26.44-70.71-59.99
						l1.79-11.51c4.63,33.54,34.65,59.74,70.71,59.99C136.22,167.53,154.2,159.72,167.03,147.05"/>
				</g>
			</g>
			<g>
				<path class="st4" d="M45.58,107.4l140.73,0.97c-4.24,33.48-33.95,59.26-70.02,59.01C80.22,167.14,50.21,140.94,45.58,107.4z"/>
			</g>
			<g>
				<path d="M186.07,90.13l0.7,0l0.11,18.24l-0.57,0L45.58,107.4l-0.57,0l-0.05-8.64l-0.06-9.61l0.7,0L186.07,90.13z M186.38,107.89
					l-0.1-17.28L45.41,89.64l0.1,17.28L186.38,107.89"/>
			</g>
			<g class="st0">
				<defs>
					<path id="SVGID_00000115495028236814195050000003069535790401663109_" class="st0" d="M48.99,137
						c-2.55-5.68-4.33-11.76-5.21-18.09l1.79-11.51c0.87,6.33,2.65,12.4,5.2,18.08C50.2,129.32,49.59,133.16,48.99,137z"/>
				</defs>
				<clipPath id="SVGID_00000007408656324080301250000014115437591133031060_">
					<use xlink:href="#SVGID_00000115495028236814195050000003069535790401663109_"  style="overflow:visible;"/>
				</clipPath>
				<g style="clip-path:url(#SVGID_00000007408656324080301250000014115437591133031060_);enable-background:new    ;">
					<path class="st13" d="M167.03,147.05l-1.79,11.51c-12.82,12.66-30.81,20.47-50.74,20.33c-36.07-0.25-66.08-26.44-70.71-59.99
						l1.79-11.51c4.63,33.54,34.65,59.74,70.71,59.99C136.22,167.53,154.2,159.72,167.03,147.05"/>
				</g>
			</g>
			<g>
				<polygon points="45.58,107.4 43.79,118.91 43.22,118.9 45.01,107.4 				"/>
			</g>
			<g class="st0">
				<defs>
					<path id="SVGID_00000123423296755237591340000008022150540728961675_" class="st0" d="M170.46,152.78
						c0.6-3.84,1.19-7.67,1.79-11.51c7.12-8.85,11.99-19.47,13.8-31.07l-1.79,11.51C182.45,133.31,177.58,143.92,170.46,152.78z"/>
				</defs>
				<clipPath id="SVGID_00000171680382765548701890000003242522505978597278_">
					<use xlink:href="#SVGID_00000123423296755237591340000008022150540728961675_"  style="overflow:visible;"/>
				</clipPath>
				<g style="clip-path:url(#SVGID_00000171680382765548701890000003242522505978597278_);enable-background:new    ;">
					<path class="st18" d="M186.05,110.21l-1.79,11.51c-1.08,6.91-3.24,13.48-6.33,19.53l1.79-11.51
						C182.81,123.69,184.97,117.13,186.05,110.21"/>
					<path class="st15" d="M179.72,129.74l-1.79,11.51c-3.27,6.41-7.57,12.25-12.69,17.31l1.79-11.51
						C172.15,141.99,176.45,136.16,179.72,129.74"/>
				</g>
			</g>
			<g class="st0">
				<defs>
					<path id="SVGID_00000005229197463763148320000015380121580977553060_" class="st0" d="M114.5,179.86
						c-36.53-0.25-66.86-26.63-71.67-60.55c0.6-3.84,1.19-7.67,1.79-11.51c4.81,33.92,35.14,60.3,71.67,60.55
						c35.96,0.25,65.6-24.89,70.74-57.95l-1.79,11.51C180.1,154.97,150.46,180.11,114.5,179.86z"/>
				</defs>
				<clipPath id="SVGID_00000126322456953510058470000003234242179431743112_">
					<use xlink:href="#SVGID_00000005229197463763148320000015380121580977553060_"  style="overflow:visible;"/>
				</clipPath>
				<g style="clip-path:url(#SVGID_00000126322456953510058470000003234242179431743112_);enable-background:new    ;">
					<path d="M187.03,110.42l-1.79,11.51c-1.09,7.02-3.29,13.69-6.42,19.82l1.79-11.51C183.74,124.1,185.94,117.44,187.03,110.42"/>
					<path d="M180.61,130.24l-1.79,11.51c-3.31,6.5-7.67,12.41-12.86,17.53l1.79-11.51C172.94,142.65,177.3,136.74,180.61,130.24"/>
					<path d="M167.75,147.77l-1.79,11.51c-12.99,12.82-31.23,20.72-51.46,20.58c-39.72-0.27-72.11-31.44-72.33-69.6
						c-0.02-3.63,0.25-7.19,0.79-10.67l1.79-11.51c-0.54,3.48-0.81,7.04-0.79,10.67c0.22,38.16,32.61,69.33,72.33,69.6
						C136.53,168.5,154.76,160.6,167.75,147.77"/>
				</g>
			</g>
			<g>
				<path d="M115.49,30.15c39.73,0.27,72.11,31.43,72.33,69.6c0.22,38.16-31.8,68.88-71.53,68.61
					c-39.72-0.27-72.11-31.44-72.33-69.6C43.74,60.58,75.77,29.87,115.49,30.15z M186.31,108.38l0.57,0l-0.11-18.24l-0.7,0
					C181,57.05,151.22,31.35,115.5,31.1c-35.72-0.25-65.21,25.04-69.89,58.06l-0.7,0l0.06,9.61l0.05,8.64l0.57,0
					c4.63,33.54,34.65,59.74,70.71,59.99S182.07,141.86,186.31,108.38"/>
			</g>
			<g>
				<polygon class="st20" points="186.28,90.62 186.38,107.89 45.51,106.92 45.41,89.64 				"/>
			</g>
			<g class="st0">
				<defs>
					<path id="SVGID_00000129885401183115216800000010082629116980547261_" class="st0" d="M42.77,118.81
						c-0.05-0.34-0.09-0.69-0.13-1.04c0.6-3.84,1.19-7.67,1.79-11.51c0.04,0.35,0.08,0.69,0.13,1.04
						C43.96,111.14,43.36,114.97,42.77,118.81z"/>
				</defs>
				<clipPath id="SVGID_00000098942538756606865020000013182520741759012795_">
					<use xlink:href="#SVGID_00000129885401183115216800000010082629116980547261_"  style="overflow:visible;"/>
				</clipPath>
				<g style="clip-path:url(#SVGID_00000098942538756606865020000013182520741759012795_);enable-background:new    ;">
					<path d="M167.75,147.77l-1.79,11.51c-12.99,12.82-31.23,20.72-51.46,20.58c-39.72-0.27-72.11-31.44-72.33-69.6
						c-0.02-3.63,0.25-7.19,0.79-10.67l1.79-11.51c-0.54,3.48-0.81,7.04-0.79,10.67c0.22,38.16,32.61,69.33,72.33,69.6
						C136.53,168.5,154.76,160.6,167.75,147.77"/>
				</g>
			</g>
			<g class="st0">
				<defs>
					<path id="SVGID_00000090267280681075038100000014320921555341228939_" class="st0" d="M42.83,119.31
						c-0.02-0.17-0.05-0.33-0.07-0.5c0.6-3.84,1.19-7.67,1.79-11.51c0.02,0.17,0.05,0.34,0.07,0.5
						C44.03,111.64,43.43,115.48,42.83,119.31z"/>
				</defs>
				<clipPath id="SVGID_00000096774007746645701150000006167332814504122250_">
					<use xlink:href="#SVGID_00000090267280681075038100000014320921555341228939_"  style="overflow:visible;"/>
				</clipPath>
				<g style="clip-path:url(#SVGID_00000096774007746645701150000006167332814504122250_);enable-background:new    ;">
					<path d="M167.75,147.77l-1.79,11.51c-12.99,12.82-31.23,20.72-51.46,20.58c-39.72-0.27-72.11-31.44-72.33-69.6
						c-0.02-3.63,0.25-7.19,0.79-10.67l1.79-11.51c-0.54,3.48-0.81,7.04-0.79,10.67c0.22,38.16,32.61,69.33,72.33,69.6
						C136.53,168.5,154.76,160.6,167.75,147.77"/>
				</g>
			</g>
		</g>
	</g>
</g>
<text transform="matrix(1 0 0 1 100.0929 127.0771)" class="st23 st24">3</text>
</svg>
