<svg width="58" height="41" viewBox="0 0 708 431" fill="none" xmlns="http://www.w3.org/2000/svg">
<g clip-path="url(#clip0)">
<path fill-rule="evenodd" clip-rule="evenodd" d="M55.5684 418.131H51.1104V361.504H60.0265V418.131H55.5684Z" fill="#FFFF64"/>
<path fill-rule="evenodd" clip-rule="evenodd" d="M55.5684 418.131H51.1104V361.504H60.0265V418.131H55.5684Z" stroke="#333333" stroke-width="1.89706" stroke-linejoin="round"/>
<path fill-rule="evenodd" clip-rule="evenodd" d="M88.3975 418.131H83.9395V361.504H92.8556V418.131H88.3975Z" fill="#FFFF64"/>
<path fill-rule="evenodd" clip-rule="evenodd" d="M88.3975 418.131H83.9395V361.504H92.8556V418.131H88.3975Z" stroke="#333333" stroke-width="1.89706" stroke-linejoin="round"/>
<path fill-rule="evenodd" clip-rule="evenodd" d="M45.9031 362.444C27.5965 362.633 32.1495 298.228 27.312 269.583C22.4745 240.937 7.01348 185.543 5.49583 160.407C3.31422 138.781 -1.42843 116.111 5.9701 95.3379C11.5664 79.4975 38.1252 75.7034 36.6076 57.0174C35.0899 38.2365 45.9031 1.43359 67.909 1.43359C90.0097 1.43359 100.538 42.8843 100.064 57.0174C99.6847 71.1504 128.141 79.4975 132.978 95.8122C137.816 112.127 136.677 138.117 131.46 160.597C126.718 180.895 115.81 236.1 111.826 270.057C107.842 304.014 113.154 361.969 100.349 361.969C87.5435 361.969 64.2097 362.159 45.9031 362.444Z" fill="#FFFF64"/>
<path fill-rule="evenodd" clip-rule="evenodd" d="M45.9031 362.444C27.5965 362.633 32.1495 298.228 27.312 269.583C22.4745 240.937 7.01348 185.543 5.49583 160.407C3.31422 138.781 -1.42843 116.111 5.9701 95.3379C11.5664 79.4975 38.1252 75.7034 36.6076 57.0174C35.0899 38.2365 45.9031 1.43359 67.909 1.43359C90.0097 1.43359 100.538 42.8843 100.064 57.0174C99.6847 71.1504 128.141 79.4975 132.978 95.8122C137.816 112.127 136.677 138.117 131.46 160.597C126.718 180.895 115.81 236.1 111.826 270.057C107.842 304.014 113.154 361.969 100.349 361.969C87.5435 361.969 64.2097 362.159 45.9031 362.444Z" stroke="#333333" stroke-width="1.89706"/>
<path fill-rule="evenodd" clip-rule="evenodd" d="M71.9763 429.496H37.7344V417.545H106.218V429.496H71.9763Z" fill="#808080"/>
<path fill-rule="evenodd" clip-rule="evenodd" d="M71.9763 429.496H37.7344V417.545H106.218V429.496H71.9763Z" stroke="#333333" stroke-width="1.89706" stroke-linejoin="round"/>
<path fill-rule="evenodd" clip-rule="evenodd" d="M198.884 418.133H194.426V361.506H203.342V418.133H198.884Z" fill="#FFFF64"/>
<path fill-rule="evenodd" clip-rule="evenodd" d="M198.884 418.133H194.426V361.506H203.342V418.133H198.884Z" stroke="#333333" stroke-width="1.89706" stroke-linejoin="round"/>
<path fill-rule="evenodd" clip-rule="evenodd" d="M231.713 418.133H227.255V361.506H236.171V418.133H231.713Z" fill="#FFFF64"/>
<path fill-rule="evenodd" clip-rule="evenodd" d="M231.713 418.133H227.255V361.506H236.171V418.133H231.713Z" stroke="#333333" stroke-width="1.89706" stroke-linejoin="round"/>
<path fill-rule="evenodd" clip-rule="evenodd" d="M189.221 362.444C170.914 362.633 175.467 298.228 170.629 269.583C165.792 240.937 150.331 185.543 148.813 160.407C146.632 138.781 141.889 116.111 149.287 95.3379C154.884 79.4975 181.443 75.7034 179.925 57.0174C178.407 38.2365 189.221 1.43359 211.226 1.43359C233.327 1.43359 243.856 42.8843 243.382 57.0174C243.002 71.1504 271.458 79.4975 276.295 95.8122C281.133 112.127 279.995 138.117 274.778 160.597C270.035 180.895 259.127 236.1 255.143 270.057C251.159 304.014 256.471 361.969 243.666 361.969C230.861 361.969 207.527 362.159 189.221 362.444Z" fill="#FFFF64"/>
<path fill-rule="evenodd" clip-rule="evenodd" d="M189.221 362.444C170.914 362.633 175.467 298.228 170.629 269.583C165.792 240.937 150.331 185.543 148.813 160.407C146.632 138.781 141.889 116.111 149.287 95.3379C154.884 79.4975 181.443 75.7034 179.925 57.0174C178.407 38.2365 189.221 1.43359 211.226 1.43359C233.327 1.43359 243.856 42.8843 243.382 57.0174C243.002 71.1504 271.458 79.4975 276.295 95.8122C281.133 112.127 279.995 138.117 274.778 160.597C270.035 180.895 259.127 236.1 255.143 270.057C251.159 304.014 256.471 361.969 243.666 361.969C230.861 361.969 207.527 362.159 189.221 362.444Z" stroke="#333333" stroke-width="1.89706"/>
<path fill-rule="evenodd" clip-rule="evenodd" d="M215.292 429.496H181.05V417.545H249.534V429.496H215.292Z" fill="#808080"/>
<path fill-rule="evenodd" clip-rule="evenodd" d="M215.292 429.496H181.05V417.545H249.534V429.496H215.292Z" stroke="#333333" stroke-width="1.89706" stroke-linejoin="round"/>
<path fill-rule="evenodd" clip-rule="evenodd" d="M341.164 418.131H336.706V361.504H345.622V418.131H341.164Z" fill="#FFFF64"/>
<path fill-rule="evenodd" clip-rule="evenodd" d="M341.164 418.131H336.706V361.504H345.622V418.131H341.164Z" stroke="#333333" stroke-width="1.89706" stroke-linejoin="round"/>
<path fill-rule="evenodd" clip-rule="evenodd" d="M373.992 418.131H369.534V361.504H378.45V418.131H373.992Z" fill="#FFFF64"/>
<path fill-rule="evenodd" clip-rule="evenodd" d="M373.992 418.131H369.534V361.504H378.45V418.131H373.992Z" stroke="#333333" stroke-width="1.89706" stroke-linejoin="round"/>
<path fill-rule="evenodd" clip-rule="evenodd" d="M331.5 362.444C313.193 362.633 317.746 298.228 312.909 269.583C308.071 240.937 292.61 185.543 291.093 160.407C288.911 138.781 284.168 116.111 291.567 95.3379C297.163 79.4975 323.722 75.7034 322.204 57.0174C320.687 38.2365 331.5 1.43359 353.506 1.43359C375.606 1.43359 386.135 42.8843 385.661 57.0174C385.281 71.1504 413.737 79.4975 418.575 95.8122C423.412 112.127 422.274 138.117 417.057 160.597C412.314 180.895 401.406 236.1 397.423 270.057C393.439 304.014 398.75 361.969 385.945 361.969C373.14 361.969 349.806 362.159 331.5 362.444Z" fill="#FFFF64"/>
<path fill-rule="evenodd" clip-rule="evenodd" d="M331.5 362.444C313.193 362.633 317.746 298.228 312.909 269.583C308.071 240.937 292.61 185.543 291.093 160.407C288.911 138.781 284.168 116.111 291.567 95.3379C297.163 79.4975 323.722 75.7034 322.204 57.0174C320.687 38.2365 331.5 1.43359 353.506 1.43359C375.606 1.43359 386.135 42.8843 385.661 57.0174C385.281 71.1504 413.737 79.4975 418.575 95.8122C423.412 112.127 422.274 138.117 417.057 160.597C412.314 180.895 401.406 236.1 397.423 270.057C393.439 304.014 398.75 361.969 385.945 361.969C373.14 361.969 349.806 362.159 331.5 362.444Z" stroke="#333333" stroke-width="1.89706"/>
<path fill-rule="evenodd" clip-rule="evenodd" d="M357.573 429.496H323.331V417.545H391.815V429.496H357.573Z" fill="#808080"/>
<path fill-rule="evenodd" clip-rule="evenodd" d="M357.573 429.496H323.331V417.545H391.815V429.496H357.573Z" stroke="#333333" stroke-width="1.89706" stroke-linejoin="round"/>
<path fill-rule="evenodd" clip-rule="evenodd" d="M483.442 418.133H478.984V361.506H487.901V418.133H483.442Z" fill="#FFFF64"/>
<path fill-rule="evenodd" clip-rule="evenodd" d="M483.442 418.133H478.984V361.506H487.901V418.133H483.442Z" stroke="#333333" stroke-width="1.89706" stroke-linejoin="round"/>
<path fill-rule="evenodd" clip-rule="evenodd" d="M516.273 418.133H511.814V361.506H520.731V418.133H516.273Z" fill="#FFFF64"/>
<path fill-rule="evenodd" clip-rule="evenodd" d="M516.273 418.133H511.814V361.506H520.731V418.133H516.273Z" stroke="#333333" stroke-width="1.89706" stroke-linejoin="round"/>
<path fill-rule="evenodd" clip-rule="evenodd" d="M473.779 362.444C455.473 362.633 460.025 298.228 455.188 269.583C450.35 240.937 434.889 185.543 433.372 160.407C431.19 138.781 426.448 116.111 433.846 95.3379C439.442 79.4975 466.001 75.7034 464.484 57.0174C462.966 38.2365 473.779 1.43359 495.785 1.43359C517.886 1.43359 528.414 42.8843 527.94 57.0174C527.561 71.1504 556.017 79.4975 560.854 95.8122C565.692 112.127 564.553 138.117 559.336 160.597C554.594 180.895 543.686 236.1 539.702 270.057C535.718 304.014 541.03 361.969 528.225 361.969C515.42 361.969 492.086 362.159 473.779 362.444Z" fill="#FFFF64"/>
<path fill-rule="evenodd" clip-rule="evenodd" d="M473.779 362.444C455.473 362.633 460.025 298.228 455.188 269.583C450.35 240.937 434.889 185.543 433.372 160.407C431.19 138.781 426.448 116.111 433.846 95.3379C439.442 79.4975 466.001 75.7034 464.484 57.0174C462.966 38.2365 473.779 1.43359 495.785 1.43359C517.886 1.43359 528.414 42.8843 527.94 57.0174C527.561 71.1504 556.017 79.4975 560.854 95.8122C565.692 112.127 564.553 138.117 559.336 160.597C554.594 180.895 543.686 236.1 539.702 270.057C535.718 304.014 541.03 361.969 528.225 361.969C515.42 361.969 492.086 362.159 473.779 362.444Z" stroke="#333333" stroke-width="1.89706"/>
<path fill-rule="evenodd" clip-rule="evenodd" d="M499.851 429.496H465.609V417.545H534.093V429.496H499.851Z" fill="#808080"/>
<path fill-rule="evenodd" clip-rule="evenodd" d="M499.851 429.496H465.609V417.545H534.093V429.496H499.851Z" stroke="#333333" stroke-width="1.89706" stroke-linejoin="round"/>
<path fill-rule="evenodd" clip-rule="evenodd" d="M625.726 418.131H621.268V361.504H630.184V418.131H625.726Z" fill="#FFFF64"/>
<path fill-rule="evenodd" clip-rule="evenodd" d="M625.726 418.131H621.268V361.504H630.184V418.131H625.726Z" stroke="#333333" stroke-width="1.89706" stroke-linejoin="round"/>
<path fill-rule="evenodd" clip-rule="evenodd" d="M658.552 418.131H654.094V361.504H663.01V418.131H658.552Z" fill="#FFFF64"/>
<path fill-rule="evenodd" clip-rule="evenodd" d="M658.552 418.131H654.094V361.504H663.01V418.131H658.552Z" stroke="#333333" stroke-width="1.89706" stroke-linejoin="round"/>
<path fill-rule="evenodd" clip-rule="evenodd" d="M616.059 362.444C597.753 362.633 602.306 298.228 597.468 269.583C592.631 240.937 577.17 185.543 575.652 160.407C573.47 138.781 568.728 116.111 576.126 95.3379C581.723 79.4975 608.281 75.7034 606.764 57.0174C605.246 38.2365 616.059 1.43359 638.065 1.43359C660.166 1.43359 670.695 42.8843 670.22 57.0174C669.841 71.1504 698.297 79.4975 703.134 95.8122C707.972 112.127 706.834 138.117 701.617 160.597C696.874 180.895 685.966 236.1 681.982 270.057C677.998 304.014 683.31 361.969 670.505 361.969C657.7 361.969 634.366 362.159 616.059 362.444Z" fill="#FFFF64"/>
<path fill-rule="evenodd" clip-rule="evenodd" d="M616.059 362.444C597.753 362.633 602.306 298.228 597.468 269.583C592.631 240.937 577.17 185.543 575.652 160.407C573.47 138.781 568.728 116.111 576.126 95.3379C581.723 79.4975 608.281 75.7034 606.764 57.0174C605.246 38.2365 616.059 1.43359 638.065 1.43359C660.166 1.43359 670.695 42.8843 670.22 57.0174C669.841 71.1504 698.297 79.4975 703.134 95.8122C707.972 112.127 706.834 138.117 701.617 160.597C696.874 180.895 685.966 236.1 681.982 270.057C677.998 304.014 683.31 361.969 670.505 361.969C657.7 361.969 634.366 362.159 616.059 362.444Z" stroke="#333333" stroke-width="1.89706"/>
<path fill-rule="evenodd" clip-rule="evenodd" d="M642.133 429.496H607.891V417.545H676.374V429.496H642.133Z" fill="#808080"/>
<path fill-rule="evenodd" clip-rule="evenodd" d="M642.133 429.496H607.891V417.545H676.374V429.496H642.133Z" stroke="#333333" stroke-width="1.89706" stroke-linejoin="round"/>
</g>
<defs>
<clipPath id="clip0">
<rect width="706.369" height="430.063" fill="white" transform="translate(0.942383 0.488281)"/>
</clipPath>
</defs>
</svg>
