<svg width="268" height="497" viewBox="0 0 45 97" fill="none" xmlns="http://www.w3.org/2000/svg">
<path d="M13.3049 5.77376C17.2468 2.69338 22.8369 2.91028 26.5283 6.28684V6.28684C30.1167 9.56921 30.9031 14.922 28.4105 19.0978L27.844 20.0469C26.0463 23.0585 25.7076 26.7218 26.9226 30.012L32.945 46.3193C36.2241 55.1985 36.8027 64.8495 34.6078 74.0569L30.3688 91.8393C29.832 94.091 27.8199 95.6799 25.5051 95.6799H12.2327C9.87854 95.6799 7.84326 94.0377 7.34566 91.7367L3.37602 73.3803C1.47962 64.6109 2.19867 55.4778 5.44403 47.1132L12.0803 30.0089C13.3443 26.751 12.9355 23.0809 10.9854 20.181L10.8884 20.0369C7.81476 15.4662 8.79593 9.29728 13.136 5.90577L13.3049 5.77376Z" fill="white" stroke="black" stroke-width="2"/>
<path d="M13.6211 24.5918H25.3483L25.2064 27.0621H13.7136L13.6211 24.5918Z" fill="#EA0000"/>
<path d="M13.2732 29.5215H25.7224L26.561 31.9918H12.4092L13.2732 29.5215Z" fill="#EA0000"/>
</svg>
