<svg version="1.2" xmlns="http://www.w3.org/2000/svg" viewBox="0 0 1920 1040" width="1920" height="1040">
	<title>pitch-no-goals-svg</title>
	<defs>
		<clipPath clipPathUnits="userSpaceOnUse" id="cp1">
			<path d="m0 0h1920v1040h-1920z"/>
		</clipPath>
	</defs>
	<style>
		tspan { white-space:pre } 
		.s0 { fill: #8b8b8b } 
		.s1 { fill: #878787 } 
		.s2 { fill: #838383 } 
		.s3 { fill: #7f7f7f } 
		.s4 { fill: #7b7b7b } 
		.s5 { fill: #858585 } 
		.s6 { fill: #777777 } 
		.s7 { fill: #737373 } 
		.s8 { fill: #6f6f6f } 
		.s9 { fill: #6b6b6b } 
		.s10 { fill: #bdbdbd } 
		.s11 { fill: #488a0a } 
		.s12 { fill: #759f4f } 
		.s13 { fill: #377508 } 
		.s14 { fill: #ffffff } 
		.s15 { fill: #169d80 } 
		.s16 { fill: #fefefe } 
		.t17 { font-size: 54px;fill: #000000;font-weight: 400;font-family: "IBMPlexSerif-Regular", "IBM Plex Serif" } 
		.s18 { fill: #2b2a29 } 
	</style>
	<g id="Clip-Path: Clip-Path: Clip-Path" clip-path="url(#cp1)">
		<g id="Clip-Path: Clip-Path">
			<g id="Clip-Path">
				<g id="Layer">
					<g id="Layer">
						<path id="Layer" class="s0" d="m1873.5 819.5l-8.4 27.2c-0.7 1.4-1.5 2.8-2.5 4.1-1.1 1.2-2.2 2.4-3.5 3.6-1.3 1.1-2.8 2-4.4 3q-2.4 1.4-5.2 2.4l8.2-27.2c1.9-0.7 3.6-1.5 5.3-2.4 1.7-1 3.2-2 4.4-3.1 1.4-1.1 2.6-2.3 3.6-3.5 0.8-1.3 1.8-2.6 2.5-4.1z"/>
						<path id="Layer" class="s1" d="m1857.7 832.6l-8.2 27.2q-0.9 0.3-1.8 0.7c-0.5 0.2-1.1 0.3-1.6 0.6-0.6 0.1-1.1 0.3-1.7 0.4-0.6 0.2-1.2 0.3-1.7 0.5l8-27.2c0.6-0.1 1.2-0.2 1.8-0.5 0.6-0.1 1.2-0.3 1.7-0.4q0.9-0.3 1.8-0.6 0.8-0.4 1.7-0.7z"/>
						<path id="Layer" class="s2" d="m1851.1 834.7l-8.1 27.2c-0.5 0.1-1.3 0.2-1.7 0.2-0.5 0.1-1 0.1-1.5 0.3-0.5 0.1-1.1 0.1-1.5 0.2-0.5 0.1-1.1 0.1-1.6 0.2l8.2-27.2c0.4 0 1-0.1 1.5-0.2 0.4-0.1 1-0.1 1.5-0.3 0.4-0.1 1-0.1 1.5-0.2 0.4 0 1.2-0.1 1.7-0.2z"/>
						<path id="Layer" class="s3" d="m1845 835.6l-8.1 27.2c-0.5 0-1.2 0.1-1.7 0.1-0.4 0-0.9 0.1-1.4 0.1-0.4 0-0.9 0-1.3 0.2q-0.8 0-1.5 0l7.9-27.3c0.5 0 1 0 1.6 0 0.4 0 0.9 0 1.3-0.1 0.5-0.1 1 0 1.4-0.1 0.5-0.1 1.3 0 1.8-0.1z"/>
						<path id="Layer" class="s4" d="m1839.1 835.9l-8 27.3h-0.1-0.2-0.1-0.1l8-27.3h0.1 0.1 0.1c0 0 0 0 0.2 0z"/>
						<path id="Layer" class="s5" d="m1839.6 835.9l-8.1 27.3h-1741.9l-8.1-27.3z"/>
						<path id="Layer" class="s4" d="m82.5 836l8 27.2c-0.5 0-1.8 0-2.3 0q-0.6 0-1.2 0c-0.5 0-0.8 0-1.3-0.2-0.5 0-1.1 0-1.6-0.1l-8.1-27.2c0.5 0 1.1 0.1 1.6 0.1 0.4 0 0.8 0 1.3 0.2q0.6 0 1.2 0c0.6 0 2 0 2.4 0z"/>
						<path id="Layer" class="s6" d="m76.5 835.7l8.1 27.2c-0.4 0-0.9-0.1-1.3-0.1-0.5 0-1-0.1-1.4-0.1-0.5 0-1-0.1-1.3-0.2-0.5-0.1-1.1-0.1-1.5-0.3l-8.1-27.2c0.5 0.1 1.1 0.1 1.5 0.3 0.5 0.1 0.9 0.1 1.4 0.2 0.4 0 0.9 0.1 1.4 0.1 0.3 0.1 0.8 0.1 1.2 0.1z"/>
						<path id="Layer" class="s7" d="m71.1 835l8.1 27.2c-0.5-0.1-0.9-0.1-1.4-0.2q-0.7-0.2-1.4-0.3-0.7-0.2-1.4-0.4c-0.4-0.1-0.9-0.2-1.2-0.3l-8.3-27.3c0.5 0.2 1 0.3 1.3 0.4q0.7 0.2 1.4 0.3 0.7 0.2 1.4 0.4c0.6 0.1 1 0.2 1.5 0.2z"/>
						<path id="Layer" class="s8" d="m65.7 833.8l8.2 27.2c-0.6-0.2-1.1-0.4-1.5-0.5-0.5-0.1-1.1-0.3-1.5-0.6-0.5-0.2-1-0.3-1.5-0.6-0.5-0.2-1.2-0.5-1.7-0.6l-8.2-27.2c0.5 0.2 1.2 0.5 1.6 0.6 0.5 0.3 1 0.4 1.5 0.6 0.5 0.2 1.1 0.4 1.5 0.6 0.5 0.2 1 0.3 1.6 0.5z"/>
						<path id="Layer" class="s9" d="m59.6 831.5l8.3 27.3c-1.9-0.8-3.5-1.9-5-2.9-1.5-1.1-2.9-2.2-4.1-3.5-1.1-1.3-2.2-2.6-3.1-4.1-0.8-1.3-1.5-2.9-2-4.5l-8.3-27.2c0.5 1.5 1.1 3 2 4.5 0.8 1.4 1.8 2.8 3.1 4.1 1.1 1.3 2.5 2.4 4 3.5 1.7 1 3.4 2 5.1 2.8z"/>
						<path id="Layer" fill-rule="evenodd" class="s10" d="m1874.8 816c-1 3.9-3.2 7.4-6.4 10.3-3.3 3-7.6 5.5-12.6 7.1-4.9 1.6-10.7 2.6-17.2 2.6h-1757c-6.4 0-12.2-1-17.3-2.6-5.1-1.7-9.3-4.1-12.5-7.1-3.3-2.9-5.5-6.4-6.5-10.3-1.1-3.8-1-8.1 0.6-12.5l206.7-605.4c0.9-2.7 2.7-5.1 5.3-7.4 2.7-2.2 5.9-4.3 9.7-6 3.8-1.8 8.1-3.2 12.6-4.1 4.6-0.9 9.4-1.5 14.3-1.5h1331c4.9 0 9.8 0.6 14.3 1.5 4.5 0.9 8.8 2.3 12.6 4.1 3.8 1.7 7.2 3.7 9.7 6 2.6 2.2 4.4 4.7 5.3 7.4l206.8 605.4c1.5 4.4 1.6 8.6 0.6 12.5zm-1.7-12.5l-206.5-605.4c-0.8-2.5-2.6-5.1-5.2-7.3-2.5-2.2-5.8-4.2-9.5-5.9-3.7-1.6-7.9-3-12.4-3.9-4.5-1.1-9.2-1.5-14-1.5h-1331.3c-4.7 0-9.4 0.5-14 1.5-4.5 0.9-8.6 2.2-12.4 3.9-3.7 1.6-6.9 3.7-9.4 5.9-2.6 2.2-4.3 4.8-5.3 7.3l-206.4 605.4c-1.5 4.3-1.7 8.5-0.6 12.3 1 3.8 3.2 7.3 6.4 10.2 3.1 2.9 7.2 5.2 12.2 6.8 5 1.6 10.7 2.6 17.1 2.6h1756.5c6.3 0 12-1 17-2.6 4.9-1.6 9.1-3.9 12.2-6.8 3.2-2.9 5.4-6.4 6.4-10.2 1.1-3.8 0.9-8-0.8-12.3z"/>
						<path id="Layer" class="s11" d="m279 189h1364.5l200.5 631h-1770z"/>
						<path id="Layer" fill-rule="evenodd" class="s12" d="m1867.5 826c-3.1 2.9-7.3 5.2-12.2 6.8-5 1.6-10.7 2.6-17.1 2.6h-1756.4q-4.7 0-9.1-0.7c-2.9-0.4-5.5-1.1-8-1.9-5-1.6-9.1-3.9-12.2-6.8-3.2-2.9-5.4-6.4-6.4-10.2q-1.6-5.7 0.6-12.3l206.6-605.3c0.8-2.5 2.6-5.1 5.2-7.3 1.2-1 2.6-2.1 4.3-3.1q2.4-1.6 5.2-2.8c1.8-0.9 3.8-1.6 5.9-2.3 2.1-0.7 4.3-1.3 6.5-1.7 4.5-1.1 9.2-1.5 14-1.5h1331.4c4.7 0 9.5 0.5 14 1.5 4.4 0.9 8.7 2.2 12.4 3.9q2.7 1.2 5.2 2.8c1.6 0.9 3 2 4.3 3.1 2.5 2.2 4.2 4.8 5.2 7.3l206.4 605.4c1.5 4.3 1.7 8.5 0.6 12.3-1 3.8-3.2 7.2-6.4 10.2zm-89.5-24.3l-4.7-15.4-27.3-89.3-131.2-429.4-18.1-59-2.9-9.3h-1267.9l-184.2 602.4z"/>
						<path id="Layer" class="s13" d="m1285.9 201.7h105.9l13.7 65.9h-109.3z"/>
						<path id="Layer" class="s11" d="m341.4 201.7h87.4l-16.8 65.8h-102.3l17.9-59.1c0.8-0.1 1.5-0.1 2.3-0.3 0.7-0.1 1.5-0.4 2.2-0.5q1.1-0.3 2.1-0.7c0.7-0.2 1.4-0.6 2-0.8 0.5-0.3 1.2-0.6 1.7-0.9 0.6-0.4 1.1-0.7 1.5-1.1 0.5-0.3 0.8-0.8 1.2-1.1 0.2-0.4 0.5-0.8 0.8-1.3z"/>
						<path id="Layer" class="s13" d="m1578.4 201.7c0.2 0.5 0.6 0.8 0.9 1.3 0.4 0.3 0.7 0.8 1.2 1.1 0.4 0.4 0.9 0.7 1.5 1.1 0.6 0.3 1.1 0.7 1.7 0.9 0.6 0.3 1.3 0.6 2 0.8q1 0.4 2.1 0.7c0.7 0.2 1.5 0.4 2.2 0.5 0.7 0.1 1.5 0.2 2.3 0.3l17.9 59.1h-102.2l-16.8-65.8z"/>
						<path id="Layer" class="s13" d="m1525.9 337.5l-17.2-67.4h102.3l20.5 67.4z"/>
						<path id="Layer" class="s11" d="m528.2 201.7h105.9l-31.1 198.1 20.7-132.2h-109.2z"/>
						<path id="Layer" class="s13" d="m848 201.7h109.7l-0.2 182.4c-15.6 0.2-30.5 2.2-44.2 5.7-13.7 3.4-26.3 8.4-37.3 14.6-11 6.2-20.2 13.6-27.4 22-7.2 8.4-12.2 17.7-14.2 27.6z"/>
						<path id="Layer" class="s11" d="m848 201.7l-13.5 252.2q-0.2 1.1-0.4 2.1-0.2 1-0.3 2.1c-0.1 0.7-0.1 1.4-0.3 2.1-0.1 0.7-0.1 1.4-0.1 2.1 0 0.6-0.1 1.3-0.1 2q0 1.1 0 2.1c0 0.7 0 1.4 0.1 2.1q0 1.1 0.3 2.1l-17.6 327h-139.2l63.1-595.9z"/>
						<path id="Layer" class="s13" d="m634.1 201.7h105.9l-63.1 595.8h-136.3l42.2-269.4q6.3-2.9 12.2-6.2c3.8-2.2 7.5-4.5 11-7.1q5.2-3.6 9.7-7.6c3-2.7 5.8-5.5 8.5-8.2 2.6-2.9 5-5.8 7-8.8 2.1-3 4-6.1 5.5-9.2 1.5-3.1 2.8-6.1 3.8-9.2q1.6-4.7 2.1-9.4c0.4-3.2 0.6-6.3 0.4-9.3-0.1-3.1-0.5-6.1-1.2-9.1-0.7-3.1-1.6-5.9-2.9-8.8q-1.9-4.4-4.5-8.4-2.6-4-5.9-7.6c-2.2-2.5-4.7-4.9-7.3-7.1-2.7-2.2-5.5-4.4-8.5-6.4-3-1.9-6.2-3.9-9.7-5.6z"/>
						<path id="Layer" class="s11" d="m962.1 201.7h109.9l13.7 253.7c-1.9-10.2-6.8-19.7-13.8-28.2-7.1-8.5-16.4-16.1-27.5-22.5-11-6.3-23.6-11.3-37.5-14.9-13.8-3.6-28.8-5.6-44.6-5.8z"/>
						<path id="Layer" class="s11" d="m618.8 270.1l-67.2 423.1h-125.7l47.4-227.7c0.7 0 1.4-0.1 2.1-0.2 0.7-0.2 1.2-0.5 1.8-0.7 0.6-0.4 0.9-0.7 1.3-1.1 0.3-0.3 0.6-0.8 0.7-1.2 0.1-0.5 0-1-0.1-1.3-0.3-0.4-0.5-0.7-1-1.1-0.3-0.3-0.9-0.5-1.5-0.7-0.5-0.1-1.2-0.2-1.9-0.2l39.2-188.7h104.9z"/>
						<path id="Layer" class="s11" d="m1445.3 459l-39.2-188.7h102.7l17.2 67.2 67.9 265.5 23.2 90.2h-123l-47.4-227.7c0.7 0 1.3-0.1 1.9-0.4q0.8-0.3 1.4-0.6c0.3-0.4 0.7-0.7 0.8-1.1 0.1-0.3 0.2-0.8 0.1-1.3-0.1-0.4-0.4-0.8-0.7-1.2-0.4-0.4-0.8-0.7-1.3-1.1q-0.7-0.5-1.7-0.7c-0.6 0-1.3-0.1-1.9-0.1z"/>
						<path id="Layer" class="s13" d="m1321.2 397.6l-20.3-127.3h105.1l39.2 188.7c-0.8 0-1.5 0.1-2.1 0.2-0.6 0.2-1.1 0.5-1.6 0.7-0.5 0.4-0.7 0.7-0.9 1.1-0.3 0.3-0.3 0.8-0.1 1.3 0.1 0.4 0.3 0.9 0.7 1.2 0.3 0.4 0.8 0.7 1.2 1.1q0.9 0.5 1.8 0.7c0.5 0.1 1.4 0.2 2.1 0.2l47.5 227.7h-125.7l-25.8-162.5z"/>
						<path id="Layer" class="s13" d="m619.9 497.6c-2.3 2.5-4.9 5-7.5 7.4-2.7 2.4-5.6 4.7-8.6 6.9-3 2.2-6.3 4.4-9.6 6.4-3.4 2.1-7 3.9-10.7 5.8l18.9-120.4c3 1.6 5.8 3.3 8.5 5.2 2.6 1.8 5.1 3.8 7.4 5.9 2.3 2.1 4.4 4.1 6.3 6.3q3 3.3 5.2 7c1.8 2.7 3.2 5.3 4.3 8.1 1.2 2.8 2.1 5.6 2.8 8.5 0.7 2.8 1.1 5.7 1.2 8.8 0.1 3 0 5.9-0.5 8.9q-0.7 4.5-2.1 9c-0.9 3-2.2 6-3.7 8.9-1.5 3-3.2 5.9-5.3 8.8-1.7 2.8-4.1 5.7-6.6 8.5z"/>
						<path id="Layer" class="s11" d="m1281.9 462.3c-0.4-3.1-0.6-6.1-0.4-9 0.1-2.9 0.5-5.9 1.1-8.8 0.7-2.9 1.6-5.6 2.8-8.4 1.2-2.8 2.7-5.5 4.3-8.1q2.2-3.7 5.2-7c2-2.2 4-4.4 6.4-6.3 2.3-2.1 4.7-4.1 7.4-5.9 2.6-1.9 5.4-3.6 8.4-5.3l18.9 120.5c-3.7-1.9-7.3-3.8-10.6-5.8-3.4-2.1-6.6-4.2-9.8-6.4q-4.5-3.3-8.7-6.9c-2.6-2.5-5.2-4.9-7.5-7.4-2.5-2.8-4.9-5.6-6.8-8.5-2-2.9-3.8-5.8-5.3-8.8-1.6-3-2.8-5.9-3.8-8.9-0.4-3-1.1-6-1.6-9z"/>
						<path id="Layer" class="s11" d="m1081.5 462.3c0.6 10.6-2.3 20.9-7.9 30.3-5.7 9.5-14.1 18.2-24.9 25.5-10.8 7.4-23.9 13.4-38.4 17.7-14.7 4.3-31 6.7-48 6.9l-0.1-77.6c0.3-0.1 0.8-0.3 1.2-0.4 0.3-0.1 0.5-0.5 0.8-0.7 0.2-0.2 0.4-0.6 0.5-0.8q0.3-0.5 0.3-0.9c0-0.4-0.1-0.6-0.3-1-0.1-0.2-0.3-0.6-0.5-0.8-0.3-0.2-0.6-0.4-0.8-0.7-0.4-0.2-0.7-0.3-1.2-0.4l-0.1-72.4c16 0.2 31.3 2.3 45.1 6.1 13.9 3.8 26.7 9.2 37.5 15.9 10.7 6.7 19.6 14.7 26 23.7 6.5 9.1 10.3 19 10.8 29.6z"/>
						<path id="Layer" class="s13" d="m838.2 462.3c0.6-10.6 4.4-20.5 10.7-29.6 6.4-8.9 15.3-16.9 26.1-23.7 10.8-6.7 23.4-12.1 37.4-15.9 13.9-3.8 29.2-5.9 45.2-6.1l-0.1 72.4c-0.5 0.1-0.9 0.3-1.2 0.4-0.4 0.3-0.6 0.5-0.8 0.7-0.2 0.2-0.5 0.5-0.6 0.8-0.1 0.3-0.2 0.6-0.2 1 0 0.3 0.1 0.5 0.2 0.9 0.1 0.2 0.4 0.6 0.6 0.8 0.2 0.2 0.6 0.5 0.8 0.7 0.3 0.2 0.7 0.3 1.2 0.4l-0.2 77.6c-17.1-0.2-33.3-2.6-47.9-6.9-14.6-4.3-27.7-10.3-38.5-17.7-10.7-7.3-19.2-16-24.9-25.5-5.5-9.4-8.3-19.7-7.8-30.3z"/>
						<path id="Layer" class="s11" d="m388.5 340.3l-66.8 259.2h-113l78.7-259.2z"/>
						<path id="Layer" class="s13" d="m1598.1 599.5l-66.8-259.2h101l78.7 259.2z"/>
						<path id="Layer" class="s13" d="m1617 693.2l-23.1-90.2h118.1l27.5 90.2z"/>
						<path id="Layer" class="s11" d="m288.2 337.5l20.5-67.4h102.5l-108.1 423.1h-122.9l27.4-90.2h118.3l67.9-265.5z"/>
						<path id="Layer" class="s13" d="m1179.9 201.7l63.1 595.8h-139.1l-17.7-328.4c0-0.6 0.1-1.2 0.1-1.8q0-0.8 0-1.7 0-0.9 0-1.7c0-0.6 0-1.2-0.1-1.8 0-0.5-0.1-1.1-0.1-1.7 0-0.6-0.1-1.2-0.2-1.7-0.1-0.6-0.1-1.2-0.3-1.8-0.1-0.6-0.2-1.1-0.2-1.7l-13.7-253.7h108.2z"/>
						<path id="Layer" class="s11" d="m962.4 546c16.9-0.3 32.9-2.6 47.6-6.6 14.6-4.1 27.7-9.7 38.8-16.8 11-7 20-15.2 26.5-24.3 6.4-9.1 10.2-18.9 11-29.3l17.8 328.4h-141.4z"/>
						<path id="Layer" class="s11" d="m1515.7 797.5l-20.9-100.5h123.1l25.8 100.5z"/>
						<path id="Layer" class="s13" d="m276.3 797.5l25.7-100.5h123.2l-20.9 100.5z"/>
						<path id="Layer" class="s13" d="m1643.7 797.5l-25.7-100.6h122.7l27.5 90c-0.9 0.1-1.9 0.2-2.7 0.4-0.8 0.3-1.6 0.5-2.4 0.9q-1.2 0.5-2.1 1c-0.7 0.5-1.3 0.8-1.7 1.4-0.6 0.5-1.1 1-1.4 1.6-0.4 0.6-0.7 1.2-0.9 1.7-0.3 0.6-0.5 1.3-0.5 2q-0.2 1.1 0 2.1z"/>
						<path id="Layer" class="s11" d="m556.3 697l26.4-168.7-42.1 269.2h-136.3l20.9-100.5z"/>
						<path id="Layer" class="s13" d="m1379.3 797.5l-15.7-100.5h131.2l20.9 100.5z"/>
						<path id="Layer" class="s13" d="m833.5 470.6c1.1 10.2 5.1 19.9 11.6 28.7 6.6 8.9 15.7 17 26.7 23.9 11.1 6.8 24 12.5 38.5 16.4 14.5 3.9 30.4 6.3 47 6.4l-0.2 251.5h-141.2z"/>
						<path id="Layer" class="s11" d="m151.9 786.4l27.2-89.5h123l-25.7 100.6h-112.5c0.1-0.7 0-1.4 0-2.1-0.2-0.7-0.3-1.3-0.5-1.9-0.2-0.6-0.6-1.3-0.9-1.8-0.4-0.6-0.8-1.1-1.4-1.6-0.6-0.5-1.2-0.9-1.9-1.4q-1-0.7-2.1-1c-0.8-0.4-1.6-0.6-2.4-0.9-1-0.1-1.8-0.3-2.8-0.4z"/>
						<path id="Layer" class="s13" d="m428.7 201.7h99.5l-13.7 65.9h-102.6z"/>
						<path id="Layer" class="s11" d="m1391.8 201.7h99.4l16.9 65.9h-102.6z"/>
						<path id="Layer" class="s13" d="m303.1 693.2l108.2-423.1h102.7l-39.2 188.8c-0.7 0-1.4 0.1-2.1 0.2-0.7 0.1-1.3 0.5-1.7 0.7-0.6 0.4-1 0.7-1.3 1.1-0.4 0.3-0.6 0.8-0.7 1.2-0.1 0.5 0 1 0.1 1.3 0.2 0.4 0.5 0.7 0.9 1.1 0.4 0.3 1 0.5 1.5 0.6 0.6 0.2 1.3 0.3 2 0.3l-47.6 227.8z"/>
						<path id="Layer" class="s11" d="m1296.2 267.6l20.6 132.2c-3.5 1.8-6.7 3.7-9.7 5.7-3.1 2-5.9 4.2-8.6 6.4-2.7 2.2-5.1 4.6-7.3 7-2.2 2.5-4.2 5.1-5.9 7.7q-2.6 4.2-4.5 8.3c-1.3 2.9-2.2 5.8-2.9 8.8-0.7 3-1.2 6-1.3 9.2-0.1 3.1 0 6.1 0.5 9.2q0.7 4.7 2.1 9.4c1 3.1 2.3 6.3 3.8 9.3 1.5 3.1 3.3 6.1 5.4 9.1 2.1 3 4.5 5.9 7.1 8.8 2.5 2.9 5.4 5.6 8.4 8.3q4.6 3.9 9.8 7.6c3.4 2.4 7.1 4.9 11 7.1 3.8 2.2 7.8 4.2 12.1 6.3l26.5 168.8 15.9 100.6h-136.2l-63.1-595.8h106z"/>
						<path id="Layer" class="s13" d="m1582.8 201.7h7.5l1.3 4.3c-0.5-0.1-0.9-0.1-1.4-0.2q-0.7-0.2-1.4-0.4c-0.5-0.1-0.9-0.2-1.3-0.5-0.4-0.1-0.8-0.3-1.2-0.5-0.4-0.3-0.8-0.4-1.2-0.6-0.3-0.2-0.7-0.5-0.9-0.7-0.4-0.2-0.6-0.5-0.8-0.7-0.1-0.1-0.4-0.4-0.6-0.7z"/>
						<path id="Layer" class="s13" d="m1761.6 797.5c0-0.5 0-0.8 0.1-1.3 0.1-0.4 0.2-0.8 0.4-1.1 0.1-0.4 0.3-0.7 0.6-1.2 0.3-0.3 0.6-0.7 1-1 0.3-0.4 0.7-0.6 1-0.8 0.4-0.3 0.8-0.5 1.3-0.7 0.5-0.3 0.9-0.4 1.5-0.6 0.5-0.1 1-0.2 1.6-0.4l2.1 7.1z"/>
						<path id="Layer" class="s11" d="m150.3 790c0.6 0.1 1.1 0.3 1.8 0.4 0.5 0.1 1.2 0.4 1.7 0.6 0.6 0.3 1.1 0.6 1.5 0.8 0.4 0.3 0.9 0.7 1.3 1 0.4 0.3 0.7 0.7 1.1 1.1 0.2 0.4 0.5 0.8 0.8 1.3 0.1 0.4 0.4 1 0.4 1.4 0.1 0.5 0.1 0.9 0.1 1.4h-11z"/>
						<path id="Layer" class="s11" d="m337 201.7c-0.3 0.2-0.4 0.5-0.6 0.8-0.2 0.2-0.5 0.5-0.8 0.7-0.4 0.2-0.6 0.5-0.9 0.7-0.4 0.2-0.7 0.5-1.2 0.6-0.3 0.2-0.8 0.3-1.3 0.6-0.4 0.1-0.8 0.3-1.2 0.4q-0.7 0.2-1.4 0.4c-0.5 0.1-1 0.1-1.4 0.2l1.3-4.3h7.5z"/>
						<path id="Layer" fill-rule="evenodd" class="s14" d="m1577.6 199.3h16.3l2.9 9.2c-0.2 0-2.5 0-2.8 0-0.2 0-0.3 0-0.6 0-0.2 0-0.3 0-0.5 0-0.3 0-0.4 0-0.6 0-0.8-0.1-1.5-0.1-2.3-0.3-0.7-0.1-1.5-0.4-2.2-0.5q-1.1-0.3-2.1-0.7c-0.7-0.2-1.4-0.6-2-0.8-0.6-0.3-1.3-0.6-1.7-0.9-0.6-0.4-1.1-0.7-1.5-1.1-0.5-0.3-0.8-0.8-1.2-1.1-0.3-0.4-0.7-0.8-0.9-1.3 0-0.1-0.1-0.2-0.1-0.3 0-0.2-0.1-0.3-0.1-0.4 0-0.1-0.2-0.2-0.2-0.3 0-0.1-0.1-0.3-0.1-0.4zm14 6.7l-1.2-4.2h-7.6c0.3 0.2 0.4 0.4 0.6 0.8 0.2 0.2 0.5 0.4 0.8 0.7 0.4 0.2 0.6 0.4 0.9 0.7 0.4 0.2 0.7 0.4 1.2 0.5 0.4 0.3 0.8 0.4 1.3 0.6 0.4 0.1 0.8 0.4 1.3 0.5q0.6 0.2 1.3 0.3c0.5 0.1 1 0.1 1.4 0.1z"/>
						<path id="Layer" fill-rule="evenodd" class="s14" d="m325.9 199.3h16.3l-0.4 1.2c0 0.2-0.1 0.3-0.1 0.4 0 0.1-0.1 0.2-0.1 0.3 0 0.1-0.1 0.3-0.1 0.4 0 0.1-0.1 0.2-0.1 0.3-0.3 0.5-0.6 0.8-0.9 1.3-0.4 0.3-0.7 0.8-1.2 1.2-0.5 0.3-0.9 0.7-1.5 1-0.6 0.4-1.2 0.7-1.7 0.9-0.6 0.4-1.3 0.6-2 0.8q-1.1 0.4-2.1 0.7c-0.7 0.3-1.5 0.4-2.2 0.5-0.7 0.1-1.5 0.2-2.3 0.3q-0.3 0-0.6 0c-0.2 0-0.3 0-0.6 0-0.2 0-0.3 0-0.6 0-0.2 0-0.3 0-0.5 0h-2.2zm7.6 5.3c0.4-0.3 0.8-0.4 1.2-0.6 0.3-0.3 0.7-0.5 0.9-0.7 0.3-0.2 0.6-0.5 0.8-0.7 0.2-0.2 0.5-0.5 0.6-0.8h-7.5l-1.3 4.3c0.4-0.2 0.9-0.2 1.4-0.3q0.7-0.1 1.4-0.3c0.4-0.1 0.9-0.2 1.2-0.5 0.5-0.1 0.8-0.2 1.3-0.4z"/>
						<path id="Layer" class="s14" d="m1596.5 208.5h0.3v0.1l18.1 59h-4.6l-17.9-59.1c0.2 0 0.3 0 0.6 0 0.2 0 0.3 0 0.6 0 0.2 0 0.3 0 0.5 0 0.3 0 2.2 0 2.4 0z"/>
						<path id="Layer" class="s14" d="m327.4 208.5l-18 59.1h-4.5l18.1-59h2.2c0.2 0 0.3 0 0.5 0 0.3 0 0.4 0 0.6 0 0.3 0 0.4 0 0.6 0 0.1-0.1 0.4-0.1 0.5-0.1z"/>
						<path id="Layer" class="s14" d="m528.2 201.7h-99.5-87.3l0.7-2.4h1235.5l1.4 2.4h-87.8-99.4-105.9-106-108-109.8l0.1 182.7h-4.5v-182.7h-109.7-108-105.9z"/>
						<path id="Layer" class="s14" d="m962.2 387l0.1 73c-0.2-0.1-0.3-0.1-0.6-0.1-0.2 0-0.3-0.1-0.5-0.1-0.3 0-0.5-0.1-0.6-0.1q-0.4 0-0.7 0-0.4 0-0.7 0c-0.2 0-0.5 0-0.6 0.1-0.2 0-0.3 0.1-0.6 0.1-0.2 0-0.3 0.1-0.5 0.1l0.1-73c0.2 0 0.3 0 0.5 0 0.3 0 0.4 0 0.6 0 0.3 0 0.4 0 0.6 0q0.3 0 0.6 0c0.2 0 0.3 0 0.6 0 0.2 0 0.3 0 0.5 0 0.3 0 0.4 0 0.6 0 0.3 0 0.4 0 0.6 0z"/>
						<path id="Layer" class="s14" d="m959.9 459q0.3 0 0.7 0c0.2 0 0.4 0 0.6 0.1 0.2 0 0.3 0.1 0.5 0.1 0.3 0 0.4 0.2 0.6 0.2 0.4 0.1 0.8 0.3 1.2 0.4 0.3 0.3 0.6 0.5 0.8 0.7 0.2 0.2 0.4 0.5 0.6 0.8 0.1 0.3 0.2 0.6 0.2 1 0 0.3-0.1 0.5-0.2 0.9-0.2 0.2-0.4 0.6-0.6 0.8-0.2 0.2-0.6 0.5-0.8 0.7-0.4 0.2-0.7 0.3-1.2 0.4-0.2 0.2-0.3 0.2-0.6 0.2-0.2 0-0.3 0.1-0.5 0.1-0.3 0-0.5 0.1-0.6 0.1-0.1 0-0.5 0-0.7 0q-0.4 0-0.7 0c-0.2 0-0.5 0-0.6-0.1-0.2 0-0.3-0.1-0.6-0.1-0.2 0-0.3-0.2-0.5-0.2-0.5-0.1-0.9-0.3-1.2-0.4-0.4-0.2-0.6-0.5-0.8-0.7-0.2-0.2-0.5-0.6-0.6-0.8-0.1-0.3-0.2-0.6-0.2-0.9 0-0.4 0.1-0.6 0.2-1 0.1-0.2 0.4-0.6 0.6-0.8 0.2-0.2 0.6-0.4 0.8-0.7 0.3-0.2 0.7-0.3 1.2-0.4 0.2-0.2 0.3-0.2 0.5-0.2 0.3 0 0.4-0.1 0.6-0.1 0.2 0 0.5-0.1 0.6-0.1q0.3 0 0.7 0z"/>
						<path id="Layer" class="s14" d="m602.5 404.5l-4-6.5 20.3-127.9h-104.9-102.7-102.5l-20.5 67.4-0.8 2.8-78.7 259.2-1.1 3.5-27.4 90.2h122.9 122.8 125.7l25.8-162.5 4.3-2-25.4 168.3h-131.1-123.2-123-5.3l28.8-94 81.1-265.5 21.4-69.9h4.5 102.4 102.6 109.2z"/>
						<path id="Layer" class="s14" d="m474.8 459c0.7 0 1.4 0.1 2 0.2 0.5 0.2 1 0.5 1.5 0.7 0.3 0.4 0.7 0.7 0.9 1.1 0.2 0.3 0.2 0.8 0.1 1.3-0.1 0.4-0.3 0.9-0.7 1.2-0.3 0.4-0.8 0.7-1.3 1.1q-0.8 0.5-1.7 0.7c-0.7 0.1-1.4 0.2-2.1 0.2-0.7 0-1.4-0.1-2-0.2-0.5-0.2-1-0.5-1.5-0.7-0.3-0.4-0.7-0.7-0.9-1.1-0.2-0.3-0.2-0.8-0.1-1.2 0.1-0.5 0.3-1 0.7-1.3 0.3-0.4 0.8-0.7 1.3-1.1q0.8-0.5 1.7-0.7c0.6-0.1 1.3-0.2 2.1-0.2q-0.2 0 0 0-0.2 0 0 0-0.2 0 0 0c-0.1 0 0 0 0 0z"/>
						<path id="Layer" class="s14" d="m1632.3 340.3h-101l66.8 259.2h113.4l0.6 3.5h-118.2l-68-265.5h105.6z"/>
						<path id="Layer" class="s14" d="m1445 459c0 0 0.1 0 0 0 0.1 0 0.1 0 0.1 0 0 0 0 0 0.1 0 0 0 0 0 0.1 0 0.7 0 1.4 0.1 2 0.4q0.9 0.3 1.7 0.7c0.5 0.3 1 0.6 1.3 1 0.4 0.3 0.6 0.8 0.7 1.3 0.1 0.4 0 0.8-0.1 1.2-0.1 0.4-0.5 0.7-0.8 1.1q-0.5 0.5-1.4 0.7c-0.6 0.2-1.2 0.2-1.9 0.3 0 0 0 0-0.1 0 0 0 0 0-0.1 0-0.1 0 0 0-0.1 0 0 0 0 0-0.1 0-0.7 0-1.4-0.1-2.1-0.2-0.7-0.1-1.3-0.5-1.8-0.7-0.5-0.3-0.9-0.7-1.2-1-0.4-0.4-0.6-0.9-0.7-1.3-0.1-0.5 0-0.9 0.1-1.3 0.2-0.3 0.5-0.7 0.9-1 0.4-0.4 0.9-0.6 1.5-0.7 0.5-0.4 1.2-0.5 1.9-0.5z"/>
						<path id="Layer" fill-rule="evenodd" class="s14" d="m634.4 426.7q2.6 4.2 4.5 8.3c1.3 2.9 2.2 5.8 2.9 8.8 0.7 3.1 1.1 6.1 1.2 9.2 0.2 3.1 0 6.1-0.4 9.3q-0.7 4.6-2.1 9.3c-1 3.2-2.3 6.3-3.8 9.3-1.5 3.1-3.4 6.1-5.5 9.1-2 3.1-4.5 6-7 8.8-2.6 2.8-5.5 5.6-8.5 8.3q-4.5 4-9.7 7.6c-3.5 2.4-7.2 4.9-11 7.1q-5.7 3.3-12.2 6.2c-0.1 0-0.2 0.1-0.3 0.1-0.1 0-0.2 0.2-0.4 0.2-0.1 0-0.2 0.1-0.2 0.1-0.1 0-0.2 0.1-0.2 0.1l-4.3 2 21.1-132.5 3.6 1c0.1 0 0.1 0.1 0.2 0.1 0.1 0 0.1 0.2 0.2 0.2 0.1 0 0.1 0.1 0.2 0.1 0.2 0 0.2 0.1 0.3 0.1 3.5 1.7 6.7 3.7 9.7 5.7 3 1.9 5.9 4.1 8.6 6.3 2.6 2.2 5.1 4.7 7.3 7.1 2.1 2.9 4 5.4 5.8 8.1zm-14.5 70.9c2.5-2.8 4.9-5.6 6.8-8.5 2-2.9 3.8-5.8 5.3-8.8 1.6-3 2.8-5.9 3.8-8.9q1.3-4.5 2-9c0.5-3 0.6-6.1 0.5-8.9-0.1-2.9-0.6-6-1.2-8.8-0.7-2.9-1.6-5.7-2.7-8.5-1.2-2.8-2.7-5.4-4.3-8.1-1.5-2.4-3.3-4.6-5.2-7-2-2.2-4.1-4.4-6.4-6.3-2.3-2.1-4.7-4.1-7.4-5.9-2.7-1.9-5.5-3.6-8.5-5.2l-19 120.4c3.7-1.9 7.3-3.8 10.7-5.8 3.4-2.1 6.6-4.2 9.7-6.4 3-2.2 5.9-4.5 8.6-6.9 2.4-2.4 5-5 7.3-7.4z"/>
						<path id="Layer" fill-rule="evenodd" class="s14" d="m1317.7 399.4l3.5-1.8 21.2 133.2-4.3-2c-0.1 0-0.2-0.1-0.2-0.1-0.2 0-0.3-0.1-0.3-0.1-0.1 0-0.2-0.1-0.2-0.1-0.1 0-0.2-0.1-0.2-0.1-4.2-2-8.3-4.1-12.2-6.4-3.8-2.2-7.5-4.6-11-7.1q-5.2-3.6-9.7-7.6c-3-2.7-5.9-5.4-8.5-8.2-2.6-2.9-5-5.8-7-8.8-2.1-3-4-6-5.5-9.2-1.5-3.1-2.8-6.1-3.8-9.2q-1.6-4.7-2.1-9.4c-0.5-3.1-0.6-6.3-0.5-9.3 0.2-3.1 0.6-6.1 1.3-9.1 0.7-3 1.6-5.9 2.9-8.8q1.9-4.4 4.5-8.4 2.6-4 5.9-7.6c2.2-2.4 4.7-4.9 7.3-7.1 2.7-2.2 5.5-4.4 8.6-6.3 3-2 6.3-4 9.7-5.7 0.1 0 0.1-0.1 0.3-0.1 0.1 0 0.1-0.1 0.2-0.1 0.1 0 0.1-0.2 0.2-0.2 0.1 0-0.2-0.4-0.1-0.4zm18.7 124.7l-18.9-120.4c-3 1.6-5.8 3.3-8.5 5.2-2.6 1.8-5.1 3.8-7.4 5.9-2.3 2.1-4.4 4.1-6.4 6.3q-2.9 3.3-5.2 7c-1.7 2.7-3.1 5.3-4.3 8.1-1.1 2.8-2 5.6-2.7 8.5-0.7 2.8-1.1 5.7-1.2 8.8-0.1 3 0 5.9 0.5 8.9q0.7 4.5 2.1 9c0.9 3 2.2 6 3.7 8.9 1.5 3 3.2 5.9 5.3 8.8 2 2.9 4.3 5.7 6.8 8.5 2.3 2.5 4.9 5 7.6 7.4q3.9 3.6 8.6 6.9c3.1 2.2 6.3 4.4 9.8 6.4 2.9 2 6.5 3.9 10.2 5.8z"/>
						<path id="Layer" class="s14" d="m957.5 464.5c0.2 0.1 0.3 0.1 0.5 0.1 0.3 0 0.4 0.1 0.6 0.1 0.2 0 0.5 0.1 0.6 0.1q0.3 0 0.7 0 0.3 0 0.7 0c0.2 0 0.4 0 0.6-0.1 0.2 0 0.3-0.1 0.5-0.1 0.3 0 0.4-0.1 0.6-0.1l0.1 78.2c-0.2 0-0.4 0-0.5 0q-0.4 0-0.6 0-0.4 0-0.6 0c-0.2 0-0.5 0-0.6 0q-0.3 0-0.6 0c-0.2 0-0.4 0-0.5 0q-0.4 0-0.6 0c-0.3 0-0.8 0-0.9 0z"/>
						<path id="Layer" fill-rule="evenodd" class="s14" d="m1085.5 455.4q0.3 0.9 0.3 1.8c0.1 0.5 0.1 1.1 0.2 1.7 0.1 0.6 0.1 1.2 0.2 1.7 0 0.6 0.1 1.2 0.1 1.8 0 0.5 0 1.1 0.2 1.7q0 0.9 0 1.7 0 0.9 0 1.8c0 0.6-0.2 1.1-0.2 1.7-0.8 10.3-4.6 20.3-11 29.3-6.5 9.2-15.4 17.4-26.5 24.3-11.1 7.1-24.2 12.8-38.8 16.8-14.6 4.1-30.7 6.4-47.6 6.6-0.2 0-0.4 0-0.5 0q-0.4 0-0.6 0-0.5 0-0.6 0c-0.1 0-0.5 0-0.6 0q-0.3 0-0.6 0c-0.2 0-0.4 0-0.5 0q-0.5 0-0.6 0-0.4 0-0.6 0c-16.7-0.2-32.5-2.4-47-6.3-14.5-4-27.5-9.5-38.6-16.5-11-6.8-20-14.9-26.6-23.8-6.5-9-10.6-18.7-11.6-28.8-0.1-0.7-0.1-1.3-0.2-2 0-0.7-0.1-1.4-0.1-2.1q0-1.1 0-2.1c0-0.7 0-1.4 0.1-2.1 0-0.7 0.1-1.4 0.1-2.1 0.1-0.7 0.1-1.4 0.2-2.1q0.2-1 0.4-2.1 0.1-1 0.3-2c2.1-10 7.1-19.4 14.3-27.7 7-8.4 16.4-15.8 27.4-22 10.9-6.2 23.5-11.1 37.3-14.6 13.7-3.5 28.6-5.4 44.1-5.7q0.3 0 0.6 0c0.2 0 0.3 0 0.6 0 0.2 0 0.3 0 0.6 0 0.2 0 0.3 0 0.5 0 0.3 0 0.4 0 0.6 0q0.3 0 0.6 0c0.2 0 0.3 0 0.6 0 0.2 0 0.3 0 0.5 0 15.8 0.3 30.9 2.2 44.6 5.8 13.9 3.6 26.7 8.7 37.6 14.9 11 6.4 20.3 13.9 27.4 22.5 6.8 8.2 11.6 17.8 13.4 27.9zm-123.1 87.3c17.2-0.2 33.3-2.6 48-6.9 14.6-4.3 27.6-10.3 38.4-17.7 10.8-7.3 19.2-16 24.9-25.5 5.7-9.4 8.5-19.7 7.9-30.3-0.6-10.6-4.4-20.5-10.8-29.6-6.3-8.9-15.3-16.9-26-23.7-10.8-6.7-23.4-12.1-37.4-15.9-13.9-3.8-29.2-5.9-45.2-6.1-0.2 0-0.3 0-0.6 0-0.2 0-0.3 0-0.6 0-0.2 0-0.3 0-0.5 0-0.3 0-0.4 0-0.6 0q-0.3 0-0.6 0c-0.2 0-0.3 0-0.6 0-0.2 0-0.3 0-0.6 0-0.2 0-0.3 0-0.5 0-16 0.2-31.3 2.3-45.2 6.1-14 3.8-26.6 9.2-37.4 15.9-10.8 6.7-19.7 14.7-26.1 23.7-6.3 9.1-10.1 19-10.7 29.6-0.6 10.6 2.3 20.9 7.8 30.3 5.7 9.5 14.2 18.2 24.9 25.5 10.8 7.4 23.9 13.4 38.5 17.7 14.7 4.3 30.9 6.7 47.9 6.9q0.4 0 0.6 0c0.1 0 0.5 0 0.6 0 0.2 0 0.5 0 0.6 0q0.3 0 0.6 0c0.2 0 0.4 0 0.5 0q0.4 0 0.6 0c0.2 0 0.5 0 0.6 0 0.6 0 0.8 0 1 0z"/>
						<path id="Layer" class="s14" d="m393.8 337.5l-67.9 265.5h-118.3l1.1-3.5h113l66.8-259.2h-101.1l0.8-2.8z"/>
						<path id="Layer" fill-rule="evenodd" class="s14" d="m163.9 797.5c0 0.1 0 0.4 0 0.5 0 0.1 0 0.3-0.2 0.4 0 0.1-0.1 0.4-0.1 0.5 0 0.1-0.1 0.3-0.1 0.5l-0.6 2.3h-21.2l4.7-15.7c0.3 0 3.4 0 3.7 0q0.3 0 0.7 0 0.3 0 0.7 0c0.2 0 0.4 0 0.7 0.2 0.9 0.1 1.8 0.2 2.6 0.4 0.8 0.2 1.6 0.5 2.5 0.8q1.2 0.5 2 1.1c0.7 0.4 1.3 0.9 1.9 1.4 0.6 0.4 1 1 1.4 1.6 0.3 0.6 0.7 1.1 0.9 1.7 0.2 0.6 0.5 1.3 0.5 2-0.1 1-0.1 1.6-0.1 2.3zm-15.3 0h9.6c0-0.5 0-0.8-0.1-1.3-0.2-0.4-0.3-0.8-0.4-1.1-0.1-0.4-0.3-0.7-0.7-1.2-0.2-0.3-0.6-0.7-0.9-1-0.4-0.4-0.7-0.6-1.2-0.8-0.3-0.3-0.8-0.5-1.2-0.7-0.5-0.3-1-0.4-1.5-0.6-0.5-0.1-1.1-0.2-1.7-0.4z"/>
						<path id="Layer" fill-rule="evenodd" class="s14" d="m1770.5 786.3h2.8l4.7 15.4h-21l-0.6-2.1c0-0.1-0.1-0.4-0.1-0.5 0-0.1-0.2-0.3-0.2-0.4 0-0.2-0.1-0.4-0.1-0.5 0-0.1 0-0.3 0-0.5-0.1-0.7 0-1.4 0-2 0.1-0.7 0.3-1.3 0.5-2 0.2-0.6 0.6-1.3 0.9-1.8 0.4-0.5 0.8-1.1 1.4-1.6q0.9-0.7 1.7-1.4 1.1-0.7 2.1-1c0.8-0.4 1.5-0.6 2.5-0.8 0.8-0.3 1.7-0.4 2.6-0.5 0.3 0 0.5 0 0.7-0.1 0.3-0.1 0.5 0 0.7 0q0.4 0 0.7 0c0.2-0.2 0.5-0.2 0.7-0.2zm0.7 11.2l-2.1-7.1c-0.6 0.2-1 0.3-1.6 0.4q-0.7 0.1-1.5 0.6c-0.5 0.2-0.9 0.4-1.3 0.7-0.3 0.2-0.8 0.5-1 0.8-0.4 0.3-0.6 0.7-1 1-0.2 0.4-0.4 0.7-0.7 1.2-0.1 0.3-0.3 0.8-0.3 1.1-0.1 0.5-0.1 0.8-0.1 1.3z"/>
						<path id="Layer" class="s14" d="m1755.9 797.5l1.1 4.2h-1594.2v-4.2h113.5 128 136.3 136.3 139 141.2l0.2-251.5h5.4v251.5h141.2 139.1 136.3 136.4 128z"/>
						<path id="Layer" class="s14" d="m1614.8 267.6l131.2 429.4h-5.4-122.7-123.1-131.2l-26.7-168.7 5.5 2.4 25.8 162.5h125.8 123 122.5l-27.4-90.2-80.6-265.5-20.5-67.4h-102.3-102.6-105.2l20.3 127.5-3.7 5.9-21.4-135.9h109.4 102.6 102.1z"/>
						<path id="Layer" class="s14" d="m151.9 786.4c-0.2 0-0.4 0-0.7-0.1q-0.3 0-0.7 0-0.3 0-0.7 0-0.3 0-0.7 0h-2.7l27.3-89.3h5.3z"/>
						<path id="Layer" class="s14" d="m1767.9 786.7l-27.4-89.8h5.3l27.6 89.6h-2.8q-0.4 0-0.7 0-0.4 0-0.7 0-0.4 0-0.7 0c-0.1 0.2-0.4 0.2-0.6 0.2z"/>
					</g>
				</g>
			</g>
		</g>
	</g>
	<g id="Layer_x0020_1" style="opacity: .1">
		<path id="Layer" fill-rule="evenodd" class="s15" d="m784.7 407.9h80.9c7.4 0 13.5 4.5 13.5 10.3v88.9c0 5.6-6.1 10.3-13.5 10.3h-80.9c-7.4 0-13.5-4.5-13.5-10.3v-88.9c0-5.8 6.1-10.3 13.5-10.3z"/>
		<path id="Layer" fill-rule="evenodd" class="s16" d="m821.4 417.4c20.3 0 36.8 16.2 37.1 36.3 0 0.2 0 0.2 0.2 0.3 0 2.4 0 4.7 0.2 6.9 2.7 4.8 4.8 8.4 7.6 13 1.3 1.8 1 3.4-0.6 4-2.1 1-5.8-0.3-7.1 1.3 0 6.9 0 11.3 0 18-0.3 5.8-1.9 6.3-6.9 7.1-5.9 0-11.9 0-17.7 0v12.9h-36.5c-0.2-11.6-0.3-23-0.5-34.4 0.2-0.2 0.2-0.2 0.2-0.2-8-6.9-13-16.9-13-28.3 0-20.4 16.5-37.1 37-36.9z"/>
		<text id="MORABI" style="transform: matrix(1,0,0,1,883.496,462.038)" >
			<tspan x="0" y="0" class="t17">M</tspan><tspan  y="0" class="t17">O</tspan><tspan  y="0" class="t17">R</tspan><tspan  y="0" class="t17">A</tspan><tspan  y="0" class="t17">B</tspan><tspan  y="0" class="t17">I
</tspan>
		</text>
		<text id="MODERN" style="transform: matrix(1,0,0,1,883.327,512.272)" >
			<tspan x="0" y="0" class="t17" dx="0" >M</tspan><tspan  y="0" class="t17" dx="0" >O</tspan><tspan  y="0" class="t17" dx="0 -1 -1 -1 -1" >DERN
</tspan>
		</text>
		<path id="Layer" class="s18" d="m834.1 447.6v15l-11.9 6.7-12.1-6.6v-0.9-14l11.6-6.9z"/>
		<path id="Layer" fill-rule="evenodd" class="s18" d="m833.7 419.5l-9 5.6c-1.4 0.8-3.5 1-4.7 0.2l-9.8-6.1c3.5-1.1 7.2-1.8 11.1-1.8 4.4 0 8.6 0.6 12.4 2.1z"/>
		<path id="Layer" fill-rule="evenodd" class="s18" d="m796.6 426.9l0.6 10.5c0.2 1.6-1 3.5-2.1 4.2l-10.1 5.8c0.8-3.7 2.1-7.2 3.9-10.6 1.9-4 4.6-7.4 7.7-9.9z"/>
		<path id="Layer" fill-rule="evenodd" class="s18" d="m846.3 426.9l-0.6 10.5c-0.2 1.6 1 3.5 2.1 4.2l10.1 5.8c-0.8-3.7-2.1-7.2-3.9-10.6-1.9-4-4.7-7.4-7.7-9.9z"/>
		<path id="Layer" fill-rule="evenodd" class="s18" d="m785.2 462.7l9.5 4.7c1.4 0.8 2.6 2.4 2.6 3.9v11.6c-2.9-2.4-5.3-5.3-7.4-8.5-2.5-3.8-3.9-7.7-4.7-11.7z"/>
	</g>
</svg>