<svg version="1.2" xmlns="http://www.w3.org/2000/svg" viewBox="0 0 1920 1040" width="1920" height="1040">
	<title>pitch-forward-no-goals-svg</title>
	<defs>
		<clipPath clipPathUnits="userSpaceOnUse" id="cp1">
			<path d="m0 0h1920v1040h-1920z"/>
		</clipPath>
		<filter x="-50%" y="-50%" width="200%" height="200%" id="f1"> <feGaussianBlur stdDeviation="3"/> </filter>
	</defs>
	<style>
		tspan { white-space:pre } 
		.s0 { opacity: .1;filter: url(#f1);fill: #000000 } 
		.s1 { fill: #858585 } 
		.s2 { fill: #7b7b7b } 
		.s3 { fill: #777777 } 
		.s4 { fill: #737373 } 
		.s5 { fill: #6f6f6f } 
		.s6 { fill: #6b6b6b } 
		.s7 { fill: #878787 } 
		.s8 { fill: #8b8b8b } 
		.s9 { fill: #838383 } 
		.s10 { fill: #7f7f7f } 
		.s11 { fill: #bdbdbd } 
		.s12 { fill: #488a0a } 
		.s13 { fill: #759f4f } 
		.s14 { fill: #367408 } 
		.s15 { fill: #ffffff } 
		.s16 { fill: #169d80 } 
		.s17 { fill: #fefefe } 
		.t18 { font-size: 54px;fill: #000000;font-weight: 400;font-family: "IBMPlexSerif-Regular", "IBM Plex Serif" } 
		.s19 { fill: #2b2a29 } 
	</style>
	<g id="Clip-Path: Clip-Path: Clip-Path" clip-path="url(#cp1)">
		<g id="Clip-Path: Clip-Path">
			<g id="Clip-Path">
				<g id="Layer">
					<g id="Layer">
						<g id="Layer">
							<path id="Layer" class="s0" d="m876.3 9h168.3l8.7 15.3c1-0.2 1.6 0 2.4 0.9 0.6 0.7 0.9 1.6 0.9 2.4v52.2h-193.6v-53.5c1.1-2.1 2.1-2.6 4.7-2.4z"/>
						</g>
						<path id="Layer" class="s1" d="m1457.5 950.4l-5 22.7h-984.4l-5-22.7z"/>
						<path id="Layer" class="s2" d="m463.1 950.4l5 22.7c-0.3 0-0.7 0-1 0-0.2 0-0.6 0-0.9 0-0.3 0-0.7 0-1-0.1-0.3-0.1-0.9 0-1.2-0.1l-5-22.7c0.3 0 0.9 0.1 1.2 0.1 0.3 0 0.7 0 1 0.1 0.2 0.1 0.6 0 0.9 0 0.3 0 0.6 0 1 0z"/>
						<path id="Layer" class="s3" d="m459.1 950.2l5.1 22.7c-0.4 0-0.8-0.1-1.1-0.1-0.4 0-0.8-0.1-1.1-0.1-0.4-0.1-0.6-0.1-1-0.2-0.4-0.1-0.7-0.1-1.1-0.2l-5.1-22.7c0.4 0.1 0.7 0.1 1 0.2 0.4 0.1 0.7 0.1 1.1 0.2 0.4 0.1 0.8 0.1 1.1 0.1 0.4 0.1 0.7 0.1 1.1 0.1z"/>
						<path id="Layer" class="s4" d="m454.8 949.6l5.1 22.7c-0.4-0.1-0.8-0.2-1.2-0.2q-0.5-0.1-1.1-0.3c-0.4-0.1-0.8-0.2-1.1-0.3-0.4-0.1-0.7-0.2-1-0.2l-5.2-22.7c0.4 0.1 0.7 0.2 1.1 0.3q0.6 0.1 1.2 0.2 0.5 0.2 1.1 0.3c0.3 0.1 0.7 0.1 1.1 0.2z"/>
						<path id="Layer" class="s5" d="m450.5 948.6l5 22.7c-0.5-0.1-1-0.3-1.5-0.5-0.4-0.2-0.9-0.3-1.2-0.5-0.4-0.2-0.9-0.4-1.3-0.5q-0.6-0.3-1.2-0.6l-5.2-22.7c0.4 0.2 0.8 0.4 1.3 0.6 0.4 0.2 0.9 0.4 1.2 0.5 0.4 0.2 0.9 0.3 1.3 0.5 0.5 0.2 1.2 0.3 1.6 0.5z"/>
						<path id="Layer" class="s6" d="m445.2 946.5l5.2 22.7q-3-1.4-5.5-3.5c-1.6-1.2-3.1-2.7-4.4-4.3-1.3-1.5-2.4-3.3-3.3-5-0.9-1.9-1.5-3.7-2-5.7l-5.3-22.7c0.5 2 1.1 3.9 2 5.7 0.9 1.8 2 3.5 3.3 5 1.3 1.6 2.8 3 4.4 4.4 1.8 1.3 3.6 2.4 5.6 3.4z"/>
						<path id="Layer" class="s7" d="m1489.9 928.6l-5.3 22.7c-0.1 0.5-0.3 0.9-0.4 1.3-0.2 0.5-0.3 0.9-0.5 1.4-0.1 0.5-0.3 0.9-0.5 1.3-0.2 0.3-0.4 0.8-0.6 1.2l5.3-22.7c0.2-0.4 0.4-0.9 0.7-1.2 0.2-0.4 0.4-0.9 0.6-1.3 0.1-0.5 0.3-0.9 0.4-1.3 0-0.5 0.2-0.9 0.3-1.4z"/>
						<path id="Layer" class="s8" d="m1487.8 934.3l-5.3 22.7c-0.8 1.4-1.7 2.8-2.7 4.1-1.1 1.3-2.2 2.5-3.5 3.7-1.2 1.1-2.7 2.1-4.2 3.1-1.6 0.9-3.1 1.7-4.9 2.4l5.2-22.7c1.7-0.7 3.3-1.6 4.9-2.4 1.5-1 2.9-2 4.2-3.1 1.3-1.2 2.5-2.3 3.5-3.7 1.2-1.3 2-2.7 2.8-4.1z"/>
						<path id="Layer" class="s7" d="m1472.5 947.6l-5.2 22.7c-0.5 0.2-0.8 0.4-1.3 0.5-0.5 0.2-1 0.3-1.4 0.5-0.4 0.1-0.9 0.2-1.4 0.3-0.5 0.1-0.7 0.3-1.2 0.4l4.8-22.7c0.5-0.1 1-0.2 1.5-0.4q0.7-0.2 1.5-0.3c0.4-0.2 0.9-0.3 1.4-0.5 0.3-0.2 0.8-0.4 1.3-0.5z"/>
						<path id="Layer" class="s9" d="m1467 949.3l-5 22.7c-0.4 0.1-1.1 0.2-1.5 0.3-0.4 0.1-0.8 0.2-1.2 0.2-0.4 0.1-0.8 0.1-1.1 0.2-0.4 0.1-1.7 0.1-2.2 0.2l5-22.7c0.4 0 1.7-0.1 2.2-0.2 0.4-0.1 0.8-0.1 1.1-0.2 0.4-0.1 0.8-0.1 1.2-0.2 0.5-0.1 1.1-0.2 1.5-0.3z"/>
						<path id="Layer" class="s10" d="m1461.9 950.1l-5 22.7c-0.4 0-0.8 0.1-1.1 0.1-0.3 0-0.7 0.1-1.1 0.1-0.4 0-0.8 0-1.2 0.1q-0.6 0-1.1 0l5-22.7q0.6 0 1.1 0c0.4 0 0.8 0 1.2-0.1 0.4-0.1 0.8-0.1 1.2-0.1 0.3 0 0.6 0 1-0.1z"/>
						<path id="Layer" fill-rule="evenodd" class="s11" d="m1489.9 929.1c-1.1 4.1-3.4 7.8-6.3 11-3.1 3.1-6.9 5.8-11.4 7.5-4.5 1.8-9.7 2.8-15.3 2.8h-993.8c-5.6 0-10.7-1.1-15.3-2.8-4.5-1.8-8.4-4.4-11.4-7.5-3-3.1-5.2-6.9-6.3-11-1.2-4.1-1.4-8.6-0.3-13.4l181.9-843.3q0.6-3.1 3.3-5.7c1.7-1.8 4-3.3 6.6-4.7 2.7-1.2 5.7-2.3 9-3.1 3.3-0.7 6.9-1.1 10.5-1.1h637.7q5.5 0 10.5 1.1c3.3 0.7 6.3 1.8 9 3.1q4 2.1 6.6 4.7c1.8 1.7 2.8 3.6 3.3 5.7l182 843.3c1 4.8 0.9 9.3-0.3 13.4zm-0.5-13.3l-181.7-843.4c-0.5-2.1-1.6-3.9-3.3-5.6-1.6-1.8-3.8-3.3-6.4-4.6-2.6-1.3-5.6-2.4-8.8-3.1-3.3-0.7-6.7-1.1-10.3-1.1h-637.8c-3.6 0-7.1 0.4-10.3 1.1-3.2 0.8-6.2 1.9-8.8 3.1-2.6 1.3-4.8 2.8-6.4 4.6-1.8 1.7-2.9 3.5-3.3 5.6l-181.8 843.3c-1 4.7-0.9 9.1 0.2 13.2 1.2 4 3.3 7.7 6.3 10.8 3 3.1 6.8 5.6 11.2 7.3 4.4 1.8 9.5 2.7 15 2.7h993.6q8.2 0 15-2.7c4.4-1.7 8.2-4.2 11.2-7.3 2.9-3.1 5-6.8 6.2-10.8 1.1-4.1 1.3-8.5 0.2-13.1z"/>
						<path id="Layer" class="s12" d="m618.3 91.5c2.2-10.2 11.2-17.5 21.6-17.5h641.7c10.4 0 19.4 7.3 21.5 17.5l168.9 815c2.8 13.7-7.6 26.5-21.5 26.5h-981.4c-14 0-24.4-12.8-21.5-26.5z"/>
						<path id="Layer" fill-rule="evenodd" class="s13" d="m1278.9 58c3.6 0 7 0.4 10.3 1.1 3.2 0.7 6.2 1.8 8.8 3.1 2.6 1.3 4.8 2.8 6.4 4.6 1.7 1.7 2.8 3.5 3.3 5.6l181.7 843.4c1 4.7 0.9 9.1-0.2 13.2-1.2 4-3.3 7.7-6.3 10.8-3 3.1-6.8 5.6-11.2 7.3q-6.7 2.7-15 2.7h-993.5c-5.5 0-10.6-0.9-15-2.7-4.4-1.7-8.2-4.2-11.2-7.3-3-3.1-5.1-6.8-6.3-10.8-1.1-4.1-1.2-8.5-0.2-13.2l181.8-843.4c0.4-2.1 1.5-3.9 3.3-5.6 1.6-1.8 3.8-3.3 6.4-4.6 2.6-1.2 5.6-2.3 8.8-3.1 3.2-0.6 6.7-1.1 10.3-1.1zm5.7 37l-1.4-6.8h-646.8l-157.1 791.6h960.9l-3-15.1z"/>
						<path id="Layer" class="s12" d="m1271.5 89.2h11.1l1.1 5.1c-0.8 0-1.5-0.2-2-0.3-0.7-0.2-1.3-0.3-2-0.5-0.7-0.1-1.3-0.3-1.8-0.4-0.6-0.2-1.1-0.5-1.7-0.6-0.5-0.2-1.1-0.5-1.4-0.8-0.6-0.3-0.9-0.5-1.3-0.8q-0.5-0.4-1.1-0.9c-0.4-0.2-0.5-0.5-0.9-0.8z"/>
						<path id="Layer" class="s12" d="m1100.5 89.9l3.5 41h-289.2l3.5-41z"/>
						<path id="Layer" class="s12" d="m645.1 93.3c0.5-0.2 0.9-0.5 1.3-0.8 0.4-0.3 0.7-0.4 1-0.7q0.5-0.5 0.9-0.9c0.2-0.3 0.4-0.6 0.6-1h78l-6.1 42.9h-89.6l7.4-37.8c0.6 0 1.2-0.1 1.8-0.2 0.6-0.1 1.1-0.2 1.7-0.4 0.6-0.1 1.1-0.3 1.7-0.5 0.3-0.2 0.8-0.4 1.3-0.6z"/>
						<path id="Layer" class="s12" d="m707.1 229h176.7l-271.5 0.1 9.9-51h92.1z"/>
						<path id="Layer" class="s14" d="m918.4 243.1c-2.9-0.9-5.7-1.9-8.5-2.8-2.7-1.1-5.3-2.1-7.8-3.3-2.5-1.2-5-2.4-7.2-3.8-2.2-1.3-4.3-2.7-6.4-4.1h142.7c-2.1 1.4-4.2 2.9-6.4 4.1-2.2 1.4-4.6 2.6-7.1 3.8-2.6 1.2-5.2 2.3-7.9 3.3-2.7 1-5.5 1.9-8.5 2.8-3.2 0.9-6.4 1.7-9.8 2.5-3.4 0.7-6.8 1.3-10.3 1.8-3.4 0.5-7 0.9-10.6 1.1-3.6 0.3-7.1 0.4-10.8 0.4-3.6 0-7.2-0.1-10.8-0.4-3.6-0.3-7.2-0.6-10.6-1.1-3.5-0.5-7-1-10.3-1.8-3.2-0.7-6.5-1.6-9.7-2.5z"/>
						<path id="Layer" class="s14" d="m1035.9 229.1h271.6l10.6 54.1h-716.4l10.6-54.1h271.6c2.1 1.6 4.4 3.3 7 4.8 2.4 1.5 5.1 3 7.8 4.4 2.8 1.3 5.6 2.6 8.7 3.7 3 1.2 6.2 2.2 9.4 3.2 3.4 1 6.8 1.8 10.3 2.6 3.4 0.8 7 1.4 10.7 1.8q5.5 0.8 11 1.2c3.7 0.3 7.4 0.4 11.2 0.4 3.8 0 7.5-0.1 11.2-0.4 3.7-0.3 7.4-0.7 11-1.2 3.7-0.4 7.2-1.1 10.7-1.8 3.5-0.8 7-1.6 10.3-2.6 3.2-1 6.3-2 9.4-3.2q4.5-1.7 8.7-3.7c2.7-1.4 5.4-2.9 7.8-4.4 2.3-1.6 4.7-3.2 6.8-4.8z"/>
						<path id="Layer" class="s12" d="m1318.2 283.2l11.4 58.7h-359.3c-0.8-0.1-1.7-0.1-2.6-0.1-0.8 0-1.7-0.1-2.6-0.1-0.9 0-1.7 0-2.6-0.1q-1.3 0-2.6 0-1.3 0-2.6 0c-0.9 0-1.7 0-2.6 0.1-0.9 0-1.7 0.1-2.6 0.1-0.9 0-1.8 0.1-2.6 0.1h-359.3l11.5-58.7z"/>
						<path id="Layer" class="s14" d="m959.9 343.9c13.4 0 26.2 1.6 37.9 4.6 11.7 3 22.4 7.5 31.5 12.9 9.2 5.5 16.8 12 22.3 19.5 5.5 7.4 9 15.6 9.7 24.4h-97.6c-0.2-0.2-0.4-0.4-0.7-0.6-0.3-0.2-0.6-0.3-0.9-0.5-0.3-0.1-0.7-0.2-1-0.2-0.4-0.1-0.8-0.1-1.2-0.1-0.4 0-0.8 0-1.2 0.1-0.3 0-0.7 0.1-1 0.2-0.3 0.1-0.6 0.3-0.9 0.5-0.3 0.2-0.5 0.4-0.7 0.6h-97.6c0.8-8.8 4.2-17 9.7-24.4 5.5-7.4 13.1-14 22.3-19.5 9.1-5.5 19.8-9.9 31.5-12.9 11.7-3 24.5-4.6 37.9-4.6z"/>
						<path id="Layer" class="s12" d="m1061.4 407.9c0.2 8.9-2.4 17.4-7.4 25.1-4.9 7.8-12.2 15-21.3 21-9.2 6.1-20.2 10.9-32.5 14.4-12.4 3.3-26 5.3-40.3 5.3-14.3 0-27.9-2-40.3-5.3-12.2-3.4-23.3-8.3-32.5-14.4-9.2-6-16.4-13.2-21.3-21-5-7.8-7.6-16.3-7.4-25.1h97.7c0.2 0.2 0.4 0.4 0.7 0.6 0.3 0.2 0.6 0.3 0.9 0.5 0.3 0.1 0.7 0.2 1 0.3 0.4 0.1 0.8 0.1 1.2 0.1 0.4 0 0.8 0 1.2-0.1 0.3-0.1 0.7-0.2 1-0.3 0.3-0.1 0.6-0.3 0.9-0.5 0.3-0.2 0.5-0.4 0.7-0.6z"/>
						<path id="Layer" class="s12" d="m549.6 548.2h820.6l14.9 75.7h-117.3l-214.9-0.1c-2.8-2.5-5.8-4.9-9-7.1-3.2-2.2-6.5-4.4-9.9-6.4-3.5-1.9-7.1-3.8-10.9-5.5q-5.6-2.5-11.5-4.6c-4.1-1.5-8.2-2.6-12.5-3.7-4.2-1.1-8.5-1.9-12.8-2.7-4.4-0.7-8.7-1.3-13.2-1.7q-6.6-0.5-13.3-0.5c-4.4 0-9 0.2-13.3 0.5-4.5 0.4-8.8 0.9-13.2 1.7-4.3 0.7-8.5 1.6-12.8 2.7-4.2 1.1-8.4 2.3-12.5 3.7q-5.9 2-11.5 4.6c-3.8 1.6-7.4 3.5-10.9 5.5-3.4 1.9-6.7 4.1-9.9 6.4-3.2 2.2-6.2 4.6-9 7.1h-216.1l-116 0.1z"/>
						<path id="Layer" class="s14" d="m1267.8 623.9h117.3l15.9 81.5h-121.6z"/>
						<path id="Layer" class="s12" d="m959.9 708.8q1.1 0 1.8-0.3c0.6-0.2 1.1-0.4 1.6-0.8 0.5-0.3 0.8-0.6 1-1 0.3-0.4 0.4-0.9 0.5-1.4h310l11.5 82.3h-120.9-412.4-120.8l11.6-82.3h311.2c0 0.5 0.2 1 0.5 1.4 0.3 0.4 0.6 0.7 1 1 0.5 0.3 1 0.6 1.6 0.8q0.8 0.3 1.8 0.3z"/>
						<path id="Layer" class="s12" d="m502.6 787.6l16.1-82.2h120.3l-11.8 82.2z"/>
						<path id="Layer" class="s12" d="m1279.4 705.4h121.6l16.1 82.2h-126z"/>
						<path id="Layer" class="s14" d="m1173.2 875.8l-7.8-88.2h120.9l12.3 88.2z"/>
						<path id="Layer" class="s14" d="m1291.1 787.6h126l15.2 77.2c-0.9 0.1-1.7 0.3-2.4 0.5-0.8 0.2-1.6 0.5-2.2 0.8-0.7 0.3-1.4 0.7-2.1 1.1-0.6 0.3-1.2 0.8-1.7 1.3-0.5 0.5-1 1.1-1.5 1.6-0.3 0.5-0.7 1.1-1 1.7-0.3 0.6-0.5 1.2-0.6 1.9-0.1 0.7-0.2 1.4-0.2 2.1h-116.9z"/>
						<path id="Layer" class="s14" d="m619.7 875.8l12.4-88.2h120.9l-7.9 88.2z"/>
						<path id="Layer" class="s12" d="m645.5 89.9c-0.1 0.2-0.3 0.4-0.4 0.6q-0.3 0.3-0.6 0.6c-0.2 0.2-0.5 0.3-0.6 0.5-0.3 0.2-0.5 0.3-0.8 0.5q-0.4 0.1-0.9 0.3c-0.3 0.1-0.7 0.2-1 0.3-0.3 0.1-0.6 0.2-1 0.3-0.4 0.1-0.9 0.2-1.3 0.3l0.5-3.6h6.1z"/>
						<path id="Layer" class="s12" d="m1270.9 89.9c0.2 0.3 0.4 0.6 0.6 1q0.3 0.4 0.9 0.9c0.3 0.3 0.6 0.5 1 0.7 0.4 0.3 0.9 0.5 1.3 0.8 0.5 0.2 1 0.5 1.4 0.6 0.5 0.2 1.1 0.4 1.7 0.5 0.6 0.1 1.1 0.3 1.7 0.4 0.6 0.1 1.2 0.2 1.8 0.2l7.4 37.8h-90.6l-6.1-42.9z"/>
						<path id="Layer" class="s12" d="m1107.6 132.8l-3.7-42.9h84.7l6 42.9h-470.3l6-42.9h84.7l-3.8 42.9z"/>
						<path id="Layer" class="s14" d="m717.9 178.1l6.4-45.3h470.3l6.3 45.3h-237.2q0-0.4-0.3-0.9c-0.2-0.3-0.5-0.5-0.8-0.7-0.4-0.1-0.8-0.3-1.2-0.4-0.4-0.1-0.9-0.2-1.4-0.2-0.5 0-1 0.1-1.5 0.2-0.4 0.1-0.8 0.3-1.1 0.4-0.4 0.2-0.6 0.4-0.8 0.7q-0.3 0.5-0.3 0.9z"/>
						<path id="Layer" class="s14" d="m622.2 178.1l9-45.3h89.6l-6.5 45.3z"/>
						<path id="Layer" class="s14" d="m1198 132.8h90.6l8.9 45.3h-93z"/>
						<path id="Layer" class="s12" d="m1204.5 178.1h93l10 51h-271.6l175.8-0.1z"/>
						<path id="Layer" class="s14" d="m949.5 341.8c-12.8 0.7-24.7 3-35.8 6.4-11 3.5-21 8.1-29.4 13.7-8.5 5.5-15.6 12.1-20.7 19.5-5.1 7.3-8.3 15.4-9 23.9h-277l12.5-63.5z"/>
						<path id="Layer" class="s14" d="m970.3 341.8h359.3l12.5 63.5h-276.8c-0.6-8.5-3.8-16.6-9-23.9-5.1-7.3-12.2-14-20.7-19.5-8.5-5.7-18.4-10.3-29.4-13.7-11.1-3.3-23.1-5.7-35.9-6.4z"/>
						<path id="Layer" class="s12" d="m1065.4 407.9h277.3l13.4 68.3h-386.9c13.8-0.8 26.8-3.3 38.6-7.1 11.7-3.8 22.2-9 30.8-15.1 8.6-6.2 15.4-13.4 20.1-21.2 4.5-7.8 6.9-16.2 6.7-24.9z"/>
						<path id="Layer" class="s12" d="m854.4 407.9c-0.2 8.7 2.2 17.1 6.7 24.9 4.7 7.8 11.5 15 20.1 21.2 8.7 6.1 19.1 11.4 30.8 15.1 11.8 3.9 24.8 6.3 38.6 7.1h-386.9l13.4-68.3z"/>
						<path id="Layer" class="s14" d="m1356 476.2l14.1 71.9h-820.5l14.1-71.9h386.9c0.8 0 1.6 0.1 2.4 0.1 0.7 0 1.5 0.1 2.3 0.1q1.1 0 2.3 0 1.1 0 2.3 0 1.2 0 2.3 0 1.2 0 2.3 0c0.8 0 1.6 0 2.4-0.1 0.7 0 1.5-0.1 2.3-0.1z"/>
						<path id="Layer" class="s12" d="m1009.7 603.1c3.6 1.2 7.1 2.6 10.5 4.1 3.3 1.5 6.6 3.1 9.7 4.8 3.1 1.8 6.2 3.6 9.1 5.6 2.9 2 5.6 4.1 8.2 6.3h-174.6c2.6-2.2 5.3-4.2 8.2-6.3 2.9-1.9 5.9-3.8 9.1-5.6 3.1-1.7 6.4-3.3 9.7-4.8 3.4-1.4 6.9-2.9 10.5-4.1 3.8-1.4 7.9-2.5 11.9-3.6 4.1-1.1 8.3-1.9 12.4-2.6 4.2-0.7 8.4-1.3 12.7-1.6 4.2-0.3 8.6-0.4 12.8-0.4 4.3 0 8.6 0.1 12.8 0.4 4.3 0.4 8.5 0.9 12.7 1.6 4.1 0.7 8.3 1.5 12.4 2.6 4 1.1 8.1 2.2 11.9 3.6z"/>
						<path id="Layer" class="s14" d="m518.7 705.4l16-81.5h115.9l-11.6 81.5z"/>
						<path id="Layer" class="s14" d="m643.7 705.4l11-78.3h609l11 78.3h-309.9c0-0.6-0.1-1-0.4-1.5-0.2-0.5-0.5-0.9-1-1.3-0.5-0.4-1-0.6-1.6-0.8-0.5-0.1-1.2-0.2-1.9-0.2-0.7 0-1.4 0.1-1.9 0.2-0.6 0.2-1.2 0.5-1.6 0.8-0.5 0.3-0.7 0.7-1 1.2-0.3 0.5-0.4 0.8-0.4 1.4z"/>
						<path id="Layer" class="s14" d="m1425.7 875.8c0-0.4 0.1-0.9 0.2-1.3 0.1-0.4 0.3-0.8 0.5-1.2 0.2-0.3 0.4-0.7 0.7-1 0.3-0.4 0.6-0.7 0.8-1 0.3-0.3 0.7-0.6 1.1-0.9 0.4-0.2 0.8-0.4 1.3-0.6 0.3-0.2 0.8-0.4 1.3-0.6 0.5-0.2 1-0.3 1.5-0.4l1.3 6.9h-8.7z"/>
						<path id="Layer" class="s14" d="m750.2 875.8l7.3-84.5h403.3l7.4 84.5z"/>
						<path id="Layer" class="s14" d="m486.7 868.9c0.4 0.1 0.9 0.2 1.4 0.4 0.5 0.2 1 0.3 1.4 0.6 0.3 0.2 0.8 0.4 1.2 0.6 0.4 0.3 0.8 0.6 1.1 0.9 0.3 0.3 0.6 0.7 0.8 1 0.3 0.4 0.5 0.6 0.7 1 0.2 0.4 0.3 0.8 0.5 1.2 0.1 0.4 0.2 0.8 0.2 1.2h-8.7z"/>
						<path id="Layer" class="s14" d="m487.4 864.8l15.2-77.2h124.6l-12.5 88.2h-115.6c0-0.7-0.1-1.4-0.2-2.1-0.1-0.7-0.4-1.2-0.6-1.9-0.3-0.6-0.5-1.2-1-1.7-0.4-0.6-0.9-1.1-1.5-1.6-0.5-0.5-1.1-1-1.7-1.3-0.7-0.4-1.3-0.8-2-1.1-0.7-0.3-1.5-0.6-2.3-0.8-0.7-0.2-1.5-0.4-2.4-0.5z"/>
						<path id="Layer" class="s12" d="m1038.7 226.9h-157.6-170l6.8-48.8h238.2q0 0.4 0.3 0.9c0.2 0.3 0.5 0.4 0.8 0.6 0.4 0.2 0.8 0.4 1.2 0.5 0.4 0.1 0.9 0.2 1.4 0.2 0.5 0 1.1-0.1 1.5-0.2 0.4-0.1 0.8-0.3 1.1-0.5 0.4-0.2 0.6-0.3 0.8-0.6q0.3-0.5 0.3-0.9h237.1l6.9 48.8z"/>
						<path id="Layer" class="s15" d="m727.6 88l0.1 1.9h-79.1c0-0.1 0-0.1 0-0.1 0-0.1 0.1-0.2 0.1-0.2 0-0.1 0-0.2 0.1-0.2 0 0 0-0.1 0.1-0.1l-0.1-1.1h78.8z"/>
						<path id="Layer" fill-rule="evenodd" class="s15" d="m636.5 88.2h12.9l-0.2 0.9c0 0.1 0 0.2-0.1 0.2 0 0.1 0 0.1-0.1 0.1 0 0.1-0.1 0.2-0.1 0.2l-0.1 0.2c-0.2 0.3-0.4 0.6-0.6 1q-0.3 0.4-0.9 0.9c-0.3 0.3-0.6 0.5-1 0.7-0.4 0.3-0.9 0.5-1.3 0.8-0.5 0.2-1 0.5-1.4 0.6-0.5 0.2-1.1 0.4-1.7 0.5-0.6 0.1-1.1 0.3-1.7 0.4-0.6 0.1-1.2 0.2-1.8 0.2 0 0-0.2 0-0.3 0-0.1 0-0.3 0-0.4 0-0.1 0-0.3 0-0.4 0-0.1 0-0.3 0-0.4 0l-1.6-0.6zm6.5 3.8c0.3-0.1 0.6-0.3 0.8-0.5 0.2-0.2 0.4-0.3 0.6-0.5q0.3-0.3 0.6-0.6c0.2-0.2 0.3-0.4 0.4-0.6h-5.9l-0.6 3.2c0.4 0 0.8-0.1 1.1-0.2 0.4-0.1 0.7-0.2 1.1-0.3 0.3 0 0.6-0.1 0.9-0.2 0.4 0 0.7-0.1 1-0.3z"/>
						<path id="Layer" fill-rule="evenodd" class="s15" d="m881.1 226.9h157.5l-2.1 1.7-0.4 0.4c-2.1 1.6-4.4 3.3-7 4.8q-3.7 2.3-7.8 4.4-4.2 2-8.7 3.7c-3 1.2-6.1 2.2-9.4 3.2-3.4 1-6.8 1.8-10.3 2.6-3.4 0.8-7 1.4-10.7 1.8q-5.5 0.8-11 1.2c-3.7 0.3-7.4 0.4-11.2 0.4-3.8 0-7.5-0.1-11.2-0.4-3.7-0.3-7.4-0.7-11-1.2-3.7-0.4-7.3-1.1-10.7-1.8-3.5-0.8-7-1.6-10.3-2.6-3.2-1-6.3-2-9.4-3.2q-4.5-1.7-8.7-3.7c-2.7-1.4-5.4-2.8-7.8-4.4-2.5-1.5-4.8-3.1-7-4.8-0.1 0-0.1-0.1-0.2-0.1-0.1 0-0.1-0.1-0.2-0.1l-0.2-0.2zm150.2 2.2h-142.7q3 2.2 6.3 4.2c2.3 1.3 4.7 2.6 7.2 3.7 2.5 1.2 5.1 2.4 7.8 3.3 2.7 1.1 5.5 1.9 8.5 2.8 3.2 1 6.5 1.8 9.9 2.5 3.3 0.7 6.7 1.4 10.2 1.9 3.5 0.4 7 0.8 10.6 1 3.6 0.3 7.2 0.4 10.8 0.4 3.6 0 7.3-0.1 10.8-0.4 3.6-0.3 7.2-0.6 10.7-1 3.4-0.5 6.9-1.1 10.2-1.9 3.4-0.6 6.7-1.5 9.8-2.5 2.9-0.9 5.7-1.8 8.5-2.8 2.8-1 5.4-2.1 7.9-3.3 2.5-1.1 4.9-2.4 7.1-3.7 2.2-1.4 4.4-2.7 6.4-4.2z"/>
						<path id="Layer" class="s15" d="m959.9 403.9c0.4 0 0.8 0 1.2 0.1 0.3 0 0.7 0.1 1 0.2 0.3 0.1 0.6 0.3 0.9 0.5 0.3 0.2 0.5 0.4 0.7 0.6 0.1 0.1 0.2 0.2 0.2 0.3 0.1 0.1 0.1 0.2 0.2 0.3 0 0.1 0.1 0.2 0.1 0.3 0 0.1 0 0.2 0 0.4q0 0.2 0 0.3c0 0.1-0.1 0.2-0.1 0.3 0 0.1-0.1 0.2-0.2 0.3-0.1 0.1-0.1 0.2-0.2 0.3-0.2 0.2-0.4 0.4-0.7 0.6-0.3 0.2-0.6 0.3-0.9 0.5-0.3 0.1-0.7 0.2-1 0.3-0.4 0.1-0.8 0.1-1.2 0.1-0.4 0-0.8 0-1.2-0.1-0.3-0.1-0.7-0.2-1-0.3-0.3-0.1-0.6-0.3-0.9-0.5-0.3-0.2-0.5-0.4-0.7-0.6-0.1-0.1-0.2-0.2-0.2-0.3 0-0.1-0.1-0.2-0.1-0.3 0-0.1-0.1-0.2-0.1-0.3 0-0.1 0-0.1 0-0.3 0-0.1 0-0.2 0-0.4 0-0.2 0.1-0.2 0.1-0.3 0-0.1 0-0.2 0.1-0.3 0.1-0.1 0.1-0.2 0.2-0.3 0.2-0.2 0.4-0.4 0.7-0.6 0.3-0.2 0.6-0.3 0.9-0.5 0.3-0.2 0.7-0.2 1-0.2 0.4-0.1 0.8-0.1 1.2-0.1z"/>
						<path id="Layer" class="s15" d="m1061.4 407.9h-97.7c0.1-0.1 0.2-0.2 0.2-0.3 0.1-0.1 0.1-0.2 0.2-0.3 0-0.1 0.1-0.2 0.1-0.3q0-0.2 0-0.3c0-0.1 0-0.2 0-0.4 0-0.2-0.1-0.2-0.1-0.3 0-0.1-0.1-0.2-0.2-0.3-0.1-0.1 0-0.3-0.1-0.4h97.7c0 0.1 0 0.3 0 0.4q0 0.2 0 0.3 0 0.2 0 0.3 0 0.2 0 0.3 0 0.1 0 0.3 0 0.1 0 0.3 0 0.1 0 0.3c0.1 0.3-0.1 0.3-0.1 0.4z"/>
						<path id="Layer" fill-rule="evenodd" class="s15" d="m1053.7 624.5l2.8 2.6h-193.2l2.8-2.6c0.1-0.1 0.1-0.1 0.2-0.2 0.1-0.1 0.1-0.1 0.2-0.2 0.1-0.1 0.1-0.1 0.2-0.2 0.1-0.1 0.1-0.1 0.2-0.2 2.8-2.5 5.8-4.9 9-7.1 3.2-2.2 6.5-4.4 9.9-6.4 3.5-1.9 7.1-3.8 10.9-5.5q5.6-2.5 11.5-4.6c4.1-1.5 8.2-2.6 12.5-3.7 4.2-1.1 8.5-1.9 12.8-2.7 4.4-0.7 8.7-1.3 13.2-1.6q6.6-0.6 13.3-0.6c4.4 0 9 0.2 13.3 0.6 4.5 0.3 8.8 0.8 13.2 1.6 4.3 0.7 8.6 1.6 12.8 2.7 4.2 1.1 8.4 2.3 12.5 3.7q5.9 2 11.5 4.6c3.8 1.6 7.4 3.5 10.9 5.5 3.4 1.9 6.7 4.1 9.9 6.4 3.2 2.2 6.2 4.6 9 7.1 0.1 0.1 0.1 0.1 0.2 0.2 0.1 0.1 0.1 0.1 0.2 0.2 0.1 0.1 0.1 0.1 0.2 0.2 0.1 0.1-0.1 0.1 0 0.2zm-181.1-0.7h174.6c-2.6-2.2-5.3-4.2-8.2-6.3-2.9-1.9-5.9-3.8-9.1-5.6-3.1-1.7-6.4-3.3-9.7-4.8-3.4-1.4-6.9-2.9-10.5-4.1-3.8-1.4-7.9-2.5-11.9-3.6-4.1-1.1-8.3-1.9-12.4-2.6-4.2-0.7-8.4-1.3-12.7-1.6-4.2-0.3-8.5-0.4-12.8-0.4-4.3 0-8.6 0.2-12.8 0.4-4.3 0.4-8.5 0.9-12.7 1.6-4.1 0.7-8.3 1.5-12.3 2.6-4.1 1.1-8.1 2.2-12 3.6-3.6 1.2-7.1 2.6-10.5 4.1-3.3 1.5-6.6 3.1-9.7 4.8-3.1 1.8-6.2 3.6-9.1 5.6-2.9 2.1-5.6 4.2-8.2 6.3z"/>
						<path id="Layer" class="s15" d="m1165.4 787.6l7.8 88.2h-5l-7.4-84.5h-403.3l-7.3 84.5h-5.1l7.9-88.2z"/>
						<path id="Layer" class="s15" d="m1053.7 624.5l214.1-0.7 11.6 81.6 11.7 82.2 12.6 88.2 0.5 4h-130.7-428.7-130.7l0.6-4 12.5-88.2 11.8-82.2 11.6-81.5 216.2-0.1-3.6 3.3h-208.5l-11 78.3-11.6 82.2-12.4 88.2h125.4 5.1 418 5 125.4l-12.3-88.2-11.6-82.2-10.9-78.3h-207.3z"/>
						<path id="Layer" class="s15" d="m1281.3 95l3.4 0.3 152.6 769.3-5 0.8-15.2-77.8-16.1-82.2-15.9-81.5-14.9-75.7-14.2-72-13.3-68.3h-277.3l-0.9-2.6h277.6l-12.5-63.5-11.4-58.6-10.7-54.1-10-51-8.9-45.3z"/>
						<path id="Layer" class="s15" d="m1420.6 875.8c0 0.1 0 0.2 0 0.4 0 0.2 0 0.3 0 0.5 0 0.2 0 0.3 0.1 0.5 0 0.2 0.1 0.3 0.1 0.5l0.4 2h-117l-0.5-4h116.9z"/>
						<path id="Layer" class="s15" d="m1270.7 89.1c0 0.1 0 0.2 0.1 0.2 0.1 0 0 0.1 0.1 0.1 0 0.1 0.1 0.3 0.1 0.3 0 0.1-0.1 0.2-0.1 0.2h-79l-0.4-1.7h79z"/>
						<path id="Layer" class="s15" d="m1100.5 89.9h3.4l3.7 42.9h-296.4l3.8-42.9h3.3l-3.5 41h289.2z"/>
						<path id="Layer" class="s15" d="m959.9 176c0.5 0 1 0.1 1.5 0.2 0.4 0.1 0.8 0.3 1.1 0.4 0.4 0.2 0.6 0.4 0.8 0.7q0.3 0.5 0.3 0.9 0 0.4-0.3 0.9c-0.2 0.2-0.5 0.4-0.8 0.6-0.4 0.2-0.8 0.4-1.1 0.5-0.5 0.1-1 0.2-1.5 0.2-0.5 0-1.1-0.1-1.4-0.2-0.5-0.1-0.9-0.3-1.2-0.5-0.4-0.2-0.6-0.4-0.8-0.6q-0.3-0.5-0.3-0.9 0-0.4 0.3-0.9c0.2-0.3 0.5-0.5 0.8-0.7 0.4-0.1 0.8-0.3 1.2-0.4 0.3-0.1 0.9-0.2 1.4-0.2z"/>
						<path id="Layer" class="s15" d="m959.9 701.6c0.7 0 1.4 0.1 1.9 0.2 0.6 0.2 1.2 0.5 1.6 0.8 0.5 0.3 0.8 0.7 1 1.2 0.3 0.5 0.4 0.8 0.4 1.4 0 0.5-0.2 1-0.5 1.4-0.2 0.4-0.6 0.7-1 1-0.5 0.3-1 0.6-1.6 0.8-0.5 0.2-1.2 0.3-1.8 0.3-0.6 0-1.3-0.1-1.8-0.3-0.6-0.2-1.1-0.4-1.6-0.8-0.5-0.3-0.7-0.6-1-1-0.3-0.4-0.4-0.9-0.5-1.4 0-0.5 0.1-0.9 0.4-1.4 0.3-0.5 0.5-0.9 1-1.2 0.5-0.3 1-0.6 1.6-0.8 0.6-0.1 1.2-0.2 1.9-0.2z"/>
						<path id="Layer" class="s15" d="m499.1 875.8h115.6l-0.6 4h-115.6l0.4-2c0-0.2 0.1-0.4 0.1-0.5 0-0.2 0-0.3 0.1-0.5 0-0.2 0-0.3 0-0.5q0-0.3 0-0.5z"/>
						<path id="Layer" fill-rule="evenodd" class="s15" d="m499.1 875.8c0 0.1 0 0.2 0 0.4 0 0.2 0 0.3 0 0.5 0 0.2 0 0.3-0.1 0.5-0.1 0.2-0.1 0.3-0.1 0.5l-0.4 2h-19.1l3-15.1c0.2 0 2.9 0 3.1 0q0.3 0 0.6 0 0.3 0 0.6 0c0.1 0 0.3 0 0.5 0.1 0.9 0.1 1.7 0.3 2.4 0.5 0.8 0.2 1.6 0.5 2.3 0.8 0.6 0.3 1.3 0.7 2 1.1 0.7 0.3 1.2 0.8 1.7 1.3 0.5 0.5 1 1.1 1.5 1.6 0.4 0.5 0.8 1.1 1 1.7 0.3 0.6 0.5 1.3 0.6 1.9 0.3 0.8 0.4 1.5 0.4 2.2zm-13.8 0h8.7c0-0.4-0.1-0.9-0.2-1.3-0.1-0.4-0.3-0.8-0.5-1.2-0.2-0.3-0.4-0.7-0.7-1-0.2-0.4-0.5-0.7-0.8-1-0.3-0.3-0.7-0.6-1.1-0.9q-0.6-0.3-1.2-0.6c-0.4-0.2-0.9-0.4-1.4-0.6-0.5-0.2-1-0.3-1.4-0.4z"/>
						<path id="Layer" fill-rule="evenodd" class="s15" d="m1270.5 88.2h12.8l1.4 7.1c-0.1 0-2 0-2.1 0-0.1 0-0.3 0-0.4 0-0.1 0-0.3 0-0.4 0-0.1 0-0.3 0-0.4 0-0.6-0.1-1.2-0.1-1.7-0.2-0.6-0.1-1.2-0.2-1.8-0.4-0.6-0.1-1-0.3-1.6-0.4q-0.7-0.3-1.5-0.6c-0.4-0.2-0.8-0.5-1.2-0.8-0.4-0.3-0.8-0.5-1.1-0.8q-0.4-0.4-0.8-0.8c-0.2-0.3-0.4-0.6-0.6-1 0-0.1-0.1-0.2-0.1-0.2l-0.1-0.2c0 0 0-0.2-0.1-0.2 0-0.1 0-0.2-0.1-0.2zm10.4 5.2l-0.6-3.2h-5.8c0.1 0.2 0.3 0.4 0.3 0.6q0.3 0.3 0.6 0.6c0.2 0.2 0.5 0.3 0.7 0.5 0.3 0.1 0.5 0.2 0.8 0.4 0.3 0.1 0.6 0.3 0.9 0.4 0.2 0.1 0.6 0.2 0.9 0.3 0.4 0.1 0.7 0.2 1.1 0.3 0.4 0 0.7 0.1 1.1 0.1z"/>
						<path id="Layer" class="s15" d="m1191.7 88.2l0.2 1.7 6.1 42.9 6.5 45.3 7.2 50.9h-175.7l2.7-2.1h169l-6.8-48.8-6.4-45.3-5.9-42.9h-84.7-288.9-84.7l-6 42.9-6.4 45.3-6.8 48.8h170l2.1 1.7-176.1 0.4 7.2-50.9 6.5-45.3 6.1-42.9 0.3-1.7z"/>
						<path id="Layer" class="s15" d="m957.2 407.9h-98.8q0-0.1 0-0.3 0-0.1 0-0.3 0-0.1 0-0.3 0-0.1 0-0.2 0-0.2 0-0.3 0-0.2 0-0.3 0-0.2 0-0.3c0-0.1-1.4-0.5-1.4-0.6h100.5c-0.1 0.1-0.5 0.5-0.5 0.6-0.1 0.1-0.1 0.2-0.2 0.3 0 0.1-0.1 0.2-0.1 0.3q0 0.1 0 0.3c0 0.1 0 0.2 0 0.4 0 0.1 0.1 0.2 0.1 0.3 0 0.1 0.1 0.2 0.2 0.3 0.1 0.1 0.1 0 0.2 0.1z"/>
						<path id="Layer" fill-rule="evenodd" class="s15" d="m1065.3 405.3q0 0.1 0 0.3 0 0.1 0 0.3 0 0.1 0 0.3 0 0.1 0 0.3 0 0.1 0 0.3 0 0.1 0 0.2 0 0.2 0 0.3 0 0.2 0 0.3c0.2 8.7-2.2 17.1-6.7 24.9-4.6 7.9-11.5 15-20.1 21.2-8.7 6.2-19.1 11.4-30.8 15.1-11.8 3.9-24.8 6.3-38.6 7.1-0.8 0-1.6 0.1-2.3 0.1-0.8 0-1.6 0.1-2.4 0.1q-1.1 0-2.3 0-1.1 0-2.3 0-1.2 0-2.3 0-1.2 0-2.3 0c-0.8 0-1.6 0-2.3-0.1-0.8 0-1.6-0.1-2.4-0.1-13.8-0.8-26.8-3.3-38.6-7.1-11.7-3.8-22.2-8.9-30.8-15.1-8.6-6.2-15.4-13.3-20.1-21.2-4.5-7.7-6.9-16.1-6.7-24.9q0-0.1 0-0.3 0-0.1 0-0.3 0-0.1 0-0.2 0-0.2 0-0.3 0-0.2 0-0.3 0-0.2 0-0.3 0-0.2 0-0.3 0-0.2 0-0.3c0.6-8.5 3.8-16.6 9-23.9 5.2-7.3 12.2-14 20.7-19.5 8.5-5.7 18.4-10.3 29.5-13.7 11-3.3 23-5.7 35.7-6.4 0.9-0.1 1.7-0.1 2.6-0.1 0.9 0 1.7-0.1 2.6-0.1 0.9 0 1.7 0 2.6-0.1 0.9-0.1 1.7 0 2.6 0q1.3 0 2.6 0c0.9 0 1.8 0 2.6 0.1 0.9 0 1.8 0.1 2.6 0.1 0.9 0 1.8 0.1 2.6 0.1 12.8 0.7 24.8 3 35.8 6.4 11 3.5 21 8.1 29.4 13.7 8.5 5.5 15.7 12.1 20.7 19.5 5.5 7.3 8.7 15.4 9.4 23.9zm-3.9 2.6q0-0.1 0-0.3 0-0.1 0-0.3 0-0.1 0-0.3 0-0.1 0-0.2 0-0.2 0-0.3 0-0.2 0-0.3 0-0.2 0-0.3 0-0.2 0-0.3c-0.7-8.8-4.2-17-9.7-24.4-5.5-7.4-13.1-14-22.3-19.5-9-5.5-19.8-9.9-31.5-12.9-11.7-3-24.6-4.6-37.9-4.6-13.3 0-26.2 1.6-37.9 4.6-11.7 3-22.4 7.4-31.5 12.9-9.2 5.5-16.8 12-22.3 19.5-5.5 7.4-9 15.6-9.7 24.4q0 0.1 0 0.3 0 0.1 0 0.3 0 0.1 0 0.3 0 0.1 0 0.3 0 0.1 0 0.2 0 0.2 0 0.3 0 0.2 0 0.3 0 0.2 0 0.3c-0.2 8.9 2.4 17.4 7.3 25.1 5 7.8 12.3 15 21.4 21 9.2 6.1 20.2 10.9 32.5 14.4 12.4 3.3 26 5.3 40.3 5.3 14.3 0 27.9-2 40.3-5.3 12.2-3.4 23.3-8.3 32.5-14.4 9.2-6 16.4-13.2 21.3-21 4.8-7.7 7.4-16.2 7.2-25.1z"/>
						<path id="Layer" class="s15" d="m487.4 864.8h-5l152.9-770.5h3.6l-7.8 38.5-8.9 45.3-9.9 51-10.6 54.1-11.5 58.6-12.6 63.5h276.9l1 2.6h-278.4l-13.4 68.3-14.1 72-14.9 75.7-16 81.5-16.1 82.2z"/>
						<path id="Layer" fill-rule="evenodd" class="s15" d="m1434.8 864.7h2.5l3 15.1h-19.1l-0.4-2c0-0.2-0.1-0.3-0.1-0.5 0-0.2 0-0.3-0.1-0.5-0.1-0.2 0-0.3 0-0.5 0-0.2 0-0.3 0-0.5 0-0.6 0.1-1.3 0.2-2 0.1-0.7 0.4-1.2 0.6-1.9 0.3-0.6 0.6-1.2 1-1.7 0.4-0.6 0.9-1.1 1.5-1.6 0.5-0.5 1.1-1 1.7-1.3 0.6-0.4 1.3-0.8 2.1-1.1 0.6-0.3 1.4-0.6 2.2-0.8 0.7-0.2 1.6-0.4 2.4-0.5 0.2 0 0.4 0 0.6-0.1q0.3 0 0.5 0 0.3 0 0.6 0c0.4-0.1 0.6-0.1 0.8-0.1zm-0.4 11.1l-1.3-6.9c-0.5 0.1-1 0.2-1.5 0.4-0.5 0.2-1 0.3-1.3 0.6-0.4 0.3-0.9 0.4-1.3 0.6-0.4 0.3-0.8 0.6-1.1 0.9-0.2 0.3-0.5 0.7-0.8 1-0.3 0.4-0.5 0.6-0.7 1-0.2 0.4-0.3 0.8-0.5 1.2-0.1 0.4-0.2 0.8-0.2 1.2z"/>
					</g>
				</g>
			</g>
		</g>
	</g>
	<g id="Layer_x0020_1" style="opacity: .1">
		<path id="Layer" fill-rule="evenodd" class="s16" d="m784.7 357.9h80.9c7.4 0 13.5 4.5 13.5 10.3v88.9c0 5.6-6.1 10.3-13.5 10.3h-80.9c-7.4 0-13.5-4.5-13.5-10.3v-88.9c0-5.8 6.1-10.3 13.5-10.3z"/>
		<path id="Layer" fill-rule="evenodd" class="s17" d="m821.4 367.4c20.3 0 36.8 16.2 37.1 36.3 0 0.2 0 0.2 0.2 0.3 0 2.4 0 4.7 0.2 6.9 2.7 4.8 4.8 8.4 7.6 13 1.3 1.8 1 3.4-0.6 4-2.1 1-5.8-0.3-7.1 1.3 0 6.9 0 11.3 0 18-0.3 5.8-1.9 6.3-6.9 7.1-5.9 0-11.9 0-17.7 0v12.9h-36.5c-0.2-11.6-0.3-23-0.5-34.4 0.2-0.2 0.2-0.2 0.2-0.2-8-6.9-13-16.9-13-28.3 0-20.4 16.5-37.1 37-36.9z"/>
		<text id="MORABI" style="transform: matrix(1,0,0,1,883.496,412.038)" >
			<tspan x="0" y="0" class="t18">M</tspan><tspan  y="0" class="t18">O</tspan><tspan  y="0" class="t18">R</tspan><tspan  y="0" class="t18">A</tspan><tspan  y="0" class="t18">B</tspan><tspan  y="0" class="t18">I
</tspan>
		</text>
		<text id="MODERN" style="transform: matrix(1,0,0,1,883.327,462.272)" >
			<tspan x="0" y="0" class="t18" dx="0" >M</tspan><tspan  y="0" class="t18" dx="0" >O</tspan><tspan  y="0" class="t18" dx="0 -1 -1 -1 -1" >DERN
</tspan>
		</text>
		<path id="Layer" class="s19" d="m834.1 397.6v15l-11.9 6.7-12.1-6.6v-0.9-14l11.6-6.9z"/>
		<path id="Layer" fill-rule="evenodd" class="s19" d="m833.7 369.5l-9 5.6c-1.4 0.8-3.5 1-4.7 0.2l-9.8-6.1c3.5-1.1 7.2-1.8 11.1-1.8 4.4 0 8.6 0.6 12.4 2.1z"/>
		<path id="Layer" fill-rule="evenodd" class="s19" d="m796.6 376.9l0.6 10.5c0.2 1.6-1 3.5-2.1 4.2l-10.1 5.8c0.8-3.7 2.1-7.2 3.9-10.6 1.9-4 4.6-7.4 7.7-9.9z"/>
		<path id="Layer" fill-rule="evenodd" class="s19" d="m846.3 376.9l-0.6 10.5c-0.2 1.6 1 3.5 2.1 4.2l10.1 5.8c-0.8-3.7-2.1-7.2-3.9-10.6-1.9-4-4.7-7.4-7.7-9.9z"/>
		<path id="Layer" fill-rule="evenodd" class="s19" d="m785.2 412.7l9.5 4.7c1.4 0.8 2.6 2.4 2.6 3.9v11.6c-2.9-2.4-5.3-5.3-7.4-8.5-2.5-3.8-3.9-7.7-4.7-11.7z"/>
	</g>
</svg>