<svg version="1.2" xmlns="http://www.w3.org/2000/svg" viewBox="0 0 1920 1040" width="1920" height="1040">
	<title>pitch-blank-svg</title>
	<style>
		tspan { white-space:pre } 
		.s0 { fill: #90bf64 } 
		.s1 { fill: #8b8b8b } 
		.s2 { fill: #909090 } 
		.s3 { fill: #878787 } 
		.s4 { fill: #838383 } 
		.s5 { fill: #7f7f7f } 
		.s6 { fill: #858585 } 
		.s7 { fill: #7b7b7b } 
		.s8 { fill: #777777 } 
		.s9 { fill: #737373 } 
		.s10 { fill: #6f6f6f } 
		.s11 { fill: #6b6b6b } 
		.s12 { fill: #bbbbbb } 
		.s13 { fill: #169d80 } 
		.s14 { fill: #fefefe } 
		.t15 { font-size: 54px;fill: #000000;font-weight: 400;font-family: "IBMPlexSerif-Regular", "IBM Plex Serif" } 
		.s16 { fill: #2b2a29 } 
	</style>
	<g id="Layer">
		<path id="Layer" class="s0" d="m61.5 794.5c-11.6 24 8.5 29.3 20 29h1750l10.5-0.5c20.8-3.2 22-14.7 20-20-78.8-198-237.5-596.7-241.5-607.5-4-10.8-19.3-13.5-26.5-13.5h-1258.5c-23.2-1.6-33 6.7-35 11z"/>
		<path id="Layer" class="s1" d="m1862.8 811.6l-10.7 33.4c-0.2 0.3-0.3 0.7-0.4 1-0.2 0.2-0.3 0.7-0.4 0.9-0.2 0.3-0.3 0.7-0.6 1-0.1 0.2-0.4 0.5-0.5 0.8l10.7-33.4c0.1-0.3 0.4-0.6 0.5-0.8 0.1-0.3 0.4-0.6 0.6-1 0.1-0.4 0.2-0.7 0.4-0.9 0.1-0.4 0.2-0.7 0.4-1z"/>
		<path id="Layer" class="s2" d="m1860.9 815.3l-10.7 33.4c-0.4 0.7-1 1.2-1.5 1.7-0.6 0.6-1.1 1.1-1.8 1.7-0.6 0.5-1.3 0.9-2 1.5-0.7 0.4-1.5 0.8-2.3 1.2l10.6-33.4c0.8-0.5 1.6-0.9 2.3-1.3 0.6-0.4 1.3-0.9 2-1.5 0.7-0.5 1.2-1 1.7-1.6 0.9-0.5 1.3-1.1 1.7-1.7z"/>
		<path id="Layer" class="s1" d="m1853.3 821.4l-10.6 33.4c-0.4 0.1-0.6 0.2-1 0.5q-0.7 0.2-1.3 0.4-0.6 0.2-1.2 0.4-0.6 0.2-1.2 0.4l10.6-33.4c0.4-0.1 0.8-0.3 1.3-0.4q0.6-0.2 1.2-0.4 0.6-0.2 1.2-0.4c0.3-0.3 0.6-0.4 1-0.5z"/>
		<path id="Layer" class="s3" d="m1848.6 823.1l-10.5 33.4c-0.3 0.1-0.8 0-1.2 0.2-0.2 0.1-0.6 0.1-0.9 0.1-0.3 0-0.7 0.1-1 0.1-0.2 0-0.7 0.2-0.9 0.2l10.5-33.4c0.3 0 0.7-0.2 1-0.2 0.3 0 0.7-0.1 0.9-0.1 0.3 0 0.7-0.2 1-0.2 0.4-0.1 0.9 0 1.1-0.1z"/>
		<path id="Layer" class="s4" d="m1844.6 823.7l-10.5 33.4c-0.3 0-0.6 0.1-0.8 0.1-0.3 0-0.6 0-0.8 0.1q-0.4 0-0.8 0c-0.3 0-0.6 0-1 0l10.4-33.4c0.3 0 0.6 0 1 0 0.4 0 0.5 0 0.9 0 0.4 0 0.6 0 0.8-0.1 0.3 0 0.6 0 0.8-0.1z"/>
		<path id="Layer" class="s5" d="m1841.1 824.1l-10.4 33.4q-0.2 0-0.4 0-0.2 0-0.4 0-0.2 0-0.4 0-0.2 0-0.4 0l10.4-33.4q0.2 0 0.4 0 0.2 0 0.4 0 0.2 0 0.4 0 0.2 0 0.4 0z"/>
		<path id="Layer" class="s6" d="m1839.5 824.1l-10.4 33.4h-1737.9l-10.5-33.4z"/>
		<path id="Layer" class="s5" d="m80.7 824.1l10.5 33.4q-0.2 0-0.4 0-0.2 0-0.4 0-0.2 0-0.5 0c-0.1 0-0.6 0-0.7 0l-10.5-33.4c0.2 0 0.7 0 0.8 0q0.2 0 0.4 0 0.2 0 0.4 0 0.2 0 0.4 0z"/>
		<path id="Layer" class="s7" d="m78.9 824.1l10.4 33.4q-0.4 0-0.8 0-0.9 0-1.7-0.2l-0.8-0.1-10.5-33.4z"/>
		<path id="Layer" class="s8" d="m75.6 823.8l10.6 33.4c-0.3 0-0.6-0.1-0.9-0.1-0.2 0-0.5-0.2-0.8-0.2-0.2 0-0.5-0.1-0.8-0.1-0.2 0-0.5-0.1-0.8-0.1l-10.5-33.5c0.2 0 0.5 0.2 0.8 0.2 0.2 0 0.5 0.1 0.8 0.1 0.3 0 0.5 0.2 0.8 0.2 0.3 0 0.5 0 0.8 0.1z"/>
		<path id="Layer" class="s9" d="m72.5 823.3l10.5 33.4c-0.2 0-0.5-0.2-0.8-0.2-0.2-0.1-0.5-0.1-0.8-0.2-0.2-0.2-0.5-0.2-0.8-0.3-0.3-0.1-0.6-0.1-0.8-0.3l-10.6-33.4c0.3 0.1 0.6 0.1 0.9 0.3 0.2 0.1 0.5 0.1 0.8 0.2 0.2 0.2 0.5 0.2 0.8 0.3 0.1 0 0.5 0.2 0.8 0.2z"/>
		<path id="Layer" class="s10" d="m69.2 822.4l10.6 33.4c-0.3-0.2-0.7-0.3-0.9-0.4-0.3-0.2-0.6-0.3-1-0.4q-0.4-0.2-0.8-0.4c-0.3-0.2-0.7-0.3-1-0.4l-10.5-33.5c0.3 0.2 0.7 0.3 0.9 0.4q0.4 0.2 0.9 0.5c0.2 0.1 0.5 0.2 0.9 0.4 0.3 0.1 0.5 0.2 0.9 0.4z"/>
		<path id="Layer" class="s11" d="m65.6 820.7l10.5 33.4c-1-0.5-2-1.2-2.8-1.9-0.8-0.7-1.6-1.4-2.3-2.2-0.7-0.8-1.2-1.6-1.8-2.4-0.5-0.8-0.9-1.8-1.2-2.7l-10.7-33.4c0.3 0.9 0.7 1.9 1.3 2.7 0.5 0.8 1 1.6 1.7 2.4 0.7 0.8 1.5 1.5 2.3 2.2 1.1 0.8 2 1.3 3 1.9z"/>
		<path id="Layer" fill-rule="evenodd" class="s12" d="m1593 181.6c3.1 0 6.2 0.2 9.2 0.9 3 0.6 5.8 1.5 8.3 2.6 2.5 1.1 4.7 2.4 6.4 3.8 1.8 1.5 3 3.1 3.7 4.7l241.5 607.5c1.2 3.1 1.5 6 1.1 8.9-0.6 2.7-1.9 5.3-4 7.3-2 2-4.8 3.8-8.1 5-3.4 1.2-7.3 1.8-11.6 1.8h-1758.8c-4.3 0-8.2-0.7-11.6-1.8-3.4-1.2-6.1-2.8-8.1-5-2-2-3.4-4.6-3.9-7.3-0.6-2.7-0.3-5.7 1.1-8.9l241.4-607.5c0.7-1.6 1.9-3.2 3.7-4.7 1.8-1.5 3.9-2.7 6.5-3.8 2.4-1.1 5.3-2 8.2-2.6 3-0.5 6.1-0.9 9.2-0.9zm267.4 619.5l-241.1-607.5c-0.7-1.6-1.9-3.1-3.5-4.4q-2.5-2.1-6.1-3.7c-2.3-1.1-5-1.9-7.9-2.4-2.8-0.6-5.8-1-8.8-1h-1266c-3 0-5.9 0.3-8.8 1q-4.2 0.8-7.8 2.4c-2.3 1.1-4.5 2.3-6.1 3.7-1.6 1.3-2.9 2.8-3.5 4.4l-241.1 607.5c-1.1 2.7-1.4 5.4-1.1 7.8 0.4 2.4 1.4 4.7 3 6.6 1.6 1.9 3.9 3.6 6.6 4.8 2.7 1.2 6 2 9.6 2.3l1760.9 0.1c4.5-0.3 8.3-1.2 11.5-2.4 3.3-1.2 5.7-2.6 7.6-4.5 1.9-1.9 3.2-4.3 3.6-6.7 0.7-2.5 0.1-5.2-1-8z"/>
	</g>
	<g id="Layer_x0020_1" style="opacity: .1">
		<path id="Layer" fill-rule="evenodd" class="s13" d="m784.7 407.9h80.9c7.4 0 13.5 4.5 13.5 10.3v88.9c0 5.6-6.1 10.3-13.5 10.3h-80.9c-7.4 0-13.5-4.5-13.5-10.3v-88.9c0-5.8 6.1-10.3 13.5-10.3z"/>
		<path id="Layer" fill-rule="evenodd" class="s14" d="m821.4 417.4c20.3 0 36.8 16.2 37.1 36.3 0 0.2 0 0.2 0.2 0.3 0 2.4 0 4.7 0.2 6.9 2.7 4.8 4.8 8.4 7.6 13 1.3 1.8 1 3.4-0.6 4-2.1 1-5.8-0.3-7.1 1.3 0 6.9 0 11.3 0 18-0.3 5.8-1.9 6.3-6.9 7.1-5.9 0-11.9 0-17.7 0v12.9h-36.5c-0.2-11.6-0.3-23-0.5-34.4 0.2-0.2 0.2-0.2 0.2-0.2-8-6.9-13-16.9-13-28.3 0-20.4 16.5-37.1 37-36.9z"/>
		<text id="MORABI" style="transform: matrix(1,0,0,1,883.496,462.038)" >
			<tspan x="0" y="0" class="t15">M</tspan><tspan  y="0" class="t15">O</tspan><tspan  y="0" class="t15">R</tspan><tspan  y="0" class="t15">A</tspan><tspan  y="0" class="t15">B</tspan><tspan  y="0" class="t15">I
</tspan>
		</text>
		<text id="MODERN" style="transform: matrix(1,0,0,1,883.327,512.272)" >
			<tspan x="0" y="0" class="t15" dx="0" >M</tspan><tspan  y="0" class="t15" dx="0" >O</tspan><tspan  y="0" class="t15" dx="0 -1 -1 -1 -1" >DERN
</tspan>
		</text>
		<path id="Layer" class="s16" d="m834.1 447.6v15l-11.9 6.7-12.1-6.6v-0.9-14l11.6-6.9z"/>
		<path id="Layer" fill-rule="evenodd" class="s16" d="m833.7 419.5l-9 5.6c-1.4 0.8-3.5 1-4.7 0.2l-9.8-6.1c3.5-1.1 7.2-1.8 11.1-1.8 4.4 0 8.6 0.6 12.4 2.1z"/>
		<path id="Layer" fill-rule="evenodd" class="s16" d="m796.6 426.9l0.6 10.5c0.2 1.6-1 3.5-2.1 4.2l-10.1 5.8c0.8-3.7 2.1-7.2 3.9-10.6 1.9-4 4.6-7.4 7.7-9.9z"/>
		<path id="Layer" fill-rule="evenodd" class="s16" d="m846.3 426.9l-0.6 10.5c-0.2 1.6 1 3.5 2.1 4.2l10.1 5.8c-0.8-3.7-2.1-7.2-3.9-10.6-1.9-4-4.7-7.4-7.7-9.9z"/>
		<path id="Layer" fill-rule="evenodd" class="s16" d="m785.2 462.7l9.5 4.7c1.4 0.8 2.6 2.4 2.6 3.9v11.6c-2.9-2.4-5.3-5.3-7.4-8.5-2.5-3.8-3.9-7.7-4.7-11.7z"/>
	</g>
</svg>