<svg width="16" height="45" viewBox="0 0 136 415" fill="none" xmlns="http://www.w3.org/2000/svg">
<g clip-path="url(#clip0)">
<path d="M62.2517 0.671136C57.802 1.10434 57.487 1.22245 54.3367 3.54575C51.3439 5.71157 50.517 7.01105 48.745 12.4453C47.6818 15.7136 47.6424 15.9499 47.8787 22.1717C48.0756 28.2753 48.0756 28.5903 47.3274 29.1022C46.0673 29.9292 46.2248 34.4971 47.6818 39.3406C49.0206 43.8297 49.8082 45.1686 51.0683 45.1686C51.7377 45.1686 52.1315 45.5623 52.6434 46.7043C53.6279 48.7914 53.431 59.6598 52.4072 61.5499C51.5408 63.125 49.4932 64.3064 32.4818 73.1271L18.5813 80.3333L17.0061 83.4048C15.9823 85.4919 15.3522 87.4214 15.0766 89.2722C14.8403 90.808 13.8165 95.5727 12.7139 99.8256C11.0994 106.362 10.7056 108.607 10.3512 113.687C10.1149 117.034 9.52426 123.256 8.97296 127.469C7.83099 136.92 7.31907 146.134 7.94913 146.528C8.1854 146.686 9.60301 146.922 11.06 147.04L13.7771 147.276L11.6507 155.782C9.72115 163.461 9.48488 165.036 8.97296 171.967C8.69731 176.18 8.06726 181.654 7.6341 184.095C7.20094 186.536 6.57089 191.026 6.21648 194.136C5.58643 199.649 2.67244 217.685 2.23928 218.827C2.08177 219.142 1.8455 222.331 1.68799 225.915C1.49109 229.498 1.13669 233.397 0.861043 234.578C0.152235 237.925 0.624773 244.816 1.8455 247.848C3.81441 252.849 5.90146 256.118 8.42167 258.047C12.0051 260.804 14.9191 261.355 16.1004 259.544C16.7305 258.599 16.7305 258.441 16.1004 257.181L15.4704 255.803L16.8486 256.078C18.0693 256.275 18.2662 256.197 18.6206 255.251C19.2507 253.637 19.0932 252.377 18.2268 251.786C17.3999 251.235 17.3999 251.196 18.4631 250.959C19.0144 250.802 19.5657 250.762 19.6445 250.841C19.7232 250.92 19.5263 253.007 19.2113 255.448C18.8175 258.559 18.6206 263.482 18.6206 271.633V283.368L20.432 284.746C21.4165 285.494 23.5823 286.557 25.2756 287.148L28.3471 288.172L28.5833 292.464C28.7802 296.599 28.7408 297.071 27.087 303.765C26.1419 307.625 24.8424 313.807 24.1336 317.508L22.8735 324.203L24.0942 330.897C25.1574 336.843 26.3388 345.9 27.087 354.288C27.2838 356.493 27.6776 357.753 28.5046 359.289C29.4103 360.864 29.9616 362.912 31.0642 368.779L32.4424 376.221L28.1502 384.845C25.7875 389.571 23.4248 394.257 22.9129 395.241C22.1253 396.737 21.9678 397.722 21.8496 401.739C21.6921 406.228 21.7315 406.621 22.6766 408.472C24.1336 411.307 27.0476 413.906 29.5284 414.497C31.3004 414.93 31.8517 414.891 34.2144 414.182C35.7108 413.749 38.0735 412.686 39.4911 411.859C41.7357 410.559 42.2476 410.047 43.7439 407.409C44.9647 405.243 45.5553 403.55 45.9885 401.305C46.3429 399.179 47.0911 397.092 48.3118 394.65C49.6113 392.17 50.3989 389.925 50.9502 387.169L51.7771 383.231L50.5564 376.733C49.887 373.15 48.9025 368.109 48.3906 365.511L47.4455 360.785L48.1937 353.5C48.7844 348.223 49.4538 344.325 50.7139 339.324C51.659 335.544 52.8009 330.267 53.2735 327.668C54.1004 323.021 54.1398 322.746 53.5097 317.981C52.9978 314.083 52.9585 312.153 53.2735 308.097C53.4704 305.301 53.746 302.899 53.8642 302.702C53.9823 302.545 54.2579 301.009 54.4942 299.316C54.7305 297.622 55.3211 295.417 55.8724 294.315C56.7388 292.621 56.8175 292.109 56.5813 289.786L56.345 287.148L59.1802 285.77C60.716 285.021 62.173 284.194 62.3699 283.958C62.9605 283.249 64.9688 271.554 66.2683 261.158C67.489 251.235 68.1191 247.179 68.3553 246.903C68.4341 246.825 68.631 250.369 68.7885 254.74C68.946 259.15 69.6154 267.262 70.2455 272.775L71.4269 282.816L73.8683 285.297C75.2859 286.793 77.1367 288.172 78.2787 288.684L80.2476 289.589L82.1377 297.426C84.1854 306.049 84.3823 308.806 83.5553 316.445C83.1616 320.029 83.2403 321.171 84.146 327.904C85.0123 334.126 85.4849 336.174 86.9419 340.308C88.4383 344.522 88.832 346.255 89.659 352.791C90.1709 356.965 90.7222 362.36 90.8403 364.762L91.0766 369.094L89.3046 374.568C87.7688 379.293 87.5326 380.514 87.5326 383.349C87.5326 388.35 88.2807 390.358 91.116 393.075L93.518 395.359L94.4631 399.73C95.8414 406.031 96.0383 406.582 97.7709 409.299C99.7004 412.331 101.63 413.434 106.631 414.34C111.593 415.285 113.798 414.812 116.357 412.292C117.854 410.796 118.444 409.85 119.271 407.33C120.295 404.298 120.295 404.18 119.705 401.817C118.878 398.588 115.806 391.579 114.113 389.098C112.498 386.735 111.041 382.719 110.372 378.663C110.096 377.048 109.584 374.961 109.191 373.977C108.561 372.323 108.521 371.772 109.033 366.298C109.348 363.03 109.821 359.249 110.175 357.832C110.49 356.414 110.844 353.579 110.963 351.531C111.12 349.484 111.75 344.679 112.38 340.82C114.349 329.007 113.68 318.139 110.333 307.625C108.836 302.978 108.639 301.954 108.364 296.638C108.206 293.448 107.97 290.692 107.812 290.574C107.694 290.456 110.648 289.274 114.389 287.975L121.201 285.573L121.319 283.722C121.398 282.698 121.083 279.863 120.65 277.421C119.665 272.145 117.854 258.992 117.854 257.417C117.854 256.393 117.972 256.315 120.138 256.039C124.351 255.527 129.628 251.55 131.833 247.218C134.944 240.997 136.362 231.979 135.023 226.86C134.511 224.891 134.471 223.631 134.786 219.378C135.18 213.865 134.865 209.14 133.605 201.5C133.172 199.019 132.463 191.222 132.03 184.174C130.967 167.162 130.022 159.562 128.289 154.049C126.99 149.836 126.123 145.701 126.123 143.496C126.123 142.59 126.281 142.433 127.305 142.433C128.683 142.433 131.557 141.094 131.872 140.306C131.991 139.991 131.361 135.03 130.494 129.202C129.589 123.374 128.525 115.144 128.092 110.93C127.423 104.748 126.871 101.637 125.178 94.982C123.997 90.4142 122.579 85.1769 122.028 83.2867L120.965 79.8608L115.964 76.238C110.726 72.4183 107.34 70.7644 95.2113 66.1966C92.6123 65.2121 89.1077 63.5976 87.4144 62.5737C83.9885 60.5261 83.9885 60.5261 83.2009 54.5012L82.7678 51.0359L84.2642 48.0038C85.1699 46.1924 86.43 44.3416 87.4538 43.3966L89.1471 41.8214L89.5802 37.4898C89.9346 33.9064 89.8952 32.7644 89.4227 30.8743C88.8714 28.7478 88.9108 28.1572 89.7771 22.2111C90.8797 14.7292 90.7616 12.7209 88.9895 9.25561C87.8476 7.01105 87.4538 6.61728 84.5792 4.92402C82.8465 3.90019 80.0113 2.52192 78.2787 1.85248C75.5222 0.749896 74.5377 0.592377 70.403 0.474261C67.8041 0.395502 64.1419 0.474261 62.2517 0.671136ZM77.1367 3.66391C78.6331 4.21518 81.3108 5.47531 83.0828 6.49914C85.7211 7.9955 86.43 8.62556 87.0994 10.0038C88.7139 13.3116 88.7927 14.6111 87.7294 21.7779C87.1781 25.4401 86.745 28.5509 86.745 28.7085C86.745 28.9054 86.5875 29.0235 86.3512 29.0235C86.1149 29.0235 85.9574 27.724 85.9574 25.9126C85.9574 22.0535 85.3274 17.2494 84.461 14.6898C83.831 12.839 83.5947 12.6028 80.0507 10.437C76.6642 8.3893 75.9947 8.15302 72.8838 7.71987C69.3004 7.28671 66.9771 7.48359 61.1885 8.82245C57.0538 9.76752 55.7149 10.6339 54.573 13.1934C52.8403 17.1313 51.659 21.266 51.1471 25.0857C50.9108 27.1333 50.5564 28.5903 50.3989 28.354C50.2414 28.0784 50.0051 25.3219 49.8476 22.2111C49.6507 17.0525 49.6901 16.3437 50.517 13.8235C52.289 8.3893 53.1553 6.89291 55.5574 5.1603C58.2745 3.19135 58.6683 3.07324 63.0393 2.64008C68.7097 2.08876 73.9864 2.48256 77.1367 3.66391ZM73.9471 9.96442C75.1284 10.1219 76.861 10.9095 78.9875 12.2484L82.2165 14.2567L82.9253 17.0131C83.2797 18.5489 83.7522 22.2504 83.9491 25.3219C84.1066 28.354 84.3823 31.0712 84.5398 31.3074C84.973 32.0162 85.8393 31.8587 86.4693 30.953C87.1388 30.0473 87.0994 30.0473 87.6901 32.6463C88.1232 34.5364 87.2175 40.9157 86.43 41.467C85.9574 41.8214 85.603 41.8214 85.288 41.5458C84.4217 40.837 83.4766 41.5064 83.7522 42.609C83.9491 43.3178 83.5947 44.4598 82.6496 46.468C81.0351 49.8546 80.7201 50.2484 78.6724 51.4297C77.8061 51.9416 76.546 52.8867 75.916 53.4774C74.6165 54.6981 71.8994 55.4069 68.631 55.4069C65.2445 55.4069 55.2424 49.6183 55.2424 47.6494C55.2424 47.3344 54.888 46.4287 54.4942 45.6017C54.061 44.7748 53.8248 43.7116 53.9429 43.2784C54.2186 42.1364 53.0766 41.7033 52.0921 42.609C51.4227 43.239 51.3439 43.239 50.9895 42.5302C50.0838 40.8763 48.5481 34.6152 48.5481 32.6857C48.5481 30.323 49.0206 30.0473 49.9263 31.78C50.517 32.8826 51.7771 33.3945 52.2496 32.6463C52.3678 32.4494 52.6434 30.3623 52.8797 27.9997C53.3522 23.1955 53.9035 20.9116 55.7149 16.068C57.1719 12.209 57.8414 11.6577 62.0942 10.752C68.7491 9.29499 68.946 9.29499 73.9471 9.96442ZM61.7004 55.1706C65.6382 57.2183 66.1895 57.3758 68.631 57.3758C72.687 57.3758 75.3253 56.7458 76.7035 55.4463C77.3336 54.8556 78.5543 53.9499 79.3419 53.4774C81.0351 52.4929 80.9958 52.4535 81.4683 56.5883C81.5864 58.0059 81.9802 59.9354 82.2559 60.9199C83.1222 63.8339 82.9647 64.7789 81.1533 67.181C80.2082 68.3623 79.3419 69.5043 79.2237 69.7012C79.1056 69.8587 77.2548 70.5675 75.089 71.1976L71.1906 72.3789L64.6932 71.9458C55.6756 71.3551 55.6362 71.3551 54.4154 69.6618C53.0766 67.7717 52.604 64.6214 53.5097 63.637C54.7305 62.2981 55.203 60.0142 55.2424 55.4463V50.9178L56.345 51.9416C56.9357 52.5323 59.3377 53.9893 61.7004 55.1706ZM87.0994 64.8577C88.1626 65.5271 91.9429 67.181 95.487 68.5592C107.97 73.4421 109.978 74.3872 114.389 77.6162C116.712 79.2701 118.759 80.8846 118.956 81.1209C119.468 81.7903 121.398 88.524 123.524 96.9509C124.863 102.306 125.493 105.969 126.123 111.875C126.596 116.168 127.62 124.122 128.447 129.517L129.904 139.322L128.88 139.873C128.25 140.188 124.706 140.7 120.374 141.055C116.279 141.409 111.829 141.842 110.49 142L108.009 142.275L107.97 133.809C107.93 129.123 107.812 123.807 107.694 121.956C107.458 118.963 107.34 118.609 106.631 118.609C105.843 118.609 105.843 118.845 105.962 132.588C106.08 143.732 105.962 147.709 105.45 152.277C104.977 156.215 104.741 161.886 104.701 170.509L104.623 183.032L103.441 184.016C98.5191 188.072 98.4009 188.151 92.888 189.529C89.1864 190.474 85.603 191.026 80.9564 191.459C74.7346 192.01 73.8683 191.971 66.0714 191.222C56.4631 190.277 43.6258 188.308 42.4445 187.6C34.0569 182.284 33.23 181.693 32.9937 180.63C32.8756 180.039 32.9543 177.361 33.23 174.684C34.2538 164.209 33.7813 134.282 32.3636 121.799C31.9699 117.94 31.8517 117.625 30.9854 117.625C30.0797 117.625 29.9616 118.491 30.3947 122.389C30.631 124.437 30.9854 129.438 31.1823 133.573C31.4186 137.668 31.6942 142.236 31.8123 143.654L32.0486 146.292L29.3709 146.568C27.0476 146.804 17.3211 145.937 10.8237 144.953L9.52426 144.756L9.76053 140.346C9.91804 137.904 10.43 132.47 10.9813 128.257C11.4932 124.043 12.0838 117.821 12.3201 114.474C12.6745 109.394 13.0683 107.15 14.6828 100.613C15.7854 96.3603 16.8092 91.5955 17.0455 90.0598C17.2818 88.2877 17.9512 86.2794 18.8175 84.5862L20.1564 81.8691L34.0569 74.7022C41.6963 70.725 48.5875 67.0629 49.4144 66.5903C50.9895 65.6059 51.3046 65.8028 51.3046 67.8898C51.3046 68.4805 51.974 69.8194 52.8403 70.9613C54.6517 73.3634 54.3761 73.2846 63.9056 73.954C71.2693 74.466 71.86 74.3872 76.5854 72.9696L80.0507 71.9064L82.4134 68.8743C83.9885 66.866 84.7761 65.4877 84.7761 64.7395C84.7761 64.1489 84.8548 63.6763 84.973 63.6763C85.0911 63.6763 86.0362 64.2276 87.0994 64.8577ZM123.918 143.693C124.036 144.205 124.312 145.937 124.548 147.552C124.784 149.166 125.572 152.435 126.32 154.837C128.053 160.35 128.958 167.911 130.061 184.961C130.494 192.01 131.203 199.807 131.636 202.327C132.936 209.888 133.172 214.416 132.66 221.032C132.424 224.182 132.503 225.521 133.014 227.529C134.747 234.184 131.361 246.628 126.832 250.369C124.194 252.574 121.792 253.755 119.547 254.07C117.657 254.306 117.46 254.267 117.46 253.598C117.46 252.968 117.893 252.771 119.941 252.456C121.989 252.141 122.382 251.983 122.382 251.314C122.382 250.605 122.107 250.526 119.823 250.526C117.46 250.526 117.263 250.447 117.145 249.62C117.027 248.833 117.145 248.754 118.129 248.951C118.72 249.108 119.744 249.384 120.335 249.62C121.91 250.25 123.249 249.502 124.154 247.455C125.651 244.186 124.824 236.389 122.855 235.208C122.264 234.854 121.989 234.972 121.358 235.72C120.807 236.429 120.61 237.256 120.61 239.185C120.61 242.611 119.941 245.052 118.72 245.998C117.184 247.258 116.357 247.021 115.885 245.21C115.334 243.123 115.885 239.855 117.342 236.626C117.696 235.799 118.051 233.2 118.248 229.616L118.563 223.946L120.413 221.268C121.989 218.945 122.304 218.157 122.619 215.637C123.249 210.715 122.737 206.777 120.532 199.571C119.468 196.027 117.775 191.065 116.83 188.545C115.846 186.025 113.758 178.74 112.144 172.36C109.506 161.807 109.191 160.192 108.836 154.64C108.6 151.293 108.324 147.631 108.206 146.489L108.009 144.441L109.269 144.205C110.648 143.969 120.847 142.945 122.658 142.866C123.485 142.827 123.8 143.023 123.918 143.693ZM22.3222 148.379C24.4486 148.615 27.3626 148.733 28.859 148.615L31.4973 148.379L31.773 153.144C32.1667 161.177 32.088 164.485 31.4579 164.485C31.1429 164.485 30.7885 164.642 30.6704 164.839C30.5522 165.036 29.6465 168.619 28.7015 172.833C26.6932 181.496 22.5585 193.664 19.2507 200.476C18.1087 202.878 16.4548 206.974 15.6673 209.573C14.2496 214.022 14.1709 214.613 14.1315 219.417C14.1315 224.025 14.2103 224.694 15.0372 226.269C15.8248 227.805 15.9823 228.75 16.1398 233.751C16.2973 237.531 16.5336 239.697 16.8486 240.091C17.4393 240.8 18.8569 244.186 19.1719 245.722C19.4082 246.785 18.8963 248.321 18.0693 248.833C17.8331 248.99 17.0849 248.675 16.4154 248.163C14.8009 246.903 9.36674 245.643 8.65793 246.352C7.94913 247.061 8.69731 247.927 11.5719 249.817C16.3367 252.928 17.2424 253.598 16.7699 253.755C16.5336 253.834 15.1947 253.44 13.8165 252.889C9.01234 250.841 8.34291 251.747 11.9263 255.488C14.289 258.008 14.8009 258.874 13.659 258.441C13.3046 258.323 12.832 258.205 12.5564 258.205C12.2807 258.205 11.1388 257.496 9.95742 256.63C7.67348 254.936 5.94084 252.219 3.97192 247.455C2.63306 244.147 2.12115 238.673 2.82995 235.365C3.1056 234.184 3.46001 230.286 3.6569 226.702C3.81441 223.119 4.05068 219.929 4.20819 219.614C4.64135 218.472 7.55534 200.476 8.1854 195.003C8.50042 191.971 9.20923 186.93 9.76053 183.78C10.2724 180.63 10.8237 175.511 10.9813 172.36C11.2175 167.359 11.4932 165.587 13.3833 157.79C14.5253 152.907 15.5885 148.615 15.7066 148.221C15.9035 147.631 16.2186 147.513 17.1636 147.709C17.8724 147.828 20.1564 148.103 22.3222 148.379ZM110.333 173.739C111.868 179.803 113.877 186.812 114.861 189.332C117.933 197.444 120.532 206.462 120.807 210.163C121.122 214.889 120.571 217.291 118.366 220.559L116.515 223.237L116.318 228.041C116.042 233.633 115.846 233.16 114.704 223.946C112.774 208.785 111.238 200.437 108.836 192.443L106.513 184.764L106.631 174.132C106.67 168.265 106.749 162.358 106.828 160.941L106.946 158.381L107.222 160.547C107.379 161.728 108.797 167.674 110.333 173.739ZM31.0248 178.543L30.946 185.158L29.5284 188.702C28.4652 191.341 27.5595 195.003 25.945 203.272C24.0942 212.644 23.661 215.637 23.1491 223.237C22.7947 228.159 22.0859 234.617 21.6134 237.61L20.7471 243.044L19.5263 240.485C18.4237 238.122 18.3056 237.531 18.1087 232.57C17.9512 228.002 17.7543 226.939 17.0061 225.482C16.2186 223.985 16.1004 223.198 16.1398 219.417C16.1398 215.519 16.2973 214.613 17.6362 210.36C18.4631 207.761 20.0776 203.666 21.259 201.225C23.9761 195.593 28.9377 181.417 30.1191 176.101C30.5916 173.817 31.0248 171.967 31.0642 171.967C31.1035 171.967 31.0642 174.92 31.0248 178.543ZM36.774 186.458C42.4445 190.12 42.0901 190.002 49.7688 191.222C53.746 191.853 60.8735 192.758 65.5989 193.231C73.8683 194.018 74.4984 194.058 81.2714 193.467C86.0756 193.034 89.8952 192.443 93.1636 191.656C99.1491 190.159 99.1098 190.199 102.024 187.757C103.638 186.418 104.544 185.906 104.662 186.221C104.741 186.497 105.804 189.923 106.985 193.821C109.269 201.185 110.805 209.494 112.735 224.733C113.168 228.317 113.798 232.688 114.113 234.499C114.546 236.941 114.546 238.043 114.231 238.831C113.522 240.642 113.601 245.998 114.389 247.533C114.861 248.4 115.215 250.565 115.491 254.031C115.964 259.977 117.578 272.263 118.681 278.248C119.823 284.47 120.335 283.683 113.404 286.006C99.3854 290.731 91.0372 290.889 79.0269 286.675C78.0818 286.321 76.546 285.218 75.4041 284.076L73.3958 282.029L72.2144 271.987C71.5844 266.474 70.9543 258.677 70.7968 254.661C70.5605 248.006 69.6548 238.437 69.1823 237.649C68.9066 237.216 67.9616 237.256 67.6859 237.689C67.3709 238.161 65.2838 252.259 64.1025 261.749C63.2756 268.522 61.7004 278.288 60.9522 281.714C60.716 282.698 56.6994 284.982 55.2818 284.982C54.8486 284.982 54.3761 285.179 54.2186 285.415C53.6673 286.321 48.9419 288.054 45.3191 288.684C39.4517 289.668 37.8372 289.55 32.9543 287.699C30.5916 286.793 27.4414 285.651 25.9056 285.14C24.4092 284.628 22.5978 283.801 21.889 283.289L20.5895 282.422V271.593C20.5895 261.946 20.7077 259.78 21.7315 251.707C22.4009 246.706 23.2673 240.445 23.7004 237.728C24.1336 235.011 24.7636 228.829 25.118 223.946C25.945 212.25 29.0952 195.515 31.7336 188.82C32.6393 186.458 33.5056 184.568 33.6237 184.568C33.7813 184.568 35.1989 185.434 36.774 186.458ZM122.422 246.155C122.107 246.943 121.555 247.573 121.24 247.573C120.453 247.573 120.413 247.021 121.162 246.431C121.752 245.919 122.54 243.202 122.658 241.193C122.697 240.485 122.776 240.997 122.855 242.335C122.973 243.871 122.815 245.249 122.422 246.155ZM54.573 289.983C54.7305 291.44 54.573 292.267 53.8642 293.685C53.3522 294.669 52.8009 296.441 52.6434 297.622C52.4072 299.394 52.0134 300.182 50.3595 302.23C48.4693 304.553 48.1937 304.75 45.1616 305.656C40.6724 307.034 36.8528 306.994 34.175 305.537C32.403 304.553 32.1667 304.277 31.5367 302.112C31.0642 300.536 30.7491 297.937 30.631 294.354L30.4341 288.999L33.4268 290.141C35.7502 291.046 37.0103 291.283 39.373 291.283C43.3108 291.283 49.375 290.219 51.8559 289.077C52.9585 288.605 53.9823 288.172 54.1004 288.172C54.2579 288.132 54.4548 288.959 54.573 289.983ZM93.3212 291.598C98.0465 291.716 99.8973 291.637 102.299 291.086C104.78 290.534 105.41 290.534 105.686 290.928C106.158 291.716 106.552 297.859 106.316 300.891C105.922 305.537 104.426 306.561 97.9678 306.601C94.2269 306.64 90.0134 305.774 87.2569 304.435L85.7605 303.687L84.3035 297.583C83.4766 294.236 82.7284 291.086 82.6103 290.653L82.4134 289.786L84.8942 290.574C86.745 291.204 88.7927 291.44 93.3212 291.598ZM33.1512 307.428C35.2776 308.491 35.9077 308.609 39.1761 308.609C44.1377 308.609 48.7844 307.231 50.3989 305.262L51.5015 303.923L51.1864 308.727C50.9502 312.311 51.0289 314.673 51.4621 318.139C52.0528 322.549 52.0134 322.982 51.2652 327.196C50.832 329.637 49.6901 334.756 48.745 338.536C47.4849 343.616 46.7761 347.475 46.1854 353.146L45.3585 360.864L46.3035 365.944C47.1305 370.157 47.2486 371.378 46.8942 373.189C46.2248 376.812 46.1854 376.891 42.6807 376.576C38.1129 376.221 34.3719 375.158 34.175 374.174C34.0569 373.741 33.4662 370.472 32.7968 366.928C31.8911 362.045 31.3398 359.998 30.4735 358.462C29.6465 357.044 29.2528 355.666 29.0952 353.697C28.2683 344.876 27.087 335.701 26.1025 330.346L24.9999 324.203L26.1419 318.06C26.7719 314.713 27.7564 309.948 28.3471 307.506L29.4496 303.017L30.1191 304.632C30.6704 305.931 31.2217 306.443 33.1512 307.428ZM110.766 319.162C111.868 327.156 111.79 331.685 110.411 340.033C109.781 343.892 109.151 348.696 108.994 350.744C108.876 352.791 108.521 355.627 108.206 357.044C107.891 358.462 107.379 362.321 107.064 365.668C106.434 372.244 106.277 372.638 103.363 374.449C100.449 376.221 94.0693 377.048 93.6756 375.631C93.203 373.859 93.0455 372.126 92.8486 366.101C92.7305 362.518 92.1792 356.178 91.6673 352.004C90.8009 345.546 90.4072 343.695 88.9108 339.521C87.4932 335.465 86.9813 333.339 86.1937 327.392C85.3274 321.249 85.2486 319.753 85.5636 316.878C85.7605 315.028 85.9574 311.877 85.9574 309.908V306.246L87.06 306.679C90.1709 307.94 93.8331 308.609 97.8103 308.609C102.811 308.609 105.725 307.861 106.71 306.364L107.419 305.301L108.679 309.357C109.427 311.68 110.293 315.855 110.766 319.162ZM107.576 375.631C107.812 376.34 108.206 378.151 108.442 379.687C109.112 383.585 110.529 387.562 112.144 389.886C113.758 392.248 116.515 398.391 117.46 401.739C118.129 404.062 118.129 404.141 117.184 406.858C115.452 411.977 112.853 413.394 107.222 412.371C102.536 411.465 100.961 410.559 99.2673 407.724C98.2041 405.952 97.574 404.219 97.0227 401.502C95.5263 394.335 95.5657 394.375 93.0455 392.17C91.1553 390.476 90.6434 389.768 90.1315 387.996C89.2258 384.924 89.3439 381.38 90.4465 377.954C91.3129 375.198 91.3916 375.079 91.6279 376.261C92.061 378.19 92.6517 378.427 96.6683 378.19C101.157 377.954 102.772 377.482 104.938 375.749C105.883 375.04 106.749 374.41 106.907 374.41C107.025 374.371 107.34 374.961 107.576 375.631ZM48.9025 386.775C48.43 388.98 47.4455 391.736 46.2248 394.257C44.9647 396.856 44.1771 398.943 44.0196 400.36C43.8621 401.699 43.1927 403.707 42.2082 405.716C40.7118 408.63 40.4362 408.984 38.231 410.165C36.9315 410.914 34.8445 411.78 33.6237 412.174C31.6942 412.764 31.1429 412.764 29.6859 412.331C27.5595 411.701 25.945 410.205 24.6455 407.645C23.7398 405.873 23.661 405.401 23.8186 401.699C23.9761 398.509 24.173 397.368 24.9211 395.989C25.3937 395.044 27.717 390.398 30.0797 385.672C34.8051 376.182 34.2144 376.773 37.4828 377.993C37.9947 378.19 40.3574 378.427 42.6807 378.584L46.9336 378.82L47.6424 377.6L48.3512 376.34L49.0206 379.805C49.6507 383.113 49.6507 383.388 48.9025 386.775Z" fill="black"/>
<path d="M67.2145 21.6983C67.057 22.0527 67.057 22.8402 67.1751 23.4309C67.4114 24.5335 66.8995 30.5977 66.23 34.89C65.7181 38.119 66.3088 38.9459 68.9865 38.7884C70.4829 38.6703 70.7979 38.5521 70.7979 37.8827C70.7979 37.292 70.4829 37.0558 69.4984 36.977L68.1989 36.8589L68.4352 34.4174C68.5534 33.0786 68.8684 30.204 69.0653 28.0381C69.5378 23.7065 69.2228 21.4226 68.1202 21.2257C67.7658 21.147 67.3326 21.3832 67.2145 21.6983Z" fill="black"/>
<path d="M59.2206 24.4169C57.2517 25.1257 56.7792 26.1102 57.9605 27.0947C59.0631 28.0004 61.1502 28.0791 62.7253 27.2522C64.3792 26.3858 64.3004 25.2045 62.5284 24.4563C60.9533 23.8263 60.9533 23.8263 59.2206 24.4169Z" fill="black"/>
<path d="M73.3583 24.8487C71.3894 25.5575 71.2712 26.8176 73.122 27.7233C74.264 28.2352 74.9334 28.314 76.7448 27.999C79.6588 27.5264 80.3282 26.6207 78.7531 25.2425C77.493 24.1793 75.6422 24.0218 73.3583 24.8487Z" fill="black"/>
<path d="M63.5898 43.2381C62.9991 43.435 62.7235 43.8681 62.8022 44.2619C62.9204 44.8526 63.5111 44.9313 68.2364 44.9707C73.2375 44.9707 73.5525 44.9313 73.5525 44.1831C73.5525 43.7106 73.1981 43.3168 72.568 43.1593C71.1111 42.7655 64.653 42.8049 63.5898 43.2381Z" fill="black"/>
<path d="M9.79911 235.444C9.68097 235.72 9.4447 236.547 9.20843 237.256C9.01154 237.964 8.69652 239.579 8.539 240.878L8.30273 243.202L10.4685 244.265C12.8312 245.446 13.8944 245.328 13.8944 243.95C13.8944 242.375 12.4768 237.019 11.768 235.996C11.0986 234.893 10.0354 234.657 9.79911 235.444ZM11.453 242.296C10.9805 242.729 10.4685 241.666 10.6654 240.682L10.9017 239.5L11.2167 240.839C11.4136 241.548 11.5317 242.217 11.453 242.296Z" fill="black"/>
<path d="M101.118 382.206C98.4012 383.348 97.5742 383.86 97.5742 384.451C97.5742 385.632 98.8737 385.553 102.339 384.175C105.804 382.797 106.671 382.206 106.316 381.3C105.962 380.395 105.095 380.552 101.118 382.206Z" fill="black"/>
<path d="M104.663 386.263C101.079 387.169 99.9373 387.641 99.8192 388.271C99.6223 389.295 100.725 389.492 103.206 388.98C106.514 388.232 108.089 387.484 107.931 386.657C107.774 385.869 106.789 385.751 104.663 386.263Z" fill="black"/>
<path d="M104.662 391.461C102.811 392.012 101.866 392.524 101.787 392.997C101.59 394.06 102.614 394.178 105.607 393.43C108.521 392.76 109.426 392.13 109.033 391.106C108.757 390.358 108.009 390.398 104.662 391.461Z" fill="black"/>
<path d="M33.7409 381.969C33.6228 382.324 33.6228 382.757 33.7409 382.993C34.0166 383.426 36.8518 384.096 39.9627 384.45C41.8922 384.647 42.286 384.608 42.4829 384.017C42.9555 382.836 42.7586 382.757 35.2767 381.576C34.3316 381.418 33.9378 381.536 33.7409 381.969Z" fill="black"/>
<path d="M32.5212 386.026C32.1274 387.01 32.8363 387.286 36.3409 387.443C39.2549 387.562 39.6881 387.483 39.8062 386.892C40.0031 385.908 38.428 385.396 35.3171 385.396C33.3876 385.396 32.7181 385.553 32.5212 386.026Z" fill="black"/>
<path d="M30.9458 390.397C30.552 391.42 31.9696 392.09 34.6473 392.169C36.0256 392.208 37.4432 392.247 37.837 392.247C38.6245 392.287 39.0183 390.593 38.2308 390.357C37.9551 390.278 36.2619 390.082 34.4505 389.963C31.694 389.767 31.1427 389.845 30.9458 390.397Z" fill="black"/>
<path d="M68.3275 2.3925C65.1413 2.48254 61.899 2.48941 58.7865 3.23964C56.598 4.18001 54.5156 5.60999 53.1217 7.5663C51.5791 10.1039 50.729 13.0114 49.8457 15.8135C49.8939 19.9441 49.7146 24.1109 50.2853 28.2115C50.5346 28.6358 50.7419 27.7633 50.7651 27.5898C51.6251 22.3518 52.6255 17.0167 55.1381 12.2836C56.3481 9.94469 59.15 9.41693 61.4655 8.82201C65.9662 7.71538 70.7291 7.03136 75.2875 8.22824C78.03 8.98474 80.4016 10.687 82.7166 12.2824C84.5234 13.5232 84.7138 15.9396 85.1638 17.8986C85.8413 21.5016 85.7887 25.1833 86.1585 28.8162C86.2599 29.2907 86.8122 29.0171 86.7326 28.6213C87.4575 23.8663 88.402 19.0999 88.4138 14.2747C88.3155 12.1045 87.3283 10.0035 85.9348 8.36616C83.2817 6.33575 80.2193 4.87506 77.1355 3.6187C74.319 2.64563 71.2927 2.36446 68.3275 2.3925Z" fill="black"/>
<path d="M69.4269 9.51175C66.1497 9.67765 62.9315 10.4807 59.7727 11.3239C57.9894 11.7493 56.7185 13.2316 56.133 14.9117C54.3665 19.0629 53.2093 23.4636 52.837 27.9648C52.5818 29.5512 52.6096 31.2288 52.0745 32.7493C51.3112 33.2984 50.3687 32.3986 49.992 31.7497C49.7277 31.3865 49.3635 30.4795 48.799 30.7589C48.2617 32.0398 48.6591 33.5307 48.7881 34.8682C49.3383 37.5593 49.8894 40.3135 51.0995 42.7965C51.4368 43.4593 52.1226 42.5636 52.5234 42.4168C53.1067 41.785 54.0908 42.4498 53.9189 43.219C53.8375 44.9464 54.9617 46.413 55.3201 48.0437C57.3693 50.6569 60.4579 52.189 63.3511 53.6832C65.628 54.8286 68.1615 55.8539 70.7595 55.3299C72.8835 55.1516 74.9826 54.4336 76.5833 52.9874C78.3755 51.568 80.738 50.5928 81.7047 48.3735C82.7031 46.4287 83.9311 44.4248 83.8283 42.158C83.7248 41.3588 84.6763 41.1571 85.2111 41.5545C85.9223 42.213 86.7266 41.3203 86.8906 40.6227C87.6919 37.8757 88.0044 34.9248 87.6086 32.0829C87.3849 31.6042 87.5181 30.7093 86.9675 30.4709C86.2941 30.7754 85.7804 32.0601 84.9035 31.5712C84.2699 30.9346 84.4679 29.8311 84.2765 29.0164C83.8962 24.0778 83.6268 19.0834 82.3145 14.2818C79.1501 12.2992 75.9527 9.8803 72.0748 9.67421C71.1965 9.56923 70.3125 9.49667 69.4269 9.51175H69.4269ZM67.9257 21.3366C69.0783 21.3876 69.0584 22.919 69.1311 23.7544C69.246 27.9914 68.4313 32.1861 68.2718 36.4058C68.2724 37.3066 69.4163 36.9365 69.9695 37.1223C70.7727 37.0767 71.0612 38.4376 70.1841 38.535C69.1112 38.6532 67.8747 38.9286 66.8764 38.4141C65.6873 37.5628 66.2591 35.8776 66.3154 34.6715C66.9532 30.5017 67.2524 26.2923 67.3086 22.0771C67.259 21.6189 67.4127 21.2931 67.9257 21.3366ZM60.934 24.0766C61.9871 24.1772 63.1724 24.638 63.7664 25.5523C64.0464 26.6069 62.7292 27.1506 61.9439 27.4633C60.5177 27.9063 58.5019 27.9352 57.5705 26.5704C57.0086 25.5313 58.3405 24.7844 59.1654 24.5124C59.7352 24.3093 60.3205 24.0769 60.934 24.0766ZM76.0222 24.5179C77.4169 24.3285 78.991 25.0391 79.4933 26.4031C79.6126 27.2776 78.4073 27.4793 77.8015 27.6975C75.9158 28.2331 73.4722 28.4906 72.0696 26.8078C71.3636 26.0224 72.4882 25.1809 73.2041 24.9825C74.1012 24.6427 75.0678 24.5222 76.0222 24.5179ZM68.5804 42.9326C70.066 43.0387 71.6889 42.865 73.065 43.5112C73.5244 43.8008 73.7346 44.7085 72.9725 44.7231C69.9255 44.9527 66.8392 44.9226 63.7879 44.7484C63.2821 44.7727 62.4715 44.2705 63.0202 43.7516C63.9407 42.8773 65.3964 43.1353 66.5621 42.965C67.2344 42.9359 67.9075 42.9262 68.5804 42.9326V42.9326Z" fill="#ffccaa"/>
<path d="M55.2776 50.9727C55.0656 54.5416 55.416 58.2146 54.4806 61.6975C54.1733 63.06 52.7651 64.0294 53.0313 65.532C53.1659 67.6307 54.0021 70.0453 55.9932 71.0468C58.7873 71.8016 61.737 71.7099 64.6021 72.007C67.6104 72.1047 70.7645 72.8622 73.6622 71.6844C75.4993 71.1278 77.3326 70.5519 79.1283 69.8729C80.4502 67.9251 82.4931 66.1966 82.8105 63.7426C82.6719 61.6182 81.8886 59.5835 81.6594 57.4622C81.3342 55.9982 81.4486 54.3764 80.7916 53.0131C80.2926 52.6541 79.6672 53.3488 79.1965 53.5302C77.2949 54.781 75.6194 56.5841 73.2521 56.9099C70.949 57.2517 68.5488 57.5112 66.2432 57.0791C63.5147 56.2198 61.0254 54.7316 58.5306 53.358C57.3537 52.6969 56.2997 51.8082 55.2776 50.9727Z" fill="#ffccaa"/>
<path d="M84.985 63.6748C84.5335 64.408 84.7494 65.4586 84.1803 66.1853C82.9808 68.1979 81.4396 69.9774 80.0391 71.8486C76.5098 72.8462 73.006 74.3922 69.2587 74.1179C64.8263 74.0004 60.3687 73.8133 55.9863 73.125C54.3864 72.9415 53.2712 71.6866 52.5016 70.3756C51.7673 69.3556 51.255 68.1632 51.309 66.89C51.344 66.3253 50.7948 65.6647 50.2475 66.189C43.28 69.6954 36.4464 73.4668 29.4895 76.9971C26.3973 78.5943 23.2985 80.1811 20.2076 81.7795C18.4468 84.8773 17.1279 88.2394 16.6559 91.786C15.1788 99.2976 12.6696 106.64 12.2758 114.335C11.5872 124.395 9.90211 134.368 9.49846 144.45C9.43849 145.148 10.5354 144.759 10.9073 145.004C17.1145 145.852 23.3673 146.687 29.6448 146.571C30.4411 146.52 31.2477 146.429 32.0295 146.321C31.4868 137.764 31.0275 129.2 30.3195 120.655C30.3803 119.755 30.0148 118.674 30.5107 117.869C31.1183 117.379 31.9525 118.081 31.8873 118.778C32.9578 126.383 33.2153 134.08 33.4831 141.75C33.7309 152.686 33.8957 163.645 33.1782 174.567C33.0552 176.665 32.7874 178.798 33.0521 180.89C33.7719 182.222 35.3041 182.87 36.4499 183.779C38.8903 185.255 41.131 187.208 43.893 188.06C50.3842 189.446 56.993 190.239 63.5852 190.986C68.3948 191.453 73.2203 192.166 78.0621 191.724C84.6606 191.327 91.2647 190.319 97.5394 188.197C100.229 186.963 102.386 184.861 104.687 183.053C104.84 173.868 104.633 164.668 105.214 155.495C105.719 150.684 106.013 145.854 105.984 141.014C106.093 133.786 105.911 126.55 106.168 119.328C106.027 118.567 107.241 118.484 107.291 119.195C107.903 124.279 107.823 129.425 107.941 134.54C107.976 137.152 107.934 139.787 107.98 142.385C114.564 141.446 121.244 141.258 127.815 140.199C128.517 139.99 129.596 139.881 129.873 139.088C128.506 129.362 127.029 119.648 125.927 109.885C125.349 104.485 124.166 99.182 122.784 93.9374C121.674 89.818 120.706 85.6382 119.222 81.6352C118.19 79.9553 116.276 79.0952 114.806 77.8575C108.448 73.0723 100.731 70.7453 93.4901 67.6807C90.585 66.5609 87.7715 65.2283 85.069 63.6888C85.0426 63.6793 85.0138 63.6659 84.985 63.6748V63.6748Z" fill="#16171c"/>
<path d="M122.598 142.819C117.752 143.217 112.892 143.619 108.088 144.387C107.78 144.852 108.214 145.859 108.147 146.53C108.642 151.562 108.739 156.647 109.601 161.636C111.228 169.321 113.182 176.943 115.461 184.462C117.92 192.378 121.222 200.092 122.555 208.314C122.828 211.752 123.034 215.376 121.824 218.667C120.997 220.625 119.506 222.251 118.52 224.082C118.173 228.175 118.288 232.351 117.312 236.361C116.278 239.184 115.225 242.211 115.861 245.256C115.94 246.106 116.715 247.217 117.664 246.68C119.661 245.888 120.311 243.632 120.488 241.687C120.822 239.842 120.459 237.841 121.2 236.092C121.516 235.608 122.132 234.671 122.776 235.243C124.476 236.769 124.56 239.286 124.748 241.407C124.781 243.984 125.012 247.06 123.027 249.038C121.871 250.313 120.085 249.442 118.727 249.066C118.203 248.924 117.652 248.803 117.119 248.779C117.047 249.418 117.058 250.439 117.94 250.461C119.311 250.727 120.843 250.255 122.128 250.866C122.654 251.371 121.982 252.145 121.361 252.101C120.129 252.47 118.715 252.464 117.587 253.087C117.292 253.497 117.373 254.417 118.076 254.213C121.372 254.284 124.282 252.401 126.773 250.442C129.684 247.891 131.058 244.076 132.169 240.476C133.47 235.879 134.003 230.948 132.818 226.266C132.295 221.777 133.232 217.264 132.898 212.762C132.611 206.545 131.203 200.446 130.816 194.236C129.802 182.916 129.549 171.506 127.675 160.278C126.829 155.683 125.148 151.282 124.466 146.648C124.131 145.467 124.307 144.037 123.532 143.023C123.276 142.805 122.914 142.812 122.598 142.819V142.819Z" fill="#ffccaa"/>
<path d="M16.3721 147.651C15.4238 147.636 15.6564 148.982 15.3417 149.56C13.9934 155.206 12.4309 160.815 11.468 166.543C10.8006 171.601 10.7878 176.726 9.97446 181.77C8.45069 191.556 7.42313 201.415 5.6867 211.17C5.04977 215.619 3.8213 219.989 3.7201 224.504C3.52691 228.524 3.1903 232.537 2.62586 236.521C2.33969 240.071 2.53889 243.708 3.83255 247.063C5.29106 250.984 7.26636 255.117 10.9722 257.372C11.9472 257.952 13.0448 258.589 14.2044 258.549C14.383 257.941 13.5466 257.45 13.296 256.961C12.1371 255.44 10.4402 254.217 9.76892 252.384C9.7275 251.652 10.7947 251.979 11.205 252.063C13.102 252.494 14.8506 253.56 16.788 253.778C17.0908 253.533 16.4405 253.147 16.2794 253.001C13.8391 251.098 10.997 249.68 8.78175 247.509C8.26212 247.066 8.57064 246.178 9.27094 246.24C12.2853 246.175 15.1131 247.472 17.7103 248.868C18.4871 248.974 18.8378 247.949 19.0851 247.375C19.5788 245.079 18.209 242.921 17.3429 240.891C16.1646 238.774 16.4466 236.29 16.2309 233.965C16.0539 231.022 16.1055 227.924 14.6572 225.255C14.0033 223.94 14.4874 222.385 14.339 220.964C14.3733 217.568 14.0706 214.054 15.3387 210.821C17.4145 203.779 21.0404 197.342 23.4316 190.416C26.341 182.588 28.3849 174.48 30.302 166.362C30.5539 165.728 30.5294 164.597 31.4371 164.544C32.2184 163.918 31.8654 162.682 31.9967 161.811C32.0135 157.37 31.8689 152.913 31.5495 148.492C27.0938 148.471 22.6106 148.622 18.2059 147.817C17.5969 147.746 16.9868 147.645 16.3721 147.651ZM10.3218 235.044C11.7444 235.256 12.1055 236.986 12.5377 238.119C13.1023 240.185 13.9252 242.323 13.7022 244.491C13.3462 245.345 12.2946 245.015 11.656 244.707C10.5276 244.25 9.4479 243.682 8.34711 243.163C8.65013 240.482 8.92754 237.707 10.0141 235.214C10.0761 235.098 10.19 235.039 10.3218 235.044Z" fill="#ffccaa"/>
<path d="M33.6712 184.561C32.6905 185.883 32.2519 187.581 31.6014 189.095C29.1499 195.91 27.8975 203.087 26.7246 210.213C25.4065 218.141 24.985 226.174 24.0789 234.15C23.091 242.795 21.3953 251.36 20.8274 260.05C20.5459 267.52 20.6549 275.004 20.5742 282.475C24.1095 284.97 28.4196 285.945 32.3859 287.532C35.4529 288.735 38.7444 289.729 42.0717 289.183C45.9993 288.676 50.0152 287.902 53.522 285.986C54.2659 285.341 55.152 284.933 56.1395 284.859C57.8854 284.238 59.6253 283.312 60.8674 281.914C61.7043 279.113 61.9752 276.157 62.4942 273.281C64.3374 261.571 65.5226 249.757 67.6522 238.094C67.7396 237.083 69.362 237.28 69.3122 238.264C70.7764 247.841 70.6133 257.573 71.6777 267.192C72.1633 272.171 72.7601 277.139 73.354 282.104C75.0447 283.771 76.701 285.648 78.9034 286.635C84.9597 288.859 91.4483 290.22 97.9216 289.589C104.545 289.057 110.923 286.967 117.141 284.738C118.07 284.345 119.47 283.898 119.351 282.636C119.126 279.259 118.223 275.963 117.823 272.603C116.679 265.271 115.942 257.885 115.145 250.51C114.858 248.291 113.844 246.219 113.861 243.949C113.692 241.924 113.948 239.898 114.465 237.946C114.47 235.006 113.69 232.122 113.39 229.205C111.691 216.938 110.441 204.51 106.666 192.657C105.972 190.482 105.443 188.206 104.598 186.106C103.553 186.291 102.779 187.241 101.908 187.799C100.219 189.278 98.2334 190.415 96.0186 190.868C88.598 192.798 80.9112 193.839 73.2378 193.724C64.0414 193.227 54.8883 192.034 45.81 190.501C42.8146 190.11 40.1343 188.641 37.6608 186.982C36.3201 186.215 35.0702 185.191 33.6712 184.561Z" fill="#ffffff"/>
<path d="M54.0238 288.147C48.7252 290.399 42.8907 291.535 37.1303 291.062C34.7866 290.83 32.6562 289.606 30.4277 289.06C30.4978 292.864 30.5672 296.696 31.13 300.466C31.4763 302.298 31.8853 304.533 33.7957 305.376C35.8134 306.541 38.189 306.853 40.4817 306.598C43.178 306.38 45.9049 305.723 48.2942 304.432C49.8419 303.219 50.9706 301.525 52.0265 299.885C52.8441 297.819 52.9669 295.539 53.9717 293.531C54.8469 291.971 54.6826 290.101 54.3181 288.424C54.2522 288.314 54.185 288.132 54.0238 288.147Z" fill="#ffccaa"/>
<path d="M82.4512 289.809C83.1107 293.346 84.1198 296.919 84.9299 300.465C85.1927 301.539 85.4404 302.62 85.7019 303.692C90.9035 306.523 97.1309 307.247 102.913 306.155C104.825 305.84 105.999 303.989 106.186 302.172C106.636 298.678 106.374 295.117 105.948 291.634C105.976 290.976 105.417 290.506 104.774 290.649C101.879 291.01 99.0099 291.707 96.0685 291.585C91.7705 291.484 87.3588 291.521 83.2683 290.012C82.9977 289.941 82.729 289.846 82.4512 289.809Z" fill="#ffccaa"/>
<path d="M29.4469 303.123C28.4857 305.976 28.0139 309.001 27.3311 311.939C26.493 316.058 25.6123 320.197 24.9727 324.336C26.8458 334.15 28.1173 344.065 29.0889 354.005C29.2414 356.937 31.1442 359.332 31.728 362.15C32.7165 366.053 33.1627 370.078 34.1573 373.976C34.5988 375.365 36.3335 375.414 37.5021 375.804C40.0872 376.386 42.7676 376.862 45.4199 376.618C46.8226 375.859 46.6857 373.978 47.0171 372.631C47.3752 369.756 46.405 366.923 46.0093 364.099C45.7151 362.409 45.1945 360.728 45.6064 359.011C46.3075 351.795 47.1731 344.57 49.0384 337.548C50.0514 332.931 51.342 328.342 51.8075 323.626C52.082 319.768 50.968 315.978 51.1564 312.116C51.1618 309.353 51.4124 306.551 51.5248 303.824C50.3379 305.505 48.6711 306.844 46.6649 307.389C43.0577 308.58 39.142 308.79 35.3972 308.257C33.5863 307.703 31.647 306.883 30.5283 305.275C30.0544 304.625 29.9361 303.731 29.4469 303.123Z" fill="#ffffff"/>
<path d="M107.117 305.701C105.739 307.936 102.895 308.281 100.504 308.433C95.6486 308.818 90.7091 308.16 86.1959 306.302C85.7939 306.674 86.0745 307.49 85.937 307.985C85.9113 311.854 85.5468 315.709 85.3633 319.57C85.4933 323.917 86.2516 328.222 86.9341 332.51C87.8749 337.765 90.3555 342.621 91.0146 347.942C92.3138 355.875 92.6662 363.913 93.1012 371.926C93.2988 373.238 93.1762 374.703 93.7911 375.901C94.9111 376.684 96.4179 376.304 97.691 376.242C100.566 375.883 103.553 374.891 105.59 372.748C106.809 370.982 106.65 368.685 107.014 366.655C107.57 360.56 108.797 354.55 109.296 348.449C110.231 340.223 112.231 332 111.331 323.673C110.784 317.596 109.574 311.587 107.629 305.801C107.469 305.17 107.475 305.116 107.117 305.701Z" fill="#ffffff"/>
<path d="M106.909 374.35C104.98 375.515 103.287 377.231 100.973 377.618C98.352 378.151 95.629 378.247 92.969 378.043C91.8255 377.805 91.912 376.451 91.4217 375.659C91.0234 375.635 91.0237 376.429 90.8319 376.68C89.3575 380.707 88.9083 385.318 90.5801 389.356C92.0323 391.837 95.105 393.219 95.7464 396.196C97.0113 400.617 97.233 405.609 100.323 409.274C102.376 411.584 105.613 412.204 108.533 412.614C110.748 412.766 113.34 412.75 114.925 410.928C116.64 409.136 117.45 406.652 117.907 404.265C117.874 402.014 116.826 399.915 116.093 397.824C114.828 394.538 113.184 391.419 111.356 388.417C109.325 384.725 108.733 380.514 107.815 376.463C107.55 375.819 107.557 374.737 106.909 374.35ZM105.559 380.863C106.553 380.769 106.394 382.294 105.659 382.552C103.524 383.705 101.236 384.7 98.8536 385.178C98.2669 385.397 97.2785 384.857 97.7427 384.18C99.1038 382.853 101.058 382.374 102.754 381.606C103.663 381.284 104.587 380.916 105.559 380.863ZM106.788 386.039C107.419 385.908 108.06 386.494 107.742 387.117C106.743 388.123 105.196 388.326 103.889 388.741C102.672 388.912 101.31 389.555 100.125 388.985C99.7219 388.506 99.9895 387.755 100.612 387.616C102.559 386.795 104.672 386.166 106.788 386.039ZM108.186 390.684C109.165 390.522 109.348 392.068 108.474 392.357C106.695 393.277 104.65 393.623 102.675 393.838C101.895 394.075 101.489 392.936 102.199 392.579C103.895 391.562 105.889 391.124 107.805 390.713C107.929 390.697 108.059 390.685 108.186 390.684V390.684Z" fill="#ffffff"/>
<path d="M48.3275 376.547C47.6156 377.084 47.4699 378.303 46.7795 378.732C43.4033 378.508 39.9235 378.615 36.6586 377.631C35.8623 377.243 34.7545 377.108 34.1983 377.961C32.4201 380.405 31.3031 383.263 29.8738 385.915C28.0195 389.822 25.819 393.583 24.2971 397.638C23.6255 400.001 23.757 402.506 23.7285 404.939C24.1502 407.594 25.774 410.053 27.9536 411.604C29.5015 412.532 31.4184 413.028 33.1611 412.343C35.7713 411.512 38.4244 410.429 40.4771 408.569C42.3186 406.191 43.4326 403.282 44.0694 400.362C44.9771 395.952 47.6809 392.156 48.691 387.767C49.491 385.202 49.6929 382.463 49.0823 379.834C48.8098 378.764 48.7829 377.539 48.3436 376.547H48.3303L48.3275 376.547ZM34.4856 381.578C36.9802 381.878 39.4983 382.256 41.9332 382.888C42.8086 383.001 42.6905 384.423 41.8271 384.398C39.2923 384.44 36.7114 384.049 34.3077 383.24C33.4181 383.024 33.5909 381.6 34.4856 381.578ZM35.5989 385.437C36.9332 385.543 38.4812 385.491 39.587 386.344C39.9968 386.851 39.4659 387.533 38.8522 387.336C36.8558 387.324 34.7573 387.544 32.8401 386.891C32.09 386.597 32.6654 385.504 33.3538 385.62C34.0941 385.481 34.8455 385.421 35.5989 385.437ZM32.7661 389.951C34.6438 390.059 36.5921 390.037 38.4049 390.549C38.9189 391.197 38.3315 392.434 37.4177 392.178C35.5064 392.102 33.4838 392.271 31.6699 391.576C30.9853 391.347 30.6498 390.19 31.5347 390.005C31.9391 389.934 32.3557 389.952 32.7661 389.951Z" fill="#ffffff"/>
</g>
<defs>
<clipPath id="clip0">
<rect x="0.527344" y="0.445312" width="135.013" height="414.346" fill="white"/>
</clipPath>
</defs>
</svg>
