<?xml version="1.0" encoding="UTF-8"?>
<!DOCTYPE svg PUBLIC "-//W3C//DTD SVG 1.1//EN" "http://www.w3.org/Graphics/SVG/1.1/DTD/svg11.dtd">
<!-- Creator: CorelDRAW -->
<svg xmlns="http://www.w3.org/2000/svg" xml:space="preserve" width="2.58549in" height="0.945236in" version="1.1" style="shape-rendering:geometricPrecision; text-rendering:geometricPrecision; image-rendering:optimizeQuality; fill-rule:evenodd; clip-rule:evenodd"
viewBox="0 0 27.98 10.23"
 xmlns:xlink="http://www.w3.org/1999/xlink"
 xmlns:xodm="http://www.corel.com/coreldraw/odm/2003">
 <defs>
  <style type="text/css">
   <![CDATA[
    .fil1 {fill:#FEFEFE}
    .fil2 {fill:#2B2A29}
    .fil0 {fill:#169D80}
    .fil3 {fill:#2B2A29;fill-rule:nonzero}
   ]]>
  </style>
 </defs>
 <g id="Layer_x0020_1">
  <metadata id="CorelCorpID_0Corel-Layer"/>
  <g id="_1015496032">
   <rect class="fil0" x="17.89" width="10.09" height="10.23" rx="1.26" ry="0.96"/>
   <path class="fil1" d="M22.58 0.88c1.9,0 3.44,1.52 3.48,3.4 0,0.01 0,0.01 0,0.02 0,0.22 0,0.43 0,0.65 0.26,0.44 0.45,0.78 0.7,1.22 0.12,0.17 0.08,0.31 -0.05,0.37 -0.19,0.08 -0.54,-0.03 -0.66,0.11 0,0.64 0,1.05 0,1.68 -0.03,0.54 -0.18,0.58 -0.65,0.66 -0.55,0 -1.1,0 -1.65,0l0 1.23 -3.4 0c-0.02,-1.07 -0.03,-2.15 -0.05,-3.22 0,-0 0.01,-0.01 0.01,-0.01 -0.74,-0.64 -1.21,-1.58 -1.21,-2.64 0,-1.92 1.56,-3.48 3.48,-3.48z"/>
   <polygon class="fil2" points="23.76,3.71 23.76,5.12 22.65,5.74 21.53,5.13 21.53,5.03 21.53,3.73 22.61,3.09 "/>
   <path class="fil2" d="M23.74 1.08l-0.83 0.52c-0.13,0.08 -0.32,0.08 -0.43,0.01l-0.92 -0.57c0.33,-0.1 0.67,-0.16 1.03,-0.16 0.4,0 0.79,0.07 1.15,0.2z"/>
   <path class="fil2" d="M20.26 1.77l0.05 0.98c0.01,0.15 -0.08,0.32 -0.2,0.39l-0.95 0.53c0.07,-0.34 0.19,-0.67 0.36,-0.98 0.19,-0.35 0.44,-0.66 0.73,-0.92z"/>
   <path class="fil2" d="M24.91 1.77l-0.05 0.98c-0.01,0.15 0.08,0.32 0.2,0.39l0.95 0.53c-0.07,-0.34 -0.19,-0.67 -0.36,-0.98 -0.19,-0.35 -0.44,-0.66 -0.73,-0.92z"/>
   <path class="fil2" d="M19.19 5.12l0.88 0.43c0.13,0.06 0.24,0.23 0.24,0.36l0 1.09c-0.26,-0.22 -0.49,-0.49 -0.68,-0.79 -0.21,-0.34 -0.36,-0.71 -0.45,-1.08z"/>
  </g>
  <g id="_1015498768">
   <g>
    <path class="fil3" d="M10.5 8.65c0,0.41 -0.1,0.7 -0.29,0.9 -0.19,0.19 -0.48,0.29 -0.88,0.29l-1.26 0 0 -0.84 0.99 -0.03c0.1,-0 0.17,-0.03 0.23,-0.08 0.06,-0.06 0.08,-0.13 0.08,-0.23l0 -1.99 0 -2.06 1.12 0 0 2.06c0,0.25 0.12,0.37 0.37,0.37l0.93 0c0.25,0 0.37,-0.12 0.37,-0.37l0 -0.88c0,-0.44 0.1,-0.75 0.3,-0.95 0.2,-0.2 0.51,-0.3 0.95,-0.3l1.55 0c0.44,0 0.75,0.1 0.95,0.3 0.2,0.2 0.3,0.51 0.3,0.95l0 0.88c0,0.43 -0.1,0.75 -0.3,0.95 -0.2,0.2 -0.51,0.3 -0.95,0.3l-1.55 0c-0.28,0 -0.5,-0.04 -0.68,-0.12 -0.18,0.08 -0.41,0.12 -0.68,0.12l-1.43 0c-0.04,0 -0.08,-0 -0.12,-0l0 0.75zm4.6 -2.87c0,-0.25 -0.12,-0.37 -0.37,-0.37l-1.06 0c-0.25,0 -0.37,0.12 -0.37,0.37l0 0.88c0,0.25 0.12,0.37 0.37,0.37l1.06 0c0.25,0 0.37,-0.12 0.37,-0.37l0 -0.88z"/>
    <path class="fil3" d="M1.12 5.47l-1.12 0 0 3.11c0,0.44 0.1,0.75 0.3,0.95 0.2,0.2 0.51,0.3 0.95,0.3l0.4 0 0.29 0 2.27 0c0.41,0 0.7,-0.1 0.9,-0.29 0.19,-0.19 0.29,-0.49 0.29,-0.9l0 -0.31c0,-0.41 -0.1,-0.7 -0.29,-0.9 -0.19,-0.19 -0.49,-0.29 -0.9,-0.29l-1.12 0c-0.25,0 -0.37,-0.12 -0.37,-0.37l0 -0.12c0,-0.25 0.12,-0.37 0.37,-0.37l1.75 0 0.05 0c0.25,0 0.37,0.12 0.37,0.37l-0 0c0,0.44 0.1,0.75 0.3,0.95 0.2,0.2 0.51,0.3 0.95,0.3l0.26 0 0 0 0.69 0c0.44,0 0.75,-0.1 0.95,-0.3 0.2,-0.2 0.3,-0.51 0.3,-0.95l0 -2.06 -1.12 0 0 2.06c0,0.25 -0.12,0.37 -0.37,0.37l-0.41 0 0 -0 -0.04 0c-0.25,0 -0.37,-0.12 -0.37,-0.37l0 0c0,-0.44 -0.1,-0.75 -0.3,-0.95 -0.2,-0.2 -0.51,-0.3 -0.95,-0.3l-0.12 0 -0.18 0 -2 0c-0.44,0 -0.75,0.1 -0.95,0.3 -0.2,0.2 -0.3,0.51 -0.3,0.95l0 0.19c0,0.44 0.1,0.75 0.3,0.95 0.2,0.2 0.51,0.3 0.95,0.3l1.43 0 0 0.53c0,0.1 -0.03,0.17 -0.08,0.23 -0.06,0.06 -0.13,0.08 -0.23,0.08l-2.31 0.03 -0.15 0c-0.25,0 -0.37,-0.12 -0.37,-0.37l0 -3.11z"/>
    <rect class="fil2" x="6.05" y="8.57" width="1.26" height="1.26" rx="0.33" ry="0.33"/>
   </g>
   <g>
    <path class="fil3" d="M9.67 2.81c-0.09,0.04 -0.2,0.06 -0.33,0.06l-3.27 0c-0.21,0 -0.36,-0.05 -0.46,-0.14 -0.1,-0.1 -0.14,-0.25 -0.14,-0.46l0 -1 0.54 0 0 1c0,0.12 0.06,0.18 0.18,0.18l3.03 0c0.12,0 0.18,-0.06 0.18,-0.18l0 -1 0.54 0 0 1c0,0.12 0.06,0.18 0.18,0.18l0.45 0c0.12,0 0.18,-0.06 0.18,-0.18l0 -1 0.54 0 0 1c0,0.21 -0.05,0.36 -0.14,0.46 -0.1,0.1 -0.25,0.14 -0.46,0.14l-0.69 0c-0.13,0 -0.24,-0.02 -0.33,-0.06z"/>
    <path class="fil3" d="M15.68 1.27l0.54 0 0 1c0,0.21 -0.05,0.36 -0.14,0.46 -0.1,0.1 -0.25,0.14 -0.46,0.14l-0.69 0c-0.13,0 -0.24,-0.02 -0.33,-0.06 -0.09,0.04 -0.2,0.06 -0.33,0.06l-0.69 0c-0.13,0 -0.24,-0.02 -0.33,-0.06 -0.09,0.04 -0.2,0.06 -0.33,0.06l-0.69 0c-0.21,0 -0.36,-0.05 -0.46,-0.14 -0.1,-0.1 -0.14,-0.25 -0.14,-0.46l0 -1.87 0.54 0 0 1.87c0,0.12 0.06,0.18 0.18,0.18l0.45 0c0.12,0 0.18,-0.06 0.18,-0.18l0 -1 0.54 0 0 1c0,0.12 0.06,0.18 0.18,0.18l0.45 0c0.12,0 0.18,-0.06 0.18,-0.18l0 -1 0.54 0 0 1c0,0.12 0.06,0.18 0.18,0.18l0.45 0c0.12,0 0.18,-0.06 0.18,-0.18l0 -1z"/>
    <rect class="fil2" x="10.59" y="3.19" width="0.61" height="0.61" rx="0.16" ry="0.16"/>
    <rect class="fil2" x="9.88" y="3.19" width="0.61" height="0.61" rx="0.16" ry="0.16"/>
    <rect class="fil2" x="7.68" y="1.27" width="0.61" height="0.61" rx="0.16" ry="0.16"/>
    <rect class="fil2" x="6.98" y="1.27" width="0.61" height="0.61" rx="0.16" ry="0.16"/>
   </g>
  </g>
 </g>
</svg>
